<svg width="206" height="172" viewBox="0 0 206 172" fill="none" xmlns="http://www.w3.org/2000/svg">
<path d="M87.256 171.339C135.446 171.339 174.512 160.415 174.512 146.939C174.512 133.463 135.446 122.538 87.256 122.538C39.0659 122.538 0 133.463 0 146.939C0 160.415 39.0659 171.339 87.256 171.339Z" fill="white" fill-opacity="0.04"/>
<path d="M150.404 31.785C153.163 21.9872 157.62 11.0601 165.845 4.44628C167.507 3.10978 169.798 1.42018 171.223 0.0276794C167.334 0.129634 162.784 0.548553 158.899 0.788296C149.526 1.36672 110.352 3.78441 100.138 4.41483C93.5078 4.82411 86.8771 5.23329 80.2464 5.64296C72.5047 6.12128 66.2928 14.6558 62.866 20.8193C59.001 27.7711 56.7797 35.5406 55.2966 43.3166C53.2862 53.8566 51.0306 105.06 50.5038 109.801C49.5714 118.192 46.2697 131.62 35.6169 131.711C39.8933 131.71 120.346 132.287 126.609 132.28C133.917 132.273 138.22 126.489 140.658 120.256C143.647 112.617 144.434 79.584 144.835 71.0213C145.237 62.4404 149.159 36.2051 150.404 31.785Z" fill="url(#paint0_radial_26_9698)"/>
<path d="M150.404 31.785C153.163 21.9872 157.62 11.0601 165.845 4.44628C167.507 3.10978 169.798 1.42018 171.223 0.0276794C167.334 0.129634 162.784 0.548553 158.899 0.788296C149.526 1.36672 110.352 3.78441 100.138 4.41483C93.5078 4.82411 86.8771 5.23329 80.2464 5.64296C72.5047 6.12128 66.2928 14.6558 62.866 20.8193C59.001 27.7711 56.7797 35.5406 55.2966 43.3166C53.2862 53.8566 51.0306 105.06 50.5038 109.801C49.5714 118.192 46.2697 131.62 35.6169 131.711C39.8933 131.71 120.346 132.287 126.609 132.28C133.917 132.273 138.22 126.489 140.658 120.256C143.647 112.617 144.434 79.584 144.835 71.0213C145.237 62.4404 149.159 36.2051 150.404 31.785Z" fill="url(#paint1_linear_26_9698)"/>
<path d="M124.438 138.172C120.276 137.221 117.476 134.709 115.199 131.175C113.512 128.556 112.059 125.742 111.521 122.653C110.978 119.531 111.701 117.231 114.705 115.535C111.666 115.54 24.9413 116.306 23.6408 116.318C20.9515 116.341 19.5859 119.038 19.5329 121.376C19.4796 123.727 20.2385 126.103 21.1418 128.247C22.432 131.31 24.4489 134.183 27.1293 136.182C29.4948 137.946 32.5898 138.998 35.5867 139.006C35.5867 139.006 127.223 139.245 127.233 139.246C126.098 138.946 125.43 138.398 124.438 138.172Z" fill="url(#paint2_linear_26_9698)"/>
<path d="M175.008 2.44812C174.261 0.663963 172.266 -0.569521 170.371 0.268511C166.993 1.76628 163.976 4.22584 161.305 7.3983C155.25 14.589 151.706 24.0407 149.305 33.0159C147.173 40.9874 145.926 49.2987 145.183 57.5112C144.64 63.5151 144.341 69.5492 144.127 75.5731C143.825 84.048 143.684 92.5338 143.245 101.003C142.908 107.481 142.309 114.575 139.828 120.632C136.925 127.718 125.693 137.641 120.053 126.838C118.593 124.042 118.731 120.879 117.674 117.986C117.353 117.105 116.794 116.14 115.905 115.736C113.472 114.629 111.198 117.43 110.864 119.523C110.095 124.353 112.979 130.503 116.129 134.082C118.269 136.514 121.418 138.411 124.603 139.002C127.334 139.509 130.514 139.128 133.103 138.13C139.207 135.776 143.543 130.256 146.078 124.407C148.124 119.688 149.186 114.419 149.773 109.327C151.047 98.2789 150.89 87.0913 151.284 75.9899C151.493 70.1099 151.781 64.2261 152.308 58.3651C152.992 50.7485 154.078 43.1134 155.85 35.6702C157.666 28.0417 160.415 19.6875 165.496 13.574C167.746 10.8669 170.364 8.75341 173.42 7.3946C175.411 6.50964 175.758 4.24123 175.008 2.44812Z" fill="url(#paint3_linear_26_9698)"/>
<path d="M99.3013 29.2296C96.8786 29.2296 94.8902 27.2908 94.8405 24.8572C94.7903 22.3926 96.7474 20.3538 99.212 20.3035L127.649 19.8509C130.113 19.8057 132.152 21.7579 132.202 24.2224C132.253 26.687 130.296 28.7258 127.831 28.776L99.3942 29.2287C99.3633 29.2294 99.3322 29.2296 99.3013 29.2296Z" fill="url(#paint4_linear_26_9698)"/>
<path d="M83.2016 30.5889C86.5424 30.5889 89.2506 27.8807 89.2506 24.5399C89.2506 21.1991 86.5424 18.4909 83.2016 18.4909C79.8608 18.4909 77.1526 21.1991 77.1526 24.5399C77.1526 27.8807 79.8608 30.5889 83.2016 30.5889Z" fill="url(#paint5_radial_26_9698)"/>
<path d="M76.6359 51.4382C79.9767 51.4382 82.6849 48.73 82.6849 45.3892C82.6849 42.0484 79.9767 39.3402 76.6359 39.3402C73.2951 39.3402 70.5869 42.0484 70.5869 45.3892C70.5869 48.73 73.2951 51.4382 76.6359 51.4382Z" fill="url(#paint6_radial_26_9698)"/>
<path d="M74.1347 72.2875C77.4755 72.2875 80.1837 69.5793 80.1837 66.2385C80.1837 62.8977 77.4755 60.1895 74.1347 60.1895C70.7939 60.1895 68.0857 62.8977 68.0857 66.2385C68.0857 69.5793 70.7939 72.2875 74.1347 72.2875Z" fill="url(#paint7_radial_26_9698)"/>
<path d="M73.5094 93.1368C76.8502 93.1368 79.5584 90.4285 79.5584 87.0878C79.5584 83.747 76.8502 81.0388 73.5094 81.0388C70.1687 81.0388 67.4604 83.747 67.4604 87.0878C67.4604 90.4285 70.1687 93.1368 73.5094 93.1368Z" fill="url(#paint8_radial_26_9698)"/>
<path d="M92.7352 50.0789C90.3127 50.0789 88.3245 48.1403 88.2749 45.7068C88.2245 43.2424 90.1816 41.2037 92.6461 41.1534L121.081 40.7006C123.548 40.6444 125.584 42.6074 125.635 45.0718C125.685 47.5362 123.728 49.5749 121.263 49.6251L92.8282 50.0779C92.7973 50.0786 92.7661 50.0789 92.7352 50.0789Z" fill="url(#paint9_linear_26_9698)"/>
<path d="M90.2342 70.9285C87.8116 70.9285 85.8233 68.9898 85.7737 66.5562C85.7234 64.0917 87.6805 62.053 90.145 62.0027L118.581 61.5498C121.048 61.5006 123.084 63.4567 123.134 65.9212C123.185 68.3857 121.228 70.4244 118.763 70.4747L90.3272 70.9275C90.2962 70.9282 90.2651 70.9285 90.2342 70.9285Z" fill="url(#paint10_linear_26_9698)"/>
<path d="M89.6089 91.7776C87.1863 91.7776 85.1981 89.8389 85.1484 87.4055C85.0982 84.941 87.0552 82.9023 89.5196 82.8521L111.702 82.3996C114.169 82.3387 116.205 84.3063 116.255 86.7708C116.306 89.2353 114.349 91.2739 111.884 91.3241L89.7017 91.7768C89.6708 91.7774 89.6398 91.7776 89.6089 91.7776Z" fill="url(#paint11_linear_26_9698)"/>
<path d="M91.8674 103.125L87.3783 103.328C85.7735 103.4 84.7544 101.403 85.7544 100.145L88.5198 96.6666C89.3204 95.6595 90.8931 95.8878 91.5331 97.1039L93.2566 100.38C93.9071 101.616 93.1733 103.065 91.8674 103.125Z" fill="url(#paint12_linear_26_9698)"/>
<path d="M171.409 56.8468L167.513 50.1482C165.776 47.1627 161.948 46.1503 158.963 47.8868L115.569 73.1266L102.171 80.9195L91.7831 86.9618C90.3751 87.7807 89.3422 89.1168 88.9041 90.6856L87.4216 95.9954C86.4703 99.4024 88.5319 102.919 91.9693 103.754L97.4486 105.084C99.0173 105.465 100.673 105.225 102.068 104.413L169.147 65.3963C172.133 63.6601 173.145 59.8322 171.409 56.8468Z" fill="url(#paint13_linear_26_9698)"/>
<path d="M171.409 56.8468L167.513 50.1482C165.776 47.1627 161.948 46.1503 158.963 47.8868L115.569 73.1266L102.171 80.9195L91.7831 86.9618C90.3751 87.7807 89.3422 89.1168 88.9041 90.6856L87.4216 95.9954C86.4703 99.4024 88.5319 102.919 91.9693 103.754L97.4486 105.084C99.0173 105.465 100.673 105.225 102.068 104.413L169.147 65.3963C172.133 63.6601 173.145 59.8322 171.409 56.8468Z" fill="url(#paint14_linear_26_9698)"/>
<path d="M201.301 49.3816C201.3 49.3819 158.953 74.0132 158.882 74.0546C153.774 77.0255 147.678 72.1806 145.354 68.6932C142.792 64.8509 140.844 56.3935 146.586 53.0536C146.586 53.0536 189.041 28.3592 189.065 28.3454C195.189 24.7833 202.41 30.137 204.524 34.8575C206.322 38.8729 206.355 46.4412 201.301 49.3816Z" fill="url(#paint15_linear_26_9698)"/>
<path d="M201.301 49.3816C201.3 49.3819 158.953 74.0132 158.882 74.0546C153.774 77.0255 147.678 72.1806 145.354 68.6932C142.792 64.8509 140.844 56.3935 146.586 53.0536C146.586 53.0536 189.041 28.3592 189.065 28.3454C195.189 24.7833 202.41 30.137 204.524 34.8575C206.322 38.8729 206.355 46.4412 201.301 49.3816Z" fill="url(#paint16_radial_26_9698)"/>
<path d="M148.062 46.2729C158.006 37.6205 169.552 30.3649 182.266 24.889C185.409 23.684 189.069 24.6516 190.361 26.9188C190.628 27.3725 190.896 27.8266 191.164 28.2812C192.461 30.5554 190.976 33.3697 187.928 34.6964C175.281 40.1454 163.779 47.2919 153.847 55.7616C151.453 57.8141 148.275 57.3915 146.628 54.7222C144.983 52.0558 145.572 48.2292 148.062 46.2729Z" fill="url(#paint17_radial_26_9698)"/>
<defs>
<radialGradient id="paint0_radial_26_9698" cx="0" cy="0" r="1" gradientUnits="userSpaceOnUse" gradientTransform="translate(-177.096 61.1489) scale(365.748 365.748)">
<stop offset="0.6262" stop-color="#BED8D9"/>
<stop offset="0.6284" stop-color="#C1DADB"/>
<stop offset="0.6485" stop-color="#D7E7E9"/>
<stop offset="0.6705" stop-color="#E7F1F3"/>
<stop offset="0.6955" stop-color="#F0F6F9"/>
<stop offset="0.7302" stop-color="#F3F8FB"/>
<stop offset="0.8171" stop-color="#F3F8FB"/>
<stop offset="0.8246" stop-color="#F3F8FB"/>
<stop offset="0.8491" stop-color="#EAF3F5"/>
<stop offset="0.8889" stop-color="#D2E4E6"/>
<stop offset="0.9152" stop-color="#BED8D9"/>
<stop offset="0.9464" stop-color="#B9D2D3"/>
<stop offset="0.9878" stop-color="#ABC1C4"/>
<stop offset="1" stop-color="#A6BBBE"/>
</radialGradient>
<linearGradient id="paint1_linear_26_9698" x1="103.42" y1="0.0276794" x2="103.42" y2="132.28" gradientUnits="userSpaceOnUse">
<stop stop-color="#BED8D9"/>
<stop offset="0.2142" stop-color="#F3F8FB"/>
<stop offset="0.8243" stop-color="#BED8D9"/>
<stop offset="0.9143" stop-color="#B2CACC"/>
<stop offset="0.9878" stop-color="#A6BBBE"/>
</linearGradient>
<linearGradient id="paint2_linear_26_9698" x1="73.3817" y1="110.475" x2="73.3817" y2="145.959" gradientUnits="userSpaceOnUse">
<stop stop-color="#BED8D9"/>
<stop offset="0.0269" stop-color="#C2DBDC"/>
<stop offset="0.174" stop-color="#D6E7E9"/>
<stop offset="0.2746" stop-color="#DDEBEE"/>
<stop offset="0.3967" stop-color="#D4E6E8"/>
<stop offset="0.5844" stop-color="#BED8D9"/>
<stop offset="0.695" stop-color="#AECCD1"/>
<stop offset="0.9099" stop-color="#85ACBB"/>
<stop offset="0.9983" stop-color="#729EB1"/>
</linearGradient>
<linearGradient id="paint3_linear_26_9698" x1="197.642" y1="5.95774" x2="99.5923" y2="140.97" gradientUnits="userSpaceOnUse">
<stop stop-color="#E3ECF1"/>
<stop offset="0.0365" stop-color="#D5E4E8"/>
<stop offset="0.0912" stop-color="#C8DDDF"/>
<stop offset="0.1616" stop-color="#C0D9DA"/>
<stop offset="0.3014" stop-color="#BED8D9"/>
<stop offset="0.3956" stop-color="#ABC9CF"/>
<stop offset="0.5863" stop-color="#79A3B5"/>
<stop offset="0.6111" stop-color="#729EB1"/>
<stop offset="0.6764" stop-color="#93B7C2"/>
<stop offset="0.7683" stop-color="#BED8D9"/>
<stop offset="0.8702" stop-color="#C0D9DB"/>
<stop offset="0.9269" stop-color="#C8DEE0"/>
<stop offset="0.9722" stop-color="#D6E5E9"/>
<stop offset="1" stop-color="#E3ECF1"/>
</linearGradient>
<linearGradient id="paint4_linear_26_9698" x1="113.522" y1="17.1744" x2="113.522" y2="34.1889" gradientUnits="userSpaceOnUse">
<stop offset="0.1413" stop-color="#A6BBBE"/>
<stop offset="0.1587" stop-color="#A9BEC1"/>
<stop offset="0.2752" stop-color="#B8D1D3"/>
<stop offset="0.3567" stop-color="#BED8D9"/>
<stop offset="0.4731" stop-color="#BAD3D5"/>
<stop offset="0.6036" stop-color="#AFC6C8"/>
<stop offset="0.6766" stop-color="#A6BBBE"/>
<stop offset="0.7373" stop-color="#9CAFB2"/>
<stop offset="0.8458" stop-color="#809093"/>
<stop offset="0.8983" stop-color="#717F82"/>
</linearGradient>
<radialGradient id="paint5_radial_26_9698" cx="0" cy="0" r="1" gradientUnits="userSpaceOnUse" gradientTransform="translate(82.2574 23.5001) scale(7.5497 7.54969)">
<stop stop-color="#67BF67"/>
<stop offset="1" stop-color="#48A153"/>
</radialGradient>
<radialGradient id="paint6_radial_26_9698" cx="0" cy="0" r="1" gradientUnits="userSpaceOnUse" gradientTransform="translate(75.3426 44.2403) scale(8.14429 8.14429)">
<stop stop-color="#67BF67"/>
<stop offset="1" stop-color="#48A153"/>
</radialGradient>
<radialGradient id="paint7_radial_26_9698" cx="0" cy="0" r="1" gradientUnits="userSpaceOnUse" gradientTransform="translate(72.8415 65.0896) scale(8.14432)">
<stop stop-color="#67BF67"/>
<stop offset="1" stop-color="#48A153"/>
</radialGradient>
<radialGradient id="paint8_radial_26_9698" cx="0" cy="0" r="1" gradientUnits="userSpaceOnUse" gradientTransform="translate(72.2162 85.939) scale(8.14424 8.14424)">
<stop stop-color="#67BF67"/>
<stop offset="1" stop-color="#48A153"/>
</radialGradient>
<linearGradient id="paint9_linear_26_9698" x1="106.955" y1="36.1513" x2="106.955" y2="54.9994" gradientUnits="userSpaceOnUse">
<stop offset="0.1413" stop-color="#A6BBBE"/>
<stop offset="0.1587" stop-color="#A9BEC1"/>
<stop offset="0.2752" stop-color="#B8D1D3"/>
<stop offset="0.3567" stop-color="#BED8D9"/>
<stop offset="0.4731" stop-color="#BAD3D5"/>
<stop offset="0.6036" stop-color="#AFC6C8"/>
<stop offset="0.6766" stop-color="#A6BBBE"/>
<stop offset="0.7373" stop-color="#9CAFB2"/>
<stop offset="0.8458" stop-color="#809093"/>
<stop offset="0.8983" stop-color="#717F82"/>
</linearGradient>
<linearGradient id="paint10_linear_26_9698" x1="104.454" y1="58.2696" x2="104.454" y2="74.773" gradientUnits="userSpaceOnUse">
<stop offset="0.1413" stop-color="#A6BBBE"/>
<stop offset="0.1587" stop-color="#A9BEC1"/>
<stop offset="0.2752" stop-color="#B8D1D3"/>
<stop offset="0.3567" stop-color="#BED8D9"/>
<stop offset="0.4731" stop-color="#BAD3D5"/>
<stop offset="0.6036" stop-color="#AFC6C8"/>
<stop offset="0.6766" stop-color="#A6BBBE"/>
<stop offset="0.7373" stop-color="#9CAFB2"/>
<stop offset="0.8458" stop-color="#809093"/>
<stop offset="0.8983" stop-color="#717F82"/>
</linearGradient>
<linearGradient id="paint11_linear_26_9698" x1="100.702" y1="78.0319" x2="100.702" y2="96.9461" gradientUnits="userSpaceOnUse">
<stop offset="0.1413" stop-color="#A6BBBE"/>
<stop offset="0.1587" stop-color="#A9BEC1"/>
<stop offset="0.2752" stop-color="#B8D1D3"/>
<stop offset="0.3567" stop-color="#BED8D9"/>
<stop offset="0.4731" stop-color="#BAD3D5"/>
<stop offset="0.6036" stop-color="#AFC6C8"/>
<stop offset="0.6766" stop-color="#A6BBBE"/>
<stop offset="0.7373" stop-color="#9CAFB2"/>
<stop offset="0.8458" stop-color="#809093"/>
<stop offset="0.8983" stop-color="#717F82"/>
</linearGradient>
<linearGradient id="paint12_linear_26_9698" x1="87.724" y1="98.3383" x2="90.6055" y2="102.926" gradientUnits="userSpaceOnUse">
<stop stop-color="#E8C7FC"/>
<stop offset="0.3172" stop-color="#CF8AFF"/>
<stop offset="1" stop-color="#9A6CF0"/>
</linearGradient>
<linearGradient id="paint13_linear_26_9698" x1="122.73" y1="66.9901" x2="135.642" y2="88.7271" gradientUnits="userSpaceOnUse">
<stop stop-color="#8856ED"/>
<stop offset="0.1001" stop-color="#8D5DEE"/>
<stop offset="0.3853" stop-color="#9A6CF0"/>
<stop offset="0.4946" stop-color="#9262EF"/>
<stop offset="0.6777" stop-color="#7E49EA"/>
<stop offset="0.8778" stop-color="#6125E5"/>
</linearGradient>
<linearGradient id="paint14_linear_26_9698" x1="82.6679" y1="103.805" x2="151.808" y2="63.8433" gradientUnits="userSpaceOnUse">
<stop offset="0.0768" stop-color="#CF8AFF"/>
<stop offset="0.0872" stop-color="#C584FC"/>
<stop offset="0.1159" stop-color="#AD77F5"/>
<stop offset="0.1427" stop-color="#9F6FF1"/>
<stop offset="0.1656" stop-color="#9A6CF0"/>
<stop offset="0.5485" stop-color="#9667EF"/>
<stop offset="0.6561" stop-color="#9363EE"/>
<stop offset="0.7703" stop-color="#8856EC"/>
<stop offset="0.8869" stop-color="#7741E9"/>
<stop offset="1" stop-color="#6125E5"/>
</linearGradient>
<linearGradient id="paint15_linear_26_9698" x1="167.486" y1="39.4126" x2="183.961" y2="66.6013" gradientUnits="userSpaceOnUse">
<stop offset="0.0383" stop-color="#6125E5"/>
<stop offset="0.0596" stop-color="#692FE7"/>
<stop offset="0.1292" stop-color="#7E4AEB"/>
<stop offset="0.2001" stop-color="#8E5DEE"/>
<stop offset="0.2725" stop-color="#9768EF"/>
<stop offset="0.3485" stop-color="#9A6CF0"/>
<stop offset="0.5212" stop-color="#8957ED"/>
<stop offset="0.8469" stop-color="#6125E5"/>
</linearGradient>
<radialGradient id="paint16_radial_26_9698" cx="0" cy="0" r="1" gradientUnits="userSpaceOnUse" gradientTransform="translate(202.996 32.1604) rotate(-38.843) scale(72.7582)">
<stop stop-color="#6125E5"/>
<stop offset="0.0509" stop-color="#6429E6"/>
<stop offset="0.1043" stop-color="#6F36E8"/>
<stop offset="0.1589" stop-color="#7F4BEB"/>
<stop offset="0.214" stop-color="#9768EF"/>
<stop offset="0.2205" stop-color="#9A6CF0"/>
<stop offset="0.8475" stop-color="#9667EF"/>
<stop offset="0.8727" stop-color="#A570F3"/>
<stop offset="0.9338" stop-color="#C383FC"/>
<stop offset="0.968" stop-color="#CF8AFF"/>
</radialGradient>
<radialGradient id="paint17_radial_26_9698" cx="0" cy="0" r="1" gradientUnits="userSpaceOnUse" gradientTransform="translate(224.204 129.541) rotate(138.514) scale(114.355)">
<stop offset="0.8211" stop-color="#6125E5"/>
<stop offset="0.8391" stop-color="#6529E6"/>
<stop offset="0.8572" stop-color="#7134E9"/>
<stop offset="0.8753" stop-color="#8546EE"/>
<stop offset="0.8935" stop-color="#A260F4"/>
<stop offset="0.9116" stop-color="#C681FD"/>
<stop offset="0.9158" stop-color="#CF8AFF"/>
<stop offset="0.9511" stop-color="#B77DF8"/>
<stop offset="1" stop-color="#9A6CF0"/>
</radialGradient>
</defs>
</svg>
