<svg width="1902" height="411" viewBox="0 0 1902 411" fill="none" xmlns="http://www.w3.org/2000/svg">
<path d="M287 141.426C178.2 127.026 111 180.76 91 209.426V231.426H1863V201.426C1859 149.426 1737 166 1719 153.426C1699.5 139.805 1623 111.426 1585 101.426C1530.6 79.0263 1337 110.76 1247 129.426C1189.4 139.026 1172.33 164.093 1171 175.426L1115 153.426C724.6 -118.574 400.333 32.093 287 141.426Z" fill="#F1F0F7"/>
<path d="M194.925 136.512C155.547 159.831 48.5673 159.183 0 155.944V411H1902V153.515H1742.52C1644.07 72.8371 1483.27 96.8362 1409.76 124.366C1338.88 147.685 1273.91 134.082 1250.28 124.366C1132.14 52.4646 955.594 94.4071 882.087 124.366C853.734 136.026 811.205 129.224 793.484 124.366C694.25 -44.6995 511.925 44.2057 433.168 109.791C417.416 127.281 380.663 126.795 364.255 124.366C321.725 99.1033 233.648 121.937 194.925 136.512Z" fill="#CED7FA"/>
</svg>
