<svg width="406" height="388" viewBox="0 0 406 388" fill="none" xmlns="http://www.w3.org/2000/svg">
<g opacity="0.4">
<path d="M364.4 59.1839C339.52 2.45391 279.8 -18.9061 232.68 19.1839C214.28 34.0439 202.8 57.6939 180.27 67.1839C159.13 76.0839 132.35 73.4639 109.49 78.2839C60.8098 88.4839 -4.73017 127.184 0.269831 186.814C2.45983 212.934 20.0798 241.944 28.7898 266.384C38.7898 294.504 44.7898 329.684 71.2598 346.494C116.64 375.354 171.38 351.764 212.26 328.494C234.26 315.984 246.37 308.294 270.06 312.584C291.99 316.584 311.74 330.584 333.17 313.974C349.26 301.504 350.59 276.234 364.1 261.394C379.32 244.674 394.75 243.464 402.66 218.334C412.25 187.844 398.12 168.794 388.57 141.554C379.02 114.314 376.12 85.8739 364.4 59.1839Z" fill="white"/>
</g>
<path d="M291.24 18.0439H135.81C125.079 18.0439 116.38 26.7431 116.38 37.4739V365.614C116.38 376.345 125.079 385.044 135.81 385.044H291.24C301.971 385.044 310.67 376.345 310.67 365.614V37.4739C310.67 26.7431 301.971 18.0439 291.24 18.0439Z" fill="#263238"/>
<path d="M302.03 58.344H125.01V344.744H302.03V58.344Z" fill="white" stroke="#263238" stroke-width="1.33739" stroke-miterlimit="10"/>
<path d="M240.656 174.316C255.641 159.331 255.641 135.037 240.656 120.052C225.672 105.068 201.377 105.068 186.393 120.052C171.409 135.037 171.408 159.331 186.393 174.316C201.377 189.3 225.672 189.3 240.656 174.316Z" fill="#6F89F0"/>
<path d="M263.9 326.734H163.16C162.933 326.736 162.708 326.692 162.498 326.606C162.289 326.52 162.098 326.394 161.937 326.234C161.776 326.074 161.649 325.884 161.562 325.675C161.475 325.465 161.43 325.241 161.43 325.014C161.428 324.787 161.472 324.561 161.559 324.351C161.645 324.14 161.773 323.949 161.933 323.788C162.094 323.627 162.286 323.5 162.496 323.413C162.707 323.327 162.932 323.283 163.16 323.284H263.9C264.126 323.284 264.351 323.329 264.56 323.416C264.77 323.503 264.96 323.631 265.119 323.792C265.279 323.952 265.406 324.143 265.492 324.353C265.578 324.563 265.621 324.787 265.62 325.014C265.62 325.47 265.438 325.908 265.116 326.23C264.793 326.553 264.356 326.734 263.9 326.734Z" fill="#0F1838"/>
<path d="M267.18 207.124H159.87C157.655 207.124 155.86 208.919 155.86 211.134V223.784C155.86 225.999 157.655 227.794 159.87 227.794H267.18C269.395 227.794 271.19 225.999 271.19 223.784V211.134C271.19 208.919 269.395 207.124 267.18 207.124Z" fill="#0F1838"/>
<path d="M267.18 245.784H159.87C157.655 245.784 155.86 247.579 155.86 249.794V262.444C155.86 264.659 157.655 266.454 159.87 266.454H267.18C269.395 266.454 271.19 264.659 271.19 262.444V249.794C271.19 247.579 269.395 245.784 267.18 245.784Z" fill="#0F1838"/>
<path d="M232.63 166.324L221.34 159.824V154.454C222.975 152.476 224.159 150.166 224.81 147.684C225.199 147.822 225.608 147.893 226.02 147.894C227.42 147.894 228.31 143.554 228.46 140.454C230.09 137.004 227.87 134.984 227.87 134.984C227.87 134.984 228.79 134.064 229.4 130.374C230.01 126.684 227.25 128.224 225.1 124.844C222.95 121.464 221.41 117.784 214.35 117.784C212.405 117.72 210.485 118.243 208.841 119.284C207.197 120.326 205.904 121.838 205.13 123.624C203.373 123.63 201.622 123.835 199.91 124.234C197.75 124.844 197.14 131.914 198.98 134.684C199.804 136.198 200.243 137.891 200.26 139.614C199.77 139.014 199.26 138.854 198.98 140.214C198.37 143.284 200.83 147.584 200.83 147.584L202.1 147.224C202.74 149.876 203.974 152.349 205.71 154.454V159.824L194.42 166.324C193.102 167.085 192.007 168.18 191.245 169.498C190.483 170.816 190.081 172.311 190.08 173.834V177.554C196.795 182.741 205.04 185.555 213.525 185.555C222.01 185.555 230.255 182.741 236.97 177.554V173.834C236.971 172.311 236.57 170.815 235.808 169.496C235.046 168.178 233.95 167.084 232.63 166.324Z" fill="#263238"/>
<path d="M170.47 261.314C170.211 261.31 169.963 261.206 169.78 261.024C169.681 260.936 169.603 260.828 169.549 260.707C169.496 260.587 169.469 260.456 169.47 260.324C169.473 260.144 169.525 259.967 169.62 259.814L171.42 256.934L167.91 257.044C167.777 257.052 167.645 257.033 167.521 256.986C167.397 256.94 167.284 256.867 167.19 256.774C167.027 256.591 166.937 256.354 166.937 256.109C166.937 255.864 167.027 255.627 167.19 255.444C167.282 255.347 167.394 255.272 167.518 255.224C167.643 255.175 167.776 255.155 167.91 255.164L171.37 255.294L169.59 252.424C169.493 252.268 169.441 252.088 169.44 251.904C169.439 251.772 169.466 251.641 169.519 251.521C169.573 251.4 169.651 251.292 169.75 251.204C169.933 251.022 170.181 250.918 170.44 250.914C170.61 250.915 170.777 250.965 170.92 251.057C171.063 251.149 171.178 251.28 171.25 251.434L172.96 254.524L174.65 251.454C174.73 251.29 174.853 251.151 175.007 251.053C175.16 250.954 175.337 250.899 175.52 250.894C175.646 250.895 175.771 250.922 175.886 250.973C176.002 251.025 176.105 251.1 176.19 251.194C176.373 251.384 176.474 251.64 176.47 251.904C176.469 252.076 176.424 252.245 176.34 252.394L174.53 255.294L178.04 255.164C178.173 255.155 178.306 255.175 178.431 255.224C178.555 255.272 178.668 255.347 178.76 255.444C178.93 255.621 179.024 255.858 179.02 256.104C179.019 256.352 178.926 256.591 178.76 256.774C178.665 256.867 178.553 256.94 178.429 256.986C178.304 257.033 178.172 257.052 178.04 257.044L174.51 256.934L176.27 259.784C176.368 259.943 176.42 260.127 176.42 260.314C176.42 260.579 176.314 260.834 176.127 261.021C175.939 261.209 175.685 261.314 175.42 261.314C175.248 261.312 175.081 261.259 174.939 261.164C174.797 261.068 174.686 260.932 174.62 260.774L172.95 257.774L171.29 260.774C171.216 260.931 171.101 261.064 170.956 261.16C170.811 261.255 170.643 261.308 170.47 261.314Z" fill="#6F89F0"/>
<path d="M186.69 261.314C186.431 261.31 186.184 261.206 186 261.024C185.902 260.936 185.823 260.828 185.77 260.707C185.716 260.587 185.689 260.456 185.69 260.324C185.693 260.144 185.745 259.967 185.84 259.814L187.64 256.934L184.14 257.044C184.006 257.05 183.873 257.029 183.748 256.983C183.622 256.937 183.507 256.866 183.41 256.774C183.277 256.637 183.189 256.463 183.156 256.276C183.123 256.088 183.148 255.894 183.227 255.721C183.306 255.547 183.435 255.401 183.598 255.302C183.761 255.202 183.949 255.154 184.14 255.164L187.59 255.294L185.81 252.424C185.713 252.268 185.661 252.088 185.66 251.904C185.659 251.772 185.686 251.641 185.74 251.521C185.793 251.4 185.872 251.292 185.97 251.204C186.154 251.022 186.401 250.918 186.66 250.914C186.83 250.915 186.997 250.965 187.14 251.057C187.284 251.149 187.398 251.28 187.47 251.434L189.18 254.524L190.87 251.454C190.95 251.29 191.074 251.152 191.227 251.053C191.38 250.954 191.558 250.899 191.74 250.894C191.867 250.894 191.992 250.92 192.107 250.972C192.223 251.023 192.326 251.099 192.41 251.194C192.503 251.288 192.576 251.398 192.626 251.52C192.675 251.642 192.701 251.772 192.7 251.904C192.696 252.077 192.648 252.246 192.56 252.394L190.75 255.294L194.27 255.184C194.402 255.175 194.534 255.196 194.656 255.244C194.779 255.293 194.89 255.368 194.98 255.464C195.15 255.641 195.244 255.878 195.24 256.124C195.239 256.372 195.147 256.611 194.98 256.794C194.888 256.887 194.777 256.959 194.654 257.006C194.532 257.052 194.401 257.072 194.27 257.064L190.73 256.954L192.49 259.804C192.589 259.963 192.641 260.147 192.64 260.334C192.64 260.599 192.535 260.854 192.347 261.041C192.16 261.229 191.905 261.334 191.64 261.334C191.468 261.332 191.301 261.279 191.159 261.184C191.017 261.088 190.906 260.952 190.84 260.794L189.17 257.794L187.51 260.794C187.434 260.947 187.317 261.076 187.172 261.168C187.028 261.26 186.861 261.31 186.69 261.314Z" fill="#6F89F0"/>
<path d="M202.92 261.314C202.658 261.313 202.406 261.209 202.22 261.024C202.122 260.936 202.043 260.828 201.99 260.707C201.936 260.587 201.909 260.456 201.91 260.324C201.913 260.144 201.965 259.967 202.06 259.814L203.86 256.934L200.36 257.044C200.171 257.052 199.985 257.003 199.824 256.904C199.664 256.805 199.536 256.661 199.458 256.489C199.379 256.318 199.354 256.126 199.385 255.94C199.415 255.754 199.501 255.581 199.63 255.444C199.724 255.348 199.839 255.273 199.964 255.225C200.09 255.176 200.225 255.156 200.36 255.164L203.81 255.294L202.03 252.424C201.933 252.268 201.881 252.088 201.88 251.904C201.883 251.773 201.912 251.643 201.965 251.523C202.019 251.403 202.095 251.295 202.19 251.204C202.376 251.019 202.628 250.915 202.89 250.914C203.059 250.917 203.223 250.967 203.365 251.059C203.506 251.151 203.619 251.281 203.69 251.434L205.4 254.524L207.09 251.454C207.17 251.29 207.294 251.152 207.447 251.053C207.6 250.954 207.778 250.899 207.96 250.894C208.087 250.894 208.212 250.92 208.327 250.972C208.443 251.023 208.546 251.099 208.63 251.194C208.723 251.288 208.796 251.398 208.846 251.52C208.896 251.642 208.921 251.772 208.92 251.904C208.916 252.077 208.868 252.246 208.78 252.394L206.97 255.294L210.49 255.164C210.619 255.151 210.75 255.166 210.873 255.208C210.996 255.25 211.109 255.317 211.204 255.406C211.299 255.496 211.373 255.604 211.423 255.724C211.472 255.845 211.495 255.974 211.49 256.104C211.492 256.351 211.403 256.589 211.24 256.774C211.146 256.867 211.033 256.94 210.909 256.986C210.785 257.033 210.652 257.052 210.52 257.044L206.99 256.934L208.74 259.784C208.839 259.943 208.891 260.127 208.89 260.314C208.887 260.445 208.858 260.575 208.805 260.695C208.751 260.815 208.675 260.923 208.58 261.014C208.493 261.108 208.388 261.183 208.271 261.234C208.154 261.286 208.028 261.313 207.9 261.314C207.73 261.311 207.564 261.258 207.424 261.162C207.284 261.066 207.174 260.931 207.11 260.774L205.43 257.774L203.77 260.774C203.695 260.936 203.575 261.073 203.424 261.169C203.274 261.265 203.099 261.315 202.92 261.314Z" fill="#6F89F0"/>
<path d="M219.14 261.314C218.877 261.313 218.626 261.209 218.44 261.024C218.251 260.839 218.144 260.588 218.14 260.324C218.137 260.144 218.185 259.967 218.28 259.814L220.08 256.934L216.58 257.044C216.446 257.05 216.313 257.029 216.188 256.983C216.062 256.937 215.947 256.866 215.85 256.774C215.687 256.591 215.597 256.354 215.597 256.109C215.597 255.864 215.687 255.627 215.85 255.444C215.946 255.351 216.061 255.278 216.186 255.23C216.312 255.182 216.446 255.159 216.58 255.164L220.04 255.294L218.27 252.424C218.173 252.268 218.121 252.088 218.12 251.904C218.123 251.773 218.152 251.643 218.205 251.523C218.258 251.403 218.335 251.295 218.43 251.204C218.616 251.019 218.867 250.915 219.13 250.914C219.3 250.915 219.467 250.965 219.61 251.057C219.754 251.149 219.868 251.28 219.94 251.434L221.64 254.524L223.33 251.454C223.41 251.29 223.533 251.152 223.687 251.053C223.84 250.954 224.018 250.899 224.2 250.894C224.326 250.894 224.452 250.92 224.567 250.972C224.683 251.023 224.786 251.099 224.87 251.194C224.963 251.288 225.036 251.398 225.086 251.52C225.135 251.642 225.161 251.772 225.16 251.904C225.156 252.077 225.108 252.246 225.02 252.394L223.21 255.294L226.73 255.164C226.859 255.151 226.99 255.166 227.113 255.208C227.236 255.25 227.349 255.317 227.444 255.406C227.539 255.496 227.613 255.604 227.662 255.724C227.712 255.845 227.735 255.974 227.73 256.104C227.732 256.351 227.643 256.589 227.48 256.774C227.386 256.867 227.273 256.94 227.149 256.986C227.025 257.033 226.892 257.052 226.76 257.044L223.23 256.934L224.98 259.784C225.078 259.943 225.13 260.127 225.13 260.314C225.131 260.446 225.104 260.577 225.05 260.697C224.997 260.818 224.918 260.926 224.82 261.014C224.733 261.108 224.628 261.183 224.511 261.234C224.394 261.286 224.268 261.313 224.14 261.314C223.97 261.311 223.804 261.258 223.664 261.162C223.524 261.066 223.414 260.931 223.35 260.774L221.67 257.774L220.01 260.774C219.934 260.939 219.811 261.079 219.656 261.175C219.501 261.271 219.322 261.319 219.14 261.314Z" fill="#6F89F0"/>
<path d="M235.36 261.314C235.098 261.313 234.846 261.209 234.66 261.024C234.505 260.867 234.406 260.663 234.379 260.445C234.352 260.226 234.398 260.004 234.51 259.814L236.3 256.934L232.8 257.044C232.666 257.05 232.533 257.029 232.408 256.983C232.282 256.937 232.167 256.866 232.07 256.774C231.907 256.591 231.817 256.354 231.817 256.109C231.817 255.864 231.907 255.627 232.07 255.444C232.167 255.351 232.281 255.278 232.407 255.23C232.532 255.182 232.666 255.159 232.8 255.164L236.26 255.294L234.48 252.424C234.383 252.268 234.331 252.088 234.33 251.904C234.334 251.64 234.442 251.389 234.63 251.204C234.816 251.019 235.068 250.915 235.33 250.914C235.5 250.915 235.667 250.965 235.81 251.057C235.954 251.149 236.068 251.28 236.14 251.434L237.84 254.524L239.53 251.454C239.61 251.29 239.734 251.152 239.887 251.053C240.04 250.954 240.218 250.899 240.4 250.894C240.528 250.893 240.655 250.92 240.772 250.971C240.889 251.023 240.994 251.099 241.08 251.194C241.264 251.384 241.364 251.64 241.36 251.904C241.356 252.077 241.308 252.246 241.22 252.394L239.41 255.294L242.93 255.164C243.059 255.151 243.19 255.166 243.313 255.208C243.436 255.25 243.549 255.317 243.644 255.406C243.739 255.496 243.813 255.604 243.863 255.724C243.912 255.845 243.935 255.974 243.93 256.104C243.932 256.351 243.843 256.589 243.68 256.774C243.586 256.867 243.473 256.94 243.349 256.986C243.225 257.033 243.092 257.052 242.96 257.044L239.43 256.934L241.18 259.784C241.279 259.943 241.331 260.127 241.33 260.314C241.331 260.446 241.304 260.577 241.25 260.697C241.197 260.818 241.118 260.926 241.02 261.014C240.933 261.108 240.828 261.183 240.711 261.234C240.594 261.286 240.468 261.313 240.34 261.314C240.17 261.311 240.005 261.258 239.864 261.162C239.724 261.066 239.615 260.931 239.55 260.774L237.87 257.774L236.21 260.774C236.135 260.936 236.015 261.073 235.864 261.169C235.714 261.265 235.539 261.315 235.36 261.314Z" fill="#6F89F0"/>
<path d="M251.58 261.314C251.321 261.31 251.074 261.206 250.89 261.024C250.792 260.936 250.713 260.828 250.66 260.707C250.606 260.587 250.579 260.456 250.58 260.324C250.583 260.144 250.635 259.967 250.73 259.814L252.52 256.934L249.02 257.044C248.891 257.054 248.762 257.037 248.64 256.994C248.519 256.951 248.407 256.883 248.313 256.794C248.219 256.706 248.144 256.599 248.094 256.48C248.043 256.361 248.018 256.233 248.02 256.104C248.019 255.982 248.043 255.86 248.089 255.747C248.136 255.634 248.204 255.531 248.29 255.444C248.382 255.347 248.494 255.272 248.619 255.224C248.743 255.175 248.877 255.155 249.01 255.164L252.47 255.294L250.69 252.424C250.593 252.268 250.541 252.088 250.54 251.904C250.544 251.64 250.652 251.389 250.84 251.204C251.026 251.019 251.278 250.915 251.54 250.914C251.71 250.915 251.877 250.965 252.02 251.057C252.164 251.149 252.278 251.28 252.35 251.434L254.05 254.524L255.75 251.454C255.829 251.292 255.951 251.154 256.103 251.055C256.254 250.957 256.43 250.901 256.61 250.894C256.738 250.893 256.865 250.92 256.982 250.971C257.099 251.023 257.204 251.099 257.29 251.194C257.474 251.384 257.574 251.64 257.57 251.904C257.57 252.076 257.525 252.245 257.44 252.394L255.63 255.294L259.14 255.164C259.273 255.155 259.407 255.175 259.531 255.224C259.656 255.272 259.768 255.347 259.86 255.444C260.031 255.621 260.124 255.858 260.12 256.104C260.119 256.352 260.027 256.591 259.86 256.774C259.766 256.867 259.653 256.94 259.529 256.986C259.405 257.033 259.272 257.052 259.14 257.044L255.61 256.934L257.36 259.784C257.459 259.943 257.511 260.127 257.51 260.314C257.506 260.578 257.399 260.829 257.21 261.014C257.028 261.2 256.78 261.308 256.52 261.314C256.35 261.311 256.185 261.258 256.044 261.162C255.904 261.066 255.795 260.931 255.73 260.774L254.05 257.774L252.39 260.774C252.318 260.93 252.204 261.063 252.061 261.159C251.918 261.254 251.752 261.308 251.58 261.314Z" fill="#6F89F0"/>
<g style="mix-blend-mode:multiply">
<path d="M302.03 58.724H125.01V69.814H302.03V58.724Z" fill="#0F1838"/>
</g>
<path d="M232.77 38.294H194.27C193.575 38.294 192.909 38.0179 192.417 37.5266C191.926 37.0352 191.65 36.3688 191.65 35.674C191.65 34.9791 191.926 34.3127 192.417 33.8213C192.909 33.33 193.575 33.054 194.27 33.054H232.77C233.465 33.054 234.131 33.33 234.623 33.8213C235.114 34.3127 235.39 34.9791 235.39 35.674C235.39 36.3688 235.114 37.0352 234.623 37.5266C234.131 38.0179 233.465 38.294 232.77 38.294Z" fill="#0F1838" stroke="#263238" stroke-width="1.33739" stroke-linecap="round" stroke-linejoin="round"/>
<path d="M224.02 360.924C224.022 358.846 223.408 356.815 222.255 355.087C221.102 353.359 219.462 352.011 217.543 351.215C215.624 350.419 213.512 350.211 211.474 350.615C209.436 351.02 207.564 352.02 206.095 353.489C204.626 354.959 203.626 356.83 203.221 358.868C202.816 360.906 203.025 363.018 203.821 364.937C204.617 366.856 205.965 368.496 207.693 369.649C209.421 370.802 211.452 371.416 213.53 371.414C216.311 371.411 218.978 370.305 220.945 368.339C222.911 366.372 224.017 363.705 224.02 360.924Z" fill="#0F1838"/>
<path d="M218.85 355.604H208.21V366.244H218.85V355.604Z" fill="#0F1838" stroke="#263238" stroke-width="1.33739" stroke-linecap="round" stroke-linejoin="round"/>
<path d="M340.27 240.184C340.27 240.184 326.33 204.764 338.74 200.554C351.66 196.164 351.09 219.554 350.59 230.954C349.54 255.314 346.85 259.844 344.84 253.894L340.27 240.184ZM336.08 267.814C339.91 272.814 340.99 267.634 334.08 244.244C330.84 233.244 323.8 210.994 313 219.344C302.63 227.344 327.31 256.344 327.31 256.344L336.08 267.814ZM328.68 288.114C332.33 291.354 332.4 287.264 323.73 270.374C319.66 262.464 311.05 246.454 304 254.374C297.23 262.014 320.3 280.584 320.3 280.584L328.68 288.114ZM320.68 312.254C324.33 315.504 324.4 311.404 315.73 294.524C311.66 286.614 303.05 270.594 296 278.524C289.27 286.184 312.27 304.754 312.27 304.754L320.68 312.254ZM343.78 263.114C337.94 265.394 342.58 267.874 366.97 267.804C378.41 267.804 401.77 267.284 396.79 254.574C392.02 242.364 357.28 257.914 357.28 257.914L343.78 263.114ZM337.13 279.354C330.95 280.424 335.01 283.784 358.93 288.564C370.14 290.814 393.13 294.964 390.78 281.564C388.53 268.644 351.39 276.984 351.39 276.984L337.13 279.354ZM329.69 299.184C324.43 299.944 327.79 302.874 347.9 307.474C357.33 309.634 376.68 313.684 375 302.254C373.4 291.254 341.8 297.474 341.8 297.474L329.69 299.184ZM324.04 317.554C318.89 318.864 322.54 321.424 343.04 323.864C352.64 325.004 372.31 326.984 369.44 315.794C366.67 305.054 335.91 314.564 335.91 314.564L324.04 317.554ZM354.18 243.184C351.18 249.904 357.41 248.884 378.59 230.404C388.51 221.734 408.41 203.594 392.65 194.564C377.52 185.884 361.25 227.764 361.25 227.764L354.18 243.184ZM324.82 341.484C321.65 343.334 324.76 344.054 339.3 341.154C346.12 339.804 359.99 336.804 355.3 330.884C350.76 325.184 332.16 337.184 332.16 337.184L324.82 341.484Z" fill="#0F1838"/>
<path opacity="0.3" d="M340.27 240.184C340.27 240.184 326.33 204.764 338.74 200.554C351.66 196.164 351.09 219.554 350.59 230.954C349.54 255.314 346.85 259.844 344.84 253.894L340.27 240.184ZM336.08 267.814C339.91 272.814 340.99 267.634 334.08 244.244C330.84 233.244 323.8 210.994 313 219.344C302.63 227.344 327.31 256.344 327.31 256.344L336.08 267.814ZM328.68 288.114C332.33 291.354 332.4 287.264 323.73 270.374C319.66 262.464 311.05 246.454 304 254.374C297.23 262.014 320.3 280.584 320.3 280.584L328.68 288.114ZM320.68 312.254C324.33 315.504 324.4 311.404 315.73 294.524C311.66 286.614 303.05 270.594 296 278.524C289.27 286.184 312.27 304.754 312.27 304.754L320.68 312.254ZM343.78 263.114C337.94 265.394 342.58 267.874 366.97 267.804C378.41 267.804 401.77 267.284 396.79 254.574C392.02 242.364 357.28 257.914 357.28 257.914L343.78 263.114ZM337.13 279.354C330.95 280.424 335.01 283.784 358.93 288.564C370.14 290.814 393.13 294.964 390.78 281.564C388.53 268.644 351.39 276.984 351.39 276.984L337.13 279.354ZM329.69 299.184C324.43 299.944 327.79 302.874 347.9 307.474C357.33 309.634 376.68 313.684 375 302.254C373.4 291.254 341.8 297.474 341.8 297.474L329.69 299.184ZM324.04 317.554C318.89 318.864 322.54 321.424 343.04 323.864C352.64 325.004 372.31 326.984 369.44 315.794C366.67 305.054 335.91 314.564 335.91 314.564L324.04 317.554ZM354.18 243.184C351.18 249.904 357.41 248.884 378.59 230.404C388.51 221.734 408.41 203.594 392.65 194.564C377.52 185.884 361.25 227.764 361.25 227.764L354.18 243.184ZM324.82 341.484C321.65 343.334 324.76 344.054 339.3 341.154C346.12 339.804 359.99 336.804 355.3 330.884C350.76 325.184 332.16 337.184 332.16 337.184L324.82 341.484Z" fill="white"/>
<path d="M346.42 256.674L343.99 216.244L346.42 256.674ZM338.73 270.014L323.37 235.244L338.73 270.014ZM378.37 259.904L341.56 265.184L378.37 259.904ZM330.77 288.754L310.84 263.184L330.77 288.754ZM334.27 280.914L361.73 282.294L334.27 280.914ZM327.77 300.524L348.77 302.604L327.77 300.524ZM322.7 312.984L312.27 297.294L322.7 312.984ZM321.5 318.524L346.19 318.754L321.5 318.524ZM316.5 364.844C316.665 364.831 316.819 364.754 316.927 364.628C317.036 364.503 317.091 364.34 317.08 364.174C315.51 340.594 324.63 301.974 339.26 270.274C348.61 250.014 385.26 210.194 385.65 209.794C385.768 209.676 385.834 209.516 385.834 209.349C385.834 209.182 385.768 209.022 385.65 208.904C385.592 208.846 385.524 208.8 385.448 208.769C385.373 208.737 385.292 208.721 385.21 208.721C385.128 208.721 385.047 208.737 384.971 208.769C384.896 208.8 384.827 208.846 384.77 208.904C384.4 209.304 347.6 249.274 338.17 269.714C323.27 302.184 314.27 340.104 315.87 364.254C315.882 364.413 315.954 364.562 316.07 364.671C316.187 364.78 316.34 364.842 316.5 364.844ZM346.41 257.294C346.575 257.284 346.73 257.209 346.84 257.085C346.951 256.962 347.008 256.8 347 256.634L344.61 216.184C344.606 216.102 344.586 216.021 344.55 215.947C344.515 215.872 344.465 215.806 344.404 215.751C344.342 215.696 344.27 215.654 344.192 215.627C344.115 215.6 344.032 215.589 343.95 215.594C343.784 215.604 343.63 215.68 343.519 215.803C343.409 215.927 343.352 216.089 343.36 216.254L345.79 256.684C345.797 256.843 345.866 256.993 345.982 257.103C346.097 257.213 346.25 257.274 346.41 257.274V257.294ZM338.95 270.584C339.1 270.516 339.217 270.393 339.277 270.239C339.337 270.086 339.334 269.916 339.27 269.764L323.9 234.994C323.833 234.843 323.71 234.724 323.556 234.664C323.402 234.604 323.231 234.608 323.08 234.674C322.929 234.74 322.81 234.864 322.75 235.018C322.69 235.172 322.693 235.343 322.76 235.494L338.12 270.264C338.168 270.376 338.247 270.471 338.349 270.538C338.45 270.606 338.568 270.643 338.69 270.644C338.793 270.65 338.896 270.629 338.99 270.584H338.95ZM341.61 265.784L378.4 260.524C378.489 260.522 378.576 260.502 378.656 260.464C378.737 260.426 378.808 260.371 378.866 260.303C378.923 260.236 378.966 260.157 378.991 260.072C379.016 259.986 379.023 259.897 379.011 259.809C378.999 259.721 378.968 259.636 378.921 259.561C378.874 259.485 378.812 259.421 378.738 259.371C378.664 259.322 378.581 259.288 378.493 259.273C378.406 259.258 378.316 259.262 378.23 259.284L341.44 264.544C341.275 264.555 341.122 264.63 341.013 264.754C340.904 264.878 340.849 265.04 340.86 265.204C340.87 265.369 340.946 265.522 341.07 265.631C341.193 265.74 341.355 265.795 341.52 265.784H341.61ZM331.12 289.254C331.25 289.152 331.335 289.002 331.356 288.837C331.376 288.672 331.331 288.506 331.23 288.374L311.29 262.754C311.188 262.622 311.037 262.535 310.871 262.513C310.705 262.492 310.537 262.537 310.405 262.639C310.272 262.741 310.186 262.892 310.164 263.058C310.142 263.224 310.188 263.392 310.29 263.524L330.27 289.184C330.328 289.259 330.402 289.319 330.487 289.361C330.572 289.403 330.665 289.424 330.76 289.424C330.909 289.417 331.051 289.356 331.16 289.254H331.12ZM362.28 282.324C362.285 282.159 362.225 281.998 362.113 281.876C362.001 281.754 361.845 281.682 361.68 281.674L334.27 280.284C334.116 280.295 333.971 280.362 333.863 280.472C333.755 280.582 333.691 280.728 333.684 280.882C333.676 281.037 333.726 281.188 333.823 281.308C333.92 281.429 334.057 281.509 334.21 281.534L361.67 282.924C361.835 282.93 361.996 282.87 362.118 282.757C362.239 282.645 362.312 282.49 362.32 282.324H362.28ZM349.35 302.664C349.359 302.582 349.353 302.499 349.329 302.419C349.306 302.339 349.268 302.265 349.215 302.201C349.163 302.137 349.099 302.083 349.026 302.044C348.952 302.005 348.872 301.982 348.79 301.974L327.79 299.904C327.708 299.896 327.626 299.904 327.548 299.928C327.469 299.951 327.396 299.99 327.333 300.042C327.27 300.094 327.218 300.159 327.179 300.231C327.141 300.303 327.117 300.383 327.11 300.464C327.096 300.628 327.146 300.791 327.251 300.918C327.356 301.045 327.506 301.126 327.67 301.144L348.67 303.224H348.73C348.891 303.235 349.05 303.183 349.174 303.078C349.297 302.974 349.374 302.825 349.39 302.664H349.35ZM323 313.504C323.139 313.412 323.235 313.269 323.269 313.106C323.303 312.943 323.271 312.774 323.18 312.634L312.8 296.944C312.705 296.809 312.561 296.716 312.399 296.684C312.237 296.652 312.069 296.685 311.93 296.774C311.791 296.866 311.694 297.009 311.66 297.172C311.627 297.335 311.659 297.505 311.75 297.644L322.13 313.334C322.189 313.42 322.268 313.49 322.361 313.539C322.453 313.588 322.555 313.613 322.66 313.614C322.795 313.621 322.929 313.583 323.04 313.504H323ZM346.82 318.754C346.817 318.59 346.751 318.432 346.636 318.315C346.521 318.198 346.364 318.129 346.2 318.124L321.51 317.894C321.345 317.894 321.188 317.959 321.071 318.076C320.955 318.192 320.89 318.35 320.89 318.514C320.887 318.597 320.901 318.679 320.931 318.756C320.961 318.833 321.007 318.903 321.065 318.962C321.123 319.021 321.192 319.068 321.269 319.099C321.345 319.13 321.427 319.146 321.51 319.144L346.2 319.374C346.284 319.378 346.368 319.365 346.448 319.336C346.527 319.307 346.6 319.262 346.661 319.204C346.723 319.146 346.772 319.077 346.806 318.999C346.84 318.922 346.859 318.839 346.86 318.754H346.82ZM313.69 355.674C313.74 355.564 317.95 343.964 330.61 341.194C330.773 341.158 330.915 341.059 331.005 340.918C331.095 340.778 331.125 340.607 331.09 340.444C331.049 340.284 330.949 340.146 330.809 340.059C330.669 339.971 330.501 339.941 330.34 339.974C316.99 342.894 312.56 355.144 312.51 355.264C312.458 355.422 312.47 355.594 312.543 355.743C312.616 355.892 312.744 356.007 312.9 356.064H313.1C313.233 356.076 313.366 356.044 313.479 355.974C313.593 355.903 313.681 355.798 313.73 355.674H313.69ZM316.5 364.844C316.665 364.831 316.819 364.754 316.927 364.628C317.036 364.503 317.091 364.34 317.08 364.174C315.51 340.594 324.63 301.974 339.26 270.274C348.61 250.014 385.26 210.194 385.65 209.794C385.768 209.676 385.834 209.516 385.834 209.349C385.834 209.182 385.768 209.022 385.65 208.904C385.592 208.846 385.524 208.8 385.448 208.769C385.373 208.737 385.292 208.721 385.21 208.721C385.128 208.721 385.047 208.737 384.971 208.769C384.896 208.8 384.827 208.846 384.77 208.904C384.4 209.304 347.6 249.274 338.17 269.714C323.27 302.184 314.27 340.104 315.87 364.254C315.882 364.413 315.954 364.562 316.07 364.671C316.187 364.78 316.34 364.842 316.5 364.844ZM346.41 257.294C346.575 257.284 346.73 257.209 346.84 257.085C346.951 256.962 347.008 256.8 347 256.634L344.61 216.184C344.606 216.102 344.586 216.021 344.55 215.947C344.515 215.872 344.465 215.806 344.404 215.751C344.342 215.696 344.27 215.654 344.192 215.627C344.115 215.6 344.032 215.589 343.95 215.594C343.784 215.604 343.63 215.68 343.519 215.803C343.409 215.927 343.352 216.089 343.36 216.254L345.79 256.684C345.797 256.843 345.866 256.993 345.982 257.103C346.097 257.213 346.25 257.274 346.41 257.274V257.294ZM338.95 270.584C339.1 270.516 339.217 270.393 339.277 270.239C339.337 270.086 339.334 269.916 339.27 269.764L323.9 234.994C323.833 234.843 323.71 234.724 323.556 234.664C323.402 234.604 323.231 234.608 323.08 234.674C322.929 234.74 322.81 234.864 322.75 235.018C322.69 235.172 322.693 235.343 322.76 235.494L338.12 270.264C338.168 270.376 338.247 270.471 338.349 270.538C338.45 270.606 338.568 270.643 338.69 270.644C338.793 270.65 338.896 270.629 338.99 270.584H338.95ZM341.61 265.784L378.4 260.524C378.489 260.522 378.576 260.502 378.656 260.464C378.737 260.426 378.808 260.371 378.866 260.303C378.923 260.236 378.966 260.157 378.991 260.072C379.016 259.986 379.023 259.897 379.011 259.809C378.999 259.721 378.968 259.636 378.921 259.561C378.874 259.485 378.812 259.421 378.738 259.371C378.664 259.322 378.581 259.288 378.493 259.273C378.406 259.258 378.316 259.262 378.23 259.284L341.44 264.544C341.275 264.555 341.122 264.63 341.013 264.754C340.904 264.878 340.849 265.04 340.86 265.204C340.87 265.369 340.946 265.522 341.07 265.631C341.193 265.74 341.355 265.795 341.52 265.784H341.61ZM331.12 289.254C331.25 289.152 331.335 289.002 331.356 288.837C331.376 288.672 331.331 288.506 331.23 288.374L311.29 262.754C311.239 262.688 311.176 262.633 311.104 262.592C311.033 262.551 310.953 262.524 310.871 262.513C310.789 262.503 310.705 262.508 310.625 262.53C310.545 262.551 310.47 262.589 310.405 262.639C310.339 262.69 310.284 262.753 310.243 262.825C310.201 262.896 310.175 262.976 310.164 263.058C310.153 263.14 310.159 263.223 310.18 263.303C310.202 263.384 310.239 263.458 310.29 263.524L330.27 289.184C330.328 289.259 330.402 289.319 330.487 289.361C330.572 289.403 330.665 289.424 330.76 289.424C330.909 289.417 331.051 289.356 331.16 289.254H331.12ZM362.28 282.324C362.285 282.159 362.225 281.998 362.113 281.876C362.001 281.754 361.845 281.682 361.68 281.674L334.27 280.284C334.116 280.295 333.971 280.362 333.863 280.472C333.755 280.582 333.691 280.728 333.684 280.882C333.676 281.037 333.726 281.188 333.823 281.308C333.92 281.429 334.057 281.509 334.21 281.534L361.67 282.924C361.835 282.93 361.996 282.87 362.118 282.757C362.239 282.645 362.312 282.49 362.32 282.324H362.28ZM349.35 302.664C349.359 302.582 349.353 302.499 349.329 302.419C349.306 302.339 349.268 302.265 349.215 302.201C349.163 302.137 349.099 302.083 349.026 302.044C348.952 302.005 348.872 301.982 348.79 301.974L327.79 299.904C327.708 299.896 327.626 299.904 327.548 299.928C327.469 299.951 327.396 299.99 327.333 300.042C327.27 300.094 327.218 300.159 327.179 300.231C327.141 300.303 327.117 300.383 327.11 300.464C327.096 300.628 327.146 300.791 327.251 300.918C327.356 301.045 327.506 301.126 327.67 301.144L348.67 303.224H348.73C348.891 303.235 349.05 303.183 349.174 303.078C349.297 302.974 349.374 302.825 349.39 302.664H349.35ZM323 313.504C323.139 313.412 323.235 313.269 323.269 313.106C323.303 312.943 323.271 312.774 323.18 312.634L312.8 296.944C312.705 296.809 312.561 296.716 312.399 296.684C312.237 296.652 312.069 296.685 311.93 296.774C311.791 296.866 311.694 297.009 311.66 297.172C311.627 297.335 311.659 297.505 311.75 297.644L322.13 313.334C322.189 313.42 322.268 313.49 322.361 313.539C322.453 313.588 322.555 313.613 322.66 313.614C322.795 313.621 322.929 313.583 323.04 313.504H323ZM346.82 318.754C346.817 318.59 346.751 318.432 346.636 318.315C346.521 318.198 346.364 318.129 346.2 318.124L321.51 317.894C321.345 317.894 321.188 317.959 321.071 318.076C320.955 318.192 320.89 318.35 320.89 318.514C320.887 318.597 320.901 318.679 320.931 318.756C320.961 318.833 321.007 318.903 321.065 318.962C321.123 319.021 321.192 319.068 321.269 319.099C321.345 319.13 321.427 319.146 321.51 319.144L346.2 319.374C346.284 319.378 346.368 319.365 346.448 319.336C346.527 319.307 346.6 319.262 346.661 319.204C346.723 319.146 346.772 319.077 346.806 318.999C346.84 318.922 346.859 318.839 346.86 318.754H346.82ZM313.69 355.674C313.74 355.564 317.95 343.964 330.61 341.194C330.773 341.158 330.915 341.059 331.005 340.918C331.095 340.778 331.125 340.607 331.09 340.444C331.049 340.284 330.949 340.146 330.809 340.059C330.669 339.971 330.501 339.941 330.34 339.974C316.99 342.894 312.56 355.144 312.51 355.264C312.458 355.422 312.47 355.594 312.543 355.743C312.616 355.892 312.744 356.007 312.9 356.064H313.1C313.233 356.076 313.366 356.044 313.479 355.974C313.593 355.903 313.681 355.798 313.73 355.674H313.69Z" fill="#0F1838"/>
<path opacity="0.2" d="M346.42 256.674L343.99 216.244L346.42 256.674ZM338.73 270.014L323.37 235.244L338.73 270.014ZM378.37 259.904L341.56 265.184L378.37 259.904ZM330.77 288.754L310.84 263.184L330.77 288.754ZM334.27 280.914L361.73 282.294L334.27 280.914ZM327.77 300.524L348.77 302.604L327.77 300.524ZM322.7 312.984L312.27 297.294L322.7 312.984ZM321.5 318.524L346.19 318.754L321.5 318.524ZM316.5 364.844C316.665 364.831 316.819 364.754 316.927 364.628C317.036 364.503 317.091 364.34 317.08 364.174C315.51 340.594 324.63 301.974 339.26 270.274C348.61 250.014 385.26 210.194 385.65 209.794C385.768 209.676 385.834 209.516 385.834 209.349C385.834 209.182 385.768 209.022 385.65 208.904C385.592 208.846 385.524 208.8 385.448 208.769C385.373 208.737 385.292 208.721 385.21 208.721C385.128 208.721 385.047 208.737 384.971 208.769C384.896 208.8 384.827 208.846 384.77 208.904C384.4 209.304 347.6 249.274 338.17 269.714C323.27 302.184 314.27 340.104 315.87 364.254C315.882 364.413 315.954 364.562 316.07 364.671C316.187 364.78 316.34 364.842 316.5 364.844ZM346.41 257.294C346.575 257.284 346.73 257.209 346.84 257.085C346.951 256.962 347.008 256.8 347 256.634L344.61 216.184C344.606 216.102 344.586 216.021 344.55 215.947C344.515 215.872 344.465 215.806 344.404 215.751C344.342 215.696 344.27 215.654 344.192 215.627C344.115 215.6 344.032 215.589 343.95 215.594C343.784 215.604 343.63 215.68 343.519 215.803C343.409 215.927 343.352 216.089 343.36 216.254L345.79 256.684C345.797 256.843 345.866 256.993 345.982 257.103C346.097 257.213 346.25 257.274 346.41 257.274V257.294ZM338.95 270.584C339.1 270.516 339.217 270.393 339.277 270.239C339.337 270.086 339.334 269.916 339.27 269.764L323.9 234.994C323.833 234.843 323.71 234.724 323.556 234.664C323.402 234.604 323.231 234.608 323.08 234.674C322.929 234.74 322.81 234.864 322.75 235.018C322.69 235.172 322.693 235.343 322.76 235.494L338.12 270.264C338.168 270.376 338.247 270.471 338.349 270.538C338.45 270.606 338.568 270.643 338.69 270.644C338.793 270.65 338.896 270.629 338.99 270.584H338.95ZM341.61 265.784L378.4 260.524C378.489 260.522 378.576 260.502 378.656 260.464C378.737 260.426 378.808 260.371 378.866 260.303C378.923 260.236 378.966 260.157 378.991 260.072C379.016 259.986 379.023 259.897 379.011 259.809C378.999 259.721 378.968 259.636 378.921 259.561C378.874 259.485 378.812 259.421 378.738 259.371C378.664 259.322 378.581 259.288 378.493 259.273C378.406 259.258 378.316 259.262 378.23 259.284L341.44 264.544C341.275 264.555 341.122 264.63 341.013 264.754C340.904 264.878 340.849 265.04 340.86 265.204C340.87 265.369 340.946 265.522 341.07 265.631C341.193 265.74 341.355 265.795 341.52 265.784H341.61ZM331.12 289.254C331.25 289.152 331.335 289.002 331.356 288.837C331.376 288.672 331.331 288.506 331.23 288.374L311.29 262.754C311.188 262.622 311.037 262.535 310.871 262.513C310.705 262.492 310.537 262.537 310.405 262.639C310.272 262.741 310.186 262.892 310.164 263.058C310.142 263.224 310.188 263.392 310.29 263.524L330.27 289.184C330.328 289.259 330.402 289.319 330.487 289.361C330.572 289.403 330.665 289.424 330.76 289.424C330.909 289.417 331.051 289.356 331.16 289.254H331.12ZM362.28 282.324C362.285 282.159 362.225 281.998 362.113 281.876C362.001 281.754 361.845 281.682 361.68 281.674L334.27 280.284C334.116 280.295 333.971 280.362 333.863 280.472C333.755 280.582 333.691 280.728 333.684 280.882C333.676 281.037 333.726 281.188 333.823 281.308C333.92 281.429 334.057 281.509 334.21 281.534L361.67 282.924C361.835 282.93 361.996 282.87 362.118 282.757C362.239 282.645 362.312 282.49 362.32 282.324H362.28ZM349.35 302.664C349.359 302.582 349.353 302.499 349.329 302.419C349.306 302.339 349.268 302.265 349.215 302.201C349.163 302.137 349.099 302.083 349.026 302.044C348.952 302.005 348.872 301.982 348.79 301.974L327.79 299.904C327.708 299.896 327.626 299.904 327.548 299.928C327.469 299.951 327.396 299.99 327.333 300.042C327.27 300.094 327.218 300.159 327.179 300.231C327.141 300.303 327.117 300.383 327.11 300.464C327.096 300.628 327.146 300.791 327.251 300.918C327.356 301.045 327.506 301.126 327.67 301.144L348.67 303.224H348.73C348.891 303.235 349.05 303.183 349.174 303.078C349.297 302.974 349.374 302.825 349.39 302.664H349.35ZM323 313.504C323.139 313.412 323.235 313.269 323.269 313.106C323.303 312.943 323.271 312.774 323.18 312.634L312.8 296.944C312.705 296.809 312.561 296.716 312.399 296.684C312.237 296.652 312.069 296.685 311.93 296.774C311.791 296.866 311.694 297.009 311.66 297.172C311.627 297.335 311.659 297.505 311.75 297.644L322.13 313.334C322.189 313.42 322.268 313.49 322.361 313.539C322.453 313.588 322.555 313.613 322.66 313.614C322.795 313.621 322.929 313.583 323.04 313.504H323ZM346.82 318.754C346.817 318.59 346.751 318.432 346.636 318.315C346.521 318.198 346.364 318.129 346.2 318.124L321.51 317.894C321.345 317.894 321.188 317.959 321.071 318.076C320.955 318.192 320.89 318.35 320.89 318.514C320.887 318.597 320.901 318.679 320.931 318.756C320.961 318.833 321.007 318.903 321.065 318.962C321.123 319.021 321.192 319.068 321.269 319.099C321.345 319.13 321.427 319.146 321.51 319.144L346.2 319.374C346.284 319.378 346.368 319.365 346.448 319.336C346.527 319.307 346.6 319.262 346.661 319.204C346.723 319.146 346.772 319.077 346.806 318.999C346.84 318.922 346.859 318.839 346.86 318.754H346.82ZM313.69 355.674C313.74 355.564 317.95 343.964 330.61 341.194C330.773 341.158 330.915 341.059 331.005 340.918C331.095 340.778 331.125 340.607 331.09 340.444C331.049 340.284 330.949 340.146 330.809 340.059C330.669 339.971 330.501 339.941 330.34 339.974C316.99 342.894 312.56 355.144 312.51 355.264C312.458 355.422 312.47 355.594 312.543 355.743C312.616 355.892 312.744 356.007 312.9 356.064H313.1C313.233 356.076 313.366 356.044 313.479 355.974C313.593 355.903 313.681 355.798 313.73 355.674H313.69ZM316.5 364.844C316.665 364.831 316.819 364.754 316.927 364.628C317.036 364.503 317.091 364.34 317.08 364.174C315.51 340.594 324.63 301.974 339.26 270.274C348.61 250.014 385.26 210.194 385.65 209.794C385.768 209.676 385.834 209.516 385.834 209.349C385.834 209.182 385.768 209.022 385.65 208.904C385.592 208.846 385.524 208.8 385.448 208.769C385.373 208.737 385.292 208.721 385.21 208.721C385.128 208.721 385.047 208.737 384.971 208.769C384.896 208.8 384.827 208.846 384.77 208.904C384.4 209.304 347.6 249.274 338.17 269.714C323.27 302.184 314.27 340.104 315.87 364.254C315.882 364.413 315.954 364.562 316.07 364.671C316.187 364.78 316.34 364.842 316.5 364.844ZM346.41 257.294C346.575 257.284 346.73 257.209 346.84 257.085C346.951 256.962 347.008 256.8 347 256.634L344.61 216.184C344.606 216.102 344.586 216.021 344.55 215.947C344.515 215.872 344.465 215.806 344.404 215.751C344.342 215.696 344.27 215.654 344.192 215.627C344.115 215.6 344.032 215.589 343.95 215.594C343.784 215.604 343.63 215.68 343.519 215.803C343.409 215.927 343.352 216.089 343.36 216.254L345.79 256.684C345.797 256.843 345.866 256.993 345.982 257.103C346.097 257.213 346.25 257.274 346.41 257.274V257.294ZM338.95 270.584C339.1 270.516 339.217 270.393 339.277 270.239C339.337 270.086 339.334 269.916 339.27 269.764L323.9 234.994C323.833 234.843 323.71 234.724 323.556 234.664C323.402 234.604 323.231 234.608 323.08 234.674C322.929 234.74 322.81 234.864 322.75 235.018C322.69 235.172 322.693 235.343 322.76 235.494L338.12 270.264C338.168 270.376 338.247 270.471 338.349 270.538C338.45 270.606 338.568 270.643 338.69 270.644C338.793 270.65 338.896 270.629 338.99 270.584H338.95ZM341.61 265.784L378.4 260.524C378.489 260.522 378.576 260.502 378.656 260.464C378.737 260.426 378.808 260.371 378.866 260.303C378.923 260.236 378.966 260.157 378.991 260.072C379.016 259.986 379.023 259.897 379.011 259.809C378.999 259.721 378.968 259.636 378.921 259.561C378.874 259.485 378.812 259.421 378.738 259.371C378.664 259.322 378.581 259.288 378.493 259.273C378.406 259.258 378.316 259.262 378.23 259.284L341.44 264.544C341.275 264.555 341.122 264.63 341.013 264.754C340.904 264.878 340.849 265.04 340.86 265.204C340.87 265.369 340.946 265.522 341.07 265.631C341.193 265.74 341.355 265.795 341.52 265.784H341.61ZM331.12 289.254C331.25 289.152 331.335 289.002 331.356 288.837C331.376 288.672 331.331 288.506 331.23 288.374L311.29 262.754C311.239 262.688 311.176 262.633 311.104 262.592C311.033 262.551 310.953 262.524 310.871 262.513C310.789 262.503 310.705 262.508 310.625 262.53C310.545 262.551 310.47 262.589 310.405 262.639C310.339 262.69 310.284 262.753 310.243 262.825C310.201 262.896 310.175 262.976 310.164 263.058C310.153 263.14 310.159 263.223 310.18 263.303C310.202 263.384 310.239 263.458 310.29 263.524L330.27 289.184C330.328 289.259 330.402 289.319 330.487 289.361C330.572 289.403 330.665 289.424 330.76 289.424C330.909 289.417 331.051 289.356 331.16 289.254H331.12ZM362.28 282.324C362.285 282.159 362.225 281.998 362.113 281.876C362.001 281.754 361.845 281.682 361.68 281.674L334.27 280.284C334.116 280.295 333.971 280.362 333.863 280.472C333.755 280.582 333.691 280.728 333.684 280.882C333.676 281.037 333.726 281.188 333.823 281.308C333.92 281.429 334.057 281.509 334.21 281.534L361.67 282.924C361.835 282.93 361.996 282.87 362.118 282.757C362.239 282.645 362.312 282.49 362.32 282.324H362.28ZM349.35 302.664C349.359 302.582 349.353 302.499 349.329 302.419C349.306 302.339 349.268 302.265 349.215 302.201C349.163 302.137 349.099 302.083 349.026 302.044C348.952 302.005 348.872 301.982 348.79 301.974L327.79 299.904C327.708 299.896 327.626 299.904 327.548 299.928C327.469 299.951 327.396 299.99 327.333 300.042C327.27 300.094 327.218 300.159 327.179 300.231C327.141 300.303 327.117 300.383 327.11 300.464C327.096 300.628 327.146 300.791 327.251 300.918C327.356 301.045 327.506 301.126 327.67 301.144L348.67 303.224H348.73C348.891 303.235 349.05 303.183 349.174 303.078C349.297 302.974 349.374 302.825 349.39 302.664H349.35ZM323 313.504C323.139 313.412 323.235 313.269 323.269 313.106C323.303 312.943 323.271 312.774 323.18 312.634L312.8 296.944C312.705 296.809 312.561 296.716 312.399 296.684C312.237 296.652 312.069 296.685 311.93 296.774C311.791 296.866 311.694 297.009 311.66 297.172C311.627 297.335 311.659 297.505 311.75 297.644L322.13 313.334C322.189 313.42 322.268 313.49 322.361 313.539C322.453 313.588 322.555 313.613 322.66 313.614C322.795 313.621 322.929 313.583 323.04 313.504H323ZM346.82 318.754C346.817 318.59 346.751 318.432 346.636 318.315C346.521 318.198 346.364 318.129 346.2 318.124L321.51 317.894C321.345 317.894 321.188 317.959 321.071 318.076C320.955 318.192 320.89 318.35 320.89 318.514C320.887 318.597 320.901 318.679 320.931 318.756C320.961 318.833 321.007 318.903 321.065 318.962C321.123 319.021 321.192 319.068 321.269 319.099C321.345 319.13 321.427 319.146 321.51 319.144L346.2 319.374C346.284 319.378 346.368 319.365 346.448 319.336C346.527 319.307 346.6 319.262 346.661 319.204C346.723 319.146 346.772 319.077 346.806 318.999C346.84 318.922 346.859 318.839 346.86 318.754H346.82ZM313.69 355.674C313.74 355.564 317.95 343.964 330.61 341.194C330.773 341.158 330.915 341.059 331.005 340.918C331.095 340.778 331.125 340.607 331.09 340.444C331.049 340.284 330.949 340.146 330.809 340.059C330.669 339.971 330.501 339.941 330.34 339.974C316.99 342.894 312.56 355.144 312.51 355.264C312.458 355.422 312.47 355.594 312.543 355.743C312.616 355.892 312.744 356.007 312.9 356.064H313.1C313.233 356.076 313.366 356.044 313.479 355.974C313.593 355.903 313.681 355.798 313.73 355.674H313.69Z" fill="black"/>
<path d="M332.83 347.214H304.52V353.074H306.99L312.1 385.044H325.25L330.36 353.074H332.83V347.214Z" fill="#0F1838"/>
<path opacity="0.3" d="M332.83 347.214H304.52V353.074H306.99L312.1 385.044H325.25L330.36 353.074H332.83V347.214Z" fill="white"/>
<path d="M77.9498 170.014L45.0198 159.264L42.0898 151.524L35.3998 151.314L23.2598 149.014L24.7198 151.524L39.9998 162.614L43.7698 164.494L78.2098 182.484L77.9498 170.014Z" fill="white" stroke="#263238" stroke-width="1.00396" stroke-miterlimit="10"/>
<path d="M42.0897 151.524L38.9497 149.644L32.6797 151.944L33.7197 153.194L42.0897 151.524Z" fill="white" stroke="#263238" stroke-width="1.00396" stroke-linejoin="round"/>
<path d="M77.9498 170.014L45.0198 159.264L42.0898 151.524L35.3998 151.314L23.2598 149.014L24.7198 151.524L39.9998 162.614L43.7698 164.494L78.2098 182.484L77.9498 170.014Z" fill="white"/>
<mask id="mask0_26_10253" style="mask-type:luminance" maskUnits="userSpaceOnUse" x="23" y="149" width="56" height="34">
<path d="M77.9498 170.014L45.0198 159.264L42.0898 151.524L35.3998 151.314L23.2598 149.014L24.7198 151.524L39.9998 162.614L43.7698 164.494L78.2098 182.484L77.9498 170.014Z" fill="white"/>
</mask>
<g mask="url(#mask0_26_10253)">
<path opacity="0.5" d="M77.9498 170.014L45.0198 159.264L42.0898 151.524L35.3998 151.314L23.2598 149.014L24.7198 151.524L39.9998 162.614L43.7698 164.494L78.2098 182.484L77.9498 170.014Z" fill="#0F1838" stroke="#263238" stroke-width="1.00396" stroke-miterlimit="10"/>
</g>
<path d="M77.9498 170.014L45.0198 159.264L42.0898 151.524L35.3998 151.314L23.2598 149.014L24.7198 151.524L39.9998 162.614L43.7698 164.494L78.2098 182.484L77.9498 170.014Z" stroke="#263238" stroke-width="1.00396" stroke-miterlimit="10"/>
<path d="M42.0897 151.524L38.9497 149.644L32.6797 151.944L33.7197 153.194L42.0897 151.524Z" fill="white"/>
<mask id="mask1_26_10253" style="mask-type:luminance" maskUnits="userSpaceOnUse" x="32" y="149" width="11" height="5">
<path d="M42.0897 151.524L38.9497 149.644L32.6797 151.944L33.7197 153.194L42.0897 151.524Z" fill="white"/>
</mask>
<g mask="url(#mask1_26_10253)">
<path opacity="0.5" d="M42.0897 151.524L38.9497 149.644L32.6797 151.944L33.7197 153.194L42.0897 151.524Z" fill="#0F1838" stroke="#263238" stroke-width="1.00396" stroke-linejoin="round"/>
</g>
<path d="M42.0897 151.524L38.9497 149.644L32.6797 151.944L33.7197 153.194L42.0897 151.524Z" stroke="#263238" stroke-width="1.00396" stroke-linejoin="round"/>
<path d="M84.9398 100.244C84.9398 100.244 84.4298 104.744 85.6998 107.634C86.9698 110.524 94.0198 120.314 94.0198 120.314L80.8598 130.864C80.8598 130.864 75.3998 119.864 74.3598 118.084C73.3198 116.304 72.0698 108.644 75.4598 103.154C78.8498 97.664 83.7298 96.184 84.9398 100.244Z" fill="white"/>
<mask id="mask2_26_10253" style="mask-type:luminance" maskUnits="userSpaceOnUse" x="73" y="97" width="22" height="34">
<path d="M84.9398 100.244C84.9398 100.244 84.4298 104.744 85.6998 107.634C86.9698 110.524 94.0198 120.314 94.0198 120.314L80.8598 130.864C80.8598 130.864 75.3998 119.864 74.3598 118.084C73.3198 116.304 72.0698 108.644 75.4598 103.154C78.8498 97.664 83.7298 96.184 84.9398 100.244Z" fill="white"/>
</mask>
<g mask="url(#mask2_26_10253)">
<g style="mix-blend-mode:multiply" opacity="0.5">
<path d="M78.1799 114.704L83.8899 126.544L80.8499 130.874L75.1099 120.624L78.1799 114.704Z" fill="#0F1838"/>
</g>
</g>
<path d="M84.9398 100.244C84.9398 100.244 84.4298 104.744 85.6998 107.634C86.9698 110.524 94.0198 120.314 94.0198 120.314L80.8598 130.864C80.8598 130.864 75.3998 119.864 74.3598 118.084C73.3198 116.304 72.0698 108.644 75.4598 103.154C78.8498 97.664 83.7298 96.184 84.9398 100.244Z" stroke="#263238" stroke-width="1.00396" stroke-miterlimit="10"/>
<path d="M89.0196 92.004C88.2096 87.004 82.4796 76.834 73.3896 77.224C67.4896 77.484 64.7296 78.674 62.1696 80.124C60.0829 81.3535 58.1378 82.8089 56.3696 84.464C51.9296 89.794 50.3696 91.254 51.2296 95.334C51.1591 96.9614 51.4141 98.5865 51.9796 100.114C53.3396 103.744 54.2696 106.114 55.4496 107.844C55.0896 109.534 54.1496 113.994 54.0996 115.014C54.0496 116.034 57.0996 115.324 58.6396 114.934C61.4996 121.334 66.7396 125.774 68.3696 126.284C71.2096 127.174 75.6996 122.504 78.0796 118.884C80.4596 115.264 78.6596 111.194 78.6696 109.574C78.6796 107.954 84.0196 104.394 85.9996 103.264C87.9796 102.134 89.8196 96.994 89.0196 92.004Z" fill="white"/>
<mask id="mask3_26_10253" style="mask-type:luminance" maskUnits="userSpaceOnUse" x="51" y="77" width="39" height="50">
<path d="M89.0196 92.004C88.2096 87.004 82.4796 76.834 73.3896 77.224C67.4896 77.484 64.7296 78.674 62.1696 80.124C60.0829 81.3535 58.1378 82.8089 56.3696 84.464C51.9296 89.794 50.3696 91.254 51.2296 95.334C51.1591 96.9614 51.4141 98.5865 51.9796 100.114C53.3396 103.744 54.2696 106.114 55.4496 107.844C55.0896 109.534 54.1496 113.994 54.0996 115.014C54.0496 116.034 57.0996 115.324 58.6396 114.934C61.4996 121.334 66.7396 125.774 68.3696 126.284C71.2096 127.174 75.6996 122.504 78.0796 118.884C80.4596 115.264 78.6596 111.194 78.6696 109.574C78.6796 107.954 84.0196 104.394 85.9996 103.264C87.9796 102.134 89.8196 96.994 89.0196 92.004Z" fill="white"/>
</mask>
<g mask="url(#mask3_26_10253)">
<g style="mix-blend-mode:multiply" opacity="0.5">
<path d="M51.2695 95.3341C51.1989 96.9614 51.4539 98.5865 52.0195 100.114C53.3795 103.744 54.3095 106.114 55.4895 107.844C55.1295 109.534 54.1895 113.994 54.1395 115.014C54.0895 116.034 57.1395 115.324 58.6795 114.934C61.5395 121.334 66.7795 125.774 68.4095 126.284C71.2495 127.174 75.7395 122.504 78.1195 118.884C78.7141 117.98 79.1001 116.956 79.2495 115.884C79.1195 115.414 79.0295 115.124 79.0295 115.124C79.0295 115.124 77.6895 120.274 75.0295 119.604C72.3695 118.934 68.2995 113.604 66.0295 111.764C63.7595 109.924 64.6895 107.504 64.2395 104.764C63.7895 102.024 57.0695 99.6141 56.6195 98.0441C56.1695 96.4741 57.7395 89.9741 57.7395 89.9741C57.7395 89.9741 60.2895 86.5741 59.7395 87.9741C59.3508 89.188 59.2097 90.4676 59.3248 91.737C59.4399 93.0065 59.8088 94.2399 60.4095 95.3641C60.831 96.2511 61.4997 96.9976 62.3352 97.5138C63.1708 98.03 64.1376 98.294 65.1195 98.2741L67.5595 86.1841L62.4095 81.9241L56.4095 84.4241C51.9295 89.7941 50.3995 91.2541 51.2695 95.3341Z" fill="#0F1838"/>
</g>
</g>
<path d="M89.0196 92.004C88.2096 87.004 82.4796 76.834 73.3896 77.224C67.4896 77.484 64.7296 78.674 62.1696 80.124C60.0829 81.3535 58.1378 82.8089 56.3696 84.464C51.9296 89.794 50.3696 91.254 51.2296 95.334C51.1591 96.9614 51.4141 98.5865 51.9796 100.114C53.3396 103.744 54.2696 106.114 55.4496 107.844C55.0896 109.534 54.1496 113.994 54.0996 115.014C54.0496 116.034 57.0996 115.324 58.6396 114.934C61.4996 121.334 66.7396 125.774 68.3696 126.284C71.2096 127.174 75.6996 122.504 78.0796 118.884C80.4596 115.264 78.6596 111.194 78.6696 109.574C78.6796 107.954 84.0196 104.394 85.9996 103.264C87.9796 102.134 89.8196 96.994 89.0196 92.004Z" stroke="#263238" stroke-miterlimit="10"/>
<path d="M56.6899 104.824L57.6899 107.684C57.6899 107.684 59.8399 108.394 62.4599 105.534" stroke="#263238" stroke-miterlimit="10" stroke-linecap="round"/>
<path d="M64.0796 118.184C64.0796 118.184 66.4596 117.944 67.4196 114.604" stroke="#263238" stroke-miterlimit="10" stroke-linecap="round"/>
<path d="M55.02 102.434C55.02 102.434 55.73 100.284 60.02 100.284" stroke="#263238" stroke-miterlimit="10" stroke-linecap="round"/>
<path d="M77.0097 73.244C73.8924 72.7957 70.7488 72.5552 67.5997 72.524C67.5997 72.524 58.1797 67.094 49.1297 72.884C40.0797 78.674 44.4297 88.814 44.4297 91.344C44.4297 93.874 41.5297 93.884 43.3397 97.144C45.1497 100.404 51.2697 98.604 51.2697 98.604C51.3343 97.3744 51.6593 96.1726 52.223 95.0779C52.7867 93.9833 53.5763 93.0208 54.5397 92.254C57.7997 89.724 60.3997 89.174 61.4797 89.904C61.4797 89.904 60.7597 95.334 61.8397 97.504C61.8397 97.504 65.4597 99.314 66.5497 99.314C67.6397 99.314 65.8397 100.844 69.4497 102.204C70.1074 102.44 70.8109 102.521 71.5049 102.439C72.199 102.358 72.8646 102.116 73.4497 101.734C73.9797 99.534 75.1397 96.224 77.2997 96.994C80.4697 98.124 83.3597 105.924 79.0697 108.584C84.2297 109.524 90.4797 100.394 90.8497 92.074C91.2197 83.754 82.3697 74.184 77.0097 73.244Z" fill="#263238"/>
<path d="M61.6396 86.334C61.6396 86.334 64.2996 84.904 67.5596 87.964C70.8196 91.024 77.1596 95.114 85.5596 92.864" stroke="white" stroke-width="0.5" stroke-linecap="round" stroke-linejoin="round"/>
<path d="M61.27 83.8839C61.27 83.8839 63.1 81.0239 66.16 81.0239C69.22 81.0239 76.37 85.3139 82.08 85.3139" stroke="white" stroke-width="0.5" stroke-linecap="round" stroke-linejoin="round"/>
<path d="M59.19 89.3939C59.19 89.3939 55.72 85.1139 52.46 88.5839C49.2 92.0539 51.27 95.3339 51.27 95.3339" stroke="white" stroke-width="0.5" stroke-linecap="round" stroke-linejoin="round"/>
<path d="M45.3198 92.254C47.3083 90.4607 48.5444 87.9813 48.7798 85.314C49.1898 80.824 55.3198 76.944 59.1898 80.624" stroke="white" stroke-width="0.5" stroke-linecap="round" stroke-linejoin="round"/>
<path d="M51.6396 75.924C51.6396 75.924 57.7696 70.004 62.8696 77.554" stroke="white" stroke-width="0.5" stroke-linecap="round" stroke-linejoin="round"/>
<path d="M101.53 366.994C101.53 366.994 105.3 372.854 104.88 376.624L104.47 380.394C104.47 380.394 90.6397 384.184 87.7097 384.184C84.7797 384.184 69.2697 382.714 69.2697 382.714L68.5997 380.054C68.5528 379.857 68.5749 379.651 68.6623 379.469C68.7497 379.287 68.8971 379.14 69.0797 379.054L82.9097 372.604L87.2697 367.834L101.53 366.994Z" fill="white" stroke="#263238" stroke-width="1.00396" stroke-miterlimit="10"/>
<path d="M89.81 381.234C93.56 381.524 100.68 379.234 104.81 377.774L104.52 380.394C104.52 380.394 90.64 384.184 87.71 384.184C84.78 384.184 69.27 382.714 69.27 382.714L68.79 380.814C71.27 380.824 84.85 380.854 89.81 381.234Z" fill="#0F1838" stroke="#263238" stroke-width="1.00396" stroke-miterlimit="10"/>
<path d="M82.9296 372.604L62.7996 381.364C62.7996 381.364 61.0796 385.674 62.7996 386.534C64.5196 387.394 102.02 386.534 102.02 386.534C102.02 386.534 104.61 379.724 100.52 375.154C96.4296 370.584 82.9296 372.604 82.9296 372.604Z" fill="white" stroke="#263238" stroke-width="1.00396" stroke-miterlimit="10"/>
<path d="M102.02 386.534C102.02 386.534 64.5197 387.394 62.7997 386.534C61.9697 386.114 61.9397 384.904 62.1297 383.754H102.68C102.547 384.699 102.326 385.63 102.02 386.534Z" fill="#0F1838" stroke="#263238" stroke-width="1.00396" stroke-miterlimit="10"/>
<path d="M73.41 220.394C73.41 220.394 68.15 243.704 66.16 258.284C64.17 272.864 63 302.074 63.42 305.424C63.84 308.774 84.78 364.904 84.78 364.904L86.87 369.904L101.53 366.974C101.53 366.974 94.83 345.614 92.32 333.884C89.81 322.154 84.32 302.884 84.32 299.534C84.32 296.184 97.32 232.204 98.25 228.004C99.18 223.804 103.4 217.354 103.4 217.354L75.33 216.784L73.41 220.394Z" fill="#0F1838" stroke="#263238" stroke-width="1.00396" stroke-miterlimit="10"/>
<path d="M73.41 220.394C73.41 220.394 70.33 241.684 71.6 256.484C72.87 271.284 75.6 302.794 75.6 307.484C75.6 312.174 83.17 340.184 83.6 348.984C84.27 361.694 83.33 367.984 83.33 367.984L82.88 372.594C82.88 372.594 91.71 373.854 93.64 374.404C95.8692 374.978 98.1696 375.227 100.47 375.144C100.47 375.144 103.68 361.014 103.68 348.974C103.68 336.934 101.01 312.154 99.68 302.114C98.35 292.074 102.54 253.344 104.92 246.114C107.3 238.884 112.5 223.574 109 215.754C105.5 207.934 73.41 220.394 73.41 220.394Z" fill="#0F1838" stroke="#263238" stroke-width="1.00396" stroke-miterlimit="10"/>
<path d="M112.89 211.834L112.57 221.354C112.57 221.354 106.87 222.484 99.1899 223.814C92.8499 224.914 76.9299 223.524 71.5699 223.004C71.0814 222.961 70.6298 222.726 70.3133 222.352C69.9968 221.977 69.841 221.493 69.8799 221.004L70.3999 212.404L112.89 211.834Z" fill="#263238"/>
<path d="M90.6096 116.934C90.6096 116.934 81.6096 126.664 78.2196 132.714C74.8296 138.764 73.4896 148.034 72.2196 155.334C70.9496 162.634 74.3896 179.774 73.4196 187.644L70.3496 212.434C70.3496 212.434 69.6896 214.114 71.8996 215.954C74.1096 217.794 84.8996 218.464 94.6496 218.954C98.2096 219.134 108.84 216.844 110.58 216.734C112.68 216.604 112.75 213.934 112.84 211.834C113.26 201.964 115.04 175.654 116.21 164.194C118.62 140.824 105.43 118.264 90.6096 116.934Z" fill="white" stroke="#263238" stroke-width="1.00396" stroke-miterlimit="10"/>
<g style="mix-blend-mode:multiply">
<path d="M115.11 177.484C115.51 172.294 115.91 167.584 116.26 164.194C116.36 163.194 116.42 162.194 116.47 161.194L92.56 165.194L72.02 158.194C72.0223 162.444 72.2626 166.691 72.74 170.914L92.89 176.554L115.11 177.484Z" fill="#0F1838"/>
</g>
<g style="mix-blend-mode:multiply">
<path d="M89.7198 117.914C88.3598 119.424 85.6598 122.494 83.0898 125.754L98.2698 141.184L103.27 139.184L89.7198 117.914Z" fill="#0F1838"/>
</g>
<path d="M90.61 116.934C90.61 116.934 81.61 126.664 78.22 132.714C77.2148 134.553 76.4006 136.489 75.79 138.494L93.89 117.584C92.8207 117.26 91.7221 117.042 90.61 116.934Z" fill="#263238"/>
<g style="mix-blend-mode:multiply">
<path d="M72.9199 151.394L92.5599 157.854L116.41 155.114C116.036 149.173 114.716 143.329 112.5 137.804L93.2699 145.514L76.0799 137.724C74.6743 142.192 73.6178 146.762 72.9199 151.394Z" fill="#0F1838"/>
</g>
<g style="mix-blend-mode:multiply">
<path d="M106.73 201.964C96.7687 203.637 86.5476 202.801 76.99 199.534L72.2 197.894L70.71 209.894L76.17 211.424C86.5497 214.326 97.3982 215.162 108.1 213.884L112.51 213.354C112.739 212.868 112.869 212.341 112.89 211.804C113.01 209.134 113.22 205.254 113.49 200.804L106.73 201.964Z" fill="#0F1838"/>
</g>
<g style="mix-blend-mode:multiply">
<path d="M109.4 185.624C99.4381 187.303 89.2146 186.464 79.6598 183.184L73.5598 181.094C73.7111 183.273 73.681 185.46 73.4698 187.634L72.7598 193.404L78.8398 195.104C89.2155 198.009 100.061 198.848 110.76 197.574L113.76 197.214C114.01 193.214 114.3 188.954 114.61 184.744L109.4 185.624Z" fill="#0F1838"/>
</g>
<path d="M15.5811 143.336L34.9165 158.882L35.7499 157.846L16.4145 142.3L15.5811 143.336Z" fill="#263238"/>
<path d="M99.9197 127.724C99.9197 127.724 107.01 132.554 107.17 143.964C107.24 148.964 106.72 153.634 105.57 161.824C104.42 170.014 97.2797 196.684 91.7197 199.924C86.1597 203.164 77.5297 197.044 77.5297 197.044L35.7897 169.334L25.6997 161.184L20.6997 151.744L22.2697 148.744L34.5797 158.184L27.9497 152.054L29.2497 150.404L31.6497 152.074L38.6497 154.694L40.1797 164.694L42.3397 166.174L82.2697 180.764C82.2697 180.764 81.7697 159.274 82.1397 155.164C82.5097 151.054 83.0197 140.724 87.4197 133.234" fill="white"/>
<mask id="mask4_26_10253" style="mask-type:luminance" maskUnits="userSpaceOnUse" x="20" y="127" width="88" height="74">
<path d="M99.9197 127.724C99.9197 127.724 107.01 132.554 107.17 143.964C107.24 148.964 106.72 153.634 105.57 161.824C104.42 170.014 97.2797 196.684 91.7197 199.924C86.1597 203.164 77.5297 197.044 77.5297 197.044L35.7897 169.334L25.6997 161.184L20.6997 151.744L22.2697 148.744L34.5797 158.184L27.9497 152.054L29.2497 150.404L31.6497 152.074L38.6497 154.694L40.1797 164.694L42.3397 166.174L82.2697 180.764C82.2697 180.764 81.7697 159.274 82.1397 155.164C82.5097 151.054 83.0197 140.724 87.4197 133.234" fill="white"/>
</mask>
<g mask="url(#mask4_26_10253)">
<g style="mix-blend-mode:multiply" opacity="0.5">
<path d="M81.9898 164.524C81.9898 171.944 82.2398 180.764 82.2398 180.764L42.3498 166.234L40.1898 164.754L38.6598 154.754L31.6598 152.134L29.2698 150.434L27.9698 152.084L34.5798 158.184L22.2698 148.744L20.7798 151.694L25.7798 161.134L35.8698 169.334L38.4098 171.024L93.5598 188.794L81.9898 164.524Z" fill="#0F1838"/>
</g>
</g>
<path d="M99.9197 127.724C99.9197 127.724 107.01 132.554 107.17 143.964C107.24 148.964 106.72 153.634 105.57 161.824C104.42 170.014 97.2797 196.684 91.7197 199.924C86.1597 203.164 77.5297 197.044 77.5297 197.044L35.7897 169.334L25.6997 161.184L20.6997 151.744L22.2697 148.744L34.5797 158.184L27.9497 152.054L29.2497 150.404L31.6497 152.074L38.6497 154.694L40.1797 164.694L42.3397 166.174L82.2697 180.764C82.2697 180.764 81.7697 159.274 82.1397 155.164C82.5097 151.054 83.0197 140.724 87.4197 133.234" stroke="#263238" stroke-width="1.00396" stroke-miterlimit="10"/>
<path d="M82.2697 180.764L97.5097 191.764L101.46 184.764C101.46 184.764 104.19 182.614 104.59 180.994C104.99 179.374 104.48 176.744 104.89 175.124C105.3 173.504 107.34 171.984 107.53 168.064C107.72 164.144 107.53 160.874 107.53 160.874C107.53 160.874 110.83 147.304 110.47 141.404C110.11 135.504 104.42 125.074 99.8597 124.844C95.2997 124.614 89.3697 125.304 84.7697 132.264C80.1697 139.224 81.1097 159.544 80.3897 160.814C79.6697 162.084 80.6697 168.354 80.6697 168.354C80.2701 168.652 79.9385 169.032 79.6971 169.468C79.4557 169.904 79.31 170.387 79.2697 170.884C79.1897 172.514 80.9497 176.524 80.9497 176.524L82.2697 180.764Z" fill="white" stroke="#263238" stroke-width="1.00396" stroke-miterlimit="10"/>
<g style="mix-blend-mode:multiply">
<path d="M80.7896 155.594C80.821 157.339 80.6905 159.083 80.3996 160.804C79.7596 161.944 80.4896 167.094 80.6496 168.144C89.2215 170.806 98.2854 171.49 107.16 170.144C107.35 169.449 107.464 168.734 107.5 168.014C107.7 164.104 107.5 160.824 107.5 160.824C107.5 160.824 107.79 159.614 108.19 157.774C98.9991 158.358 89.7722 157.624 80.7896 155.594Z" fill="#0F1838"/>
</g>
<g style="mix-blend-mode:multiply">
<path d="M84.15 133.374C82.72 136.244 81.92 140.554 81.46 144.924C90.5381 148.389 100.326 149.58 109.97 148.394C110.355 146.081 110.525 143.738 110.48 141.394C110.307 139.541 109.869 137.723 109.18 135.994C100.759 136.191 92.3476 135.31 84.15 133.374Z" fill="#0F1838"/>
</g>
<path d="M80.9497 176.634L82.2397 180.764L97.4797 191.764L101.43 184.764C101.43 184.764 104.16 182.614 104.56 180.994C104.631 180.712 104.675 180.424 104.69 180.134C96.6586 179.995 88.6791 178.819 80.9497 176.634Z" fill="#263238"/>
<path d="M91.9799 374.274C91.9799 374.274 92.3199 365.614 93.9799 352.954C95.6399 340.294 91.6499 322.314 90.9799 319.314C90.3099 316.314 91.3199 309.654 90.6499 307.314C89.9799 304.974 86.7399 294.994 88.6499 283.414C90.5599 271.834 92.1099 241.224 92.1099 241.224C92.1099 241.224 87.2999 237.314 85.8899 232.224C84.4799 227.134 85.5599 225.534 85.5599 225.534" stroke="#263238" stroke-width="1.00396" stroke-miterlimit="10"/>
<path d="M94.2099 226.004L92.3599 236.244" stroke="#263238" stroke-width="1.00396" stroke-miterlimit="10"/>
</svg>
