<svg width="190" height="129" viewBox="0 0 190 129" fill="none" xmlns="http://www.w3.org/2000/svg">
<path d="M7.14608 101.655L13.9617 120.904L20.7432 101.655H27.9274V128.193H22.4402V120.939L22.9858 108.417L15.8235 128.193H12.0682L4.92212 108.433L5.46775 120.939V128.193H0V101.655H7.14608Z" fill="white"/>
<path d="M42.5997 126.188C41.2989 127.767 39.5004 128.558 37.2042 128.558C35.089 128.558 33.4773 127.952 32.3641 126.734C31.2541 125.519 30.6833 123.74 30.6614 121.396V108.471H35.9294V121.228C35.9294 123.283 36.8648 124.311 38.7363 124.311C40.5218 124.311 41.7495 123.692 42.4186 122.449V108.471H47.7028V128.193H42.7458L42.5997 126.188Z" fill="white"/>
<path d="M61.9535 122.744C61.9535 122.1 61.6328 121.593 60.9954 121.221C60.358 120.85 59.3333 120.521 57.9254 120.228C53.2338 119.245 50.8873 117.25 50.8873 114.25C50.8873 112.499 51.6132 111.037 53.0658 109.867C54.5192 108.694 56.4184 108.107 58.7625 108.107C61.265 108.107 63.2697 108.697 64.7702 109.877C66.2699 111.054 67.0185 112.585 67.0185 114.47H61.7538C61.7538 113.714 61.5094 113.093 61.0238 112.601C60.5358 112.11 59.7774 111.862 58.7438 111.862C57.8588 111.862 57.1702 112.062 56.6847 112.464C56.1999 112.864 55.9555 113.375 55.9555 113.997C55.9555 114.577 56.2316 115.05 56.7837 115.408C57.3383 115.766 58.2713 116.074 59.5842 116.338C60.8939 116.597 62.0006 116.893 62.9019 117.219C65.6837 118.241 67.0754 120.011 67.0754 122.526C67.0754 124.324 66.3016 125.78 64.7605 126.893C63.2153 128.004 61.2235 128.558 58.782 128.558C57.1288 128.558 55.6608 128.264 54.3795 127.673C53.0982 127.086 52.0922 126.278 51.3631 125.25C50.6331 124.223 50.2686 123.116 50.2686 121.923H55.2637C55.3117 122.862 55.6575 123.579 56.3014 124.076C56.9453 124.574 57.8076 124.823 58.8892 124.823C59.8984 124.823 60.6625 124.632 61.1765 124.248C61.6929 123.867 61.9535 123.366 61.9535 122.744Z" fill="white"/>
<path d="M75.6139 103.621V108.471H78.9884V112.339H75.6139V122.18C75.6139 122.909 75.7535 123.432 76.0361 123.747C76.3146 124.064 76.848 124.222 77.6373 124.222C78.2211 124.222 78.7383 124.178 79.1881 124.093V128.086C78.1545 128.403 77.0916 128.558 75.9979 128.558C72.3027 128.558 70.4189 126.693 70.3459 122.964V112.339H67.4658V108.471H70.3459V103.621H75.6139Z" fill="white"/>
<path d="M82.0999 128.193V101.655H90.2674C92.6018 101.655 94.6853 102.178 96.5284 103.231C98.3683 104.28 99.8079 105.778 100.839 107.713C101.873 109.651 102.39 111.855 102.39 114.323V115.544C102.39 118.012 101.883 120.203 100.868 122.125C99.8526 124.044 98.4219 125.532 96.5739 126.591C94.7275 127.647 92.644 128.18 90.321 128.193H82.0999ZM87.5684 106.082V123.799H90.213C92.3509 123.799 93.9845 123.102 95.1172 121.703C96.2467 120.307 96.824 118.305 96.8492 115.705V114.302C96.8492 111.604 96.2881 109.561 95.1716 108.168C94.0519 106.779 92.4183 106.081 90.2682 106.081L87.5684 106.082Z" fill="white"/>
<path d="M114.591 128.558C111.698 128.558 109.342 127.673 107.528 125.897C105.711 124.123 104.801 121.761 104.801 118.808V118.298C104.801 116.316 105.185 114.546 105.949 112.985C106.716 111.421 107.801 110.219 109.203 109.373C110.608 108.529 112.21 108.107 114.008 108.107C116.704 108.107 118.83 108.958 120.381 110.657C121.928 112.361 122.702 114.775 122.702 117.895V120.048H110.142C110.313 121.336 110.827 122.366 111.683 123.144C112.54 123.925 113.625 124.312 114.937 124.312C116.967 124.312 118.553 123.579 119.695 122.107L122.283 125.006C121.493 126.122 120.424 126.995 119.073 127.62C117.725 128.247 116.231 128.558 114.591 128.558ZM113.989 112.353C112.942 112.353 112.095 112.709 111.445 113.416C110.795 114.123 110.379 115.138 110.199 116.454H117.525V116.032C117.5 114.862 117.186 113.954 116.577 113.314C115.968 112.673 115.105 112.353 113.989 112.353Z" fill="white"/>
<path d="M130.974 100.196H125.689V128.191H130.974V100.196Z" fill="white"/>
<path d="M133.448 103.368C133.448 102.578 133.711 101.928 134.241 101.417C134.771 100.907 135.491 100.65 136.401 100.65C137.298 100.65 138.015 100.907 138.551 101.417C139.087 101.928 139.353 102.579 139.353 103.368C139.353 104.17 139.084 104.828 138.541 105.338C138.002 105.848 137.288 106.102 136.4 106.102C135.512 106.102 134.798 105.848 134.259 105.338C133.717 104.828 133.448 104.17 133.448 103.368ZM139.042 128.193H133.758V108.471H139.042V128.193Z" fill="white"/>
<path d="M149.719 121.761L153.381 108.471H158.888L152.233 128.193H147.203L140.549 108.471H146.055L149.719 121.761Z" fill="white"/>
<path d="M168.787 128.558C165.894 128.558 163.541 127.673 161.723 125.897C159.907 124.123 158.999 121.761 158.999 118.808V118.298C158.999 116.316 159.383 114.546 160.147 112.985C160.911 111.421 161.996 110.219 163.402 109.373C164.804 108.529 166.405 108.107 168.204 108.107C170.903 108.107 173.025 108.958 174.576 110.657C176.124 112.361 176.901 114.775 176.901 117.895V120.048H164.34C164.512 121.336 165.022 122.366 165.881 123.144C166.738 123.925 167.824 124.312 169.133 124.312C171.162 124.312 172.751 123.579 173.89 122.107L176.481 125.006C175.691 126.122 174.619 126.995 173.271 127.62C171.923 128.247 170.429 128.558 168.787 128.558ZM168.187 112.353C167.141 112.353 166.294 112.709 165.644 113.416C164.993 114.123 164.577 115.138 164.394 116.454H171.724V116.032C171.698 114.862 171.381 113.954 170.775 113.314C170.166 112.674 169.304 112.353 168.187 112.353Z" fill="white"/>
<path d="M189.926 113.413C189.209 113.315 188.578 113.264 188.029 113.264C186.038 113.264 184.73 113.939 184.112 115.29V128.193H178.844V108.472H183.821L183.967 110.825C185.024 109.014 186.488 108.106 188.36 108.106C188.944 108.106 189.489 108.186 190 108.344L189.926 113.413Z" fill="white"/>
<path fill-rule="evenodd" clip-rule="evenodd" d="M75.8519 22.7113C75.4362 22.6187 75.3477 22.8445 75.3477 23.2505V29.6349C75.3477 30.092 75.4776 30.1903 75.8137 30.2536C76.283 30.2536 125.559 33.2002 125.559 33.2002C125.559 33.2002 76.2676 22.8031 75.8519 22.7113Z" fill="white"/>
<path fill-rule="evenodd" clip-rule="evenodd" d="M71.2115 76.8683L41.302 61.057V27.1389L71.1863 9.91307L114.141 22.3621C114.141 22.3621 75.6391 1.71713 73.5938 0.705422C71.5509 -0.303035 70.8567 -0.214531 69.0452 0.87025C66.8285 2.3261 42.5963 18.2544 36.859 22.0227C36.0844 22.5334 35.6467 23.783 35.6467 24.6486V63.8704C35.6467 65.1046 35.8116 65.919 36.7445 66.5158C37.5467 67.0297 62.3911 82.9134 69.3748 87.3792C70.5205 88.1115 71.7092 88.3056 72.8671 87.7949C74.0217 87.2841 154.352 51.8842 154.352 51.8842L71.2115 76.8683Z" fill="white"/>
<path fill-rule="evenodd" clip-rule="evenodd" d="M75.8421 38.6118C76.2546 38.6272 132.563 37.8696 132.563 37.8696C132.563 37.8696 76.2644 46.0428 75.804 46.0428C75.4743 45.9828 75.3477 45.8845 75.3477 45.4371V39.2459C75.3477 38.8464 75.4394 38.5955 75.8421 38.6118Z" fill="white"/>
<path fill-rule="evenodd" clip-rule="evenodd" d="M75.8389 54.99C76.3025 54.9421 143.073 43.7078 143.073 43.7078C143.073 43.7078 76.2611 62.3926 75.804 62.3926C75.4743 62.3293 75.3477 62.2311 75.3477 61.7869V55.5925C75.3477 55.2466 75.4646 55.0566 75.8389 54.99Z" fill="white"/>
</svg>
