<svg width="750" height="526" viewBox="0 0 750 526" fill="none" xmlns="http://www.w3.org/2000/svg">
<path opacity="0.07" d="M656.788 93.23C671.018 133.14 669.725 178.509 660.126 219.092C641.212 299.494 590.267 371.875 520.887 416.752C451.508 461.63 364.65 478.551 283.563 462.846C243.536 455.084 204.105 439.172 174.661 410.97C130.547 368.692 112.19 298.937 128.49 240.204C136.852 210.539 153.231 183.754 175.825 162.791C200.405 139.996 235.063 130.863 264.209 115.054C307.25 91.7682 342.373 55.804 384.909 31.5476C426.514 7.83454 475.324 -4.10608 522.893 1.27561C566.451 6.20451 622.868 28.7662 645.611 68.7408C650.039 76.5646 653.779 84.7585 656.788 93.23Z" fill="white"/>
<path d="M706.235 490.325H108.951V490.624H706.235V490.325Z" fill="#EBEBEB"/>
<path d="M315.874 497.947H288.184V498.245H315.874V497.947Z" fill="#EBEBEB"/>
<path d="M656.983 504.349H589.287V504.648H656.983V504.349Z" fill="#EBEBEB"/>
<path d="M227.679 504.349H159.983V504.648H227.679V504.349Z" fill="#EBEBEB"/>
<path d="M392.064 437.047H161.404C159.597 437.044 157.865 436.324 156.589 435.045C155.312 433.766 154.595 432.033 154.595 430.226V105.984C154.611 104.188 155.335 102.47 156.61 101.204C157.885 99.9378 159.608 99.226 161.404 99.2229H392.064C393.873 99.2229 395.608 99.9415 396.887 101.221C398.166 102.5 398.885 104.235 398.885 106.044V430.226C398.885 432.035 398.166 433.77 396.887 435.049C395.608 436.328 393.873 437.047 392.064 437.047ZM161.404 99.4618C159.676 99.465 158.021 100.154 156.8 101.376C155.579 102.599 154.894 104.256 154.894 105.984V430.226C154.894 431.954 155.579 433.611 156.8 434.834C158.021 436.057 159.676 436.745 161.404 436.748H392.064C393.792 436.742 395.447 436.053 396.669 434.831C397.891 433.609 398.58 431.954 398.586 430.226V105.984C398.58 104.256 397.891 102.601 396.669 101.379C395.447 100.157 393.792 99.4681 392.064 99.4618H161.404Z" fill="#EBEBEB"/>
<path d="M650.461 437.047H419.789C417.982 437.041 416.251 436.32 414.973 435.042C413.695 433.764 412.975 432.033 412.968 430.226V105.984C412.987 104.186 413.714 102.469 414.991 101.203C416.267 99.9374 417.991 99.2259 419.789 99.2229H650.461C652.255 99.2291 653.975 99.9423 655.247 101.208C656.52 102.474 657.242 104.19 657.258 105.984V430.226C657.259 431.12 657.085 432.006 656.744 432.833C656.403 433.659 655.903 434.411 655.272 435.044C654.641 435.678 653.891 436.181 653.065 436.524C652.24 436.868 651.355 437.046 650.461 437.047ZM419.789 99.4618C418.061 99.4681 416.406 100.157 415.184 101.379C413.962 102.601 413.273 104.256 413.267 105.984V430.226C413.273 431.954 413.962 433.609 415.184 434.831C416.406 436.053 418.061 436.742 419.789 436.748H650.461C652.188 436.742 653.844 436.053 655.066 434.831C656.287 433.609 656.977 431.954 656.983 430.226V105.984C656.977 104.256 656.287 102.601 655.066 101.379C653.844 100.157 652.188 99.4681 650.461 99.4618H419.789Z" fill="#EBEBEB"/>
<path d="M226.855 189.306H326.362C327.364 189.304 328.356 189.5 329.281 189.883C330.206 190.265 331.047 190.826 331.755 191.534C332.463 192.242 333.024 193.083 333.407 194.009C333.789 194.934 333.985 195.926 333.984 196.927V490.05H219.305V196.915C219.308 194.908 220.103 192.984 221.516 191.559C222.93 190.134 224.848 189.325 226.855 189.306Z" fill="#F5F5F5"/>
<path d="M243.555 207.069H228.767V239.991H243.555V207.069Z" fill="#EBEBEB"/>
<path d="M324.427 207.069H309.639V239.991H324.427V207.069Z" fill="#EBEBEB"/>
<path d="M270.504 207.069H255.715V239.991H270.504V207.069Z" fill="#EBEBEB"/>
<path d="M297.466 207.069H282.677V239.991H297.466V207.069Z" fill="#EBEBEB"/>
<path d="M243.555 259.045H228.767V291.967H243.555V259.045Z" fill="#EBEBEB"/>
<path d="M324.427 259.045H309.639V291.967H324.427V259.045Z" fill="#EBEBEB"/>
<path d="M270.504 259.045H255.715V291.967H270.504V259.045Z" fill="#EBEBEB"/>
<path d="M297.466 259.045H282.677V291.967H297.466V259.045Z" fill="#EBEBEB"/>
<path d="M243.555 311.008H228.767V343.93H243.555V311.008Z" fill="#EBEBEB"/>
<path d="M324.427 311.008H309.639V343.93H324.427V311.008Z" fill="#EBEBEB"/>
<path d="M270.504 311.008H255.715V343.93H270.504V311.008Z" fill="#EBEBEB"/>
<path d="M297.466 311.008H282.677V343.93H297.466V311.008Z" fill="#EBEBEB"/>
<path d="M243.555 362.984H228.767V395.907H243.555V362.984Z" fill="#EBEBEB"/>
<path d="M324.427 362.984H309.639V395.907H324.427V362.984Z" fill="#EBEBEB"/>
<path d="M270.504 362.984H255.715V395.907H270.504V362.984Z" fill="#EBEBEB"/>
<path d="M297.466 362.984H282.677V395.907H297.466V362.984Z" fill="#EBEBEB"/>
<path d="M243.555 414.948H228.767V447.87H243.555V414.948Z" fill="#EBEBEB"/>
<path d="M324.427 414.948H309.639V447.87H324.427V414.948Z" fill="#EBEBEB"/>
<path d="M270.504 414.948H255.715V447.87H270.504V414.948Z" fill="#EBEBEB"/>
<path d="M297.466 414.948H282.677V447.87H297.466V414.948Z" fill="#EBEBEB"/>
<path d="M579.54 216.625H650.784C652.427 216.629 654.002 217.283 655.164 218.445C656.326 219.607 656.98 221.182 656.984 222.825V490.05H573.364V222.837C573.364 221.196 574.013 219.621 575.17 218.457C576.328 217.294 577.898 216.635 579.54 216.625Z" fill="#F5F5F5"/>
<path d="M597.434 232.788H583.995V262.712H597.434V232.788Z" fill="#EBEBEB"/>
<path d="M621.947 232.788H608.508V262.712H621.947V232.788Z" fill="#EBEBEB"/>
<path d="M646.448 232.788H633.009V262.712H646.448V232.788Z" fill="#EBEBEB"/>
<path d="M597.434 280.033H583.995V309.957H597.434V280.033Z" fill="#EBEBEB"/>
<path d="M621.947 280.033H608.508V309.957H621.947V280.033Z" fill="#EBEBEB"/>
<path d="M646.448 280.033H633.009V309.957H646.448V280.033Z" fill="#EBEBEB"/>
<path d="M597.434 327.29H583.995V357.214H597.434V327.29Z" fill="#EBEBEB"/>
<path d="M621.947 327.29H608.508V357.214H621.947V327.29Z" fill="#EBEBEB"/>
<path d="M646.448 327.29H633.009V357.214H646.448V327.29Z" fill="#EBEBEB"/>
<path d="M597.434 374.523H583.995V404.447H597.434V374.523Z" fill="#EBEBEB"/>
<path d="M621.947 374.523H608.508V404.447H621.947V374.523Z" fill="#EBEBEB"/>
<path d="M646.448 374.523H633.009V404.447H646.448V374.523Z" fill="#EBEBEB"/>
<path d="M597.434 421.781H583.995V451.704H597.434V421.781Z" fill="#EBEBEB"/>
<path d="M621.947 421.781H608.508V451.704H621.947V421.781Z" fill="#EBEBEB"/>
<path d="M646.448 421.781H633.009V451.704H646.448V421.781Z" fill="#EBEBEB"/>
<path d="M416.325 140.149H532.055C534.406 140.149 536.661 141.083 538.323 142.745C539.985 144.407 540.919 146.662 540.919 149.013V490.05H407.474V149.013C407.474 146.664 408.406 144.411 410.066 142.749C411.725 141.087 413.977 140.152 416.325 140.149Z" fill="#F5F5F5"/>
<path d="M435.75 160.827H418.548V199.125H435.75V160.827Z" fill="#EBEBEB"/>
<path d="M529.834 160.827H512.632V199.125H529.834V160.827Z" fill="#EBEBEB"/>
<path d="M467.106 160.827H449.904V199.125H467.106V160.827Z" fill="#EBEBEB"/>
<path d="M498.476 160.827H481.274V199.125H498.476V160.827Z" fill="#EBEBEB"/>
<path d="M435.75 221.296H418.548V259.594H435.75V221.296Z" fill="#EBEBEB"/>
<path d="M529.834 221.296H512.632V259.594H529.834V221.296Z" fill="#EBEBEB"/>
<path d="M467.106 221.296H449.904V259.594H467.106V221.296Z" fill="#EBEBEB"/>
<path d="M498.476 221.296H481.274V259.594H498.476V221.296Z" fill="#EBEBEB"/>
<path d="M435.75 281.765H418.548V320.063H435.75V281.765Z" fill="#EBEBEB"/>
<path d="M529.834 281.765H512.632V320.063H529.834V281.765Z" fill="#EBEBEB"/>
<path d="M467.106 281.765H449.904V320.063H467.106V281.765Z" fill="#EBEBEB"/>
<path d="M498.476 281.765H481.274V320.063H498.476V281.765Z" fill="#EBEBEB"/>
<path d="M435.75 342.222H418.548V380.52H435.75V342.222Z" fill="#EBEBEB"/>
<path d="M529.834 342.222H512.632V380.52H529.834V342.222Z" fill="#EBEBEB"/>
<path d="M467.106 342.222H449.904V380.52H467.106V342.222Z" fill="#EBEBEB"/>
<path d="M498.476 342.222H481.274V380.52H498.476V342.222Z" fill="#EBEBEB"/>
<path d="M435.75 402.679H418.548V440.977H435.75V402.679Z" fill="#EBEBEB"/>
<path d="M529.834 402.679H512.632V440.977H529.834V402.679Z" fill="#EBEBEB"/>
<path d="M467.106 402.679H449.904V440.977H467.106V402.679Z" fill="#EBEBEB"/>
<path d="M498.476 402.679H481.274V440.977H498.476V402.679Z" fill="#EBEBEB"/>
<path d="M407.462 265.471H333.948V490.062H407.462V265.471Z" fill="#E6E6E6"/>
<path d="M573.411 289.518H540.931V490.05H573.411V289.518Z" fill="#E6E6E6"/>
<path d="M219.234 490.05H154.894V396.288L219.234 374.523V490.05Z" fill="#E6E6E6"/>
<path d="M374.519 486.797C581.36 486.797 749.038 485.232 749.038 483.3C749.038 481.369 581.36 479.803 374.519 479.803C167.678 479.803 0 481.369 0 483.3C0 485.232 167.678 486.797 374.519 486.797Z" fill="#58595B"/>
<path d="M34.457 452.573C34.457 435.609 46.3683 421.85 61.0685 421.85H35.6354C20.9353 421.85 9.02393 435.609 9.02393 452.573C9.02393 469.547 20.9353 483.306 35.6354 483.306H61.0685C46.3683 483.301 34.457 469.542 34.457 452.573Z" fill="#231F20"/>
<path d="M60.4722 421.845C75.5057 421.845 87.6847 435.603 87.6847 452.568C87.6847 469.542 75.5057 483.3 60.4722 483.3C45.4387 483.3 33.2598 469.542 33.2598 452.568C33.2645 435.608 45.4434 421.845 60.4722 421.845Z" fill="#939598"/>
<path d="M61.069 421.845C75.7692 421.845 87.6805 435.603 87.6805 452.568C87.6805 469.542 75.7692 483.3 61.069 483.3C46.3688 483.3 34.4575 469.542 34.4575 452.568C34.4575 435.608 46.3688 421.845 61.069 421.845Z" fill="black"/>
<path d="M170.088 434.974H52.4487V460.543H170.088V434.974Z" fill="black"/>
<path d="M119.121 456.38C120.181 449.113 115.148 442.362 107.879 441.302C100.61 440.242 93.8583 445.275 92.7983 452.542C91.7382 459.81 96.7714 466.56 104.04 467.62C111.309 468.68 118.061 463.647 119.121 456.38Z" fill="black"/>
<path d="M727.596 359.863H746.352L721.271 461.064H702.515L695.97 459.445L719.431 364.787C720.328 361.168 723.98 358.967 727.596 359.863Z" fill="#231F20"/>
<path d="M705.459 426.647H725.91L726.943 422.474H706.492L705.459 426.647ZM703.153 435.956H723.605L724.638 431.783H704.191L703.153 435.956ZM700.843 445.264H721.295L722.328 441.091H701.876L700.843 445.264ZM707.769 417.334H728.215L729.248 413.161H708.797L707.769 417.334ZM698.538 454.577H718.99L720.023 450.404H699.571L698.538 454.577ZM710.074 408.026H730.525L731.558 403.852H711.107L710.074 408.026ZM720.337 366.609L719.304 370.782H739.756L740.789 366.609H720.337ZM716.999 380.091H737.451L738.483 375.918H718.032L716.999 380.091ZM714.689 389.404H735.141L736.174 385.231H715.722L714.689 389.404ZM712.384 398.712H732.835L733.868 394.539H713.417L712.384 398.712Z" fill="#58595B"/>
<path d="M746.352 359.863L721.271 461.064L714.727 459.445L738.188 364.787C739.084 361.168 742.737 358.967 746.352 359.863Z" fill="#596FB9"/>
<path d="M721.532 442.848L720.422 447.327L722.24 447.778L723.35 443.299L721.532 442.848Z" fill="#6F89F0"/>
<path d="M722.636 438.357L721.526 442.836L723.345 443.286L724.455 438.808L722.636 438.357Z" fill="white"/>
<path d="M723.748 433.881L722.638 438.36L724.456 438.81L725.566 434.331L723.748 433.881Z" fill="#6F89F0"/>
<path d="M724.861 429.406L723.751 433.884L725.569 434.335L726.679 429.856L724.861 429.406Z" fill="white"/>
<path d="M725.966 424.921L724.856 429.4L726.675 429.85L727.785 425.371L725.966 424.921Z" fill="#6F89F0"/>
<path d="M727.086 420.449L725.976 424.928L727.794 425.378L728.904 420.9L727.086 420.449Z" fill="white"/>
<path d="M728.189 415.963L727.079 420.442L728.897 420.892L730.007 416.413L728.189 415.963Z" fill="#6F89F0"/>
<path d="M729.295 411.478L728.185 415.957L730.003 416.407L731.113 411.929L729.295 411.478Z" fill="white"/>
<path d="M730.416 407.014L729.306 411.492L731.124 411.943L732.234 407.464L730.416 407.014Z" fill="#6F89F0"/>
<path d="M731.519 402.526L730.409 407.005L732.227 407.456L733.337 402.977L731.519 402.526Z" fill="white"/>
<path d="M732.637 398.054L731.527 402.532L733.346 402.983L734.456 398.504L732.637 398.054Z" fill="#6F89F0"/>
<path d="M733.736 393.566L732.626 398.045L734.444 398.495L735.554 394.017L733.736 393.566Z" fill="white"/>
<path d="M734.846 389.084L733.736 393.562L735.555 394.013L736.665 389.534L734.846 389.084Z" fill="#6F89F0"/>
<path d="M735.966 384.618L734.856 389.096L736.675 389.547L737.785 385.068L735.966 384.618Z" fill="white"/>
<path d="M737.072 380.127L735.962 384.605L737.78 385.056L738.89 380.577L737.072 380.127Z" fill="#6F89F0"/>
<path d="M738.185 375.659L737.075 380.137L738.893 380.588L740.003 376.109L738.185 375.659Z" fill="white"/>
<path d="M739.288 371.166L738.178 375.644L739.996 376.095L741.106 371.616L739.288 371.166Z" fill="#6F89F0"/>
<path d="M741.512 362.197L740.402 366.675L742.221 367.126L743.331 362.647L741.512 362.197Z" fill="#6F89F0"/>
<path d="M740.401 366.691L739.291 371.169L741.109 371.62L742.219 367.141L740.401 366.691Z" fill="white"/>
<path d="M337.818 372.205C337.818 357.944 347.833 346.377 360.19 346.377H347.251C334.893 346.377 324.879 357.944 324.879 372.205C324.879 386.47 334.893 398.036 347.251 398.036H360.19C347.828 398.041 337.818 386.475 337.818 372.205Z" fill="#231F20"/>
<path d="M359.683 346.382C372.318 346.382 382.558 357.948 382.558 372.209C382.558 386.474 372.318 398.041 359.683 398.041C347.049 398.041 336.809 386.474 336.809 372.209C336.814 357.948 347.049 346.382 359.683 346.382Z" fill="#939598"/>
<path d="M360.185 346.382C372.543 346.382 382.557 357.948 382.557 372.209C382.557 386.474 372.543 398.041 360.185 398.041C347.828 398.041 337.813 386.474 337.813 372.209C337.818 357.948 347.828 346.382 360.185 346.382Z" fill="black"/>
<path d="M530.869 407.851C530.869 393.591 540.884 382.024 553.241 382.024H540.302C527.944 382.024 517.93 393.591 517.93 407.851C517.93 422.117 527.944 433.683 540.302 433.683H553.241C540.879 433.683 530.869 422.122 530.869 407.851Z" fill="#231F20"/>
<path d="M552.734 382.024C565.368 382.024 575.608 393.591 575.608 407.851C575.608 422.117 565.368 433.683 552.734 433.683C540.099 433.683 529.859 422.117 529.859 407.851C529.859 393.591 540.099 382.024 552.734 382.024Z" fill="#939598"/>
<path d="M553.236 382.024C565.594 382.024 575.608 393.591 575.608 407.851C575.608 422.117 565.594 433.683 553.236 433.683C540.879 433.683 530.864 422.117 530.864 407.851C530.869 393.591 540.879 382.024 553.236 382.024Z" fill="black"/>
<path d="M613.234 358.188L450.715 328.178L382.557 324.911C370.551 322.695 319.441 346.269 319.441 346.269C319.103 348.11 318.399 377.706 324.878 378.903L364.739 380.386L517.929 407.852L527.643 406.336L559.527 421.146H673.724C676.814 421.718 679.983 421.742 683.082 421.216L696.096 418.536C703.289 417.052 708.872 411.344 710.21 404.101L715.215 377.016L613.234 358.188Z" fill="black"/>
<path d="M551.363 307.618C551.363 307.618 641.231 299.084 624.075 294.409C568.04 279.153 491.041 286.555 488.703 286.691C459.969 288.395 407.018 311.561 407.018 311.561C407.018 311.561 363.584 309.787 337.71 320.09C332.132 324.911 331.212 327.319 324.789 334.792C323.062 336.801 318.78 335.811 318.352 337.688C313.77 357.793 318.7 369.022 320.512 369.36C320.512 369.36 388.679 369.36 409.305 369.36C409.479 367.773 436.855 327.507 551.363 307.618Z" fill="#6F89F0"/>
<path d="M320.512 369.36C320.512 369.36 388.684 369.36 409.305 369.36C409.366 368.815 412.638 363.703 421.549 356.423H316.54C317.019 364.67 319.376 369.148 320.512 369.36Z" fill="#596FB9"/>
<path d="M460.598 398.041H447.659C435.301 398.041 425.287 386.474 425.287 372.209C425.287 357.948 435.301 346.382 447.659 346.382H460.598C448.241 346.382 438.226 357.948 438.226 372.209C438.226 386.474 448.241 398.041 460.598 398.041Z" fill="black"/>
<mask id="mask0_23_354" style="mask-type:luminance" maskUnits="userSpaceOnUse" x="425" y="346" width="36" height="53">
<path d="M460.598 398.041H447.659C435.301 398.041 425.287 386.474 425.287 372.209C425.287 357.948 435.301 346.382 447.659 346.382H460.598C448.241 346.382 438.226 357.948 438.226 372.209C438.226 386.474 448.241 398.041 460.598 398.041Z" fill="white"/>
</mask>
<g mask="url(#mask0_23_354)">
<path d="M438.226 372.204C438.226 370.815 438.325 369.453 438.508 368.125H425.568C425.385 369.453 425.287 370.815 425.287 372.204C425.287 386.47 435.301 398.036 447.659 398.036H460.598C448.241 398.041 438.226 386.474 438.226 372.204Z" fill="black"/>
<path d="M430.63 355.455C428.972 357.699 427.644 360.272 426.724 363.083C426.198 364.693 425.813 366.383 425.573 368.125H438.513C438.752 366.379 439.137 364.693 439.663 363.083C440.583 360.276 441.912 357.699 443.569 355.455H430.63Z" fill="black"/>
<path d="M434.949 350.954C433.344 352.235 431.893 353.752 430.63 355.46H443.569C444.832 353.752 446.288 352.235 447.889 350.954H434.949Z" fill="black"/>
<path d="M460.598 346.382H447.659C442.936 346.382 438.56 348.072 434.949 350.954H447.889C451.499 348.072 455.875 346.382 460.598 346.382Z" fill="black"/>
</g>
<path d="M460.096 346.382C472.73 346.382 482.97 357.948 482.97 372.209C482.97 386.475 472.73 398.041 460.096 398.041C447.462 398.041 437.222 386.475 437.222 372.209C437.222 357.948 447.462 346.382 460.096 346.382Z" fill="#939598"/>
<path d="M460.598 346.382C472.955 346.382 482.97 357.948 482.97 372.209C482.97 386.475 472.955 398.041 460.598 398.041C448.241 398.041 438.226 386.475 438.226 372.209C438.226 357.948 448.241 346.382 460.598 346.382Z" fill="#414042"/>
<path d="M460.598 353.001C469.791 353.001 477.237 361.601 477.237 372.209C477.237 382.818 469.791 391.422 460.598 391.422C451.405 391.422 443.959 382.823 443.959 372.209C443.959 361.601 451.41 353.001 460.598 353.001Z" fill="#231F20"/>
<path d="M460.598 355.799C468.448 355.799 474.81 363.15 474.81 372.209C474.81 381.274 468.448 388.625 460.598 388.625C452.748 388.625 446.386 381.274 446.386 372.209C446.386 363.145 452.748 355.799 460.598 355.799Z" fill="black"/>
<path d="M460.598 353.893C451.828 353.893 444.724 362.103 444.724 372.219C444.724 382.344 451.828 390.549 460.598 390.549C469.368 390.549 476.472 382.344 476.472 372.219C476.472 362.103 469.368 353.893 460.598 353.893ZM463.035 374.059L474.547 377.631C473.876 379.931 472.791 382.006 471.397 383.752L463.035 374.059ZM471.594 360.943C472.96 362.718 474.021 364.811 474.65 367.135L463.19 370.693L471.594 360.943ZM463.805 355.639L460.748 368.858L457.673 355.559C458.617 355.339 459.598 355.221 460.598 355.221C461.701 355.221 462.772 355.371 463.805 355.639ZM449.602 383.499C448.236 381.724 447.18 379.631 446.55 377.312L458.011 373.754L449.602 383.499ZM446.649 366.816C447.32 364.516 448.405 362.441 449.799 360.695L458.161 370.388L446.649 366.816ZM457.391 388.808L460.448 375.589L463.523 388.888C462.579 389.108 461.598 389.226 460.598 389.226C459.495 389.226 458.424 389.075 457.391 388.808Z" fill="#5D73BB"/>
<path d="M460.599 371.632C465.998 371.632 471.003 372.716 475.153 374.566C475.247 373.791 475.313 373.007 475.313 372.204C475.313 362.825 468.726 355.221 460.599 355.221C452.471 355.221 445.884 362.825 445.884 372.204C445.884 373.007 445.95 373.791 446.044 374.566C450.194 372.716 455.199 371.632 460.599 371.632Z" fill="#5B71BA"/>
<path d="M460.612 353.893C451.851 353.893 444.752 362.098 444.752 372.209C444.752 382.33 451.851 390.531 460.612 390.531C469.373 390.531 476.472 382.33 476.472 372.209C476.472 362.098 469.373 353.893 460.612 353.893ZM460.612 389.244C452.466 389.244 445.87 381.616 445.87 372.209C445.87 362.807 452.466 355.179 460.612 355.179C468.758 355.179 475.355 362.807 475.355 372.209C475.359 381.616 468.758 389.244 460.612 389.244Z" fill="white"/>
<path d="M458.528 366.604C461.209 366.604 463.383 369.116 463.383 372.209C463.383 375.303 461.209 382.776 458.528 382.776C455.847 382.776 453.673 375.303 453.673 372.209C453.673 369.116 455.847 366.604 458.528 366.604Z" fill="#939598"/>
<path d="M458.528 366.604C461.209 366.604 463.383 369.116 463.383 372.209C463.383 375.303 461.209 377.814 458.528 377.814C455.847 377.814 453.673 375.303 453.673 372.209C453.673 369.116 455.847 366.604 458.528 366.604Z" fill="black"/>
<path d="M460.598 366.604C463.279 366.604 465.453 369.116 465.453 372.209C465.453 375.303 463.279 377.814 460.598 377.814C457.917 377.814 455.744 375.303 455.744 372.209C455.744 369.116 457.917 366.604 460.598 366.604Z" fill="white"/>
<path d="M653.648 433.683H640.709C628.351 433.683 618.337 422.117 618.337 407.851C618.337 393.591 628.351 382.024 640.709 382.024H653.648C641.291 382.024 631.276 393.591 631.276 407.851C631.276 422.122 641.291 433.683 653.648 433.683Z" fill="black"/>
<mask id="mask1_23_354" style="mask-type:luminance" maskUnits="userSpaceOnUse" x="618" y="382" width="36" height="52">
<path d="M653.647 433.683H640.708C628.35 433.683 618.336 422.117 618.336 407.851C618.336 393.591 628.35 382.024 640.708 382.024H653.647C641.29 382.024 631.275 393.591 631.275 407.851C631.275 422.122 641.29 433.683 653.647 433.683Z" fill="white"/>
</mask>
<g mask="url(#mask1_23_354)">
<path d="M631.275 407.852C631.275 406.462 631.374 405.101 631.557 403.772H618.618C618.435 405.101 618.336 406.462 618.336 407.852C618.336 422.117 628.35 433.683 640.708 433.683H653.647C641.29 433.683 631.275 422.122 631.275 407.852Z" fill="black"/>
<path d="M623.679 391.103C622.022 393.347 620.693 395.919 619.773 398.731C619.247 400.341 618.862 402.031 618.623 403.773H631.562C631.802 402.027 632.187 400.341 632.712 398.731C633.633 395.924 634.961 393.347 636.619 391.103H623.679Z" fill="black"/>
<path d="M627.999 386.596C626.393 387.878 624.942 389.394 623.679 391.103H636.619C637.882 389.394 639.337 387.878 640.938 386.596H627.999Z" fill="black"/>
<path d="M653.648 382.024H640.708C635.985 382.024 631.609 383.714 627.999 386.596H640.938C644.549 383.719 648.924 382.024 653.648 382.024Z" fill="black"/>
</g>
<path d="M653.146 382.024C665.78 382.024 676.02 393.591 676.02 407.851C676.02 422.117 665.78 433.683 653.146 433.683C640.511 433.683 630.271 422.117 630.271 407.851C630.271 393.591 640.511 382.024 653.146 382.024Z" fill="#939598"/>
<path d="M653.649 382.024C666.006 382.024 676.021 393.591 676.021 407.851C676.021 422.117 666.006 433.683 653.649 433.683C641.291 433.683 631.277 422.117 631.277 407.851C631.277 393.591 641.291 382.024 653.649 382.024Z" fill="#414042"/>
<path d="M653.649 388.649C662.842 388.649 670.288 397.248 670.288 407.857C670.288 418.466 662.842 427.07 653.649 427.07C644.456 427.07 637.01 418.47 637.01 407.857C637.01 397.248 644.456 388.649 653.649 388.649Z" fill="#231F20"/>
<path d="M653.648 391.446C661.499 391.446 667.86 398.797 667.86 407.857C667.86 416.921 661.499 424.272 653.648 424.272C645.798 424.272 639.437 416.921 639.437 407.857C639.432 398.793 645.798 391.446 653.648 391.446Z" fill="black"/>
<path d="M653.649 389.541C644.879 389.541 637.775 397.751 637.775 407.866C637.775 417.992 644.879 426.197 653.649 426.197C662.419 426.197 669.523 417.992 669.523 407.866C669.523 397.751 662.419 389.541 653.649 389.541ZM656.086 409.707L667.598 413.279C666.926 415.579 665.842 417.658 664.447 419.4L656.086 409.707ZM664.645 396.591C666.011 398.365 667.072 400.459 667.701 402.783L656.241 406.341L664.645 396.591ZM656.856 391.287L653.799 404.505L650.724 391.207C651.668 390.986 652.649 390.869 653.649 390.869C654.752 390.869 655.823 391.019 656.856 391.287ZM642.653 419.146C641.287 417.372 640.23 415.278 639.601 412.96L651.062 409.401L642.653 419.146ZM639.7 402.463C640.371 400.163 641.456 398.089 642.85 396.342L651.212 406.036L639.7 402.463ZM650.437 424.456L653.494 411.237L656.569 424.535C655.625 424.756 654.644 424.873 653.644 424.873C652.546 424.873 651.475 424.718 650.437 424.456Z" fill="#5D73BB"/>
<path d="M653.648 407.279C659.048 407.279 664.053 408.363 668.203 410.218C668.297 409.443 668.363 408.659 668.363 407.856C668.363 398.478 661.775 390.873 653.648 390.873C645.521 390.873 638.934 398.478 638.934 407.856C638.934 408.659 639 409.443 639.094 410.218C643.239 408.363 648.249 407.279 653.648 407.279Z" fill="#5B71BA"/>
<path d="M653.663 389.541C644.902 389.541 637.803 397.746 637.803 407.857C637.803 417.973 644.902 426.178 653.663 426.178C662.424 426.178 669.522 417.973 669.522 407.857C669.522 397.746 662.424 389.541 653.663 389.541ZM653.663 424.892C645.517 424.892 638.92 417.264 638.92 407.857C638.92 398.455 645.517 390.827 653.663 390.827C661.809 390.827 668.405 398.455 668.405 407.857C668.405 417.264 661.809 424.892 653.663 424.892Z" fill="white"/>
<path d="M651.579 402.252C654.26 402.252 656.433 404.763 656.433 407.857C656.433 410.95 654.26 418.423 651.579 418.423C648.898 418.423 646.724 410.95 646.724 407.857C646.724 404.763 648.898 402.252 651.579 402.252Z" fill="#939598"/>
<path d="M651.579 402.252C654.26 402.252 656.433 404.763 656.433 407.857C656.433 410.95 654.26 413.462 651.579 413.462C648.898 413.462 646.724 410.95 646.724 407.857C646.724 404.763 648.898 402.252 651.579 402.252Z" fill="black"/>
<path d="M653.649 402.252C656.329 402.252 658.503 404.763 658.503 407.857C658.503 410.95 656.329 413.462 653.649 413.462C650.968 413.462 648.794 410.95 648.794 407.857C648.794 404.763 650.968 402.252 653.649 402.252Z" fill="white"/>
<path d="M713.097 344.88L698.331 342.153C675.204 323.264 660.743 310.566 642.319 299.868C642.319 299.868 637.056 296.751 619.567 293.526C588.618 287.813 568.88 286.555 566.542 286.692C537.808 288.395 498.952 311.561 498.952 311.561C498.952 311.561 474.645 309.313 440.433 317.776C428.179 320.809 422.648 327.554 416.225 335.022C414.497 337.031 410.633 335.792 410.286 337.684C408.018 348.602 407.488 369.017 409.3 369.355C409.3 369.355 418.127 370.979 432.583 373.636C432.761 372.05 432.991 370.454 433.282 368.858C437.55 345.758 451.818 336.28 466.748 339.041C481.683 341.796 491.623 355.742 487.355 378.842C487.064 380.424 486.712 381.978 486.313 383.513C530.803 391.695 585.683 401.782 625.643 409.133C625.816 407.594 626.042 406.049 626.328 404.5C630.596 381.4 644.864 371.923 659.794 374.683C674.729 377.439 684.669 391.385 680.401 414.485C680.119 416.01 679.786 417.512 679.406 418.996L708.956 417.916C714.356 417.869 719.37 414.963 721.938 410.213C724.619 405.251 726.337 399.041 727.586 392.807C728.258 389.47 727.558 386.761 726.591 384.799C725.06 381.691 724.159 378.068 724.825 374.453C727.919 357.77 731.145 348.213 713.097 344.88Z" fill="#596FB9"/>
<path d="M722.389 397.754L692.459 392.229C687.674 391.347 683.444 388.399 680.589 383.949C675.932 376.682 668.95 371.491 660.523 369.937C652.095 368.383 643.719 370.735 636.775 375.861C632.522 379.001 627.517 380.241 622.728 379.358L499.234 356.554C494.45 355.671 490.219 352.724 487.365 348.273C482.707 341.007 475.726 335.815 467.298 334.261C458.871 332.708 450.495 335.059 443.551 340.185C439.297 343.326 434.292 344.565 429.503 343.683L409.878 339.862L324.874 341.12C317.47 339.754 314.644 361.093 324.128 362.051C331.95 362.839 405.305 361.389 408.235 361.924C414.925 363.144 425.541 365.083 425.541 365.083C427.128 365.374 427.489 366.487 427.395 366.998C427.048 368.871 426.846 370.73 426.733 372.575C428.564 372.913 430.508 373.27 432.583 373.65C432.762 372.063 432.992 370.467 433.283 368.871C437.551 345.772 451.819 336.294 466.749 339.054C481.684 341.81 491.623 355.756 487.356 378.856C487.064 380.438 486.712 381.991 486.313 383.526C488.018 383.841 489.741 384.155 491.473 384.475C492.234 381.024 493.694 370.317 493.694 370.317C494.234 367.379 540.954 373.519 543.433 373.974L573.702 379.565C576.181 380.025 623.549 391.258 623.005 394.196C623.005 394.196 620.601 401.913 619.967 408.105C621.883 408.457 623.784 408.804 625.639 409.147C625.812 407.607 626.038 406.063 626.324 404.514C630.592 381.414 644.86 371.937 659.79 374.697C674.725 377.452 684.665 391.398 680.397 414.498C680.115 416.024 679.782 417.526 679.402 419.009L685.388 418.789C686.322 416.484 688.116 413.56 691.501 414.184C691.501 414.184 703.595 415.714 713.685 412.738C718.718 411.255 721.169 406.856 723.723 401.481C724.483 399.895 723.864 398.027 722.389 397.754Z" fill="#6F89F0"/>
<path d="M727 363.459C728.624 353.522 731.192 348.222 713.098 344.884L704.003 343.204C700.388 342.537 697.064 340.805 694.421 338.252C679.152 323.503 659.255 309.707 642.32 299.872C642.32 299.872 637.057 296.755 619.568 293.531C588.618 287.818 568.88 286.56 566.542 286.696C537.808 288.4 498.952 311.565 498.952 311.565C498.952 311.565 474.646 309.317 440.433 317.781C429.663 320.447 424.085 325.981 418.526 332.356C462.598 324.446 569.824 335.121 727 363.459Z" fill="#5B71BA"/>
<path d="M726.601 384.738C725.07 381.63 724.169 378.006 724.836 374.392C725.554 370.505 726.371 367.032 726.906 363.919L708.802 360.577C707.797 366.027 715.356 383.025 727.723 388.343C727.521 386.958 727.099 385.747 726.601 384.738Z" fill="#5D73BB"/>
<path d="M642.32 299.872C642.32 299.872 637.057 296.755 619.568 293.531C588.618 287.818 568.88 286.56 566.542 286.696C537.808 288.4 498.952 311.565 498.952 311.565C498.952 311.565 474.646 309.317 440.433 317.781C436.475 318.762 433.222 320.132 430.409 321.785C487.853 307.965 613.136 321.93 688.637 332.9C674.34 320.193 657.189 308.5 642.32 299.872Z" fill="#5D73BB"/>
<path d="M708.963 355.38C708.071 355.216 707.319 356.277 707.648 357.239L709.85 363.675C711.658 368.946 715.691 372.664 720.583 373.566L724.907 374.364C726.386 372.275 726.973 369.651 727.499 366.825C728.02 363.999 728.41 361.337 727.776 358.859L708.963 355.38Z" fill="#BE1E2D"/>
<path d="M714.095 360.53C713.498 360.422 713.001 361.126 713.221 361.769L714.691 366.059C715.893 369.571 718.583 372.049 721.846 372.65C723.809 373.011 725.762 371.504 726.245 369.228C726.32 368.876 726.386 368.519 726.457 368.158C726.461 368.139 726.461 368.12 726.466 368.101C726.987 365.271 725.419 362.623 722.992 362.173L714.095 360.53Z" fill="#6F89F0"/>
<path opacity="0.5" d="M714.508 357.132C714.076 357.052 713.715 357.563 713.874 358.028L714.935 361.126C715.804 363.666 717.748 365.454 720.105 365.891C721.523 366.154 722.936 365.06 723.283 363.417C723.335 363.164 723.387 362.905 723.434 362.642C723.438 362.628 723.438 362.614 723.443 362.6C723.819 360.554 722.687 358.638 720.931 358.315L714.508 357.132Z" fill="white"/>
<path d="M724.851 374.706L720.527 373.908C715.517 372.983 711.423 369.209 709.573 363.816L707.371 357.38C707.174 356.807 707.268 356.174 707.62 355.676C707.972 355.179 708.498 354.939 709.028 355.038L727.841 358.511C728.006 358.539 728.109 358.718 728.071 358.91C728.039 359.103 727.874 359.23 727.715 359.201L708.902 355.728C708.592 355.671 708.287 355.812 708.08 356.099C707.873 356.39 707.822 356.76 707.934 357.094L710.136 363.529C711.911 368.707 715.841 372.331 720.653 373.218L724.977 374.016C725.142 374.044 725.245 374.223 725.208 374.415C725.175 374.607 725.015 374.739 724.851 374.706Z" fill="black"/>
<path d="M636.54 303.285C636.197 303.163 626.065 299.267 610.337 296.361C575.072 289.85 562.56 290.85 562.438 290.859C543.31 292.662 521.324 306.167 508.187 314.236C506.407 315.33 504.774 316.335 503.309 317.212C503.004 317.395 502.881 317.78 502.985 318.245C503.074 318.663 503.365 319.123 503.82 319.207L671.349 339.082C668.832 332.205 650.766 313.57 636.54 303.285Z" fill="#414042"/>
<path d="M549.434 294.864C549.274 294.784 548.757 294.549 547.659 294.169C534.574 298.53 521.545 306.097 511.901 311.969L551.067 317.231C553.237 311.88 555.669 306.548 558.434 301.408C555.579 299.065 552.551 296.831 549.434 294.864ZM572.805 315.612C569.519 311.627 564.908 306.857 559.612 302.384C557.002 307.285 554.678 312.35 552.607 317.438L569.566 319.715C572.561 320.118 574.496 317.668 572.805 315.612Z" fill="#709AA3"/>
<path d="M590.214 297.544C588.026 297.14 586.289 299.36 587.209 301.388L589.895 307.293C592.529 313.086 597.83 317.231 604.088 318.386L664.856 329.605C658.889 322.568 649.869 313.785 641.39 306.993L590.214 297.544Z" fill="#709AA3"/>
<path d="M599.557 325.033L598.468 324.831L599.308 322.014C601.769 322.47 604.126 321.212 604.285 319.367L604.675 314.828C604.938 311.725 602.088 308.871 597.956 308.106L590.979 306.815C586.848 306.054 582.674 307.608 581.153 310.481L578.927 314.678C578.021 316.386 579.42 318.339 581.88 318.79L583.181 319.029L582.341 321.846L579.946 321.404C574.88 320.47 569.833 322.597 568.453 326.249L568.232 326.835L607.168 331.454C606.727 328.45 603.745 325.807 599.557 325.033ZM637.193 331.985C633.695 331.337 630.202 332.159 627.925 333.928L661.997 337.97C660.673 336.843 658.893 335.994 656.813 335.609L655.724 335.407L656.564 332.59C659.025 333.046 661.382 331.788 661.541 329.943L661.861 326.202C659.607 323.728 657.081 321.127 654.409 318.536L648.231 317.395C644.099 316.63 639.925 318.189 638.404 321.062L636.179 325.258C635.272 326.967 636.672 328.92 639.132 329.37L640.432 329.61L639.592 332.426L637.193 331.985Z" fill="#58595B"/>
<path d="M574.603 318.902L573.514 318.701L574.401 315.64C576.861 316.095 579.247 314.696 579.43 312.692L579.89 307.773C580.204 304.407 577.88 301.853 573.753 301.093L566.279 301.027C562.147 300.262 557.94 302.013 556.368 305.149L554.067 309.73C553.133 311.594 554.504 313.687 556.964 314.138L558.269 314.377L557.011 316.837L554.616 316.396C548.536 315.973 544.292 318.198 542.855 322.174L542.282 323.761L581.899 328.46L582.035 327.835C582.932 323.765 579.669 319.841 574.603 318.902ZM517.807 308.434C514.277 310.505 511.018 312.5 508.192 314.236C506.412 315.33 504.778 316.335 503.314 317.212C503.008 317.396 502.886 317.78 502.99 318.245C503.079 318.663 503.37 319.123 503.825 319.207L523.84 321.583L524.789 317.273C525.653 313.321 522.606 309.519 517.807 308.434Z" fill="#6D6E71"/>
<path opacity="0.5" d="M567.509 307.439C567.626 307.425 579.552 306.322 613.093 312.514C628.051 315.274 637.671 319.076 637.995 319.193C644.507 324.099 651.855 330.952 657.978 337.491L671.349 339.078C668.832 332.205 650.766 313.57 636.54 303.285C636.197 303.163 626.065 299.267 610.337 296.361C575.072 289.85 562.56 290.85 562.438 290.859C543.31 292.662 521.324 306.167 508.187 314.236C506.407 315.33 504.774 316.335 503.309 317.212C503.004 317.395 502.881 317.78 502.985 318.245C503.074 318.663 503.365 319.123 503.82 319.207L529.906 322.301C541.376 315.541 555.095 308.777 567.509 307.439Z" fill="white"/>
<path d="M672.189 339.397C670.405 332.872 651.634 313.331 636.953 302.717C636.929 302.698 636.901 302.684 636.878 302.675C636.775 302.637 626.46 298.629 610.468 295.676C574.875 289.104 562.504 290.156 562.382 290.165C543.094 291.982 521.018 305.543 507.83 313.64C506.055 314.734 504.421 315.734 502.956 316.612C502.393 316.95 502.144 317.63 502.304 318.391C502.445 319.048 502.928 319.752 503.698 319.893C503.731 319.898 503.764 319.902 503.797 319.907L671.814 339.838C671.931 339.852 672.044 339.806 672.119 339.721C672.194 339.637 672.217 339.51 672.189 339.397ZM529.455 304.365C540.019 298.873 551.837 293.972 562.616 292.953C562.71 292.944 570.26 292.385 589.885 295.136C589.049 305.205 587.425 316.058 585.42 326.77L518.755 318.865C519.91 312.645 523.845 307.285 529.455 304.365ZM595.209 327.929C597.153 317.4 598.745 306.698 599.609 296.619C602.815 297.145 606.252 297.741 609.952 298.427C624.337 301.084 633.939 304.562 635.559 305.167C638.113 307.026 640.761 309.134 643.395 311.373C643.127 318.565 642.427 326 641.441 333.412L595.209 327.929ZM663.071 335.98L642.841 333.581C643.775 326.512 644.451 319.424 644.751 312.542C652.555 319.311 660.118 327.075 664.804 332.872C665.884 334.21 664.78 336.182 663.071 335.98Z" fill="black"/>
<path d="M533.591 332.361C533.878 330.807 532.976 328.211 531.577 326.563L528.131 322.508C526.145 320.17 524.178 318.532 522.37 317.598C519.215 315.969 516.553 316.495 515.135 319.189L512.121 315.64C511.849 315.321 511.586 315.307 511.529 315.607L511.13 317.767C511.074 318.067 511.248 318.569 511.52 318.889L524.361 334.013C524.563 334.248 524.76 334.318 524.868 334.215L526.337 335.942C529.328 339.463 532.249 339.623 532.864 336.304L533.436 333.21L533.591 332.361Z" fill="#939598"/>
<path d="M529.84 321.414L514.14 318.513L514.309 317.588C515.515 311.049 521.802 306.726 528.342 307.932L535.159 309.19C536.601 309.458 537.554 310.843 537.291 312.284L536.446 316.861C535.882 319.945 532.925 321.982 529.84 321.414Z" fill="#5B71BA"/>
<path d="M529.587 311.951L537.103 313.34L537.258 312.496C537.545 310.942 536.695 309.482 535.357 309.233L527.493 307.783C521.422 306.661 515.45 311.468 514.145 318.518L515.361 318.743C518.628 313.772 524.07 310.932 529.587 311.951Z" fill="#F1F2F2"/>
<path d="M523.746 320.626L511.539 318.373C511.262 318.321 511.074 318.053 511.126 317.776L511.539 315.542C511.591 315.265 511.858 315.077 512.135 315.129L522.342 317.011C523.727 317.265 524.643 318.598 524.385 319.983L524.342 320.217C524.295 320.494 524.023 320.677 523.746 320.626Z" fill="black"/>
<path d="M582.899 340.524C582.533 342.51 579.932 343.697 577.091 343.171C574.251 342.646 572.246 340.613 572.612 338.627C572.978 336.642 575.579 335.454 578.42 335.98C581.26 336.506 583.265 338.538 582.899 340.524Z" fill="#939598"/>
<path d="M581.176 342.308L572.297 340.67C571.175 340.463 570.438 339.388 570.645 338.267C570.851 337.145 571.926 336.408 573.048 336.614L581.927 338.253C583.049 338.459 583.786 339.534 583.579 340.656C583.373 341.773 582.298 342.515 581.176 342.308Z" fill="#939598"/>
<path d="M582.448 342.543L573.57 340.904C572.448 340.698 571.71 339.623 571.917 338.501C572.124 337.379 573.199 336.642 574.321 336.849L583.199 338.487C584.321 338.693 585.058 339.768 584.852 340.89C584.641 342.007 583.565 342.749 582.448 342.543Z" fill="white"/>
<path d="M660.831 352.142C661.198 350.156 659.193 348.121 656.352 347.596C653.512 347.072 650.911 348.257 650.545 350.243C650.178 352.229 652.183 354.264 655.024 354.789C657.864 355.313 660.465 354.128 660.831 352.142Z" fill="#939598"/>
<path d="M659.099 353.954L650.221 352.315C649.098 352.109 648.361 351.034 648.568 349.912C648.774 348.79 649.85 348.053 650.972 348.26L659.85 349.898C660.972 350.104 661.709 351.179 661.503 352.301C661.291 353.418 660.216 354.16 659.099 353.954Z" fill="#939598"/>
<path d="M660.367 354.189L651.489 352.551C650.367 352.344 649.629 351.269 649.836 350.147C650.043 349.025 651.118 348.288 652.24 348.495L661.118 350.133C662.24 350.34 662.977 351.415 662.771 352.537C662.564 353.654 661.489 354.395 660.367 354.189Z" fill="white"/>
<path d="M573.307 395.905C573.293 395.901 573.279 395.901 573.265 395.896C573.082 395.84 572.979 395.643 573.035 395.459C573.218 394.873 591.486 336.37 594.604 293.376C594.618 293.184 594.787 293.038 594.98 293.052C595.181 293.071 595.318 293.235 595.303 293.428C592.177 336.501 573.889 395.084 573.702 395.671C573.65 395.835 573.481 395.938 573.307 395.905Z" fill="black"/>
<path d="M609.577 402.726L500.877 382.654C499.224 382.348 498.018 380.809 498.069 379.067C499.45 333.323 512.286 311.096 512.417 310.88C512.446 310.829 512.488 310.791 512.54 310.758C526.996 301.994 545.724 291.733 562.377 290.165C562.5 290.156 574.871 289.104 610.464 295.676C626.455 298.629 636.77 302.637 636.874 302.675C636.902 302.684 636.925 302.698 636.949 302.717C651.63 313.331 670.401 332.872 672.185 339.397C672.204 339.468 672.199 339.543 672.176 339.613L667.575 351.996C665.523 357.516 659.067 361 656.386 362.243C632.709 373.021 627.24 383.297 622.845 391.549C621.366 394.328 619.972 396.947 618.047 399.308C615.84 402.022 612.675 403.298 609.577 402.726ZM512.981 311.307C512.164 312.753 500.107 334.867 498.774 379.086C498.731 380.485 499.694 381.719 501.009 381.964L609.708 402.036C612.549 402.561 615.464 401.374 617.511 398.867C619.389 396.558 620.774 393.966 622.235 391.22C626.681 382.874 632.212 372.486 656.105 361.605C658.706 360.403 664.969 357.028 666.931 351.752L671.49 339.472C669.734 333.609 651.973 314.438 636.587 303.309C635.864 303.032 625.761 299.206 610.347 296.361C574.848 289.808 562.57 290.846 562.453 290.86C545.959 292.414 527.362 302.595 512.981 311.307Z" fill="black"/>
<path d="M402.37 336.919C436.414 336.919 439.071 333.041 443.959 327.61H330.634C329.146 329.492 327.432 331.708 324.784 334.792C323.371 336.44 320.244 336.074 318.925 336.919H402.37Z" fill="#5D73BB"/>
<path d="M448.636 320.067H421.282C406.178 320.067 396.192 322.7 389.722 325.681C388.168 326.394 386.553 326.812 385.004 326.812H341.143C340.631 325.709 340.307 324.451 340.298 322.996C340.288 321.404 339.279 320.231 337.706 320.099C332.673 324.089 328.41 328.652 325.518 333.853C325.475 333.928 325.428 333.989 325.381 334.055H419.681C424.78 334.055 441.278 330.596 448.795 325.366C451.19 323.695 451.082 320.067 448.636 320.067Z" fill="black"/>
<path d="M396.521 333.21C402.094 333.21 412.78 333.21 417.245 333.21C429.353 333.21 443.316 328.816 448.453 325.108C450.49 323.639 450.359 320.409 448.293 320.409H425.207C402.737 320.409 385.168 333.21 396.521 333.21Z" fill="#5D73BB"/>
<path d="M413.972 332.229C430.527 332.657 435.752 329.3 442.593 325.845C444.889 324.686 444.4 322.146 441.921 322.146H436.762C422.705 322.146 415.714 327.662 413.005 330.577C412.268 331.37 412.85 332.201 413.972 332.229Z" fill="#5B71BA"/>
<path d="M404.197 329.765C411.004 329.319 424.977 327.197 431.451 324.174C433.625 323.16 433.109 320.93 430.733 320.93H425.798C412.347 320.93 405.774 325.765 403.239 328.314C402.549 329.013 403.098 329.84 404.197 329.765Z" fill="white"/>
<path d="M325.902 333.205C326.442 333.21 327.128 333.21 328.034 333.21C335.255 333.21 340.016 330.638 340.034 322.888C340.039 321.428 338.771 320.555 337.293 320.437C332.654 324.174 328.701 328.417 325.902 333.205Z" fill="#5D73BB"/>
<path d="M329.706 332.393C330.025 332.393 330.424 332.398 330.959 332.398C335.208 332.398 337.988 330.98 337.931 326.704C337.922 325.897 337.166 325.418 336.293 325.352C333.598 327.417 331.307 329.755 329.706 332.393Z" fill="#5B71BA"/>
<path d="M331.254 327.07C331.55 327.07 331.93 327.075 332.433 327.075C336.414 327.075 338.987 325.873 338.837 322.249C338.809 321.564 338.09 321.16 337.273 321.104C334.79 322.85 332.696 324.831 331.254 327.07Z" fill="white"/>
<path d="M408.357 364.022H319.799C318.991 364.022 318.367 363.553 318.217 362.821C318.198 362.736 318.184 362.652 318.165 362.567C317.015 356.789 322.94 350.278 329.269 350.278H397.394C404.408 350.278 409.831 354.249 411.399 360.525C411.798 362.131 410.155 364.022 408.357 364.022Z" fill="black"/>
<path d="M442.945 300.698C442.945 299.797 442.626 298.91 442.011 298.046C422.916 304.613 407.019 311.565 407.019 311.565C407.019 311.565 367.613 309.965 341.509 318.719C415.367 318.259 442.945 309.922 442.945 300.698Z" fill="#5D73BB"/>
<path d="M472.106 289.263C446.288 295.028 414.479 308.369 408.159 311.072H488.036C491.045 311.072 493.947 310.378 496.276 309.101C503.53 305.125 521.009 296.042 538.991 290.404C539.865 290.132 542.165 289.259 541.203 289.259H472.106V289.263Z" fill="black"/>
<path d="M465.764 290.798C444.833 296.206 421.771 305.392 411.931 309.486H486.972C489.54 309.486 492.019 308.89 494 307.801C500.193 304.393 515.109 296.61 530.457 291.784C531.204 291.549 533.166 290.803 532.34 290.803H465.764V290.798Z" fill="#414042"/>
<path d="M478.801 292.601C467.688 293.62 455.5 298.516 444.612 304.013C441.941 305.36 439.654 307.252 437.833 309.486H486.971C489.539 309.486 492.018 308.89 493.999 307.801C496.671 306.332 500.967 304.046 506.216 301.539C506.221 301.516 506.221 301.492 506.225 301.469C506.657 297.737 503.943 294.376 500.216 293.939C484.938 292.16 478.891 292.597 478.801 292.601Z" fill="#709AA3"/>
<path d="M498.009 298.337C493.807 298.337 489.985 300.825 489.013 304.19L487.586 309.115C487.553 309.232 487.553 309.34 487.534 309.457C489.896 309.377 492.168 308.814 494.004 307.805C497.3 305.993 503.079 302.937 510.066 299.75C508.723 298.872 507.014 298.342 505.108 298.342H498.009V298.337Z" fill="#6D6E71"/>
<path opacity="0.5" d="M437.673 307.519C457.575 300.135 478.642 296.356 499.873 296.356H517.892C521.93 294.709 526.17 293.127 530.456 291.779C531.203 291.545 533.165 290.798 532.339 290.798H465.759C444.828 296.206 421.766 305.392 411.925 309.486H432.461C434.138 308.847 435.87 308.19 437.673 307.519Z" fill="white"/>
<path d="M422.184 452.573C422.184 435.608 434.095 421.85 448.795 421.85H423.362C408.662 421.85 396.75 435.608 396.75 452.573C396.75 469.547 408.662 483.305 423.362 483.305H448.795C434.095 483.301 422.184 469.542 422.184 452.573Z" fill="#231F20"/>
<path d="M448.199 421.845C463.233 421.845 475.412 435.603 475.412 452.568C475.412 469.542 463.233 483.3 448.199 483.3C433.166 483.3 420.987 469.542 420.987 452.568C420.992 435.608 433.17 421.845 448.199 421.845Z" fill="#939598"/>
<path d="M448.795 421.845C463.495 421.845 475.407 435.603 475.407 452.568C475.407 469.542 463.495 483.3 448.795 483.3C434.095 483.3 422.184 469.542 422.184 452.568C422.184 435.608 434.095 421.845 448.795 421.845Z" fill="black"/>
<path d="M557.818 434.974H440.179V460.543H557.818V434.974Z" fill="black"/>
<path d="M503.097 463.815C508.292 458.622 508.292 450.202 503.097 445.008C497.903 439.815 489.481 439.815 484.287 445.008C479.093 450.202 479.093 458.622 484.287 463.815C489.481 469.008 497.903 469.008 503.097 463.815Z" fill="black"/>
<path d="M717.168 464.66H555.612L539.602 445.433H13.9729C10.0854 445.433 6.93506 441.771 6.93506 437.256V422.915C6.93506 397.811 24.4523 377.462 46.0589 377.462H356.692V389.765H367.557L595.872 418.625L717.168 464.66Z" fill="black"/>
<path d="M523.62 421.263H143.401V459.28H523.62V421.263Z" fill="black"/>
<path d="M240.846 403.171V323.831C240.846 315.274 247.809 308.312 256.368 308.312H297.182V304.393H256.368C245.649 304.393 230.775 313.114 230.775 323.831V407.096H297.187V403.176H240.846V403.171Z" fill="black"/>
<path d="M360.236 323.831C360.236 313.114 351.512 304.393 340.794 304.393H297.186V308.312H340.794C349.353 308.312 349.207 315.274 349.207 323.831V403.171H297.186V407.091H360.236V323.831Z" fill="#6F89F0"/>
<path d="M352.672 407.091H229.362V323.831C229.362 313.114 238.085 304.393 248.804 304.393H333.226C343.944 304.393 352.668 313.114 352.668 323.831V407.091H352.672ZM233.282 403.171H348.747V323.831C348.747 315.274 341.785 308.312 333.226 308.312H248.804C240.245 308.312 233.282 315.274 233.282 323.831V403.171Z" fill="black"/>
<path d="M266.702 299.459H250.678V290.113C250.678 285.691 254.265 282.105 258.688 282.105C263.11 282.105 266.697 285.691 266.697 290.113V299.459H266.702Z" fill="#F7941D"/>
<path d="M264.867 292.961C265.673 289.548 263.559 286.127 260.145 285.321C256.73 284.515 253.309 286.629 252.503 290.042C251.697 293.456 253.811 296.877 257.225 297.683C260.639 298.489 264.061 296.375 264.867 292.961Z" fill="#5B71BA"/>
<path d="M263.155 295.414C264.644 293.925 264.644 291.512 263.155 290.024C261.666 288.535 259.252 288.535 257.764 290.024C256.275 291.512 256.275 293.925 257.764 295.414C259.252 296.902 261.666 296.902 263.155 295.414Z" fill="#5B71BA"/>
<path d="M256.152 291.451C257.555 291.451 258.692 290.314 258.692 288.912C258.692 287.509 257.555 286.372 256.152 286.372C254.749 286.372 253.612 287.509 253.612 288.912C253.612 290.314 254.749 291.451 256.152 291.451Z" fill="white"/>
<path d="M267.862 299.458H249.523V304.265H267.862V299.458Z" fill="#414042"/>
<path d="M267.856 299.458H253.607V304.265H267.856V299.458Z" fill="#231F20"/>
<path d="M267.857 299.458H260.467V304.265H267.857V299.458Z" fill="black"/>
<path d="M290.27 299.459H274.246V290.113C274.246 285.691 277.833 282.105 282.256 282.105C286.679 282.105 290.266 285.691 290.266 290.113V299.459H290.27Z" fill="#6F89F0"/>
<path d="M286.746 295.94C289.227 293.46 289.227 289.439 286.746 286.959C284.265 284.478 280.243 284.478 277.762 286.959C275.282 289.439 275.282 293.46 277.762 295.94C280.243 298.421 284.265 298.421 286.746 295.94Z" fill="#5B71BA"/>
<path d="M286.727 295.412C288.216 293.923 288.216 291.51 286.727 290.021C285.239 288.533 282.825 288.533 281.336 290.021C279.847 291.51 279.847 293.923 281.336 295.412C282.825 296.9 285.239 296.9 286.727 295.412Z" fill="#5B71BA"/>
<path d="M282.261 288.912C282.261 290.315 281.125 291.451 279.721 291.451C278.317 291.451 277.181 290.315 277.181 288.912C277.181 287.508 278.317 286.372 279.721 286.372C281.125 286.372 282.261 287.508 282.261 288.912Z" fill="white"/>
<path d="M291.431 299.458H273.092V304.265H291.431V299.458Z" fill="#414042"/>
<path d="M291.43 299.458H277.181V304.265H291.43V299.458Z" fill="#231F20"/>
<path d="M291.43 299.458H284.04V304.265H291.43V299.458Z" fill="black"/>
<path d="M313.845 299.459H297.821V290.113C297.821 285.691 301.408 282.105 305.831 282.105C310.253 282.105 313.84 285.691 313.84 290.113V299.459H313.845Z" fill="#2B3990"/>
<path d="M308.283 297.322C311.525 295.98 313.064 292.264 311.721 289.024C310.379 285.783 306.663 284.244 303.421 285.587C300.18 286.929 298.641 290.644 299.983 293.885C301.326 297.126 305.042 298.665 308.283 297.322Z" fill="#5B71BA"/>
<path d="M311.384 293.334C311.722 291.256 310.312 289.298 308.236 288.961C306.161 288.625 304.204 290.036 303.867 292.114C303.53 294.192 304.939 296.15 307.015 296.486C309.091 296.823 311.047 295.412 311.384 293.334Z" fill="#5B71BA"/>
<path d="M305.83 288.912C305.83 290.315 304.694 291.451 303.29 291.451C301.886 291.451 300.75 290.315 300.75 288.912C300.75 287.508 301.886 286.372 303.29 286.372C304.694 286.372 305.83 287.508 305.83 288.912Z" fill="white"/>
<path d="M315 299.458H296.661V304.265H315V299.458Z" fill="#414042"/>
<path d="M315 299.458H300.75V304.265H315V299.458Z" fill="#231F20"/>
<path d="M314.999 299.458H307.609V304.265H314.999V299.458Z" fill="black"/>
<path d="M337.414 299.459H321.39V290.113C321.39 285.691 324.977 282.105 329.4 282.105C333.823 282.105 337.41 285.691 337.41 290.113V299.459H337.414Z" fill="#F7941D"/>
<path d="M331.858 297.321C335.099 295.979 336.638 292.263 335.296 289.023C333.953 285.782 330.237 284.243 326.995 285.585C323.754 286.928 322.215 290.643 323.558 293.884C324.9 297.124 328.616 298.663 331.858 297.321Z" fill="#5B71BA"/>
<path d="M334.885 293.654C335.369 291.605 334.1 289.552 332.051 289.069C330.002 288.585 327.948 289.853 327.464 291.902C326.981 293.951 328.249 296.004 330.299 296.487C332.348 296.971 334.401 295.703 334.885 293.654Z" fill="#5B71BA"/>
<path d="M326.859 291.451C328.262 291.451 329.399 290.314 329.399 288.911C329.399 287.509 328.262 286.372 326.859 286.372C325.457 286.372 324.319 287.509 324.319 288.911C324.319 290.314 325.457 291.451 326.859 291.451Z" fill="white"/>
<path d="M338.574 299.458H320.235V304.265H338.574V299.458Z" fill="#414042"/>
<path d="M338.569 299.458H324.32V304.265H338.569V299.458Z" fill="#231F20"/>
<path d="M338.57 299.458H331.18V304.265H338.57V299.458Z" fill="black"/>
<path d="M326.094 443.551H317.784V463.998H326.094V443.551Z" fill="black"/>
<path d="M226.625 443.551H218.314V463.998H226.625V443.551Z" fill="black"/>
<path d="M342.536 463.999H215.888C211.549 463.999 208.033 460.483 208.033 456.145V454.559H342.536V463.999Z" fill="#231F20"/>
<path d="M328.691 459.281H232.841C230.245 459.281 228.142 457.178 228.142 454.582V454.559H333.386V454.582C333.39 457.178 331.287 459.281 328.691 459.281Z" fill="white"/>
<path d="M218.315 463.999H215.639C211.437 463.999 208.033 460.596 208.033 456.394V454.559H218.315V463.999Z" fill="#414042"/>
<path d="M321.395 459.281H232.841C230.245 459.281 228.142 457.178 228.142 454.582V454.559H326.094V454.582C326.094 457.178 323.991 459.281 321.395 459.281Z" fill="#5B71BA"/>
<path d="M149.702 452.573C149.702 435.609 161.613 421.85 176.313 421.85H150.88C136.18 421.85 124.269 435.609 124.269 452.573C124.269 469.547 136.18 483.306 150.88 483.306H176.313C161.613 483.301 149.702 469.542 149.702 452.573Z" fill="black"/>
<path d="M175.712 421.845C190.745 421.845 202.924 435.603 202.924 452.568C202.924 469.542 190.745 483.3 175.712 483.3C160.678 483.3 148.5 469.542 148.5 452.568C148.504 435.608 160.683 421.845 175.712 421.845Z" fill="#939598"/>
<path d="M176.313 421.845C191.013 421.845 202.925 435.603 202.925 452.568C202.925 469.542 191.013 483.3 176.313 483.3C161.613 483.3 149.702 469.542 149.702 452.568C149.702 435.608 161.613 421.845 176.313 421.845Z" fill="#414042"/>
<path d="M176.313 429.722C187.248 429.722 196.108 439.955 196.108 452.573C196.108 465.195 187.248 475.428 176.313 475.428C165.379 475.428 156.519 465.195 156.519 452.573C156.519 439.955 165.379 429.722 176.313 429.722Z" fill="#231F20"/>
<path d="M176.313 431.496C186.398 431.496 194.567 440.935 194.567 452.568C194.567 464.209 186.398 473.649 176.313 473.649C166.228 473.649 158.059 464.209 158.059 452.568C158.059 440.935 166.228 431.496 176.313 431.496Z" fill="#596FB9"/>
<path d="M169.191 433.162C162.65 436.368 158.059 443.851 158.059 452.568C158.059 461.289 162.646 468.777 169.191 471.983C177.684 470.945 184.299 462.651 184.299 452.568C184.299 442.494 177.684 434.204 169.191 433.162Z" fill="black"/>
<path d="M173.163 431.834C172.181 432.032 171.233 432.318 170.313 432.689C170.613 432.75 170.914 432.787 171.209 432.862L167.571 448.588L164.726 436.294C162.42 438.486 160.594 441.317 159.434 444.556L164.486 450.414L158.401 448.527C158.181 449.841 158.059 451.193 158.059 452.578C158.059 453.836 158.171 455.066 158.354 456.267L164.308 454.423L159.312 460.215C160.411 463.473 162.181 466.336 164.439 468.575L167.209 456.605L170.867 472.425C170.712 472.462 170.552 472.476 170.392 472.509C171.303 472.871 172.247 473.148 173.214 473.34C180.792 470.5 186.271 462.295 186.271 452.601C186.271 442.875 180.769 434.651 173.163 431.834ZM180.238 466.308L170.289 454.775L183.985 459.023C183.186 461.764 181.895 464.233 180.238 466.308ZM184.107 446.536L170.472 450.771L180.473 439.176C182.097 441.284 183.355 443.776 184.107 446.536Z" fill="#5D73BB"/>
<path d="M176.313 449.348C183.177 449.348 189.478 451.01 194.516 453.774C194.534 453.375 194.567 452.976 194.567 452.573C194.567 440.936 186.398 431.501 176.313 431.501C166.228 431.501 158.059 440.941 158.059 452.573C158.059 452.976 158.091 453.375 158.11 453.774C163.143 451.01 169.449 449.348 176.313 449.348Z" fill="#939598"/>
<path d="M176.331 430.787C165.908 430.787 157.467 440.546 157.467 452.577C157.467 464.613 165.908 474.372 176.331 474.372C186.754 474.372 195.196 464.613 195.196 452.577C195.196 440.546 186.75 430.787 176.331 430.787ZM176.331 472.837C166.646 472.837 158.796 463.763 158.796 452.573C158.796 441.386 166.646 432.313 176.331 432.313C186.017 432.313 193.867 441.386 193.867 452.573C193.867 463.768 186.017 472.837 176.331 472.837Z" fill="white"/>
<path d="M164.922 445.907C168.11 445.907 170.697 448.893 170.697 452.573C170.697 456.253 168.115 465.144 164.922 465.144C161.734 465.144 159.147 456.253 159.147 452.573C159.152 448.893 161.734 445.907 164.922 445.907Z" fill="#939598"/>
<path d="M164.922 445.907C168.11 445.907 170.697 448.893 170.697 452.573C170.697 456.253 168.115 459.239 164.922 459.239C161.734 459.239 159.147 456.253 159.147 452.573C159.152 448.893 161.734 445.907 164.922 445.907Z" fill="black"/>
<path d="M167.387 445.907C170.575 445.907 173.162 448.893 173.162 452.573C173.162 456.253 170.58 459.239 167.387 459.239C164.199 459.239 161.612 456.253 161.612 452.573C161.612 448.893 164.199 445.907 167.387 445.907Z" fill="white"/>
<path d="M537.428 452.573C537.428 435.609 549.339 421.85 564.039 421.85H538.606C523.906 421.85 511.995 435.609 511.995 452.573C511.995 469.547 523.906 483.306 538.606 483.306H564.039C549.339 483.301 537.428 469.542 537.428 452.573Z" fill="black"/>
<path d="M563.443 421.845C578.476 421.845 590.655 435.603 590.655 452.568C590.655 469.542 578.476 483.3 563.443 483.3C548.409 483.3 536.23 469.542 536.23 452.568C536.23 435.608 548.409 421.845 563.443 421.845Z" fill="#939598"/>
<path d="M564.039 421.845C578.739 421.845 590.651 435.603 590.651 452.568C590.651 469.542 578.739 483.3 564.039 483.3C549.339 483.3 537.428 469.542 537.428 452.568C537.428 435.608 549.339 421.845 564.039 421.845Z" fill="#414042"/>
<path d="M564.039 429.722C574.974 429.722 583.833 439.955 583.833 452.573C583.833 465.195 574.974 475.428 564.039 475.428C553.104 475.428 544.245 465.195 544.245 452.573C544.245 439.955 553.104 429.722 564.039 429.722Z" fill="#231F20"/>
<path d="M564.039 431.496C574.124 431.496 582.293 440.935 582.293 452.568C582.293 464.209 574.124 473.649 564.039 473.649C553.954 473.649 545.785 464.209 545.785 452.568C545.785 440.935 553.954 431.496 564.039 431.496Z" fill="#596FB9"/>
<path d="M556.917 433.162C550.376 436.368 545.785 443.851 545.785 452.568C545.785 461.289 550.372 468.777 556.917 471.983C565.41 470.945 572.025 462.651 572.025 452.568C572.025 442.494 565.41 434.204 556.917 433.162Z" fill="black"/>
<path d="M560.889 431.834C559.907 432.032 558.959 432.318 558.039 432.689C558.339 432.75 558.64 432.787 558.935 432.862L555.297 448.588L552.452 436.294C550.146 438.486 548.32 441.317 547.16 444.556L552.212 450.414L546.127 448.527C545.907 449.841 545.785 451.193 545.785 452.578C545.785 453.836 545.897 455.066 546.08 456.267L552.034 454.423L547.038 460.215C548.137 463.473 549.907 466.336 552.165 468.575L554.935 456.605L558.593 472.425C558.438 472.462 558.278 472.476 558.119 472.509C559.029 472.871 559.973 473.148 560.94 473.34C568.518 470.5 573.997 462.295 573.997 452.601C573.997 442.875 568.495 434.651 560.889 431.834ZM567.964 466.308L558.015 454.775L571.711 459.023C570.913 461.764 569.626 464.233 567.964 466.308ZM571.833 446.536L558.198 450.771L568.199 439.176C569.823 441.284 571.082 443.776 571.833 446.536Z" fill="#5D73BB"/>
<path d="M564.039 449.348C570.903 449.348 577.204 451.01 582.242 453.774C582.26 453.375 582.293 452.976 582.293 452.573C582.293 440.936 574.124 431.501 564.039 431.501C553.954 431.501 545.785 440.941 545.785 452.573C545.785 452.976 545.818 453.375 545.836 453.774C550.869 451.01 557.175 449.348 564.039 449.348Z" fill="#939598"/>
<path d="M564.058 430.787C553.635 430.787 545.193 440.546 545.193 452.577C545.193 464.613 553.635 474.372 564.058 474.372C574.481 474.372 582.923 464.613 582.923 452.577C582.923 440.546 574.481 430.787 564.058 430.787ZM564.058 472.837C554.372 472.837 546.522 463.763 546.522 452.573C546.522 441.386 554.372 432.313 564.058 432.313C573.744 432.313 581.594 441.386 581.594 452.573C581.599 463.768 573.744 472.837 564.058 472.837Z" fill="white"/>
<path d="M552.654 445.907C555.842 445.907 558.429 448.893 558.429 452.573C558.429 456.253 555.846 465.144 552.654 465.144C549.466 465.144 546.879 456.253 546.879 452.573C546.879 448.893 549.461 445.907 552.654 445.907Z" fill="#939598"/>
<path d="M552.654 445.907C555.842 445.907 558.429 448.893 558.429 452.573C558.429 456.253 555.846 459.239 552.654 459.239C549.466 459.239 546.879 456.253 546.879 452.573C546.879 448.893 549.461 445.907 552.654 445.907Z" fill="black"/>
<path d="M555.114 445.907C558.302 445.907 560.889 448.893 560.889 452.573C560.889 456.253 558.306 459.239 555.114 459.239C551.926 459.239 549.339 456.253 549.339 452.573C549.339 448.893 551.926 445.907 555.114 445.907Z" fill="white"/>
<path d="M343.931 367.599C343.931 360.98 337.208 327.018 337.194 327.004C329.954 320.456 234.335 319.038 154.472 327.244C146.584 328.056 126.842 338.618 92.5067 368.388C75.6797 370.322 26.0343 376.424 18.5316 381.855C9.47956 388.408 -1.97634 412.001 4.67653 441.813H134.382C134.382 418.92 150.077 400.364 169.44 400.364C188.802 400.364 204.498 418.92 204.498 441.813H334.391C334.386 418.92 343.931 367.599 343.931 367.599Z" fill="#5B71BA"/>
<path d="M347.931 367.599C347.931 360.981 343.536 331.548 337.569 327.244C329.996 321.785 293.145 323.268 272.261 327.244C264.472 328.727 244.631 338.618 210.296 368.388C193.469 370.322 143.823 376.424 136.321 381.855C131.663 385.226 126.377 393.103 123.24 404.016C119.433 417.273 107.287 426.393 93.4926 426.393H2.72803C2.87357 431.294 3.47455 436.453 4.67178 441.814H134.377C134.377 418.92 150.073 400.364 169.435 400.364C188.797 400.364 204.493 418.92 204.493 441.814H347.077L348.532 431.965V377.457L347.931 367.599Z" fill="#6F89F0"/>
<path d="M80.2478 430.36H37.0158C24.5881 430.36 23.9448 436.669 21.8696 444.959H105.052C102.976 436.669 92.6756 430.36 80.2478 430.36Z" fill="black"/>
<path d="M347.931 367.599C347.931 360.981 343.537 331.548 337.569 327.244C329.996 321.785 293.145 323.268 272.261 327.244C264.472 328.727 244.631 338.618 210.296 368.388C193.469 370.322 143.824 376.424 136.321 381.855C134.255 383.353 132.063 385.742 129.992 388.887C159.965 378.372 221.217 377.462 327.395 377.462H348.542L348.265 372.904L347.931 367.599Z" fill="#5D73BB"/>
<path d="M222.108 408.584C212.925 408.584 204.183 404.805 197.769 398.238C190.079 390.357 180.205 385.615 169.425 385.615C144.518 385.615 124.409 410.908 125.01 441.8C125.015 441.804 125.02 441.809 125.024 441.814H134.377C134.377 418.92 150.072 400.364 169.435 400.364C188.797 400.364 204.493 418.92 204.493 441.814H213.826C213.831 441.809 213.836 441.804 213.84 441.8C213.967 435.42 213.197 429.29 211.695 423.563H346.424L350.105 413.715L348.527 408.584H222.108Z" fill="#6F89F0"/>
<path d="M215.479 413.715C211.178 413.715 207.277 411.377 205.051 407.697C196.952 394.3 184.017 385.615 169.425 385.615C144.518 385.615 124.409 410.908 125.01 441.8C125.015 441.804 125.02 441.809 125.024 441.814H134.377C134.377 418.92 150.072 400.364 169.435 400.364C188.797 400.364 204.493 418.92 204.493 441.814H213.826C213.831 441.809 213.836 441.804 213.84 441.8C213.967 435.42 213.197 429.29 211.695 423.563H348.532L350.109 422.108V413.715H215.479Z" fill="#8CA1F3"/>
<path d="M104.521 358.253C100.732 361.352 96.7269 364.722 92.5014 368.388C78.2895 370.022 40.6728 374.631 24.7988 379.293C61.4249 378.443 139.996 375.669 156.086 367.308C166.608 361.844 136.968 359.366 104.521 358.253Z" fill="#5D73BB"/>
<path d="M273.961 334.172C267.885 335.505 253.415 343.575 229.048 366.585C227.959 367.613 227.344 369.064 227.344 370.575C227.344 372.251 228.715 373.598 230.391 373.551C240.513 373.288 274.078 372.373 304.418 371.092C304.474 351.015 304.009 336.848 303.779 331.008C291.901 331.581 280.661 332.708 273.961 334.172Z" fill="#231F20"/>
<path d="M204.037 368.388C229.953 345.917 247.607 334.778 258.058 330.023H145.865C135.329 334.849 117.92 346.354 92.5013 368.388H92.4966H204.037Z" fill="black"/>
<path d="M80.2478 423.563H37.0158C24.5881 423.563 23.9448 417.09 21.8696 408.584H105.052C102.976 417.09 92.6756 423.563 80.2478 423.563Z" fill="black"/>
<path d="M139.265 333.436C129.288 339.087 115.221 349.015 96.5728 364.891H195.934C201.084 364.891 206.075 363.088 210.047 359.821C224.348 348.062 235.687 340.19 244.302 335.111C245.096 334.642 244.767 333.436 243.842 333.436H139.265Z" fill="#709AA3"/>
<path d="M130.541 388.277H110.005C104.915 390.362 96.9856 391.709 88.0415 391.709H40.246C31.3019 391.709 27.8886 390.362 25.9543 388.277H12.6109C8.73283 393.929 5.21624 402.233 3.61523 412.363H122.578C130.151 412.363 136.288 406.228 136.288 398.656V394.018C136.283 390.85 133.71 388.277 130.541 388.277Z" fill="black"/>
<path d="M107.258 396.915L105.342 400.872C104.474 402.66 105.779 404.745 107.77 404.745H132.236C133.151 404.745 133.978 404.177 134.287 403.318C134.813 401.872 135.104 400.313 135.104 398.684V394.047C135.104 393.493 135.024 392.962 134.874 392.455C134.555 391.376 133.569 390.634 132.447 390.634H117.268C113.005 390.639 109.117 393.075 107.258 396.915Z" fill="#5D73BB"/>
<path d="M112.728 398.773L111.507 401.299C110.953 402.439 111.784 403.768 113.057 403.768H129.569C130.147 402.604 130.475 401.294 130.475 399.905V396.947C130.475 396.131 130.198 395.384 129.743 394.774H119.104C116.39 394.774 113.911 396.328 112.728 398.773Z" fill="#5B71BA"/>
<path d="M109.916 395.29L109.085 397.003C108.709 397.778 109.273 398.679 110.136 398.679H121.362C121.752 397.886 121.982 396.999 121.982 396.055V394.046C121.982 393.492 121.794 392.98 121.484 392.567H114.254C112.409 392.567 110.723 393.624 109.916 395.29Z" fill="white"/>
<path d="M123.465 397.529L122.169 400.21C121.582 401.421 122.465 402.829 123.812 402.829H134.433C134.855 401.519 135.104 400.135 135.104 398.684V394.046C135.104 393.783 135.076 393.53 135.038 393.276H130.24C127.352 393.281 124.723 394.933 123.465 397.529Z" fill="#F7941D"/>
<path d="M16.7237 390.639H11.1413C8.86424 394.47 6.80312 399.234 5.28662 404.745H21.5127C23.5034 404.745 25.5035 402.665 25.2312 400.872L24.6396 396.915C24.0621 393.075 20.9868 390.639 16.7237 390.639Z" fill="#5D73BB"/>
<path d="M20.5083 400.012L20.7665 401.726C20.8839 402.5 20.0153 403.401 19.1561 403.401H7.93025C7.80348 402.608 7.8739 401.721 8.18847 400.777L8.85987 398.768C9.04768 398.214 9.40449 397.703 9.85052 397.29H17.0809C18.926 397.294 20.2594 398.35 20.5083 400.012Z" fill="#5B71BA"/>
<path d="M9.17949 402.834C10.527 402.834 11.8791 401.425 11.7007 400.214L11.2969 397.534C11.081 396.093 10.3298 394.957 9.22175 394.22C7.96347 396.797 6.81318 399.679 5.84131 402.838H9.17949V402.834Z" fill="#F7941D"/>
<path d="M22.3344 395.999L22.5927 397.712C22.71 398.487 21.8415 399.388 20.9823 399.388H9.75642C9.62965 398.595 9.70009 397.708 10.0147 396.764L10.686 394.755C10.8738 394.201 11.2307 393.689 11.6767 393.276H18.9071C20.7522 393.281 22.0856 394.337 22.3344 395.999Z" fill="white"/>
<path d="M326.48 387.606H319.184C316.541 387.606 314.367 385.512 314.278 382.865L312.414 328.422C312.414 325.995 330.33 327.929 330.33 327.929C337.405 329.854 340.377 353.442 342.025 370.514C342.913 379.677 335.692 387.606 326.48 387.606Z" fill="black"/>
<path d="M326.428 377.457H320.756C318.7 377.457 317.014 375.828 316.939 373.772L315.493 331.44C315.493 329.553 329.423 331.055 329.423 331.055C334.926 332.553 337.236 350.893 338.518 364.168C339.203 371.294 333.588 377.457 326.428 377.457Z" fill="#58595B"/>
<path opacity="0.5" d="M320.77 348.039C320.77 346.232 335.203 347.532 336.423 347.645C334.954 339.162 332.785 331.966 329.428 331.055C329.428 331.055 315.498 329.553 315.498 331.44L316.944 373.772C317.014 375.828 318.704 377.457 320.761 377.457H321.911L320.77 348.039Z" fill="white"/>
<path d="M243.847 333.436H139.265C129.288 339.087 115.221 349.015 96.5728 364.891H111.174C139.711 345.739 155.435 338.923 161.655 337.768C168.731 336.454 180.262 335.445 192.286 334.933C191.159 339.566 188.516 350.057 184.281 364.891H195.028L200.953 335.876C201.404 333.989 214.977 335.492 214.977 335.492C218.292 336.454 218.611 344.415 217.916 353.503C228.579 345.161 237.33 339.219 244.298 335.111C245.1 334.647 244.767 333.436 243.847 333.436Z" fill="#231F20"/>
<path d="M230.719 340.275H211.606C208.531 340.275 205.714 342.415 205.314 345.049L204.037 353.447C203.817 354.892 202.272 356.061 200.591 356.061C198.122 356.061 195.863 357.779 195.539 359.896L194.779 364.886H195.938C201.089 364.886 206.08 363.088 210.052 359.817C219.353 352.17 227.391 346.175 234.25 341.514C233.377 340.754 232.156 340.275 230.719 340.275ZM229.048 366.586C227.959 367.614 227.344 369.064 227.344 370.576C227.344 372.251 228.715 373.599 230.391 373.552C232.358 373.5 235.227 373.425 238.771 373.326L240.814 359.901C240.992 358.713 240.513 357.667 239.635 356.967C236.339 359.835 232.813 363.032 229.048 366.586ZM294.361 356.066C292.675 356.066 291.492 354.892 291.708 353.451L292.985 345.054C293.384 342.415 291.22 340.28 288.144 340.28H269.031C265.956 340.28 263.139 342.42 262.74 345.054L261.462 353.451C261.242 354.897 259.697 356.066 258.016 356.066C255.547 356.066 253.288 357.784 252.965 359.901L250.974 372.974C263.777 372.594 280.257 372.059 296.488 371.416L298.239 359.901C298.567 357.784 296.826 356.066 294.361 356.066Z" fill="#726658"/>
<path d="M118.737 357.404C112.634 357.404 106.802 359.943 102.647 364.417L102.201 364.895H195.933C201.083 364.895 206.074 363.093 210.046 359.826C211.051 359 212.042 358.197 213.018 357.404H118.737Z" fill="#C49A6C"/>
<path opacity="0.5" d="M273.961 334.172C267.886 335.505 253.415 343.574 229.048 366.585C227.931 367.641 227.306 369.148 227.344 370.707C227.381 372.326 228.762 373.598 230.382 373.556C233.865 373.467 240.143 373.298 248.11 373.063C266.012 357.507 277.069 351.611 282.187 350.489C287.398 349.348 295.37 348.414 304.244 347.785C304.103 339.951 303.906 334.219 303.775 331.013C291.901 331.581 280.661 332.708 273.961 334.172Z" fill="white"/>
<path opacity="0.5" d="M188.854 345.42H228.677C234.64 341.134 239.842 337.745 244.307 335.116C245.1 334.647 244.772 333.436 243.852 333.436H139.265C129.288 339.088 115.221 349.016 96.5728 364.891H127.429C145.345 352.236 166.806 345.42 188.854 345.42Z" fill="white"/>
<path d="M297.646 385.353C300.535 385.353 302.877 383.716 302.877 381.696C302.877 379.677 300.535 378.04 297.646 378.04C294.758 378.04 292.416 379.677 292.416 381.696C292.416 383.716 294.758 385.353 297.646 385.353Z" fill="#939598"/>
<path d="M301.506 383.762H292.478C291.337 383.762 290.417 382.837 290.417 381.701C290.417 380.56 291.341 379.64 292.478 379.64H301.506C302.647 379.64 303.567 380.565 303.567 381.701C303.567 382.837 302.642 383.762 301.506 383.762Z" fill="#939598"/>
<path d="M302.797 383.762H293.768C292.627 383.762 291.707 382.837 291.707 381.701C291.707 380.56 292.632 379.64 293.768 379.64H302.797C303.938 379.64 304.858 380.565 304.858 381.701C304.858 382.837 303.938 383.762 302.797 383.762Z" fill="white"/>
<path d="M308.558 328.084V327.389C294.22 327.91 280.426 329.215 272.237 330.971C268.73 331.727 254.866 336.435 223.667 365.346C222.428 366.496 221.719 368.125 221.719 369.824V439.096H307.342V438.467C310.765 377.053 308.751 332.145 308.558 328.084ZM222.418 369.829C222.418 368.327 223.047 366.881 224.146 365.867C255.213 337.073 268.923 332.407 272.388 331.661C280.238 329.971 293.736 328.708 307.863 328.173C308.07 332.497 310.056 377.255 306.647 438.401H222.418V369.829Z" fill="black"/>
<path d="M304.248 330.493C304.112 330.366 303.929 330.31 303.741 330.31C291.196 330.915 280.285 332.075 273.81 333.492C270.533 334.21 257.584 338.684 228.564 366.079C227.339 367.234 226.639 368.872 226.639 370.576C226.639 371.58 227.034 372.519 227.752 373.214C228.442 373.885 229.348 374.251 230.306 374.251C230.339 374.251 230.372 374.251 230.405 374.251C240.067 373.998 273.965 373.078 304.445 371.792C304.821 371.778 305.112 371.458 305.112 371.088C305.164 351.438 304.732 337.524 304.469 330.981C304.469 330.793 304.384 330.619 304.248 330.493ZM303.718 370.421C281.534 371.355 257.659 372.092 242.701 372.515V364.408C242.701 358.451 245.452 352.827 250.143 349.152C264.655 337.778 271.824 335.36 274.115 334.858C280.397 333.483 290.933 332.352 303.107 331.741C303.366 338.459 303.76 351.823 303.718 370.421Z" fill="black"/>
<path d="M260.692 394.432L242.95 379.922C241.771 378.96 241.086 377.519 241.086 375.993V366.516C241.086 363.709 243.363 363.296 246.171 365.591L260.692 377.462C262.078 378.598 263.204 380.64 263.204 382.025V393.972C263.204 395.361 262.078 395.563 260.692 394.432Z" fill="#939598"/>
<path d="M260.693 372.59H241.086V360.709C241.086 357.902 243.364 355.625 246.171 355.625H260.693C262.078 355.625 263.205 356.747 263.205 358.137V370.083C263.205 371.468 262.078 372.59 260.693 372.59Z" fill="#414042"/>
<path d="M257.707 372.59H241.086V360.709C241.086 357.902 243.364 355.625 246.171 355.625H257.707C259.092 355.625 260.219 356.747 260.219 358.137V370.083C260.214 371.468 259.092 372.59 257.707 372.59Z" fill="#808285"/>
<path d="M260.214 364.107H241.546V362.525C241.546 360.253 243.392 358.409 245.664 358.409H258.181C259.303 358.409 260.214 359.319 260.214 360.441V364.107Z" fill="#6F89F0"/>
<path d="M254.876 361.202H246.425C245.03 361.202 243.899 360.07 243.899 358.676C243.899 357.282 245.03 356.151 246.425 356.151H254.876C256.27 356.151 257.402 357.282 257.402 358.676C257.407 360.07 256.27 361.202 254.876 361.202Z" fill="white"/>
<path d="M248.298 372.59H239.494C238.382 372.59 237.476 371.689 237.476 370.571C237.476 369.459 238.377 368.553 239.494 368.553H248.298C249.41 368.553 250.317 369.454 250.317 370.571C250.317 371.689 249.415 372.59 248.298 372.59Z" fill="#414042"/>
<path d="M247.382 372.59H238.578C237.466 372.59 236.56 371.689 236.56 370.571C236.56 369.459 237.461 368.553 238.578 368.553H247.382C248.494 368.553 249.401 369.454 249.401 370.571C249.401 371.689 248.494 372.59 247.382 372.59Z" fill="#808285"/>
<path d="M246.86 368.557H238.578C237.466 368.557 236.56 369.458 236.56 370.576H244.842C245.954 370.576 246.86 369.67 246.86 368.557Z" fill="#5D73BB"/>
<path d="M78.3227 419.568H38.6825C34.6494 419.568 31.2831 416.799 30.9262 413.189L29.5177 398.876C29.2689 396.37 31.4709 394.215 34.2691 394.215H96.9104C100.554 394.215 102.854 397.74 101.07 400.594L94.5723 411.011C91.281 416.296 85.0648 419.568 78.3227 419.568Z" fill="#5D73BB"/>
<path d="M75.7118 417.996H42.1798C38.7665 417.996 35.9213 415.682 35.6208 412.663L34.4283 400.693C34.2217 398.6 36.0809 396.792 38.4472 396.792H91.4402C94.5248 396.792 96.4686 399.74 94.9615 402.13L89.4636 410.842C86.67 415.259 81.4116 417.996 75.7118 417.996Z" fill="black"/>
<path d="M231.667 415.982H225.221V421.263H231.667V415.982Z" fill="black"/>
<path d="M238.118 415.981H231.672V421.262H238.118V415.981Z" fill="#596FB9"/>
<path d="M244.564 415.981H238.118V421.262H244.564V415.981Z" fill="black"/>
<path d="M251.016 415.981H244.569V421.262H251.016V415.981Z" fill="#596FB9"/>
<path d="M257.462 415.981H251.016V421.262H257.462V415.981Z" fill="black"/>
<path d="M263.908 415.981H257.462V421.262H263.908V415.981Z" fill="#596FB9"/>
<path d="M270.359 415.981H263.913V421.262H270.359V415.981Z" fill="black"/>
<path d="M276.806 415.981H270.359V421.262H276.806V415.981Z" fill="#596FB9"/>
<path d="M283.256 415.981H276.81V421.262H283.256V415.981Z" fill="black"/>
<path d="M289.703 415.981H283.256V421.262H289.703V415.981Z" fill="#596FB9"/>
<path d="M296.154 415.981H289.708V421.262H296.154V415.981Z" fill="black"/>
<path d="M302.6 415.981H296.154V421.262H302.6V415.981Z" fill="#596FB9"/>
<path d="M309.051 415.981H302.605V421.262H309.051V415.981Z" fill="black"/>
<path d="M315.498 415.981H309.052V421.262H315.498V415.981Z" fill="#596FB9"/>
<path d="M321.948 415.981H315.502V421.262H321.948V415.981Z" fill="black"/>
<path d="M328.395 415.981H321.948V421.262H328.395V415.981Z" fill="#596FB9"/>
<path d="M334.846 415.981H328.399V421.262H334.846V415.981Z" fill="black"/>
<path d="M347.763 415.981H341.316V421.262H347.763V415.981Z" fill="black"/>
<path d="M341.292 415.981H334.846V421.262H341.292V415.981Z" fill="#596FB9"/>
<path d="M577.711 418.719L367.557 400.074V389.761L578.618 408.486C581.27 408.72 583.299 410.941 583.299 413.602C583.299 416.616 580.716 418.986 577.711 418.719Z" fill="#596FB9"/>
<path d="M523.625 421.263H367.557V459.28H523.625V421.263Z" fill="#6F89F0"/>
<path d="M413.732 446.78V451.291H401.403V446.78H399.642V453.248H415.493V446.78H413.732Z" fill="#939598"/>
<path d="M399.646 447.234H422.38V441.976H399.646V447.234Z" fill="black"/>
<path d="M406.678 447.234H422.378V441.976H406.678V447.234Z" fill="#231F20"/>
<path d="M407.568 446.282H410.948C411.282 446.282 411.554 446.01 411.554 445.677V443.522C411.554 443.189 411.282 442.917 410.948 442.917H407.568V446.282Z" fill="#FBB040"/>
<path d="M407.568 446.282H407.826C408.159 446.282 408.432 446.01 408.432 445.677V443.522C408.432 443.189 408.159 442.917 407.826 442.917H407.568V446.282Z" fill="#F7941D"/>
<path d="M418.634 446.282H422.014C422.348 446.282 422.62 446.01 422.62 445.677V443.522C422.62 443.189 422.348 442.917 422.014 442.917H418.634V446.282Z" fill="#FBB040"/>
<path d="M418.634 446.282H418.892C419.225 446.282 419.498 446.01 419.498 445.677V443.522C419.498 443.189 419.225 442.917 418.892 442.917H418.634V446.282Z" fill="#F7941D"/>
<path d="M445.912 456.276H370.369V425.943H445.912V456.276ZM371.026 455.624H445.26V426.6H371.026V455.624Z" fill="black"/>
<path d="M488.623 446.78V451.291H476.289V446.78H474.533V453.248H490.383V446.78H488.623Z" fill="#939598"/>
<path d="M474.531 447.234H497.265V441.976H474.531V447.234Z" fill="black"/>
<path d="M481.567 447.234H497.268V441.976H481.567V447.234Z" fill="#231F20"/>
<path d="M482.458 446.282H485.838C486.172 446.282 486.444 446.01 486.444 445.677V443.522C486.444 443.189 486.172 442.917 485.838 442.917H482.458V446.282Z" fill="#FBB040"/>
<path d="M482.458 446.282H482.716C483.05 446.282 483.322 446.01 483.322 445.677V443.522C483.322 443.189 483.05 442.917 482.716 442.917H482.458V446.282Z" fill="#F7941D"/>
<path d="M493.524 446.282H496.904C497.238 446.282 497.51 446.01 497.51 445.677V443.522C497.51 443.189 497.238 442.917 496.904 442.917H493.524V446.282Z" fill="#FBB040"/>
<path d="M493.524 446.282H493.782C494.116 446.282 494.388 446.01 494.388 445.677V443.522C494.388 443.189 494.116 442.917 493.782 442.917H493.524V446.282Z" fill="#F7941D"/>
<path d="M520.803 456.276H445.259V425.943H520.803V456.276ZM445.912 455.624H520.145V426.6H445.912V455.624Z" fill="black"/>
<path d="M717.53 464.712L577.988 418.522C575.326 417.639 573.88 414.766 574.763 412.105C575.646 409.443 578.519 407.997 581.181 408.88L720.722 455.07C723.385 455.953 724.831 458.825 723.948 461.487C723.065 464.149 720.192 465.594 717.53 464.712Z" fill="#D4DCFB"/>
<path d="M601.308 417.187L594.707 415.002L592.504 421.655L599.105 423.84L601.308 417.187Z" fill="#6F89F0"/>
<path d="M607.917 419.37L601.316 417.185L599.113 423.838L605.714 426.023L607.917 419.37Z" fill="white"/>
<path d="M614.509 421.561L607.908 419.376L605.705 426.03L612.306 428.215L614.509 421.561Z" fill="#6F89F0"/>
<path d="M621.125 423.74L614.524 421.555L612.321 428.208L618.922 430.393L621.125 423.74Z" fill="white"/>
<path d="M627.716 425.932L621.115 423.747L618.912 430.4L625.513 432.585L627.716 425.932Z" fill="#6F89F0"/>
<path d="M634.33 428.115L627.729 425.93L625.526 432.583L632.127 434.768L634.33 428.115Z" fill="white"/>
<path d="M640.924 430.302L634.323 428.117L632.12 434.77L638.72 436.955L640.924 430.302Z" fill="#6F89F0"/>
<path d="M647.534 432.484L640.933 430.299L638.73 436.952L645.331 439.137L647.534 432.484Z" fill="white"/>
<path d="M654.13 434.672L647.529 432.487L645.326 439.14L651.927 441.325L654.13 434.672Z" fill="#6F89F0"/>
<path d="M660.733 436.858L654.132 434.673L651.929 441.326L658.53 443.511L660.733 436.858Z" fill="white"/>
<path d="M667.342 439.043L660.741 436.858L658.538 443.511L665.139 445.696L667.342 439.043Z" fill="#6F89F0"/>
<path d="M673.94 441.229L667.339 439.044L665.136 445.697L671.737 447.882L673.94 441.229Z" fill="white"/>
<path d="M680.546 443.412L673.945 441.227L671.742 447.88L678.343 450.065L680.546 443.412Z" fill="#6F89F0"/>
<path d="M687.147 445.603L680.546 443.418L678.343 450.071L684.944 452.256L687.147 445.603Z" fill="white"/>
<path d="M693.756 447.782L687.155 445.597L684.952 452.25L691.553 454.435L693.756 447.782Z" fill="#6F89F0"/>
<path d="M700.352 449.975L693.751 447.79L691.548 454.443L698.149 456.628L700.352 449.975Z" fill="white"/>
<path d="M706.961 452.156L700.36 449.971L698.157 456.624L704.758 458.809L706.961 452.156Z" fill="#6F89F0"/>
<path d="M720.181 456.535L713.58 454.35L711.377 461.003L717.978 463.188L720.181 456.535Z" fill="#6F89F0"/>
<path d="M713.554 454.344L706.953 452.159L704.75 458.812L711.351 460.997L713.554 454.344Z" fill="white"/>
<path d="M579.626 410.799C581.03 410.799 582.171 412.113 582.171 413.733C582.171 415.352 581.035 418.737 579.626 418.737C578.222 418.737 577.082 415.357 577.082 413.733C577.082 412.113 578.218 410.799 579.626 410.799Z" fill="#939598"/>
<mask id="mask2_23_354" style="mask-type:luminance" maskUnits="userSpaceOnUse" x="577" y="410" width="4" height="7">
<path d="M580.382 416.672H579.626C578.222 416.672 577.082 415.358 577.082 413.739C577.082 412.119 578.218 410.805 579.626 410.805H580.382C578.978 410.805 577.837 412.119 577.837 413.739C577.837 415.358 578.974 416.672 580.382 416.672Z" fill="white"/>
</mask>
<g mask="url(#mask2_23_354)">
<path d="M580.382 416.672H579.626C578.222 416.672 577.082 415.358 577.082 413.738C577.082 413.372 577.138 413.025 577.246 412.701H578.002C577.898 413.025 577.837 413.372 577.837 413.738C577.837 415.358 578.974 416.672 580.382 416.672Z" fill="black"/>
<path d="M578.002 412.7H577.246C577.349 412.381 577.5 412.09 577.692 411.832H578.448C578.255 412.086 578.105 412.381 578.002 412.7Z" fill="#6D6E71"/>
<path d="M578.443 411.832H577.688C578.152 411.203 578.847 410.799 579.622 410.799H580.378C579.603 410.799 578.913 411.198 578.443 411.832Z" fill="#5B71BA"/>
</g>
<path d="M580.382 410.799C581.785 410.799 582.926 412.114 582.926 413.733C582.926 415.353 581.79 416.667 580.382 416.667C578.973 416.667 577.837 415.353 577.837 413.733C577.837 412.114 578.973 410.799 580.382 410.799Z" fill="#939598"/>
<path d="M580.382 411.522C581.443 411.522 582.298 412.513 582.298 413.733C582.298 414.954 581.439 415.949 580.382 415.949C579.326 415.949 578.467 414.959 578.467 413.733C578.462 412.513 579.321 411.522 580.382 411.522Z" fill="black"/>
<path d="M482.375 284.5C482.116 289.481 481.663 294.293 480.926 299.196C480.289 304.26 479.18 309.254 477.614 314.112C477.12 315.527 476.501 316.895 475.764 318.2C475.251 319.08 474.625 319.889 473.901 320.606L473.539 320.943L473.332 321.098L473.228 321.188L472.789 321.486L471.922 322.094C469.725 323.504 467.414 324.729 465.014 325.755C460.458 327.757 455.724 329.325 450.874 330.438L449.192 325.833C453.306 323.556 457.523 321.227 461.365 318.808C463.243 317.656 465.049 316.39 466.773 315.018L467.342 314.539L467.627 314.293C467.627 314.293 467.743 314.099 467.886 313.789C468.263 312.952 468.575 312.087 468.817 311.201C469.402 309.073 469.864 306.914 470.201 304.733C470.602 302.482 470.926 300.192 471.197 297.864C471.728 293.245 472.181 288.51 472.491 283.905L482.375 284.5Z" fill="#CE7A63"/>
<path d="M452.258 325.897L444.314 323.439L445.802 333.051C445.802 333.051 450.977 332.404 453.564 329.506L452.258 325.897Z" fill="#CE7A63"/>
<path d="M434.69 329.623L435.13 330.916C435.378 331.631 435.851 332.245 436.479 332.668C437.106 333.09 437.854 333.297 438.61 333.258L442.659 333.077L441.158 323.439L436.708 325.185C435.864 325.521 435.182 326.171 434.806 326.998C434.43 327.825 434.388 328.766 434.69 329.623Z" fill="#CE7A63"/>
<path d="M491.767 275.172C491.767 278.174 490.318 284.099 489.076 288.549C488.157 291.744 487.394 294.176 487.394 294.176L485.57 293.724L470.537 289.92C470.304 282.158 470.602 273.71 478.299 268.639C483.112 265.457 491.728 269.829 491.767 275.172Z" fill="#263238"/>
<path opacity="0.3" d="M491.753 275.69C490.77 274.655 488.545 274.474 483.694 276.013C476.747 278.212 474.806 285.819 474.716 290.981L485.57 293.724L486.501 293.969L487.394 294.176C487.394 294.176 487.769 292.96 488.312 291.11C488.532 290.36 488.804 289.48 489.063 288.523C490.357 284.338 491.258 280.042 491.753 275.69Z" fill="black"/>
<path d="M460.912 516.676L451.74 513.468L457.51 493.597L466.669 496.818L460.912 516.676Z" fill="#CE7A63"/>
<path d="M583.462 493.131L575.998 498.694L560.719 483.208L568.184 477.646L583.462 493.131Z" fill="#CE7A63"/>
<path d="M572.945 496.429L581.004 489.767C581.141 489.649 581.315 489.583 581.496 489.583C581.677 489.583 581.851 489.649 581.988 489.767L588.171 495.382C588.31 495.52 588.42 495.684 588.496 495.865C588.571 496.046 588.609 496.24 588.609 496.436C588.609 496.632 588.571 496.826 588.496 497.007C588.42 497.188 588.31 497.352 588.171 497.49L588.042 497.607C585.196 499.884 583.695 500.841 580.151 503.765C577.977 505.563 573.411 509.871 570.396 512.355C567.382 514.838 564.769 512.005 565.804 510.699C570.422 504.851 571.496 500.996 572.039 497.84C572.17 497.279 572.489 496.781 572.945 496.429Z" fill="#263238"/>
<path d="M451.119 510.595L461.313 514.851C461.495 514.931 461.646 515.067 461.744 515.24C461.842 515.412 461.881 515.612 461.856 515.809L460.705 524.8C460.66 525.16 460.474 525.487 460.188 525.71C459.901 525.933 459.539 526.034 459.178 525.99C459.044 525.976 458.914 525.941 458.79 525.886C455.181 524.425 453.486 523.7 449.01 521.824L435.271 516.067C431.546 514.502 432.348 510.414 433.978 510.712C441.52 512.083 446.384 511.63 449.359 510.505C449.644 510.403 449.946 510.358 450.248 510.374C450.55 510.389 450.846 510.465 451.119 510.595Z" fill="#263238"/>
<path opacity="0.2" d="M457.51 493.609L454.548 503.842L463.474 507.878L466.683 496.817L457.51 493.609Z" fill="black"/>
<path opacity="0.2" d="M568.197 477.646L560.719 483.208L568.598 491.19L576.062 485.627L568.197 477.646Z" fill="black"/>
<path d="M519.969 323.737L482.194 324.28C477.019 295.03 475.725 281.071 475.725 274.357C475.719 272.682 476.296 271.058 477.359 269.764C478.422 268.47 479.903 267.587 481.547 267.268C483.849 266.815 486.721 266.297 489.606 265.896C490.589 265.767 491.586 265.638 492.569 265.534C498.274 265.045 504.006 264.963 509.723 265.288C510.577 265.288 511.418 265.366 512.31 265.418C516.191 265.664 519.736 266.155 522.259 266.543C523.166 266.689 523.978 267.19 524.517 267.935C525.055 268.679 525.276 269.607 525.131 270.515C525.137 270.579 525.137 270.644 525.131 270.709C524.018 275.884 523.112 280.476 522.388 284.564C521.237 291.032 520.512 296.311 520.085 300.916C519.438 308.508 519.4 316.139 519.969 323.737Z" fill="#263238"/>
<path opacity="0.1" d="M520.073 300.955C518.171 295.25 518.274 283.413 520.318 279.583L522.401 284.59C521.224 291.097 520.499 296.35 520.073 300.955Z" fill="black"/>
<path d="M482.193 324.28C482.193 324.28 475.725 379.274 469.89 413.544C465.272 440.375 453.603 496.223 453.603 496.223L468.752 501.591C468.752 501.591 486.1 443.376 489.14 418.511C501.366 382.664 510.163 324.009 510.163 324.009L482.193 324.28Z" fill="#6F89F0"/>
<path d="M451.145 499.974L468.674 506.145L471.016 500.518L451.999 493.247L451.145 499.974Z" fill="#263238"/>
<path opacity="0.1" d="M501.34 340.619L495.673 351.473C493.603 359.649 494.095 379.546 496.721 392.12C501.43 373.168 505.195 353.219 507.536 339.83L501.34 340.619Z" fill="black"/>
<path d="M490.396 324.28C490.396 324.28 497.161 385.833 509.801 420.012C516.14 437.154 563.165 487.969 563.165 487.969L573.773 479.483C573.773 479.483 543.954 428.214 530.913 414.799C525.596 385.044 532.285 340.438 519.93 323.75L490.396 324.28Z" fill="#6F89F0"/>
<path d="M564.057 491.604L576.503 481.41L573.139 475.886L559.517 487.749L564.057 491.604Z" fill="#263238"/>
<path d="M520.564 321.524L522.31 324.875C522.44 325.134 522.142 325.418 521.702 325.418L482.064 325.987C481.715 325.987 481.443 325.819 481.404 325.612L481.029 322.236C481.029 322.003 481.301 321.796 481.663 321.796L519.93 321.24C520.051 321.232 520.172 321.255 520.282 321.304C520.392 321.354 520.489 321.429 520.564 321.524Z" fill="#263238"/>
<path d="M515.428 325.897H516.476C516.67 325.897 516.825 325.781 516.812 325.664L516.256 321.266C516.256 321.136 516.075 321.046 515.868 321.046H514.897C514.69 321.046 514.535 321.162 514.561 321.279L515.104 325.664C515.04 325.768 515.234 325.897 515.428 325.897Z" fill="#6F89F0"/>
<path d="M484.91 326.311H485.945C486.152 326.311 486.294 326.195 486.281 326.065L485.751 321.68C485.751 321.551 485.544 321.447 485.337 321.447H484.302C484.095 321.447 483.939 321.563 483.952 321.693L484.496 326.078C484.522 326.208 484.703 326.311 484.91 326.311Z" fill="#6F89F0"/>
<path d="M500.175 326.065H501.21C501.417 326.065 501.572 325.949 501.56 325.819L501.016 321.434C501.016 321.291 500.822 321.188 500.615 321.201H499.58C499.373 321.201 499.231 321.317 499.231 321.447L499.774 325.832C499.761 325.987 499.968 326.065 500.175 326.065Z" fill="#6F89F0"/>
<path d="M431.637 285.56L487.705 277.863L495.467 332.909L440.408 340.464L431.637 285.56Z" fill="#6F89F0"/>
<path opacity="0.8" d="M431.637 285.56L487.705 277.863L495.467 332.909L440.408 340.464L431.637 285.56Z" fill="white"/>
<path opacity="0.2" d="M488.474 275.206L473.502 277.323L481.533 334.111L496.504 331.993L488.474 275.206Z" fill="#6F89F0"/>
<path d="M503.604 325.975L495.842 322.935L496.605 332.637C496.605 332.637 501.78 332.378 504.561 329.675L503.604 325.975Z" fill="#CE7A63"/>
<path d="M528.016 277.669C530.098 283.491 531.897 289.312 533.423 295.263C534.199 298.252 534.924 301.253 535.506 304.319C535.79 305.871 536.036 307.45 536.217 309.093C536.425 310.809 536.499 312.539 536.437 314.267C536.401 315.392 536.227 316.509 535.92 317.592C535.495 318.924 534.784 320.147 533.837 321.175C532.454 322.658 530.809 323.872 528.986 324.759C526 326.207 522.857 327.306 519.62 328.032C513.566 329.436 507.394 330.263 501.185 330.503L500.577 325.626C503.41 324.953 506.308 324.203 509.128 323.414C511.948 322.624 514.755 321.745 517.446 320.762C520.016 319.878 522.495 318.747 524.846 317.385C525.7 316.886 526.462 316.242 527.097 315.483C527.265 315.225 527.265 315.16 527.239 315.16C527.265 314.777 527.265 314.392 527.239 314.009C527.19 312.755 527.056 311.506 526.838 310.27C526.631 308.976 526.347 307.527 526.036 306.104C525.389 303.336 524.665 300.503 523.85 297.669C522.233 292.055 520.409 286.35 518.585 280.852L528.016 277.669Z" fill="#CE7A63"/>
<path d="M488.687 327.721L489.295 329.972C489.478 330.695 489.891 331.339 490.472 331.806C491.054 332.273 491.771 332.537 492.517 332.56L496.682 332.676L495.919 322.986L491.676 323.465C491.225 323.51 490.788 323.644 490.39 323.858C489.991 324.073 489.638 324.364 489.352 324.715C489.066 325.066 488.852 325.47 488.723 325.903C488.593 326.337 488.55 326.792 488.597 327.243C488.616 327.404 488.646 327.564 488.687 327.721Z" fill="#CE7A63"/>
<path d="M523.604 266.828C527.951 268.6 531.508 282.883 531.508 282.883L519.503 292.262C519.503 292.262 510.991 278.937 512.724 273.154C514.199 268.264 518.067 264.59 523.604 266.828Z" fill="#263238"/>
<path d="M570.008 500.466H569.853C569.636 500.451 569.426 500.382 569.243 500.264C569.06 500.146 568.909 499.984 568.805 499.793C568.728 499.683 568.682 499.554 568.67 499.42C568.659 499.286 568.683 499.152 568.741 499.03C569.271 497.995 572.622 497.581 572.984 497.542C573.027 497.534 573.071 497.54 573.111 497.558C573.15 497.577 573.183 497.607 573.204 497.646C573.228 497.682 573.241 497.725 573.241 497.769C573.241 497.812 573.228 497.855 573.204 497.892C572.505 498.836 571.147 500.388 570.008 500.466ZM572.531 498.047C571.237 498.241 569.413 498.668 569.155 499.237C569.123 499.285 569.107 499.341 569.107 499.399C569.107 499.456 569.123 499.512 569.155 499.56C569.216 499.693 569.312 499.807 569.433 499.889C569.553 499.971 569.694 500.018 569.84 500.026C570.487 500.026 571.522 499.327 572.557 498.047H572.531Z" fill="#263238"/>
<path d="M572.829 497.956C571.703 497.956 569.452 497.555 568.948 496.662C568.867 496.507 568.841 496.33 568.874 496.159C568.907 495.987 568.997 495.832 569.129 495.718C569.243 495.593 569.383 495.494 569.54 495.429C569.696 495.364 569.865 495.335 570.034 495.343C571.393 495.343 573.113 497.426 573.165 497.542C573.184 497.573 573.195 497.609 573.195 497.646C573.195 497.682 573.184 497.718 573.165 497.749C573.155 497.787 573.133 497.821 573.103 497.846C573.073 497.872 573.036 497.887 572.997 497.891L572.829 497.956ZM569.957 495.809C569.774 495.826 569.604 495.909 569.478 496.041C569.284 496.248 569.323 496.378 569.374 496.481C569.672 497.05 571.444 497.516 572.583 497.516C571.934 496.702 571.055 496.102 570.06 495.796L569.957 495.809Z" fill="#263238"/>
<path d="M445.906 510.388C445.187 510.154 444.558 509.702 444.107 509.094C444.005 508.915 443.943 508.716 443.925 508.511C443.907 508.305 443.934 508.098 444.004 507.904C444.039 507.792 444.103 507.692 444.19 507.612C444.276 507.533 444.381 507.477 444.496 507.451C445.686 507.231 448.493 510.246 449.036 510.854C449.062 510.892 449.076 510.937 449.076 510.983C449.076 511.029 449.062 511.074 449.036 511.113C449.015 511.153 448.98 511.186 448.938 511.204C448.896 511.223 448.848 511.227 448.804 511.216C447.812 511.039 446.841 510.761 445.906 510.388ZM445.013 507.956C444.88 507.892 444.733 507.865 444.586 507.878C444.586 507.878 444.47 507.878 444.418 508.034C444.366 508.168 444.346 508.313 444.359 508.457C444.373 508.6 444.419 508.739 444.496 508.861C444.897 509.56 446.281 510.22 448.247 510.647C447.324 509.588 446.242 508.68 445.039 507.956H445.013Z" fill="#263238"/>
<path d="M448.791 511.19H448.713C447.769 510.246 446.229 507.413 446.76 506.507C446.876 506.313 447.122 506.106 447.678 506.261C449.761 506.869 449.127 510.905 449.088 511.074C449.089 511.116 449.073 511.157 449.044 511.188C449.015 511.219 448.975 511.239 448.933 511.242C448.907 511.247 448.88 511.246 448.855 511.236C448.829 511.227 448.807 511.211 448.791 511.19ZM447.756 506.675H447.627C447.42 506.61 447.264 506.675 447.213 506.675C446.902 507.206 447.898 509.34 448.804 510.479C448.791 509.482 448.92 507.193 447.756 506.675Z" fill="#263238"/>
<path d="M487.834 226.582C487.834 226.582 482.659 235.237 486.541 239.027C490.422 242.818 491.56 229.376 491.56 229.376L487.834 226.582Z" fill="#263238"/>
<path d="M511.87 246.892C511.87 246.892 518.339 236.776 515.648 226.724C512.957 216.672 500.383 223.166 495.078 220.411C493.135 219.23 491.065 218.271 488.908 217.552C488.561 217.449 488.195 217.427 487.839 217.488C487.482 217.548 487.144 217.69 486.851 217.901C485.557 219.04 487.808 221.174 488.507 221.976C488.077 221.479 487.581 221.044 487.032 220.683C486.346 220.23 485.428 220.191 485.738 221.342C486.27 222.58 487.224 223.588 488.429 224.188C487.924 223.904 484.936 222.39 484.729 223.335C484.703 223.564 484.763 223.794 484.897 223.981C486.838 227.604 490.745 232.158 495.247 232.248C500.667 232.326 505.842 247.578 511.87 246.892Z" fill="#263238"/>
<path d="M514.16 247.345C513.823 250.761 508.752 250.799 508.752 250.799C507.922 252.754 506.542 254.426 504.781 255.612C504.625 257.675 504.694 259.748 504.988 261.796C505.841 265.017 506.928 266.13 508.287 266.854L507.2 267.928C505.12 269.128 502.77 269.782 500.369 269.829L498.946 269.001L497.083 269.299C491.909 267.604 493.202 264.124 493.202 264.124C494.146 261.761 494.197 259.135 493.345 256.737C488.377 255.185 486.346 250.864 485.647 243.594C484.949 236.323 489.037 229.363 489.037 229.363C494.651 234.784 505.777 231.304 505.777 231.304C505.298 241.498 510.059 245.263 510.059 245.263C511.624 243.865 514.483 243.943 514.16 247.345Z" fill="#CE7A63"/>
<path d="M496.1 248.277C497.435 247.903 498.589 247.057 499.347 245.897C499.409 245.805 499.432 245.693 499.413 245.585C499.393 245.476 499.333 245.379 499.244 245.314C499.2 245.282 499.15 245.258 499.097 245.245C499.043 245.232 498.988 245.23 498.934 245.238C498.88 245.247 498.828 245.266 498.781 245.294C498.734 245.323 498.694 245.361 498.662 245.405C498.225 246.19 497.549 246.814 496.732 247.186C495.914 247.559 495 247.66 494.121 247.475C494.016 247.442 493.903 247.453 493.806 247.504C493.709 247.555 493.636 247.642 493.603 247.747C493.571 247.853 493.581 247.968 493.631 248.067C493.682 248.166 493.77 248.241 493.875 248.277C494.605 248.468 495.371 248.468 496.1 248.277Z" fill="#263238"/>
<path d="M497.575 239.377C497.575 240.036 497.316 240.606 496.877 240.67C496.437 240.735 496.036 240.192 495.984 239.532C495.932 238.872 496.256 238.238 496.695 238.238C497.135 238.238 497.523 238.704 497.575 239.377Z" fill="#263238"/>
<path d="M489.658 239.04C489.658 239.7 489.399 240.269 488.959 240.334C488.519 240.398 488.131 239.855 488.079 239.195C488.028 238.535 488.338 237.966 488.778 237.902C489.218 237.837 489.619 238.367 489.658 239.04Z" fill="#263238"/>
<path d="M491.753 245.444L491.663 240.657L489.282 244.693C489.611 244.996 490.004 245.221 490.432 245.35C490.86 245.48 491.311 245.512 491.753 245.444Z" fill="#BA4D3C"/>
<path d="M501.185 235.34C501.241 235.324 501.294 235.298 501.34 235.262C501.403 235.225 501.458 235.175 501.502 235.116C501.545 235.057 501.577 234.99 501.593 234.919C501.61 234.848 501.613 234.774 501.6 234.701C501.588 234.629 501.561 234.56 501.521 234.499C501.09 233.777 500.465 233.19 499.718 232.806C498.97 232.421 498.129 232.255 497.291 232.325C497.218 232.333 497.148 232.356 497.084 232.392C497.02 232.427 496.964 232.476 496.919 232.534C496.874 232.592 496.842 232.658 496.824 232.729C496.805 232.8 496.801 232.874 496.812 232.946C496.832 233.092 496.908 233.224 497.024 233.314C497.14 233.403 497.287 233.443 497.433 233.425C498.059 233.386 498.683 233.52 499.237 233.812C499.792 234.104 500.255 234.543 500.577 235.081C500.637 235.183 500.729 235.264 500.838 235.31C500.948 235.357 501.069 235.367 501.185 235.34Z" fill="#263238"/>
<path d="M487.149 234.81C487.294 234.772 487.419 234.679 487.498 234.551C487.73 234.2 488.059 233.924 488.445 233.756C488.83 233.589 489.257 233.537 489.671 233.606C489.743 233.621 489.817 233.622 489.888 233.608C489.96 233.593 490.028 233.565 490.088 233.524C490.149 233.483 490.2 233.43 490.24 233.369C490.279 233.307 490.306 233.239 490.318 233.167C490.345 233.023 490.313 232.874 490.231 232.753C490.149 232.632 490.022 232.548 489.878 232.52C489.238 232.401 488.577 232.478 487.982 232.741C487.386 233.005 486.884 233.441 486.541 233.995C486.468 234.122 486.448 234.273 486.484 234.415C486.521 234.557 486.61 234.68 486.735 234.758C486.862 234.826 487.009 234.844 487.149 234.81Z" fill="#263238"/>
<path d="M510.396 267.306L507.614 270.023L502.66 274.887L500.797 271.925L498.947 269.001L505.415 261.291L510.124 266.983L510.396 267.306Z" fill="white"/>
<path d="M498.947 269.002L497.511 271.395L495.402 274.888L490.563 266.156L493.655 262.521L498.947 269.002Z" fill="white"/>
</svg>
