<svg width="632" height="543" viewBox="0 0 632 543" fill="none" xmlns="http://www.w3.org/2000/svg">
<path opacity="0.07" d="M619.678 108.036C636.187 154.284 634.686 206.859 623.55 253.886C601.609 347.057 542.509 430.934 462.023 482.938C381.537 534.943 280.776 554.552 186.708 536.352C140.274 527.357 94.5307 508.918 60.3733 476.237C9.19722 427.246 -12.0986 346.413 6.81101 278.352C16.5121 243.976 35.5125 212.936 61.724 188.644C90.2385 162.23 130.444 151.646 164.256 133.327C214.187 106.342 254.932 64.6664 304.278 36.5578C352.542 9.07877 409.166 -4.75818 464.349 1.47819C514.88 7.18987 580.328 33.3347 606.712 79.6577C611.849 88.7241 616.187 98.2193 619.678 108.036Z" fill="#6F89F0"/>
<path d="M591.593 505H40.4066C31.8988 505 25 501.851 25 497.967V497.033C25 493.149 31.8988 490 40.4066 490H591.593C600.101 490 607 493.149 607 497.033V497.967C607 501.851 600.101 505 591.593 505Z" fill="#6F89F0"/>
<path d="M529.265 451.81C529.265 451.81 527.57 442.52 514.642 438.671C501.713 434.829 514.757 424.191 511.965 418.092C509.173 411.994 482.489 408.063 488.255 394.416C494.022 380.769 498.86 375.585 493.385 370.103C480.727 357.445 488.98 343.608 500.113 345.113C519.046 347.674 515.868 361.972 522.983 363.849C528.316 365.258 541.536 364.269 538.975 377.178C536.413 390.086 530.552 393.088 537.599 394.409C544.646 395.731 548.726 407.521 542.404 413.844C536.081 420.166 545.277 411.106 546.883 423.926C548.489 436.74 528.628 444.743 531.189 457.563C533.75 470.398 529.265 451.81 529.265 451.81Z" fill="#91B3FA"/>
<g opacity="0.7">
<mask id="mask0_185_476" style="mask-type:luminance" maskUnits="userSpaceOnUse" x="487" y="345" width="60" height="118">
<path d="M529.263 451.81C529.263 451.81 527.569 442.52 514.64 438.671C501.711 434.829 514.755 424.191 511.963 418.092C509.171 411.994 482.487 408.063 488.253 394.416C494.02 380.769 498.858 375.585 493.383 370.103C480.725 357.445 488.978 343.608 500.111 345.113C519.044 347.674 515.866 361.972 522.981 363.849C528.314 365.258 541.534 364.269 538.973 377.178C536.411 390.086 530.55 393.088 537.597 394.409C544.645 395.731 548.724 407.521 542.402 413.844C536.079 420.166 545.275 411.106 546.881 423.926C548.487 436.74 528.626 444.743 531.187 457.563C533.748 470.398 529.263 451.81 529.263 451.81Z" fill="white"/>
</mask>
<g mask="url(#mask0_185_476)">
<path d="M490.097 343.344C490.097 343.344 532.631 385.167 532.631 457.577" stroke="#6F89F0" stroke-miterlimit="10"/>
<path d="M469.985 362.582C469.985 362.582 500.627 365.658 514.668 379.692C514.668 379.692 512.276 355.589 526.377 349.714" stroke="#6F89F0" stroke-miterlimit="10"/>
<path d="M478.645 383.249C478.645 383.249 509.286 386.325 523.327 400.359C523.327 400.359 526.938 368.456 541.033 362.582" stroke="#6F89F0" stroke-miterlimit="10"/>
<path d="M483.402 408.057C483.402 408.057 514.044 402.88 528.084 416.92C528.084 416.92 540.587 387.349 554.681 381.474" stroke="#6F89F0" stroke-miterlimit="10"/>
<path d="M486.547 425.994C486.547 425.994 517.189 420.817 531.229 434.857C531.229 434.857 543.731 405.286 557.826 399.411" stroke="#6F89F0" stroke-miterlimit="10"/>
</g>
</g>
<g opacity="0.7">
<path d="M534.304 453.898C534.304 453.898 529.737 449.175 529.737 442.927C529.737 436.679 534.867 436.442 536.222 432.112C537.584 427.789 529.812 423.384 531.655 417.293C533.498 411.208 541.907 411.594 542.226 408.233C542.544 404.879 541.331 389.212 559.81 389.138C578.234 389.063 554.565 414.806 559.207 421.297C563.855 427.782 567.054 434.511 561.45 439.241C555.846 443.964 544.069 443.889 544.469 454.86C544.882 465.83 534.304 453.898 534.304 453.898Z" fill="#91B3FA"/>
<g opacity="0.7">
<mask id="mask1_185_476" style="mask-type:luminance" maskUnits="userSpaceOnUse" x="529" y="389" width="38" height="71">
<path d="M534.308 453.898C534.308 453.898 529.741 449.175 529.741 442.927C529.741 436.68 534.871 436.442 536.226 432.112C537.588 427.789 529.816 423.385 531.659 417.293C533.502 411.208 541.911 411.594 542.23 408.233C542.548 404.879 541.335 389.212 559.814 389.138C578.238 389.063 554.569 414.806 559.211 421.298C563.859 427.782 567.058 434.511 561.454 439.241C555.85 443.964 544.073 443.889 544.473 454.86C544.886 465.831 534.308 453.898 534.308 453.898Z" fill="white"/>
</mask>
<g mask="url(#mask1_185_476)">
<path d="M534.931 462.273C534.931 462.273 544.16 403.978 570.357 375.592" stroke="#6F89F0" stroke-miterlimit="10"/>
<path d="M522.056 432.512C522.056 432.512 537.099 440.596 537.668 448.768C537.668 448.768 546.165 442.04 564.59 446.044" stroke="#6F89F0" stroke-miterlimit="10"/>
<path d="M540.38 387.153C540.38 387.153 549.162 398.469 551.364 406.357C551.364 406.357 560.288 398.056 579.14 398.273" stroke="#6F89F0" stroke-miterlimit="10"/>
<path d="M530.946 403.551C530.946 403.551 542.242 412.936 545.176 422.314C545.176 422.314 556.777 410.11 576.597 417.13" stroke="#6F89F0" stroke-miterlimit="10"/>
<path d="M524.062 423.527C524.062 423.527 538.474 428.42 540.677 436.314C540.677 436.314 556.777 422.904 576.597 429.924" stroke="#6F89F0" stroke-miterlimit="10"/>
</g>
</g>
</g>
<path d="M546.292 486.159H523.491L518.436 453.477H552.073L546.292 486.159Z" fill="#6F89F0"/>
<path d="M523.491 486.159H546.292L546.875 482.846H522.976L523.491 486.159Z" fill="#4F52FF"/>
<path d="M552.073 453.477H518.436L519.472 460.22H550.88L552.073 453.477Z" fill="#4F52FF"/>
<path d="M553.516 449.385H516.992V457.577H553.516V449.385Z" fill="#6F89F0"/>
<path d="M166.66 112.506H148.46C140.158 112.506 133.427 119.237 133.427 127.539V167.452C133.427 175.754 140.158 182.485 148.46 182.485H217.667C218.337 182.485 218.774 183.206 218.44 183.798L209.353 200.144C208.941 200.878 209.803 201.663 210.498 201.2L238.132 182.64C238.274 182.537 238.454 182.485 238.621 182.485H267.028C275.329 182.485 282.061 175.754 282.061 167.452V127.539C282.061 119.237 275.329 112.506 267.028 112.506H187.356" stroke="#6F89F0" stroke-width="1.3" stroke-miterlimit="10" stroke-linecap="round" stroke-linejoin="round"/>
<path d="M255.714 480.384C253.68 480.384 252.084 478.646 252.251 476.612L267.04 313.396H283.476L259.176 477.346C258.931 479.096 257.451 480.384 255.714 480.384Z" fill="#6F89F0"/>
<path d="M352.465 479.47C354.499 479.47 356.095 477.732 355.927 475.698L339.774 312.481H323.338L349.015 476.432C349.247 478.182 350.727 479.47 352.465 479.47Z" fill="#6F89F0"/>
<path d="M349.412 360.735H258.775C250.576 360.735 243.935 354.094 243.935 345.895V343.926C243.935 335.727 250.576 329.086 258.775 329.086H349.412C357.611 329.086 364.252 335.727 364.252 343.926V345.895C364.24 354.094 357.598 360.735 349.412 360.735Z" fill="#194D84"/>
<path d="M292.216 460.434C292.216 460.434 294.519 461.953 295.897 465.299C297.261 468.646 298.407 473.665 298.407 473.665C298.407 473.665 294.532 477.539 289.731 479.148C284.943 480.744 267.902 488.904 263.256 490.101C251.389 493.178 252.071 490.101 252.985 489.188C253.899 488.274 257.091 482.804 264.852 480.062C272.613 477.321 279.679 465.505 279.679 465.505L292.216 460.434Z" fill="#082B7A"/>
<path d="M289.333 444.642L291.959 457.706C291.959 457.706 293.156 463.356 290.415 464.901C287.673 466.445 282.64 464.72 282.64 464.72L279.667 465.518L273.064 450.24L289.333 444.642Z" fill="#C8D6F5"/>
<path d="M264.994 320.192C264.994 320.192 248.647 368.484 248.647 377.609C248.647 386.735 263.822 438.412 272.06 454.732L291.418 446.521C291.418 446.521 282.382 384.933 282.382 378.24C282.382 371.547 305.537 327.915 305.537 327.915L264.994 320.192Z" fill="#0B2F93"/>
<path opacity="0.14" d="M282.368 378.24C282.368 371.547 305.523 327.915 305.523 327.915L285.766 323.629C273.063 350.645 267.155 373.272 268.12 379.128C269.047 384.74 280.695 435.58 283.656 449.816L291.417 446.521C291.417 446.521 282.368 384.933 282.368 378.24Z" fill="#1B4C85"/>
<path d="M323.506 462.892C323.506 462.892 321.447 464.733 320.559 468.234C319.683 471.735 319.271 476.87 319.271 476.87C319.271 476.87 323.661 480.152 328.642 481.053C333.61 481.954 351.642 487.592 356.404 488.119C368.593 489.471 367.473 486.523 366.444 485.751C365.414 484.979 361.463 480.011 353.392 478.415C345.322 476.806 336.647 466.123 336.647 466.123L323.506 462.892Z" fill="#082B7A"/>
<path d="M323.714 446.868L323.366 460.138C323.366 460.138 322.98 465.904 325.915 467.037C328.849 468.17 333.586 465.75 333.586 465.75L336.636 466.123L340.601 450.086L323.714 446.868Z" fill="#C8D6F5"/>
<path d="M334.407 320.192C334.407 320.192 350.238 368.497 350.753 377.609C351.384 388.781 350.122 432.89 343.159 452.557L322.591 448.232C322.591 448.232 320.918 397.997 317.031 378.24C315.744 371.676 293.876 327.915 293.876 327.915L334.407 320.192Z" fill="#0B2F93"/>
<path opacity="0.14" d="M329.631 362.55C326.799 354.261 334.753 347.658 341.82 343.604C337.997 331.145 334.406 320.179 334.406 320.179L293.862 327.914C293.862 327.914 315.73 371.675 317.017 378.24C320.904 397.997 322.577 448.232 322.577 448.232L331.137 450.034C336.298 417.754 333.724 374.546 329.631 362.55Z" fill="#1B4C85"/>
<path d="M305.767 199.681V199.655C305.2 199.655 304.647 199.668 304.094 199.668C303.527 199.668 302.987 199.655 302.42 199.655V199.681C224.255 200.891 264.348 244.549 268.171 260.381C272.045 276.431 271.865 312.495 271.865 312.495L302.433 315.443V315.764L304.106 315.597L305.78 315.764V315.443L336.348 312.495C336.348 312.495 336.155 276.431 340.042 260.381C343.839 244.562 383.932 200.891 305.767 199.681Z" fill="#1A4E85"/>
<path d="M325.628 229.002C316.296 205.654 311.817 203.208 311.817 203.208L303.502 208.447L295.188 203.208C295.188 203.208 290.721 205.667 281.377 229.002C281.377 229.002 268.905 259.442 267.412 312.496H299.268H307.75H339.605C338.1 259.454 325.628 229.002 325.628 229.002Z" fill="#6F89F0"/>
<path d="M337.456 282.532C329.862 280.486 318.06 283.523 307.737 284.013C304.738 284.154 301.868 284.077 299.255 283.588C295.381 282.867 292.099 281.245 289.872 278.105C284.711 270.833 277.67 267.473 271.904 265.955C269.729 278.555 267.914 294.181 267.399 312.496H299.255H307.737H339.593C339.284 301.504 338.499 291.516 337.456 282.532Z" fill="#4042E2"/>
<path d="M284.197 260.381L283.888 257.717C283.888 257.717 285.535 253.56 287.183 252.466C288.689 251.462 291.585 249.698 292.717 248.978C295.472 247.24 296.707 244.138 297.376 244.228C298.046 244.318 299.552 245.515 298.573 248.218C297.595 250.921 294.892 252.479 294.751 253.766C294.622 255.053 294.571 255.902 294.571 255.902L284.197 260.381Z" fill="#B8CAF0"/>
<path d="M315.406 268.271L296.177 269.52C295.134 269.584 294.233 268.799 294.156 267.743L292.161 237.111C292.097 236.068 292.882 235.167 293.937 235.09L313.166 233.841C314.209 233.777 315.11 234.562 315.187 235.618L317.182 266.238C317.246 267.306 316.461 268.207 315.406 268.271Z" fill="#0B2F93"/>
<path d="M285.021 255.632C285.021 255.632 288.548 256.571 294.867 254.731C298.021 253.817 307.416 250.097 307.893 249.865C308.369 249.634 310.711 249.312 310.801 251.358C310.879 253.405 295.112 259.918 294.635 260.535C294.159 261.166 313.08 253.714 314.096 253.714C315.113 253.714 316.683 254.576 315.396 256.455C314.392 257.91 299.346 263.521 298.561 264.693C297.776 265.864 312.732 258.476 314.212 259.39C315.86 260.407 315.898 262.26 309.862 264.693C301.367 268.116 301.933 268.219 301.933 268.219C301.933 268.219 310.094 265.71 311.188 266.417C312.282 267.125 310.634 268.541 307.416 269.712C304.199 270.884 298.317 272.776 298.317 272.776L286.475 273.175L280.271 264.062L285.021 255.632Z" fill="#C8D6F5"/>
<path d="M254.694 234.974C254.694 234.974 250.176 264.256 250.343 280.022C250.382 283.961 257.796 293.292 261.438 292.726C271.478 291.156 279.638 275.222 291.878 271.849C294.015 271.257 284.233 267.345 284.233 267.345L280.268 264.075L270.306 269.34C270.306 269.34 277.295 243.443 278.261 237.124C278.801 233.61 254.694 234.974 254.694 234.974Z" fill="#C8D6F5"/>
<path opacity="0.25" d="M256.574 276.084C257.514 274.823 270.308 269.34 270.308 269.34C270.308 269.34 277.297 243.443 278.262 237.124C278.21 236.879 278.133 236.66 278.056 236.429C276.949 234.858 271.595 233.339 266.292 232.168C266.24 232.387 264.735 238.758 262.92 246.597C259.895 259.699 255.995 276.869 256.574 276.084Z" fill="#C8D6F5"/>
<path d="M353.559 237.946C353.559 237.946 357.717 264.242 357.549 280.022C357.511 283.96 350.097 293.292 346.454 292.725C336.415 291.155 329.709 278.207 318.1 270.832C316.221 269.648 323.673 267.344 323.673 267.344L327.637 264.075L337.599 269.339C337.599 269.339 330.61 243.442 329.645 237.123C329.092 233.609 353.559 237.946 353.559 237.946Z" fill="#B8CAF0"/>
<path opacity="0.25" d="M351.319 276.083C350.38 274.822 337.586 269.339 337.586 269.339C337.586 269.339 330.597 243.442 329.632 237.123C329.683 236.878 329.761 236.659 329.838 236.428C330.945 234.858 336.299 233.339 341.602 232.167C341.653 232.386 343.159 238.757 344.974 246.596C347.999 259.699 351.912 276.868 351.319 276.083Z" fill="#C8D6F5"/>
<path d="M312.68 236.338C312.68 236.338 311.238 234.536 309.951 236.364C308.664 238.191 312.757 248.231 313.233 251.333C313.465 252.864 306.888 252.581 304.095 251.886C301.997 251.358 300.285 251.32 299.346 251.333C297.698 251.371 297.93 253.405 298.522 253.804C299.848 254.705 309.372 256.172 311.869 256.687C311.869 256.687 307.133 256.635 302.653 256.455C298.96 256.301 295.446 255.915 295.008 256.636C294.712 257.112 294.442 258.721 295.536 259.081C299.758 260.471 311.753 260.613 312.139 260.87C312.564 261.14 299.114 260.046 298.625 262.762C298.239 264.963 312.59 264.847 312.59 264.847C312.59 264.847 301.765 267.01 301.804 267.949C301.894 270.047 309.269 268.438 311.843 268.811C314.907 269.262 320.789 273.638 323.8 275.041C323.8 275.041 332.707 267.022 332.244 266.533C326.89 260.973 320.827 254.615 319.849 253.83C316.644 251.255 312.68 236.338 312.68 236.338Z" fill="#B8CAF0"/>
<path d="M296.668 202.951C296.694 203.221 257.823 207.34 248.646 255.915L276.422 258.734L296.668 202.951Z" fill="#6F89F0"/>
<path d="M311.815 203.208C311.79 203.479 350.351 207.353 359.528 255.915L331.753 258.734L311.815 203.208Z" fill="#6F89F0"/>
<path d="M301.42 218.731C312.501 218.731 320.868 211.33 322.309 206.323C319.683 204.676 316.324 203.376 312.489 202.591V176.475H295.447V202.591C291.715 203.35 288.446 204.611 285.846 206.194C287.957 210.596 289.424 218.731 301.42 218.731Z" fill="#C8D6F5"/>
<path d="M312.499 199.656V176.475H295.458V189.668C297.736 193.555 302.473 198.24 312.499 199.656Z" fill="#C8D6F5"/>
<path d="M274.788 155.495C274.788 155.495 267.143 155.379 266.036 162.343C264.903 169.46 276.462 170.104 276.462 170.104L274.788 155.495Z" fill="#C8D6F5"/>
<path d="M276.129 158.044C276.129 158.044 269.474 157.555 267.994 164.016C267.994 164.016 273.207 160.206 276.927 162.729L276.129 158.044Z" fill="#C8D6F5"/>
<path d="M333.145 155.496C333.145 155.496 340.79 155.38 341.897 162.343C343.03 169.461 331.472 170.105 331.472 170.105L333.145 155.496Z" fill="#C8D6F5"/>
<path d="M331.804 158.045C331.804 158.045 338.458 157.556 339.938 164.017C339.938 164.017 334.726 160.207 331.006 162.73L331.804 158.045Z" fill="#C8D6F5"/>
<path d="M306.333 127.875C306.333 127.875 281.453 126.163 275.983 144.994C269.625 166.849 277.579 193.826 306.101 192.693C332.628 191.638 337.841 171.83 331.47 143.552C330.17 137.773 326.103 132.972 320.581 130.836C317.106 129.497 312.46 128.339 306.333 127.875Z" fill="#C8D6F5"/>
<path d="M294.08 166.886C294.08 168.174 293.231 169.203 292.175 169.203C291.12 169.203 290.271 168.161 290.271 166.886C290.271 165.599 291.12 164.57 292.175 164.57C293.231 164.557 294.08 165.599 294.08 166.886Z" fill="#0B2F93"/>
<path d="M318.652 166.886C318.652 168.174 317.802 169.203 316.747 169.203C315.691 169.203 314.842 168.161 314.842 166.886C314.842 165.599 315.691 164.57 316.747 164.57C317.802 164.557 318.652 165.599 318.652 166.886Z" fill="#0B2F93"/>
<path d="M312.022 158.07C311.906 157.748 313.374 156.757 314.249 156.409C315.124 156.062 316.115 155.946 317.093 156.075C318.059 156.203 319.011 156.564 319.758 157.182C320.53 157.748 321.637 158.765 321.405 159.421C321.251 159.885 319.783 158.726 319.024 158.494C318.29 158.237 317.569 158.083 316.836 157.98C315.369 157.761 312.125 158.443 312.022 158.07Z" fill="#0B2F93"/>
<path d="M296.063 158.185C296.178 157.863 294.711 156.872 293.836 156.525C292.961 156.177 291.97 156.061 290.991 156.19C290.026 156.319 289.074 156.679 288.327 157.297C287.555 157.863 286.448 158.88 286.68 159.537C286.834 160 288.301 158.842 289.061 158.61C289.794 158.353 290.515 158.198 291.249 158.095C292.716 157.876 295.96 158.558 296.063 158.185Z" fill="#0B2F93"/>
<path d="M304.288 166.243C304.288 166.243 304.403 171.662 304.056 172.409C303.708 173.155 301.314 173.014 301.314 174.996C301.314 176.978 304.7 176.206 304.7 176.206" stroke="#1A4E85" stroke-width="0.5" stroke-miterlimit="10" stroke-linecap="round" stroke-linejoin="round"/>
<path d="M274.787 155.496L276.203 150.309L273.873 150.412V155.547L274.787 155.496Z" fill="#0B2F93"/>
<path d="M297.439 181.16C297.439 181.16 296.422 186.901 303.733 187.287C311.031 187.673 311.275 181.16 311.275 181.16H297.439Z" fill="white"/>
<path opacity="0.5" d="M320.582 130.835C317.107 129.497 312.461 128.338 306.334 127.888C306.334 127.888 281.455 126.176 275.984 145.006C274.401 150.451 273.706 156.217 274.002 161.777C282.999 164.39 289.949 157.414 292.948 154.029C296.642 149.858 306.991 154.17 312.538 153.797C320.711 153.244 325.538 148.443 326.336 143.333C326.413 142.818 326.542 142.342 326.696 141.878C328.768 143.642 330.609 145.933 331.677 148.893C332.321 150.682 333.26 155.393 333.724 157.787C333.376 153.346 332.617 148.597 331.484 143.565C330.171 137.773 326.104 132.972 320.582 130.835Z" fill="#C8D6F5"/>
<path d="M314.778 133.126C314.778 133.126 327.173 135.559 330.751 145.521C331.627 147.954 333.068 155.869 333.068 155.869L334.857 155.522C334.857 155.522 335.05 152.059 334.407 143.397C333.75 134.516 326.195 124.451 317.057 124.683C307.931 124.915 314.778 133.126 314.778 133.126Z" fill="#0C3389"/>
<path d="M331.02 125.197C331.741 128.698 330.428 132.25 327.97 134.837C326.863 136.009 325.756 137.695 325.408 139.96C324.623 145.083 319.784 149.884 311.611 150.424C306.063 150.797 295.702 146.486 292.021 150.656C288.327 154.826 278.661 164.428 266.537 154.903C254.412 145.379 264.271 132.958 271.724 130.101C279.511 127.128 277.168 116.561 285.611 115.222C294.042 113.884 298.971 119.714 305.124 120.177C310.375 120.615 328.613 113.562 331.02 125.197Z" fill="#0B2F93"/>
<path d="M126.072 491.531C124.038 491.531 122.442 489.794 122.61 487.76L137.398 319.06H153.835L129.534 488.507C129.29 490.231 127.81 491.531 126.072 491.531Z" fill="#6F89F0"/>
<path d="M483.5 490.618C485.534 490.618 487.13 488.88 486.962 486.846L470.809 318.146H454.373L480.051 487.593C480.282 489.318 481.75 490.618 483.5 490.618Z" fill="#6F89F0"/>
<path d="M469.447 319.06H138.766V341.996H469.447V319.06Z" fill="#6F89F0"/>
<path d="M495.344 289.843H112.857V333.655H495.344V289.843Z" fill="#596FB9"/>
<path d="M489.295 295.133H118.894V328.597H489.295V295.133Z" fill="#6F89F0"/>
<path d="M255.121 206.45H148.846C142.423 206.45 137.403 212.59 138.034 219.656L144.289 289.842H260.707L265.933 219.463C266.461 212.461 261.467 206.45 255.121 206.45Z" fill="#D0DAFF"/>
<path d="M148.064 210.312H255.897C260.376 210.312 264.186 213.221 265.923 217.34C265.408 211.277 260.813 206.438 255.124 206.438H148.849C143.147 206.438 138.552 211.277 138.037 217.327C139.775 213.221 143.585 210.312 148.064 210.312Z" fill="#6F89F0"/>
<path d="M261.133 285.698H143.853V289.842H261.133V285.698Z" fill="#6F89F0"/>
<path d="M201.978 253.494C206.762 253.494 210.64 249.616 210.64 244.832C210.64 240.048 206.762 236.17 201.978 236.17C197.194 236.17 193.315 240.048 193.315 244.832C193.315 249.616 197.194 253.494 201.978 253.494Z" fill="#4F52FF"/>
<path d="M253.434 172.434H179.773C179.387 172.434 179.078 172.125 179.078 171.739V128.879C179.078 128.492 179.387 128.184 179.773 128.184H253.434C253.82 128.184 254.129 128.492 254.129 128.879V171.739C254.142 172.125 253.82 172.434 253.434 172.434Z" fill="#6F89F0"/>
<path opacity="0.4" d="M253.691 128.273C254.244 128.286 251.825 128.247 251.58 128.17L216.61 150.295L181.614 128.17L179.734 128.183L216.61 160.335L253.691 128.273Z" fill="#6F89F0"/>
<path d="M162 151.363C162.63 148.364 165.449 146.511 168.615 147.18C171.705 147.824 173.468 150.629 172.837 153.628C172.232 156.55 169.478 158.494 166.389 157.85C163.223 157.181 161.395 154.272 162 151.363ZM173.931 98L183.353 99.9693L173.429 139.56L167.097 138.235L173.931 98Z" fill="#6F89F0"/>
<path d="M445.793 179.134C449.364 156.907 434.24 135.994 412.013 132.424C389.787 128.854 368.874 143.977 365.304 166.204C361.733 188.43 376.857 209.343 399.084 212.913C421.31 216.484 442.223 201.36 445.793 179.134Z" fill="#6F89F0"/>
<path d="M446.319 172.652C446.319 150.14 428.068 131.889 405.556 131.889C393.599 131.889 382.839 137.038 375.387 145.249C382.697 138.273 392.595 133.987 403.51 133.987C426.021 133.987 444.272 152.238 444.272 174.75C444.272 185.304 440.269 194.919 433.679 202.152C441.466 194.726 446.319 184.261 446.319 172.652Z" fill="#4F52FF"/>
<path d="M418.835 204.087C436.183 196.764 444.31 176.764 436.987 159.416C429.664 142.068 409.664 133.94 392.315 141.264C374.967 148.587 366.84 168.587 374.163 185.935C381.486 203.283 401.486 211.411 418.835 204.087Z" fill="#D0DAFF"/>
<path opacity="0.23" d="M409.227 145.7C421.043 145.7 431.442 151.711 437.569 160.836C432.755 147.836 420.257 138.569 405.585 138.569C386.754 138.569 371.489 153.834 371.489 172.665C371.489 179.679 373.613 186.205 377.255 191.636C375.891 187.955 375.145 183.965 375.145 179.808C375.119 160.965 390.384 145.7 409.227 145.7Z" fill="#D0DAFF"/>
<path d="M390.923 172.652H405.57V157.413" stroke="#0B2F93" stroke-width="1.3" stroke-miterlimit="10" stroke-linecap="round" stroke-linejoin="round"/>
<path d="M421.44 187.029L404.978 173.321C404.604 173.013 404.553 172.459 404.862 172.086C405.171 171.713 405.724 171.661 406.097 171.97C406.11 171.983 406.123 171.996 406.136 172.009L421.723 186.707C421.813 186.785 421.813 186.926 421.736 187.016C421.659 187.093 421.53 187.106 421.44 187.029Z" fill="#6F89F0"/>
<mask id="mask2_185_476" style="mask-type:luminance" maskUnits="userSpaceOnUse" x="371" y="138" width="69" height="69">
<path d="M418.829 204.085C436.177 196.762 444.303 176.762 436.981 159.414C429.658 142.066 409.658 133.939 392.31 141.262C374.962 148.585 366.835 168.585 374.158 185.933C381.481 203.281 401.481 211.408 418.829 204.085Z" fill="white"/>
</mask>
<g mask="url(#mask2_185_476)">
<path d="M405.564 135.055V149.69" stroke="#0B2F93" stroke-miterlimit="10" stroke-linecap="round" stroke-linejoin="round"/>
<path d="M405.564 195.626V210.261" stroke="#0B2F93" stroke-miterlimit="10" stroke-linecap="round" stroke-linejoin="round"/>
<path d="M443.173 172.651H428.539" stroke="#0B2F93" stroke-miterlimit="10" stroke-linecap="round" stroke-linejoin="round"/>
<path d="M382.59 172.651H367.956" stroke="#0B2F93" stroke-miterlimit="10" stroke-linecap="round" stroke-linejoin="round"/>
<path d="M432.156 146.06L425.025 153.204" stroke="#0B2F93" stroke-miterlimit="10" stroke-linecap="round" stroke-linejoin="round"/>
<path d="M386.103 192.112L378.973 199.256" stroke="#0B2F93" stroke-miterlimit="10" stroke-linecap="round" stroke-linejoin="round"/>
<path d="M432.156 199.256L425.025 192.112" stroke="#0B2F93" stroke-miterlimit="10" stroke-linecap="round" stroke-linejoin="round"/>
<path d="M386.103 153.204L378.973 146.06" stroke="#0B2F93" stroke-miterlimit="10" stroke-linecap="round" stroke-linejoin="round"/>
</g>
<path d="M447.57 187.686C447.583 189.886 447.145 192.087 446.476 194.198C445.807 196.322 444.828 198.343 443.619 200.222C442.409 202.101 440.838 203.774 439.075 205.151C437.338 206.58 435.24 207.494 433.142 208.099C434.956 206.85 436.745 205.692 438.226 204.16C439.719 202.667 441.109 201.097 442.229 199.308C444.558 195.781 446.219 191.843 447.57 187.686Z" fill="#6F89F0"/>
<path d="M453.143 185.112C453.001 188.149 452.371 191.161 451.406 194.057C450.44 196.966 449.076 199.733 447.403 202.32C445.742 204.92 443.606 207.211 441.199 209.142C438.843 211.15 435.973 212.424 433.142 213.415C433.785 213.003 434.429 212.604 435.072 212.218L436.038 211.639C436.346 211.42 436.63 211.188 436.926 210.957L438.715 209.631L440.362 208.151C442.486 206.117 444.442 203.903 446.013 201.406C447.634 198.948 449.012 196.322 450.196 193.594C451.341 190.852 452.371 188.046 453.143 185.112Z" fill="#4F52FF"/>
<path d="M365.929 153.359C366.135 151.158 366.778 149.021 367.653 146.975C368.529 144.928 369.7 143.011 371.09 141.26C372.48 139.51 374.205 137.991 376.097 136.807C377.963 135.558 380.151 134.863 382.288 134.464C380.357 135.533 378.465 136.511 376.843 137.875C375.209 139.214 373.677 140.642 372.377 142.316C369.726 145.598 367.679 149.343 365.929 153.359Z" fill="#6F89F0"/>
<path d="M360.123 155.366C360.561 152.367 361.487 149.42 362.736 146.64C363.984 143.847 365.606 141.208 367.537 138.801C369.455 136.382 371.797 134.309 374.371 132.623C376.907 130.847 379.893 129.869 382.815 129.161C382.132 129.508 381.463 129.843 380.781 130.165L379.764 130.641C379.442 130.834 379.133 131.04 378.812 131.233L376.907 132.379L375.118 133.691C372.814 135.519 370.639 137.514 368.824 139.857C366.958 142.135 365.336 144.619 363.894 147.219C362.491 149.832 361.178 152.522 360.123 155.366Z" fill="#4F52FF"/>
<path d="M377.446 287.784C373.147 287.823 369.62 284.36 369.595 280.061C369.569 275.762 373.018 272.236 377.317 272.21C377.317 272.21 444.813 272.313 454.17 272.249C454.762 272.249 455.238 271.76 455.225 271.168C455.225 270.575 454.736 270.099 454.144 270.112H376.957C371.551 270.164 366.879 274.359 366.763 279.765C366.647 285.351 371.165 289.908 376.712 289.856H454.337C454.916 289.856 455.38 289.38 455.367 288.801C455.367 288.222 454.891 287.758 454.324 287.771C445.096 287.848 377.446 287.784 377.446 287.784Z" fill="#4F52FF"/>
<path d="M453.975 275.376C453.962 273.742 452.714 272.416 451.118 272.236C451.002 272.223 450.873 272.197 450.757 272.197H377.316C373.017 272.236 369.554 275.75 369.593 280.049C369.632 284.347 373.145 287.81 377.444 287.771H450.886C451.015 287.771 451.131 287.745 451.247 287.733C452.843 287.539 454.065 286.188 454.052 284.553L453.975 275.376Z" fill="#C8D6F5"/>
<path opacity="0.5" d="M378.643 274.269H452.085C452.214 274.269 452.33 274.294 452.446 274.307C452.999 274.372 453.501 274.565 453.926 274.874C453.681 273.484 452.536 272.402 451.12 272.261C451.004 272.248 450.875 272.222 450.759 272.222H377.318C373.019 272.261 369.556 275.775 369.595 280.073C369.608 282.03 370.354 283.806 371.564 285.17C371.152 284.244 370.934 283.214 370.921 282.133C370.882 277.821 374.344 274.294 378.643 274.269Z" fill="#C8D6F5"/>
<path d="M394.229 268.039C389.93 268.077 386.403 264.615 386.378 260.316C386.339 256.017 389.801 252.49 394.1 252.465C394.1 252.465 461.596 252.568 470.953 252.503C471.545 252.503 472.021 252.014 472.008 251.422C472.008 250.83 471.519 250.354 470.927 250.367H393.74C388.334 250.418 383.662 254.614 383.546 260.02C383.43 265.606 387.948 270.162 393.495 270.111H471.12C471.699 270.111 472.163 269.635 472.15 269.055C472.15 268.476 471.674 268.013 471.107 268.026C461.879 268.103 394.229 268.039 394.229 268.039Z" fill="#4F52FF"/>
<path d="M470.758 255.631C470.746 253.996 469.497 252.67 467.901 252.49C467.785 252.477 467.657 252.452 467.541 252.452H394.099C389.8 252.49 386.338 256.004 386.376 260.303C386.415 264.602 389.929 268.064 394.228 268.026H467.669C467.798 268.026 467.914 268 468.03 267.987C469.626 267.794 470.849 266.442 470.836 264.808L470.758 255.631Z" fill="#C8D6F5"/>
<path opacity="0.5" d="M395.412 254.511H468.854C468.982 254.511 469.098 254.536 469.214 254.549C469.768 254.614 470.27 254.807 470.694 255.116C470.45 253.725 469.304 252.644 467.888 252.503C467.773 252.49 467.644 252.464 467.528 252.464H394.086C389.787 252.503 386.325 256.016 386.364 260.315C386.376 262.272 387.123 264.048 388.333 265.412C387.934 264.486 387.702 263.456 387.689 262.375C387.651 258.063 391.113 254.549 395.412 254.511Z" fill="#C8D6F5"/>
</svg>
