<svg width="109" height="76" viewBox="0 0 109 76" fill="none" xmlns="http://www.w3.org/2000/svg">
<g clip-path="url(#clip0_37_12959)">
<path d="M51.7791 69.1935H11.3651C11.0481 69.1935 10.7441 69.0675 10.52 68.8434C10.2958 68.6193 10.1699 68.3153 10.1699 67.9983V11.1847C10.1727 10.8695 10.2998 10.5682 10.5237 10.3463C10.7475 10.1245 11.0499 9.99999 11.3651 10H51.7791C52.0961 10 52.4001 10.1259 52.6242 10.3501C52.8483 10.5742 52.9742 10.8782 52.9742 11.1952V67.9983C52.9742 68.3153 52.8483 68.6193 52.6242 68.8434C52.4001 69.0675 52.0961 69.1935 51.7791 69.1935ZM11.3651 10.0419C11.0622 10.0424 10.7718 10.163 10.5576 10.3772C10.3434 10.5914 10.2228 10.8818 10.2222 11.1847V67.9983C10.2228 68.3012 10.3434 68.5916 10.5576 68.8058C10.7718 69.02 11.0622 69.1406 11.3651 69.1411H51.7791C52.082 69.1406 52.3724 69.02 52.5866 68.8058C52.8008 68.5916 52.9214 68.3012 52.9219 67.9983V11.1847C52.9214 10.8818 52.8008 10.5914 52.5866 10.3772C52.3724 10.163 52.082 10.0424 51.7791 10.0419H11.3651Z" fill="#EBEBEB"/>
<path d="M97.0557 69.1935H56.6376C56.3207 69.1929 56.0171 69.0668 55.7931 68.8428C55.569 68.6188 55.4429 68.3151 55.4424 67.9983V11.1847C55.4457 10.8697 55.573 10.5687 55.7967 10.347C56.0204 10.1252 56.3225 10.0005 56.6376 10H97.0557C97.3702 10.0011 97.6715 10.1261 97.8945 10.3478C98.1174 10.5696 98.244 10.8703 98.2467 11.1847V67.9983C98.2467 68.3145 98.1214 68.6179 97.8981 68.8419C97.6749 69.0659 97.372 69.1923 97.0557 69.1935ZM56.6376 10.0419C56.3346 10.0424 56.0443 10.163 55.8301 10.3772C55.6158 10.5914 55.4953 10.8818 55.4947 11.1847V67.9983C55.4953 68.3012 55.6158 68.5916 55.8301 68.8058C56.0443 69.02 56.3346 69.1406 56.6376 69.1411H97.0557C97.3587 69.1406 97.649 69.02 97.8632 68.8058C98.0774 68.5916 98.198 68.3012 98.1986 67.9983V11.1847C98.198 10.8818 98.0774 10.5914 97.8632 10.3772C97.649 10.163 97.3587 10.0424 97.0557 10.0419H56.6376Z" fill="#EBEBEB"/>
<path d="M47.5901 38.184H37.5703V78.397H47.5901V38.184Z" fill="#F0F0F0"/>
<path d="M47.9144 40.3419H37.4111V41.8218H47.9144V40.3419Z" fill="#F5F5F5"/>
<path d="M47.9144 43.5403H37.4111V45.0201H47.9144V43.5403Z" fill="#F5F5F5"/>
<path d="M47.9144 46.7365H37.4111V48.2163H47.9144V46.7365Z" fill="#F5F5F5"/>
<path d="M47.9144 49.9326H37.4111V51.4125H47.9144V49.9326Z" fill="#F5F5F5"/>
<path d="M47.9144 53.1307H37.4111V54.6106H47.9144V53.1307Z" fill="#F5F5F5"/>
<path d="M47.9144 56.327H37.4111V57.8069H47.9144V56.327Z" fill="#F5F5F5"/>
<path d="M47.9144 59.5253H37.4111V61.0051H47.9144V59.5253Z" fill="#F5F5F5"/>
<path d="M47.9144 62.7214H37.4111V64.2013H47.9144V62.7214Z" fill="#F5F5F5"/>
<path d="M47.9144 65.9177H37.4111V67.3976H47.9144V65.9177Z" fill="#F5F5F5"/>
<path d="M47.9144 69.116H37.4111V70.5958H47.9144V69.116Z" fill="#F5F5F5"/>
<path d="M47.9144 72.3121H37.4111V73.792H47.9144V72.3121Z" fill="#F5F5F5"/>
<path d="M47.9144 75.5105H37.4111V76.9903H47.9144V75.5105Z" fill="#F5F5F5"/>
<path d="M32.1377 78.3969H20.2529V24.543L32.1377 29.3739V78.3969Z" fill="#EBEBEB"/>
<path d="M24.1411 30.2196H20.8926V33.4681H24.1411V30.2196Z" fill="#FAFAFA"/>
<path d="M27.8188 30.2196H24.5703V33.4681H27.8188V30.2196Z" fill="#F0F0F0"/>
<path d="M31.4966 30.2196H28.248V33.4681H31.4966V30.2196Z" fill="#FAFAFA"/>
<path d="M24.1411 33.849H20.8926V37.0975H24.1411V33.849Z" fill="#FAFAFA"/>
<path d="M27.8188 33.849H24.5703V37.0975H27.8188V33.849Z" fill="#FAFAFA"/>
<path d="M31.4966 33.849H28.248V37.0975H31.4966V33.849Z" fill="#FAFAFA"/>
<path d="M24.1411 37.4763H20.8926V40.7248H24.1411V37.4763Z" fill="#FAFAFA"/>
<path d="M27.8188 37.4763H24.5703V40.7248H27.8188V37.4763Z" fill="#F0F0F0"/>
<path d="M31.4966 37.4763H28.248V40.7248H31.4966V37.4763Z" fill="#FAFAFA"/>
<path d="M24.1411 41.1038H20.8926V44.3523H24.1411V41.1038Z" fill="#F0F0F0"/>
<path d="M27.8188 41.1038H24.5703V44.3523H27.8188V41.1038Z" fill="#FAFAFA"/>
<path d="M31.4966 41.1038H28.248V44.3523H31.4966V41.1038Z" fill="#FAFAFA"/>
<path d="M24.1411 44.7333H20.8926V47.9818H24.1411V44.7333Z" fill="#FAFAFA"/>
<path d="M27.8188 44.7333H24.5703V47.9818H27.8188V44.7333Z" fill="#FAFAFA"/>
<path d="M31.4966 44.7333H28.248V47.9818H31.4966V44.7333Z" fill="#F0F0F0"/>
<path d="M24.1411 48.3606H20.8926V51.6091H24.1411V48.3606Z" fill="#FAFAFA"/>
<path d="M27.8188 48.3606H24.5703V51.6091H27.8188V48.3606Z" fill="#F0F0F0"/>
<path d="M31.4966 48.3606H28.248V51.6091H31.4966V48.3606Z" fill="#FAFAFA"/>
<path d="M24.1411 51.988H20.8926V55.2366H24.1411V51.988Z" fill="#F0F0F0"/>
<path d="M27.8188 51.988H24.5703V55.2366H27.8188V51.988Z" fill="#F0F0F0"/>
<path d="M31.4966 51.988H28.248V55.2366H31.4966V51.988Z" fill="#FAFAFA"/>
<path d="M24.1411 55.6174H20.8926V58.866H24.1411V55.6174Z" fill="#FAFAFA"/>
<path d="M27.8188 55.6174H24.5703V58.866H27.8188V55.6174Z" fill="#F0F0F0"/>
<path d="M31.4966 55.6174H28.248V58.866H31.4966V55.6174Z" fill="#FAFAFA"/>
<path d="M24.1411 59.2449H20.8926V62.4934H24.1411V59.2449Z" fill="#FAFAFA"/>
<path d="M27.8188 59.2449H24.5703V62.4934H27.8188V59.2449Z" fill="#FAFAFA"/>
<path d="M31.4966 59.2449H28.248V62.4934H31.4966V59.2449Z" fill="#FAFAFA"/>
<path d="M24.1411 62.8722H20.8926V66.1207H24.1411V62.8722Z" fill="#F0F0F0"/>
<path d="M27.8188 62.8722H24.5703V66.1207H27.8188V62.8722Z" fill="#FAFAFA"/>
<path d="M31.4966 62.8722H28.248V66.1207H31.4966V62.8722Z" fill="#F0F0F0"/>
<path d="M24.1411 66.5017H20.8926V69.7502H24.1411V66.5017Z" fill="#FAFAFA"/>
<path d="M27.8188 66.5017H24.5703V69.7502H27.8188V66.5017Z" fill="#F0F0F0"/>
<path d="M31.4966 66.5017H28.248V69.7502H31.4966V66.5017Z" fill="#FAFAFA"/>
<path d="M24.1411 70.1292H20.8926V73.3777H24.1411V70.1292Z" fill="#F0F0F0"/>
<path d="M27.8188 70.1292H24.5703V73.3777H27.8188V70.1292Z" fill="#FAFAFA"/>
<path d="M31.4966 70.1292H28.248V73.3777H31.4966V70.1292Z" fill="#FAFAFA"/>
<path d="M88.5408 78.397H78.2656V31.8439L88.5408 36.0196V78.397Z" fill="#F0F0F0"/>
<path d="M83.0958 35.4774H81.5469V37.0263H83.0958V35.4774Z" fill="#FAFAFA"/>
<path d="M80.9317 37.8135H79.3828V39.3624H80.9317V37.8135Z" fill="#FAFAFA"/>
<path d="M80.9317 40.1493H79.3828V41.6982H80.9317V40.1493Z" fill="#FAFAFA"/>
<path d="M83.0958 40.1493H81.5469V41.6982H83.0958V40.1493Z" fill="#FAFAFA"/>
<path d="M85.2579 40.1493H83.709V41.6982H85.2579V40.1493Z" fill="#FAFAFA"/>
<path d="M80.9317 44.8191H79.3828V46.368H80.9317V44.8191Z" fill="#FAFAFA"/>
<path d="M85.2579 44.8191H83.709V46.368H85.2579V44.8191Z" fill="#FAFAFA"/>
<path d="M83.0958 47.1549H81.5469V48.7038H83.0958V47.1549Z" fill="#FAFAFA"/>
<path d="M80.9317 49.4908H79.3828V51.0398H80.9317V49.4908Z" fill="#FAFAFA"/>
<path d="M85.2579 49.4908H83.709V51.0398H85.2579V49.4908Z" fill="#FAFAFA"/>
<path d="M87.422 49.4908H85.873V51.0398H87.422V49.4908Z" fill="#FAFAFA"/>
<path d="M83.0958 51.8269H81.5469V53.3758H83.0958V51.8269Z" fill="#FAFAFA"/>
<path d="M80.9317 54.1628H79.3828V55.7118H80.9317V54.1628Z" fill="#FAFAFA"/>
<path d="M83.0958 54.1628H81.5469V55.7118H83.0958V54.1628Z" fill="#FAFAFA"/>
<path d="M87.422 54.1628H85.873V55.7118H87.422V54.1628Z" fill="#FAFAFA"/>
<path d="M80.9443 56.4624L79.3955 56.4402L79.3733 57.9889L80.9221 58.0111L80.9443 56.4624Z" fill="#FAFAFA"/>
<path d="M85.2695 56.5263L83.7207 56.5042L83.6985 58.0529L85.2473 58.0751L85.2695 56.5263Z" fill="#FAFAFA"/>
<path d="M87.4325 56.5552L85.8838 56.5331L85.8616 58.0818L87.4104 58.104L87.4325 56.5552Z" fill="#FAFAFA"/>
<path d="M83.0958 58.8346H81.5469V60.3835H83.0958V58.8346Z" fill="#FAFAFA"/>
<path d="M85.872 62.506H87.4209V60.9571H85.872V62.506Z" fill="#FAFAFA"/>
<path d="M81.5458 62.506H83.0947V60.9571H81.5458V62.506Z" fill="#FAFAFA"/>
<path d="M79.3827 62.506H80.9316V60.9571H79.3827V62.506Z" fill="#FAFAFA"/>
<path d="M83.7099 64.8418H85.2588V63.2929H83.7099V64.8418Z" fill="#FAFAFA"/>
<path d="M85.872 67.1777H87.4209V65.6288H85.872V67.1777Z" fill="#FAFAFA"/>
<path d="M83.7099 67.1777H85.2588V65.6288H83.7099V67.1777Z" fill="#FAFAFA"/>
<path d="M79.3827 67.1777H80.9316V65.6288H79.3827V67.1777Z" fill="#FAFAFA"/>
<path d="M85.8848 69.4766L87.4336 69.4545L87.4114 67.9057L85.8627 67.9279L85.8848 69.4766Z" fill="#FAFAFA"/>
<path d="M81.5596 69.5382L83.1084 69.516L83.0862 67.9672L81.5375 67.9894L81.5596 69.5382Z" fill="#FAFAFA"/>
<path d="M79.3966 69.57L80.9453 69.5479L80.9231 67.9991L79.3744 68.0213L79.3966 69.57Z" fill="#FAFAFA"/>
<path d="M83.7099 71.8517H85.2588V70.3028H83.7099V71.8517Z" fill="#FAFAFA"/>
<path d="M75.2446 30.6151V28.5869H71.14V30.6151H64.3311V78.3969H76.2367V30.6151H75.2446Z" fill="#F0F0F0"/>
<path d="M69.935 33.1814H68.1768V34.9396H69.935V33.1814Z" fill="#FAFAFA"/>
<path d="M72.3891 33.1814H70.6309V34.9396H72.3891V33.1814Z" fill="#FAFAFA"/>
<path d="M67.4789 35.8333H65.7207V37.5915H67.4789V35.8333Z" fill="#FAFAFA"/>
<path d="M69.935 35.8333H68.1768V37.5915H69.935V35.8333Z" fill="#FAFAFA"/>
<path d="M74.8471 35.8333H73.0889V37.5915H74.8471V35.8333Z" fill="#FAFAFA"/>
<path d="M67.4789 38.4852H65.7207V40.2435H67.4789V38.4852Z" fill="#FAFAFA"/>
<path d="M72.3891 38.4852H70.6309V40.2435H72.3891V38.4852Z" fill="#FAFAFA"/>
<path d="M74.8471 38.4852H73.0889V40.2435H74.8471V38.4852Z" fill="#FAFAFA"/>
<path d="M67.4789 43.7893H65.7207V45.5475H67.4789V43.7893Z" fill="#FAFAFA"/>
<path d="M72.3891 43.7893H70.6309V45.5475H72.3891V43.7893Z" fill="#FAFAFA"/>
<path d="M67.4789 46.4413H65.7207V48.1995H67.4789V46.4413Z" fill="#FAFAFA"/>
<path d="M69.935 46.4413H68.1768V48.1995H69.935V46.4413Z" fill="#FAFAFA"/>
<path d="M74.8471 46.4413H73.0889V48.1995H74.8471V46.4413Z" fill="#FAFAFA"/>
<path d="M67.4789 59.6824H65.7207V61.4406H67.4789V59.6824Z" fill="#FAFAFA"/>
<path d="M69.935 59.6824H68.1768V61.4406H69.935V59.6824Z" fill="#FAFAFA"/>
<path d="M74.8471 59.6824H73.0889V61.4406H74.8471V59.6824Z" fill="#FAFAFA"/>
<path d="M67.4789 62.3323H65.7207V64.0905H67.4789V62.3323Z" fill="#FAFAFA"/>
<path d="M72.3891 62.3323H70.6309V64.0905H72.3891V62.3323Z" fill="#FAFAFA"/>
<path d="M74.8471 62.3323H73.0889V64.0905H74.8471V62.3323Z" fill="#FAFAFA"/>
<path d="M67.4789 67.6361H65.7207V69.3943H67.4789V67.6361Z" fill="#FAFAFA"/>
<path d="M72.3891 67.6361H70.6309V69.3943H72.3891V67.6361Z" fill="#FAFAFA"/>
<path d="M67.4789 70.2882H65.7207V72.0464H67.4789V70.2882Z" fill="#FAFAFA"/>
<path d="M69.935 70.2882H68.1768V72.0464H69.935V70.2882Z" fill="#FAFAFA"/>
<path d="M74.8471 70.2882H73.0889V72.0464H74.8471V70.2882Z" fill="#FAFAFA"/>
<path d="M74.8471 49.0911H73.0889V50.8493H74.8471V49.0911Z" fill="#FAFAFA"/>
<path d="M67.4789 51.743H65.7207V53.5013H67.4789V51.743Z" fill="#FAFAFA"/>
<path d="M69.935 51.743H68.1768V53.5013H69.935V51.743Z" fill="#FAFAFA"/>
<path d="M72.4026 54.4252L70.6445 54.4L70.6194 56.1581L72.3774 56.1832L72.4026 54.4252Z" fill="#FAFAFA"/>
<path d="M74.8567 54.4623L73.0986 54.4371L73.0735 56.1952L74.8315 56.2203L74.8567 54.4623Z" fill="#FAFAFA"/>
<path d="M67.4789 57.0471H65.7207V58.8053H67.4789V57.0471Z" fill="#FAFAFA"/>
<path d="M60.5764 38.184H50.5566V78.397H60.5764V38.184Z" fill="#EBEBEB"/>
<path d="M60.8978 40.3419H50.3945V41.8218H60.8978V40.3419Z" fill="#F5F5F5"/>
<path d="M60.8978 43.5403H50.3945V45.0201H60.8978V43.5403Z" fill="#F5F5F5"/>
<path d="M60.8978 46.7365H50.3945V48.2163H60.8978V46.7365Z" fill="#F5F5F5"/>
<path d="M60.8978 49.9326H50.3945V51.4125H60.8978V49.9326Z" fill="#F5F5F5"/>
<path d="M60.8978 53.1307H50.3945V54.6106H60.8978V53.1307Z" fill="#F5F5F5"/>
<path d="M60.8978 56.327H50.3945V57.8069H60.8978V56.327Z" fill="#F5F5F5"/>
<path d="M60.8978 59.5253H50.3945V61.0051H60.8978V59.5253Z" fill="#F5F5F5"/>
<path d="M60.8978 62.7214H50.3945V64.2013H60.8978V62.7214Z" fill="#F5F5F5"/>
<path d="M60.8978 65.9177H50.3945V67.3976H60.8978V65.9177Z" fill="#F5F5F5"/>
<path d="M60.8978 69.116H50.3945V70.5958H60.8978V69.116Z" fill="#F5F5F5"/>
<path d="M60.8978 72.3121H50.3945V73.792H60.8978V72.3121Z" fill="#F5F5F5"/>
<path d="M60.8978 75.5105H50.3945V76.9903H60.8978V75.5105Z" fill="#F5F5F5"/>
<path d="M51.779 16.5535C51.496 16.5558 51.2203 16.6434 50.9878 16.8047C51.0892 16.5883 51.1523 16.356 51.1741 16.1181C51.2012 15.8686 51.1748 15.6162 51.0968 15.3776C51.0188 15.139 50.8909 14.9198 50.7216 14.7345C50.5523 14.5492 50.3455 14.402 50.115 14.3028C49.8845 14.2036 49.6354 14.1545 49.3845 14.159C49.059 14.1631 48.7391 14.2441 48.451 14.3955C48.3441 14.0233 48.1173 13.6967 47.8058 13.4666C47.4943 13.2365 47.1155 13.1157 46.7283 13.1229C46.1946 13.1328 45.683 13.3378 45.2901 13.6992C44.8971 14.0605 44.65 14.5531 44.5954 15.0841C44.5902 15.1706 44.5902 15.2572 44.5954 15.3437C44.4298 15.2973 44.2588 15.2734 44.0868 15.2725C43.5529 15.282 43.0411 15.4869 42.6481 15.8483C42.255 16.2097 42.0081 16.7026 41.9539 17.2338C41.9265 17.4834 41.9526 17.7361 42.0305 17.9749C42.1084 18.2137 42.2362 18.4332 42.4055 18.6188C42.5748 18.8043 42.7817 18.9517 43.0124 19.051C43.2432 19.1504 43.4924 19.1995 43.7435 19.195H51.5571C51.9155 19.1887 52.2591 19.0512 52.523 18.8085C52.7868 18.5659 52.9525 18.235 52.9888 17.8784C53.0083 17.7095 52.9914 17.5383 52.9391 17.3765C52.8868 17.2147 52.8004 17.066 52.6857 16.9404C52.5711 16.8148 52.4308 16.7153 52.2744 16.6485C52.1179 16.5818 51.949 16.5494 51.779 16.5535Z" fill="#F0F0F0"/>
<path d="M43.8253 18.337C43.3959 18.3402 42.9774 18.4721 42.6238 18.7158C42.7773 18.3859 42.8722 18.0317 42.9043 17.6693C42.9461 17.2899 42.9064 16.9059 42.788 16.5431C42.6695 16.1802 42.4751 15.8468 42.2175 15.5651C41.96 15.2834 41.6453 15.0599 41.2945 14.9095C40.9437 14.759 40.5649 14.6852 40.1833 14.6928C39.6858 14.6951 39.196 14.8149 38.7536 15.0424C38.5915 14.4774 38.2473 13.9818 37.7746 13.6324C37.3019 13.2831 36.727 13.0996 36.1393 13.1104C35.3291 13.1251 34.5523 13.436 33.9557 13.9844C33.3591 14.5328 32.984 15.2807 32.9013 16.0869C32.893 16.2193 32.893 16.3521 32.9013 16.4845C32.6501 16.4126 32.3902 16.3759 32.1289 16.3757C31.3185 16.3909 30.5417 16.7023 29.9451 17.251C29.3486 17.7997 28.9736 18.5479 28.8909 19.3542C28.8495 19.7335 28.8894 20.1173 29.0079 20.48C29.1265 20.8427 29.321 21.176 29.5784 21.4576C29.8359 21.7393 30.1504 21.9628 30.5011 22.1133C30.8517 22.2639 31.2304 22.3379 31.6119 22.3306H43.4799C44.0239 22.3203 44.5453 22.1113 44.9459 21.7431C45.3465 21.3749 45.5986 20.8729 45.6547 20.3317C45.6817 20.0771 45.6543 19.8197 45.5743 19.5766C45.4942 19.3334 45.3633 19.1101 45.1903 18.9214C45.0172 18.7327 44.806 18.583 44.5707 18.4823C44.3353 18.3815 44.0812 18.332 43.8253 18.337Z" fill="#F5F5F5"/>
<path d="M87.3614 21.6504C86.9327 21.654 86.515 21.786 86.162 22.0292C86.3154 21.6993 86.4103 21.3451 86.4425 20.9827C86.4842 20.6032 86.4445 20.2191 86.3261 19.8562C86.2077 19.4932 86.0133 19.1597 85.7558 18.8778C85.4983 18.596 85.1836 18.3722 84.8328 18.2216C84.482 18.0709 84.1031 17.9968 83.7214 18.0042C83.2246 18.0061 82.7354 18.1259 82.2939 18.3537C82.1316 17.7884 81.7872 17.2925 81.314 16.9431C80.8409 16.5937 80.2656 16.4105 79.6775 16.4218C78.8672 16.4366 78.0904 16.7478 77.4941 17.2967C76.8978 17.8456 76.5233 18.594 76.4415 19.4003C76.4322 19.532 76.4322 19.6642 76.4415 19.7959C76.1901 19.7257 75.9303 19.6898 75.6692 19.6891C74.859 19.7038 74.0822 20.0147 73.4856 20.5631C72.889 21.1115 72.5139 21.8594 72.4311 22.6655C72.3894 23.045 72.4291 23.4291 72.5475 23.792C72.6659 24.155 72.8603 24.4885 73.1178 24.7704C73.3753 25.0522 73.69 25.276 74.0408 25.4266C74.3916 25.5773 74.7705 25.6514 75.1522 25.644H87.0181C87.5625 25.6341 88.0845 25.4249 88.4852 25.0562C88.8859 24.6875 89.1377 24.1848 89.1928 23.643C89.2196 23.3884 89.1919 23.1311 89.1116 22.888C89.0312 22.645 88.9001 22.4218 88.7269 22.2333C88.5536 22.0448 88.3423 21.8954 88.1069 21.7949C87.8714 21.6944 87.6173 21.6451 87.3614 21.6504Z" fill="#FAFAFA"/>
<path d="M74.6527 20.7712C74.3634 20.7745 74.0816 20.8633 73.8427 21.0265C73.9474 20.806 74.0119 20.5685 74.0332 20.3253C74.0612 20.0698 74.0344 19.8113 73.9547 19.5669C73.875 19.3225 73.7441 19.0979 73.5709 18.908C73.3976 18.7181 73.1859 18.5673 72.9498 18.4655C72.7137 18.3638 72.4587 18.3135 72.2017 18.318C71.8665 18.3194 71.5365 18.4004 71.2389 18.5546C71.1296 18.1737 70.8976 17.8396 70.5789 17.6041C70.2602 17.3687 69.8726 17.2451 69.4765 17.2526C69.1808 17.2485 68.8875 17.3051 68.6147 17.4191C68.3418 17.533 68.0953 17.7017 67.8904 17.9149C67.6855 18.128 67.5266 18.381 67.4235 18.6581C67.3205 18.9352 67.2754 19.2305 67.2912 19.5258C67.1216 19.4784 66.9462 19.4545 66.77 19.4546C66.224 19.4645 65.7005 19.6739 65.2983 20.0433C64.8961 20.4127 64.6431 20.9166 64.5869 21.4598C64.559 21.7153 64.5857 21.9739 64.6654 22.2183C64.7451 22.4627 64.876 22.6873 65.0492 22.8772C65.2225 23.0671 65.4342 23.2179 65.6703 23.3196C65.9064 23.4213 66.1614 23.4716 66.4184 23.4671H74.4183C74.7851 23.4603 75.1366 23.3194 75.4066 23.0711C75.6766 22.8227 75.8462 22.4841 75.8835 22.1191C75.9023 21.9475 75.8842 21.7738 75.8306 21.6096C75.777 21.4455 75.6891 21.2946 75.5727 21.1671C75.4562 21.0396 75.314 20.9383 75.1554 20.87C74.9967 20.8018 74.8254 20.7681 74.6527 20.7712Z" fill="#F5F5F5"/>
<path d="M53.4497 77.3687C76.7936 77.3687 95.7177 76.2639 95.7177 74.901C95.7177 73.5381 76.7936 72.4332 53.4497 72.4332C30.1057 72.4332 11.1816 73.5381 11.1816 74.901C11.1816 76.2639 30.1057 77.3687 53.4497 77.3687Z" fill="#F5F5F5"/>
<path d="M50.4123 55.5687L95.6211 58.9412C96.1841 58.9833 96.7408 58.8003 97.1691 58.4325C97.5974 58.0647 97.8623 57.542 97.9058 56.9792L98.5837 47.8755C98.6236 47.3533 98.5345 46.8292 98.3243 46.3495L96.5803 42.3862C96.2962 41.7382 95.8412 41.1797 95.264 40.7703C94.6869 40.361 94.0093 40.1163 93.3038 40.0624L73.4658 38.5843C70.5142 38.3622 67.5727 39.1292 65.1055 40.7643L60.0588 44.1128L51.1557 45.1222C50.553 45.1911 49.9774 45.4108 49.4821 45.761C48.9868 46.1111 48.5877 46.5804 48.3217 47.1256L47.4366 48.9306C47.1963 49.4229 47.0711 49.9633 47.0703 50.5111V51.9521C47.0672 52.8657 47.4101 53.7466 48.0301 54.4176C48.6502 55.0885 49.5013 55.4998 50.4123 55.5687Z" fill="#263238"/>
<path d="M97.8966 57.0468L96.8437 56.9879C96.5102 55.5266 95.7106 54.2134 94.5654 53.2464C93.4202 52.2794 91.9916 51.7111 90.4951 51.6271C88.9986 51.5432 87.5155 51.9483 86.2693 52.7812C85.0232 53.6141 84.0818 54.8297 83.5871 56.2445L62.5043 55.0651C62.2957 53.4675 61.5354 51.9929 60.3548 50.8964C59.1742 49.7999 57.6476 49.1504 56.039 49.0602C54.4303 48.9699 52.8406 49.4446 51.5448 50.4022C50.249 51.3598 49.3285 52.74 48.9425 54.3043L47.8809 54.2455C48.1416 54.5616 48.4533 54.832 48.803 55.0455C48.8379 55.0673 48.8749 55.0826 48.912 55.1022C48.9491 55.1218 49.0188 55.1632 49.0755 55.1894C49.1322 55.2156 49.1932 55.2461 49.2521 55.2722C49.3109 55.2984 49.3851 55.3267 49.4526 55.3507C49.5202 55.3747 49.5616 55.3921 49.6183 55.4096C49.675 55.427 49.784 55.4554 49.8668 55.475C49.9148 55.475 49.9606 55.499 50.0064 55.5077C50.1393 55.5317 50.2767 55.5513 50.414 55.5622L62.5457 56.4669L83.2187 58.0081L95.6229 58.9346C95.6904 58.9346 95.758 58.9346 95.8256 58.9346H95.8932H96.0262L96.1046 58.9237L96.2202 58.9019C96.2485 58.9019 96.2747 58.8889 96.3008 58.8823L96.4098 58.854L96.4883 58.8278L96.593 58.7864L96.6671 58.7559L96.7717 58.7014L96.8371 58.6687L96.9483 58.5989L96.9963 58.5662L97.0202 58.551C97.2636 58.3757 97.4674 58.1512 97.6184 57.8921C97.7694 57.6329 97.8642 57.3449 97.8966 57.0468Z" fill="#263238"/>
<path opacity="0.4" d="M97.8966 57.0468L96.8437 56.9879C96.5102 55.5266 95.7106 54.2134 94.5654 53.2464C93.4202 52.2794 91.9916 51.7111 90.4951 51.6271C88.9986 51.5432 87.5155 51.9483 86.2693 52.7812C85.0232 53.6141 84.0818 54.8297 83.5871 56.2445L62.5043 55.0651C62.2957 53.4675 61.5354 51.9929 60.3548 50.8964C59.1742 49.7999 57.6476 49.1504 56.039 49.0602C54.4303 48.9699 52.8406 49.4446 51.5448 50.4022C50.249 51.3598 49.3285 52.74 48.9425 54.3043L47.8809 54.2455C48.1416 54.5616 48.4533 54.832 48.803 55.0455C48.8379 55.0673 48.8749 55.0826 48.912 55.1022C48.9491 55.1218 49.0188 55.1632 49.0755 55.1894C49.1322 55.2156 49.1932 55.2461 49.2521 55.2722C49.3109 55.2984 49.3851 55.3267 49.4526 55.3507C49.5202 55.3747 49.5616 55.3921 49.6183 55.4096C49.675 55.427 49.784 55.4554 49.8668 55.475C49.9148 55.475 49.9606 55.499 50.0064 55.5077C50.1393 55.5317 50.2767 55.5513 50.414 55.5622L62.5457 56.4669L83.2187 58.0081L95.6229 58.9346C95.6904 58.9346 95.758 58.9346 95.8256 58.9346H95.8932H96.0262L96.1046 58.9237L96.2202 58.9019C96.2485 58.9019 96.2747 58.8889 96.3008 58.8823L96.4098 58.854L96.4883 58.8278L96.593 58.7864L96.6671 58.7559L96.7717 58.7014L96.8371 58.6687L96.9483 58.5989L96.9963 58.5662L97.0202 58.551C97.2636 58.3757 97.4674 58.1512 97.6184 57.8921C97.7694 57.6329 97.8642 57.3449 97.8966 57.0468Z" fill="white"/>
<path opacity="0.7" d="M53.7276 45.6323L53.9151 45.4296L51.2293 45.7326C50.7276 45.7898 50.2484 45.9723 49.8358 46.2634C49.4232 46.5544 49.0905 46.9447 48.8684 47.3981L48.3408 48.4881L49.6859 48.111C51.2375 47.6769 52.6372 46.8185 53.7276 45.6323Z" fill="white"/>
<path opacity="0.7" d="M48.5197 52.386C48.4783 52.9571 48.221 53.4019 47.9463 53.3801C47.6717 53.3583 47.4842 52.883 47.5278 52.3118C47.5714 51.7407 47.8264 51.2981 48.1011 51.3178C48.3758 51.3374 48.5633 51.817 48.5197 52.386Z" fill="white"/>
<path opacity="0.1" d="M93.4584 47.922L92.2888 47.8347C91.9982 47.813 91.7451 48.0309 91.7234 48.3215L91.6359 49.4933C91.6142 49.7838 91.8322 50.0369 92.1227 50.0586L93.2923 50.146C93.5829 50.1677 93.836 49.9497 93.8577 49.6591L93.9452 48.4874C93.9669 48.1968 93.7489 47.9437 93.4584 47.922Z" fill="white"/>
<path d="M87.363 41.9809C87.1607 41.5821 86.859 41.2421 86.4871 40.9939C86.1152 40.7457 85.6855 40.5976 85.2396 40.5639L73.3892 39.6919C70.9105 39.5066 69.9012 40.1824 67.6667 41.6539L63.8865 44.163C63.7671 44.2422 63.6758 44.3571 63.6257 44.4914C63.5757 44.6257 63.5694 44.7724 63.6079 44.9104C63.6464 45.0484 63.7277 45.1707 63.84 45.2597C63.9523 45.3487 64.09 45.3997 64.2332 45.4056L89.6323 46.476L87.363 41.9809Z" fill="#263238"/>
<path opacity="0.3" d="M87.363 41.9809C87.1607 41.5821 86.859 41.2421 86.4871 40.9939C86.1152 40.7457 85.6855 40.5976 85.2396 40.5639L73.3892 39.6919C70.9105 39.5066 69.9012 40.1824 67.6667 41.6539L63.8865 44.163C63.7671 44.2422 63.6758 44.3571 63.6257 44.4914C63.5757 44.6257 63.5694 44.7724 63.6079 44.9104C63.6464 45.0484 63.7277 45.1707 63.84 45.2597C63.9523 45.3487 64.09 45.3997 64.2332 45.4056L89.6323 46.476L87.363 41.9809Z" fill="white"/>
<path d="M98.3174 46.3495L96.5734 42.3863C96.41 42.0135 96.1893 41.6686 95.9194 41.3639H95.8933L88.8584 40.8385L92.6996 45.7391C92.9191 46.0189 93.1967 46.2478 93.5132 46.41C93.8297 46.5722 94.1776 46.6639 94.5329 46.6787L98.4962 46.8967C98.4524 46.7095 98.3926 46.5265 98.3174 46.3495Z" fill="#263238"/>
<path opacity="0.3" d="M98.3174 46.3495L96.5734 42.3863C96.41 42.0135 96.1893 41.6686 95.9194 41.3639H95.8933L88.8584 40.8385L92.6996 45.7391C92.9191 46.0189 93.1967 46.2478 93.5132 46.41C93.8297 46.5722 94.1776 46.6639 94.5329 46.6787L98.4962 46.8967C98.4524 46.7095 98.3926 46.5265 98.3174 46.3495Z" fill="white"/>
<path d="M61.7572 43.8774L69.0449 38.9985C67.6498 39.3726 66.3246 39.9704 65.1209 40.7687L60.0742 44.1172L60.7282 44.1586C61.0928 44.1807 61.4545 44.0818 61.7572 43.8774Z" fill="#263238"/>
<path opacity="0.3" d="M61.7572 43.8774L69.0449 38.9985C67.6498 39.3726 66.3246 39.9704 65.1209 40.7687L60.0742 44.1172L60.7282 44.1586C61.0928 44.1807 61.4545 44.0818 61.7572 43.8774Z" fill="white"/>
<path opacity="0.7" d="M75.242 47.024L73.0094 46.8573C72.8521 46.8456 72.7151 46.9636 72.7033 47.1209L72.6983 47.1882C72.6866 47.3455 72.8046 47.4826 72.9618 47.4943L75.1945 47.661C75.3518 47.6727 75.4888 47.5548 75.5005 47.3975L75.5056 47.3301C75.5173 47.1728 75.3993 47.0358 75.242 47.024Z" fill="white"/>
<path opacity="0.7" d="M89.4764 47.6245L87.2438 47.4578C87.0865 47.446 86.9495 47.564 86.9377 47.7213L86.9327 47.7887C86.9209 47.946 87.0389 48.083 87.1962 48.0948L89.4289 48.2615C89.5861 48.2732 89.7232 48.1552 89.7349 47.9979L89.7399 47.9305C89.7517 47.7733 89.6337 47.6362 89.4764 47.6245Z" fill="white"/>
<path opacity="0.7" d="M97.0688 48.4031L98.3419 51.115L98.5839 47.8712C98.5839 47.7796 98.5839 47.6881 98.5839 47.5965L97.6661 47.5289C97.5594 47.5219 97.4528 47.5427 97.3566 47.5895C97.2605 47.6362 97.1782 47.7073 97.1179 47.7955C97.0576 47.8838 97.0214 47.9862 97.0127 48.0928C97.0041 48.1993 97.0234 48.3063 97.0688 48.4031Z" fill="white"/>
<path d="M73.1124 38.5648C74.023 38.1829 75.0131 38.0295 75.9965 38.1179L81.6297 38.6193L81.525 39.1839L82.2619 39.2384L82.3643 38.6825L89.7763 39.3365C90.5491 39.4035 91.3022 39.6166 91.9956 39.9643L93.3036 40.0624L93.5216 40.0864C92.471 39.2418 91.1933 38.7281 89.8504 38.6105L76.0641 37.3876C74.504 37.2501 72.9438 37.6509 71.6431 38.5233L71.5537 38.5822C72.0724 38.5449 72.593 38.5391 73.1124 38.5648Z" fill="#263238"/>
<path opacity="0.5" d="M73.1124 38.5648C74.023 38.1829 75.0131 38.0295 75.9965 38.1179L81.6297 38.6193L81.525 39.1839L82.2619 39.2384L82.3643 38.6825L89.7763 39.3365C90.5491 39.4035 91.3022 39.6166 91.9956 39.9643L93.3036 40.0624L93.5216 40.0864C92.471 39.2418 91.1933 38.7281 89.8504 38.6105L76.0641 37.3876C74.504 37.2501 72.9438 37.6509 71.6431 38.5233L71.5537 38.5822C72.0724 38.5449 72.593 38.5391 73.1124 38.5648Z" fill="white"/>
<g opacity="0.3">
<path d="M62.7382 46.04C62.5928 48.0093 62.4475 49.9771 62.3022 51.9434C62.2993 51.9822 62.3119 52.0205 62.3372 52.0499C62.3626 52.0793 62.3986 52.0975 62.4373 52.1004C62.4761 52.1033 62.5144 52.0907 62.5438 52.0653C62.5732 52.04 62.5914 52.004 62.5943 51.9652C62.7396 49.9974 62.885 48.0296 63.0303 46.0618C63.0332 46.023 63.0206 45.9847 62.9952 45.9553C62.9827 45.9407 62.9674 45.9288 62.9502 45.9201C62.933 45.9115 62.9143 45.9063 62.8951 45.9048C62.8564 45.9019 62.8181 45.9146 62.7887 45.9399C62.7592 45.9652 62.7411 46.0012 62.7382 46.04Z" fill="white"/>
</g>
<g opacity="0.3">
<path d="M76.1883 46.7877L74.8541 54.8298C74.8214 55.0151 75.1157 55.0369 75.1462 54.8516L76.4804 46.8095C76.5109 46.6242 76.2188 46.6024 76.1883 46.7877Z" fill="white"/>
</g>
<g opacity="0.3">
<path d="M90.3696 47.6008C90.2243 48.6806 90.0833 49.7605 89.9467 50.8403C89.9227 51.0278 90.2148 51.0583 90.2388 50.8621L90.6639 47.6226C90.6879 47.4351 90.3958 47.4046 90.3696 47.6008Z" fill="white"/>
</g>
<path opacity="0.1" d="M83.4064 46.2078L85.8916 40.7011C85.6806 40.6269 85.4607 40.5807 85.2376 40.5638L84.7689 40.5289L82.2227 46.1599L83.4064 46.2078Z" fill="white"/>
<g opacity="0.1">
<path d="M75.9289 45.8962L77.2718 42.9248L77.4898 39.9862L73.387 39.681C73.2518 39.6701 73.121 39.6635 72.9924 39.6592L70.2783 45.6585L75.9289 45.8962Z" fill="white"/>
<path d="M87.3625 41.9809C87.1771 41.6211 86.9107 41.3091 86.5843 41.0697L84.2451 46.2428L89.6319 46.4608L87.3625 41.9809Z" fill="white"/>
</g>
<path d="M75.5977 45.8808L77.3242 45.9528L78.4099 40.0537L76.6942 39.9272L75.5977 45.8808Z" fill="#263238"/>
<path d="M58.8704 59.7062C60.936 57.9276 61.1686 54.8113 59.3901 52.7457C57.6115 50.6801 54.4952 50.4474 52.4296 52.226C50.364 54.0046 50.1313 57.1209 51.9099 59.1865C53.6884 61.2521 56.8048 61.4848 58.8704 59.7062Z" fill="#263238"/>
<path opacity="0.5" d="M58.2397 57.6384C59.1637 56.2086 58.7536 54.3004 57.3237 53.3764C55.8938 52.4524 53.9856 52.8626 53.0617 54.2924C52.1377 55.7223 52.5478 57.6305 53.9777 58.5545C55.4076 59.4784 57.3157 59.0683 58.2397 57.6384Z" fill="white"/>
<g opacity="0.3">
<path d="M56.095 55.0739C56.1359 55.0943 56.1815 55.1034 56.2271 55.1004C56.2727 55.0973 56.3166 55.0821 56.3544 55.0564L57.2678 54.4024C57.299 54.3805 57.3247 54.3518 57.3431 54.3184C57.3614 54.2851 57.372 54.248 57.3738 54.2099C57.3757 54.1719 57.3689 54.1339 57.354 54.0989C57.339 54.0639 57.3163 54.0328 57.2874 54.0079C56.9851 53.7515 56.6266 53.57 56.241 53.4781C56.2036 53.4699 56.1648 53.4702 56.1275 53.4791C56.0902 53.4881 56.0554 53.5054 56.0258 53.5298C55.9962 53.5541 55.9725 53.5849 55.9566 53.6198C55.9406 53.6546 55.9328 53.6927 55.9337 53.731L55.9555 54.8493C55.9552 54.8961 55.9682 54.942 55.9929 54.9817C56.0176 55.0214 56.053 55.0534 56.095 55.0739Z" fill="black"/>
<path d="M55.3408 55.0194C55.3842 55.0051 55.4229 54.9794 55.4529 54.9448C55.4828 54.9103 55.5028 54.8682 55.5108 54.8232L55.6983 53.7201C55.7046 53.6825 55.7024 53.6439 55.6917 53.6073C55.681 53.5707 55.6621 53.5369 55.6365 53.5086C55.6109 53.4803 55.5793 53.4582 55.5439 53.4438C55.5086 53.4295 55.4704 53.4233 55.4323 53.4258C55.0366 53.4584 54.6542 53.5839 54.3162 53.7921C54.2842 53.8129 54.2574 53.8406 54.2377 53.8732C54.2179 53.9058 54.2058 53.9425 54.2023 53.9804C54.1987 54.0184 54.2038 54.0566 54.2171 54.0923C54.2304 54.128 54.2516 54.1603 54.2791 54.1867L55.0857 54.9627C55.1189 54.9947 55.1603 55.0169 55.2053 55.0269C55.2503 55.0369 55.2971 55.0343 55.3408 55.0194Z" fill="black"/>
<path d="M54.7651 55.5165C54.7865 55.4762 54.7962 55.4308 54.7931 55.3854C54.79 55.3399 54.7743 55.2962 54.7477 55.2592L54.0937 54.3458C54.0719 54.3145 54.0433 54.2886 54.0101 54.2701C53.9768 54.2515 53.9398 54.2408 53.9017 54.2387C53.8637 54.2366 53.8257 54.2432 53.7906 54.2579C53.7554 54.2727 53.7242 54.2953 53.6991 54.324C53.4434 54.6273 53.2626 54.9865 53.1716 55.3726C53.1629 55.4099 53.1629 55.4487 53.1715 55.486C53.1802 55.5233 53.1973 55.5581 53.2215 55.5878C53.2457 55.6175 53.2764 55.6412 53.3112 55.6572C53.346 55.6732 53.384 55.681 53.4222 55.68L54.5406 55.6582C54.5876 55.6582 54.6336 55.6449 54.6734 55.6198C54.7131 55.5947 54.7449 55.5589 54.7651 55.5165Z" fill="black"/>
<path d="M57.4247 54.5878L56.6465 55.3966C56.615 55.4297 56.5933 55.4707 56.5837 55.5154C56.5741 55.56 56.5769 55.6064 56.592 55.6494C56.6064 55.6926 56.6322 55.731 56.6668 55.7606C56.7013 55.7901 56.7433 55.8098 56.7882 55.8173L57.8912 56.0048C57.9289 56.0116 57.9677 56.0096 58.0045 55.9991C58.0413 55.9885 58.0752 55.9697 58.1037 55.944C58.1321 55.9184 58.1542 55.8865 58.1684 55.8509C58.1826 55.8154 58.1885 55.777 58.1855 55.7388C58.1518 55.3437 58.0256 54.9622 57.8171 54.6248C57.7966 54.5929 57.769 54.5661 57.7366 54.5464C57.7042 54.5267 57.6677 54.5146 57.6299 54.511C57.5921 54.5074 57.554 54.5125 57.5185 54.5258C57.4829 54.5391 57.4509 54.5603 57.4247 54.5878Z" fill="black"/>
<path d="M55.9626 56.8986C55.9191 56.912 55.8802 56.9373 55.8501 56.9716C55.8201 57.0058 55.8002 57.0477 55.7925 57.0926L55.6051 58.1979C55.5987 58.2355 55.601 58.2741 55.6117 58.3107C55.6224 58.3473 55.6412 58.3811 55.6668 58.4094C55.6924 58.4377 55.7241 58.4598 55.7594 58.4742C55.7948 58.4885 55.833 58.4947 55.871 58.4922C56.2667 58.4578 56.6488 58.3316 56.9872 58.1237C57.0191 58.103 57.046 58.0752 57.0657 58.0426C57.0854 58.01 57.0975 57.9734 57.1011 57.9354C57.1046 57.8975 57.0996 57.8592 57.0863 57.8235C57.073 57.7878 57.0518 57.7555 57.0242 57.7292L56.2176 56.9531C56.1842 56.9215 56.1428 56.8997 56.0978 56.8901C56.0528 56.8804 56.006 56.8834 55.9626 56.8986Z" fill="black"/>
<path d="M54.7174 56.2708C54.7028 56.2278 54.6768 56.1895 54.6423 56.1599C54.6078 56.1304 54.5659 56.1107 54.5212 56.1029L53.4181 55.9154C53.3804 55.9087 53.3416 55.9106 53.3048 55.9212C53.268 55.9317 53.2341 55.9505 53.2057 55.9762C53.1772 56.0019 53.1551 56.0337 53.1409 56.0693C53.1267 56.1049 53.1208 56.1432 53.1238 56.1814C53.1575 56.5772 53.2837 56.9595 53.4922 57.2976C53.5128 57.3295 53.5403 57.3563 53.5727 57.376C53.6051 57.3957 53.6416 57.4078 53.6794 57.4114C53.7172 57.415 53.7553 57.4099 53.7908 57.3966C53.8264 57.3833 53.8584 57.3621 53.8846 57.3346L54.6607 56.528C54.6935 56.4949 54.7163 56.4532 54.7263 56.4076C54.7363 56.3621 54.7332 56.3146 54.7174 56.2708Z" fill="black"/>
<path d="M56.5353 56.4037C56.514 56.4443 56.5043 56.4901 56.5074 56.5359C56.5105 56.5817 56.5262 56.6257 56.5527 56.6631L57.2067 57.5765C57.2287 57.6077 57.2574 57.6334 57.2908 57.6518C57.3241 57.6701 57.3612 57.6807 57.3993 57.6826C57.4373 57.6845 57.4752 57.6777 57.5103 57.6627C57.5453 57.6477 57.5764 57.625 57.6013 57.5962C57.8585 57.2936 58.0401 56.9342 58.1311 56.5476C58.1394 56.5104 58.1391 56.4719 58.1302 56.4349C58.1214 56.3978 58.1043 56.3633 58.0801 56.3339C58.0559 56.3045 58.0254 56.2809 57.9908 56.2651C57.9562 56.2492 57.9184 56.2415 57.8804 56.2424L56.7598 56.262C56.713 56.2627 56.6673 56.2763 56.6277 56.3013C56.5881 56.3263 56.5561 56.3617 56.5353 56.4037Z" fill="black"/>
<path d="M55.2081 56.8441C55.1671 56.8235 55.1214 56.8145 55.0757 56.818C55.03 56.8214 54.9861 56.8372 54.9487 56.8637L54.0353 57.5177C54.004 57.5395 53.9781 57.5681 53.9595 57.6013C53.941 57.6346 53.9302 57.6716 53.9281 57.7097C53.926 57.7477 53.9326 57.7857 53.9474 57.8208C53.9622 57.8559 53.9848 57.8872 54.0135 57.9123C54.3169 58.1683 54.676 58.3497 55.0621 58.442C55.1002 58.4509 55.1399 58.4507 55.178 58.4416C55.216 58.4325 55.2515 58.4146 55.2815 58.3895C55.3115 58.3643 55.3353 58.3326 55.3509 58.2967C55.3665 58.2608 55.3736 58.2217 55.3716 58.1826L55.3498 57.0621C55.3484 57.0163 55.3344 56.9717 55.3094 56.9333C55.2844 56.8948 55.2494 56.864 55.2081 56.8441Z" fill="black"/>
</g>
<path d="M93.3293 62.2752C95.3949 60.4966 95.6276 57.3803 93.849 55.3147C92.0705 53.2491 88.9541 53.0164 86.8885 54.795C84.8229 56.5736 84.5903 59.6899 86.3688 61.7555C88.1474 63.8211 91.2637 64.0538 93.3293 62.2752Z" fill="#263238"/>
<path opacity="0.5" d="M91.0932 61.4456C92.7069 60.9032 93.5754 59.1553 93.0329 57.5416C92.4905 55.9279 90.7426 55.0595 89.1289 55.6019C87.5152 56.1444 86.6468 57.8923 87.1892 59.506C87.7317 61.1197 89.4796 61.9881 91.0932 61.4456Z" fill="white"/>
<g opacity="0.3">
<path d="M90.552 57.6442C90.5928 57.665 90.6385 57.6744 90.6842 57.6713C90.7298 57.6683 90.7738 57.6528 90.8114 57.6267L91.7249 56.9727C91.7561 56.951 91.782 56.9224 91.8006 56.8891C91.8192 56.8558 91.8299 56.8188 91.832 56.7807C91.8341 56.7427 91.8275 56.7047 91.8127 56.6696C91.7979 56.6345 91.7753 56.6032 91.7467 56.5781C91.4431 56.3228 91.084 56.1421 90.6981 56.0506C90.6608 56.0419 90.622 56.0419 90.5847 56.0505C90.5474 56.0592 90.5125 56.0763 90.4829 56.1005C90.4532 56.1247 90.4295 56.1554 90.4135 56.1902C90.3975 56.225 90.3897 56.263 90.3907 56.3013L90.4125 57.4196C90.4123 57.4664 90.4253 57.5123 90.4499 57.552C90.4746 57.5917 90.51 57.6237 90.552 57.6442Z" fill="black"/>
<path d="M89.7978 57.594C89.8412 57.5797 89.8799 57.5539 89.9099 57.5194C89.9398 57.4848 89.9598 57.4428 89.9678 57.3978L90.1553 56.2947C90.1616 56.2571 90.1593 56.2185 90.1487 56.1819C90.138 56.1453 90.1191 56.1115 90.0935 56.0832C90.0679 56.0549 90.0363 56.0327 90.0009 56.0184C89.9655 56.0041 89.9274 55.9979 89.8893 56.0004C89.4935 56.0338 89.1111 56.16 88.7732 56.3688C88.7412 56.3894 88.7144 56.4169 88.6947 56.4493C88.675 56.4818 88.6629 56.5183 88.6593 56.556C88.6557 56.5938 88.6608 56.6319 88.6741 56.6675C88.6874 56.703 88.7086 56.7351 88.7361 56.7612L89.5427 57.5373C89.5756 57.5697 89.617 57.5922 89.6621 57.6023C89.7072 57.6123 89.7542 57.6094 89.7978 57.594Z" fill="black"/>
<path d="M89.2248 58.0867C89.2461 58.0464 89.2558 58.001 89.2528 57.9556C89.2497 57.9101 89.2339 57.8664 89.2073 57.8294L88.5533 56.916C88.5316 56.8847 88.503 56.8588 88.4697 56.8403C88.4364 56.8217 88.3994 56.811 88.3613 56.8089C88.3233 56.8068 88.2853 56.8133 88.2502 56.8281C88.2151 56.8429 88.1838 56.8655 88.1587 56.8942C87.9019 57.1971 87.7204 57.5564 87.629 57.9428C87.6208 57.98 87.6211 58.0187 87.6299 58.0558C87.6387 58.0929 87.6558 58.1276 87.68 58.1571C87.7041 58.1867 87.7346 58.2104 87.7692 58.2266C87.8038 58.2427 87.8415 58.2507 87.8797 58.2502L89.0002 58.2284C89.0471 58.2279 89.0929 58.2144 89.1326 58.1894C89.1722 58.1643 89.2041 58.1288 89.2248 58.0867Z" fill="black"/>
<path d="M91.8825 57.158L91.1064 57.9646C91.0744 57.9973 91.0521 58.0383 91.0421 58.083C91.0321 58.1276 91.0347 58.1742 91.0497 58.2175C91.064 58.2609 91.0898 58.2997 91.1243 58.3296C91.1589 58.3595 91.2009 58.3796 91.2459 58.3875L92.349 58.575C92.3867 58.5823 92.4256 58.581 92.4627 58.571C92.4999 58.5611 92.5342 58.5428 92.5632 58.5176C92.5922 58.4924 92.6151 58.4609 92.6301 58.4255C92.6451 58.3901 92.6519 58.3518 92.6498 58.3134C92.6165 57.9175 92.4902 57.5352 92.2814 57.1972C92.2612 57.164 92.2335 57.1359 92.2006 57.1152C92.1677 57.0945 92.1304 57.0818 92.0917 57.078C92.053 57.0742 92.014 57.0794 91.9777 57.0933C91.9413 57.1072 91.9087 57.1293 91.8825 57.158Z" fill="black"/>
<path d="M90.4196 59.471C90.3759 59.4848 90.337 59.5105 90.3069 59.5451C90.2769 59.5797 90.2571 59.622 90.2496 59.6672L90.0621 60.7703C90.0558 60.8079 90.058 60.8465 90.0687 60.8831C90.0794 60.9197 90.0983 60.9535 90.1239 60.9818C90.1494 61.0101 90.1811 61.0322 90.2165 61.0466C90.2518 61.0609 90.29 61.0671 90.3281 61.0646C90.7239 61.0312 91.1063 60.905 91.4442 60.6961C91.4761 60.6756 91.503 60.6481 91.5227 60.6156C91.5424 60.5832 91.5545 60.5467 91.5581 60.5089C91.5616 60.4712 91.5566 60.4331 91.5433 60.3975C91.53 60.362 91.5088 60.3299 91.4813 60.3037L90.6747 59.5255C90.6413 59.4939 90.5998 59.4721 90.5548 59.4624C90.5098 59.4528 90.463 59.4558 90.4196 59.471Z" fill="black"/>
<path d="M89.1615 58.841C89.1471 58.7979 89.1212 58.7595 89.0867 58.7299C89.0521 58.7003 89.0102 58.6807 88.9653 58.6732L87.8622 58.4857C87.8246 58.4794 87.786 58.4816 87.7494 58.4923C87.7128 58.503 87.679 58.5219 87.6507 58.5474C87.6224 58.573 87.6002 58.6047 87.5859 58.6401C87.5716 58.6754 87.5654 58.7136 87.5679 58.7516C87.6013 59.1475 87.7275 59.5299 87.9363 59.8678C87.9569 59.8997 87.9844 59.9265 88.0169 59.9463C88.0493 59.966 88.0858 59.9781 88.1235 59.9817C88.1613 59.9852 88.1994 59.9802 88.235 59.9669C88.2705 59.9536 88.3026 59.9324 88.3287 59.9049L89.107 59.0983C89.139 59.0646 89.1611 59.0228 89.1707 58.9774C89.1803 58.9319 89.1771 58.8847 89.1615 58.841Z" fill="black"/>
<path d="M90.9923 58.974C90.971 59.0146 90.9613 59.0604 90.9644 59.1062C90.9675 59.1519 90.9832 59.196 91.0098 59.2334L91.6638 60.1468C91.6857 60.1779 91.7144 60.2037 91.7478 60.222C91.7811 60.2404 91.8183 60.2509 91.8563 60.2528C91.8943 60.2547 91.9323 60.2479 91.9673 60.233C92.0023 60.218 92.0334 60.1952 92.0584 60.1664C92.3145 59.8634 92.4953 59.5041 92.5859 59.1179C92.5947 59.0807 92.5947 59.042 92.586 59.0047C92.5774 58.9675 92.5603 58.9328 92.536 58.9033C92.5118 58.8737 92.481 58.8502 92.4462 58.8345C92.4114 58.8188 92.3734 58.8113 92.3352 58.8127L91.2169 58.8345C91.1702 58.8345 91.1244 58.8476 91.0847 58.8722C91.045 58.8969 91.0131 58.9321 90.9923 58.974Z" fill="black"/>
<path d="M89.6651 59.4143C89.6245 59.393 89.5788 59.3833 89.533 59.3864C89.4872 59.3895 89.4431 59.4052 89.4057 59.4318L88.4923 60.0858C88.461 60.1075 88.4351 60.1361 88.4166 60.1694C88.398 60.2027 88.3872 60.2397 88.3851 60.2778C88.383 60.3158 88.3896 60.3538 88.4044 60.3889C88.4192 60.424 88.4418 60.4553 88.4705 60.4804C88.7739 60.7363 89.133 60.9177 89.5191 61.0101C89.5563 61.0183 89.595 61.018 89.6321 61.0092C89.6692 61.0004 89.7039 60.9833 89.7334 60.9591C89.763 60.935 89.7867 60.9045 89.8028 60.8699C89.819 60.8353 89.827 60.7975 89.8265 60.7594L89.8047 59.6389C89.8046 59.5922 89.7916 59.5464 89.7669 59.5067C89.7422 59.4671 89.707 59.4351 89.6651 59.4143Z" fill="black"/>
</g>
<path d="M54.5786 58.1193L54.753 58.1978C54.776 58.2081 54.7965 58.2234 54.8131 58.2424C54.8297 58.2615 54.8419 58.2839 54.849 58.3082C54.856 58.3325 54.8577 58.358 54.8539 58.3829C54.8502 58.4079 54.841 58.4318 54.8271 58.4529L53.1289 60.9969L52.5098 60.6743L54.3671 58.1738C54.3912 58.1423 54.4251 58.1198 54.4634 58.11C54.5018 58.1001 54.5423 58.1034 54.5786 58.1193Z" fill="#6F89F0"/>
<path d="M56.2856 58.2479L56.1003 58.2981C56.0761 58.3051 56.0537 58.3173 56.0346 58.3339C56.0156 58.3504 56.0004 58.3709 55.99 58.3939C55.9796 58.4169 55.9744 58.4419 55.9746 58.4671C55.9748 58.4924 55.9805 58.5172 55.9913 58.5401L57.2993 61.3065L57.9533 61.0885L56.4884 58.3417C56.4712 58.3045 56.4414 58.2747 56.4043 58.2575C56.3671 58.2403 56.3251 58.2369 56.2856 58.2479Z" fill="#6F89F0"/>
<g opacity="0.5">
<path d="M54.5786 58.1193L54.753 58.1978C54.776 58.2081 54.7965 58.2234 54.8131 58.2424C54.8297 58.2615 54.8419 58.2839 54.849 58.3082C54.856 58.3325 54.8577 58.358 54.8539 58.3829C54.8502 58.4079 54.841 58.4318 54.8271 58.4529L53.1289 60.9969L52.5098 60.6743L54.3671 58.1738C54.3912 58.1423 54.4251 58.1198 54.4634 58.11C54.5018 58.1001 54.5423 58.1034 54.5786 58.1193Z" fill="white"/>
<path d="M56.2856 58.2479L56.1003 58.2981C56.0761 58.3051 56.0537 58.3173 56.0346 58.3339C56.0156 58.3504 56.0004 58.3709 55.99 58.3939C55.9796 58.4169 55.9744 58.4419 55.9746 58.4671C55.9748 58.4924 55.9805 58.5172 55.9913 58.5401L57.2993 61.3065L57.9533 61.0885L56.4884 58.3417C56.4712 58.3045 56.4414 58.2747 56.4043 58.2575C56.3671 58.2403 56.3251 58.2369 56.2856 58.2479Z" fill="white"/>
</g>
<path d="M89.1421 60.6983L89.3186 60.7768C89.3415 60.7873 89.3618 60.8027 89.3781 60.8219C89.3945 60.841 89.4065 60.8635 89.4133 60.8878C89.4202 60.912 89.4217 60.9374 89.4177 60.9623C89.4138 60.9872 89.4045 61.0109 89.3906 61.0318L87.6924 63.5737L87.0732 63.262L88.9437 60.7528C88.9665 60.7236 88.9981 60.7025 89.0338 60.6927C89.0696 60.6829 89.1075 60.6848 89.1421 60.6983Z" fill="#6F89F0"/>
<path d="M90.8488 60.8248L90.6657 60.8771C90.6413 60.8839 90.6187 60.8959 90.5994 60.9124C90.5801 60.9288 90.5646 60.9493 90.554 60.9723C90.5434 60.9953 90.538 61.0204 90.5381 61.0458C90.5382 61.0711 90.5438 61.0961 90.5546 61.1191L91.8626 63.8855L92.5166 63.6675L91.0494 60.9207C91.032 60.8842 91.0026 60.8547 90.9661 60.8372C90.9296 60.8198 90.8882 60.8154 90.8488 60.8248Z" fill="#6F89F0"/>
<g opacity="0.5">
<path d="M89.1421 60.6983L89.3186 60.7768C89.3415 60.7873 89.3618 60.8027 89.3781 60.8219C89.3945 60.841 89.4065 60.8635 89.4133 60.8878C89.4202 60.912 89.4217 60.9374 89.4177 60.9623C89.4138 60.9872 89.4045 61.0109 89.3906 61.0318L87.6924 63.5737L87.0732 63.262L88.9437 60.7528C88.9665 60.7236 88.9981 60.7025 89.0338 60.6927C89.0696 60.6829 89.1075 60.6848 89.1421 60.6983Z" fill="white"/>
<path d="M90.8488 60.8248L90.6657 60.8771C90.6413 60.8839 90.6187 60.8959 90.5994 60.9124C90.5801 60.9288 90.5646 60.9493 90.554 60.9723C90.5434 60.9953 90.538 61.0204 90.5381 61.0458C90.5382 61.0711 90.5438 61.0961 90.5546 61.1191L91.8626 63.8855L92.5166 63.6675L91.0494 60.9207C91.032 60.8842 91.0026 60.8547 90.9661 60.8372C90.9296 60.8198 90.8882 60.8154 90.8488 60.8248Z" fill="white"/>
</g>
<path d="M83.2694 60.8837H61.8574V68.3284H83.2694V60.8837Z" fill="#263238"/>
<path opacity="0.3" d="M83.2694 60.8837H61.8574V68.3284H83.2694V60.8837Z" fill="white"/>
<path d="M37.7463 62.8609V59.1636H23.5654V68.3283H43.0285V62.8609H37.7463Z" fill="#263238"/>
<path opacity="0.3" d="M37.7463 62.8609V59.1636H23.5654V68.3283H43.0285V62.8609H37.7463Z" fill="white"/>
<path d="M74.9027 75.5812C78.5375 75.5812 81.4841 72.6346 81.4841 68.9998C81.4841 65.3649 78.5375 62.4183 74.9027 62.4183C71.2679 62.4183 68.3213 65.3649 68.3213 68.9998C68.3213 72.6346 71.2679 75.5812 74.9027 75.5812Z" fill="#263238"/>
<path opacity="0.5" d="M77.6217 71.7169C79.1226 70.216 79.1226 67.7825 77.6217 66.2816C76.1208 64.7807 73.6873 64.7807 72.1864 66.2816C70.6855 67.7825 70.6855 70.216 72.1864 71.7169C73.6873 73.2178 76.1208 73.2178 77.6217 71.7169Z" fill="white"/>
<g opacity="0.5">
<path d="M72.4867 68.4941C72.5485 68.1834 72.6691 67.8874 72.842 67.6221C72.8813 67.565 72.9009 67.4966 72.8977 67.4273C72.8946 67.3581 72.8689 67.2918 72.8246 67.2384C72.7928 67.1997 72.7524 67.169 72.7065 67.1488C72.6607 67.1285 72.6108 67.1193 72.5608 67.1219C72.5107 67.1244 72.462 67.1386 72.4185 67.1634C72.375 67.1882 72.3378 67.2229 72.3101 67.2646C72.0907 67.5956 71.9367 67.9656 71.8567 68.3546C71.847 68.4038 71.8489 68.4547 71.8623 68.5031C71.8757 68.5515 71.9002 68.5961 71.9338 68.6333C71.9675 68.6706 72.0094 68.6995 72.0561 68.7177C72.1029 68.7359 72.1533 68.7429 72.2033 68.7383C72.2702 68.7324 72.3335 68.7056 72.3843 68.6618C72.4352 68.618 72.471 68.5594 72.4867 68.4941Z" fill="white"/>
<path d="M73.5463 66.9397C73.8076 66.766 74.1 66.6446 74.4074 66.5822C74.4751 66.5689 74.5367 66.5342 74.583 66.4831C74.6293 66.4321 74.658 66.3674 74.6647 66.2988C74.6694 66.2489 74.6624 66.1985 74.6442 66.1518C74.626 66.1051 74.5971 66.0633 74.5597 66.0297C74.5224 65.9962 74.4777 65.972 74.4293 65.9589C74.3809 65.9458 74.3301 65.9442 74.281 65.9544C73.892 66.0332 73.5219 66.1864 73.191 66.4056C73.1493 66.4333 73.1146 66.4704 73.0898 66.514C73.065 66.5575 73.0508 66.6062 73.0483 66.6563C73.0457 66.7063 73.0549 66.7562 73.0752 66.802C73.0954 66.8478 73.1261 66.8883 73.1648 66.9201C73.2182 66.9632 73.2838 66.9884 73.3524 66.9919C73.4209 66.9954 73.4888 66.9772 73.5463 66.9397Z" fill="white"/>
<path d="M76.9823 67.258C76.938 67.3113 76.9122 67.3774 76.9086 67.4466C76.9051 67.5158 76.9241 67.5842 76.9627 67.6417C77.1373 67.9064 77.2587 68.2026 77.3202 68.5137C77.3335 68.5814 77.3682 68.6429 77.4193 68.6893C77.4703 68.7356 77.535 68.7643 77.6036 68.7709C77.6536 68.7756 77.704 68.7686 77.7508 68.7504C77.7975 68.7321 77.8394 68.7032 77.8731 68.666C77.9067 68.6287 77.9312 68.5841 77.9446 68.5358C77.958 68.4874 77.9599 68.4365 77.9502 68.3873C77.8693 67.9986 77.7154 67.6287 77.4968 67.2973C77.4702 67.2547 77.4339 67.219 77.3909 67.193C77.348 67.167 77.2995 67.1515 77.2495 67.1477C77.1994 67.1438 77.1491 67.1518 77.1027 67.171C77.0563 67.1902 77.0151 67.22 76.9823 67.258Z" fill="white"/>
<path d="M75.3991 66.5822C75.7064 66.6451 75.9987 66.7664 76.2602 66.9397C76.3177 66.978 76.3859 66.9969 76.4549 66.9938C76.5239 66.9907 76.5901 66.9656 76.6439 66.9223C76.6826 66.8905 76.7133 66.85 76.7335 66.8042C76.7538 66.7584 76.763 66.7085 76.7604 66.6585C76.7579 66.6084 76.7436 66.5597 76.7189 66.5162C76.6941 66.4726 76.6594 66.4355 76.6177 66.4078C76.2866 66.189 75.9166 66.0358 75.5277 65.9565C75.4786 65.9464 75.4278 65.948 75.3794 65.9611C75.3309 65.9742 75.2863 65.9984 75.249 66.0319C75.2116 66.0655 75.1827 66.1073 75.1645 66.154C75.1463 66.2007 75.1393 66.2511 75.144 66.301C75.151 66.3689 75.1796 66.4328 75.2254 66.4834C75.2713 66.534 75.3322 66.5686 75.3991 66.5822Z" fill="white"/>
<path d="M74.4076 71.4152C74.1004 71.3535 73.8079 71.2328 73.5465 71.0599C73.4893 71.0209 73.421 71.0016 73.3518 71.0047C73.2826 71.0079 73.2163 71.0333 73.1629 71.0773C73.1242 71.1091 73.0935 71.1495 73.0732 71.1954C73.053 71.2412 73.0438 71.2911 73.0463 71.3411C73.0489 71.3912 73.0631 71.4399 73.0879 71.4834C73.1127 71.5269 73.1473 71.5641 73.189 71.5918C73.5198 71.8116 73.8899 71.9656 74.279 72.0452C74.3283 72.0549 74.3791 72.053 74.4275 72.0396C74.4759 72.0262 74.5205 72.0017 74.5578 71.9681C74.595 71.9344 74.6239 71.8925 74.6421 71.8458C74.6603 71.799 74.6674 71.7486 74.6627 71.6986C74.6558 71.6304 74.6274 71.5661 74.5815 71.5152C74.5357 71.4642 74.4748 71.4292 74.4076 71.4152Z" fill="white"/>
<path d="M77.3202 69.4947C77.2591 69.806 77.1377 70.1022 76.9627 70.3667C76.9241 70.4242 76.9051 70.4927 76.9086 70.5618C76.9122 70.631 76.938 70.6972 76.9823 70.7504C77.0141 70.7891 77.0545 70.8198 77.1004 70.84C77.1462 70.8603 77.1961 70.8695 77.2461 70.867C77.2962 70.8644 77.3449 70.8502 77.3884 70.8254C77.4319 70.8006 77.4691 70.766 77.4968 70.7243C77.7156 70.3929 77.8695 70.023 77.9502 69.6343C77.9599 69.5849 77.9579 69.534 77.9445 69.4855C77.9311 69.4371 77.9067 69.3924 77.8731 69.355C77.8395 69.3175 77.7976 69.2884 77.7509 69.27C77.7041 69.2515 77.6537 69.2441 77.6036 69.2484C77.5365 69.2544 77.4729 69.2815 77.422 69.3257C77.3712 69.3699 77.3355 69.4291 77.3202 69.4947Z" fill="white"/>
<path d="M72.842 70.3557C72.6687 70.0906 72.548 69.7945 72.4867 69.4837C72.4734 69.4161 72.4387 69.3545 72.3876 69.3082C72.3366 69.2618 72.2719 69.2332 72.2033 69.2265C72.1533 69.2218 72.1029 69.2289 72.0561 69.2471C72.0094 69.2653 71.9675 69.2942 71.9338 69.3315C71.9002 69.3687 71.8757 69.4133 71.8623 69.4617C71.8489 69.5101 71.847 69.5609 71.8567 69.6102C71.9363 69.9993 72.0903 70.3694 72.3101 70.7002C72.3378 70.7419 72.375 70.7766 72.4185 70.8013C72.462 70.8261 72.5107 70.8404 72.5608 70.8429C72.6108 70.8454 72.6607 70.8362 72.7065 70.816C72.7524 70.7957 72.7928 70.765 72.8246 70.7263C72.8659 70.6741 72.8898 70.6103 72.8929 70.5439C72.896 70.4774 72.8783 70.4116 72.842 70.3557Z" fill="white"/>
<path d="M76.2604 71.0599C75.9988 71.2325 75.7064 71.3532 75.3993 71.4152C75.3318 71.4288 75.2704 71.4637 75.2241 71.5147C75.1778 71.5657 75.149 71.6301 75.142 71.6986C75.1373 71.7486 75.1444 71.799 75.1626 71.8458C75.1808 71.8926 75.2097 71.9345 75.247 71.9681C75.2842 72.0018 75.3288 72.0263 75.3772 72.0397C75.4256 72.0531 75.4765 72.055 75.5257 72.0453C75.9147 71.9652 76.2847 71.8113 76.6157 71.5918C76.6574 71.5641 76.6921 71.527 76.7169 71.4835C76.7416 71.4399 76.7559 71.3912 76.7584 71.3412C76.761 71.2911 76.7517 71.2412 76.7315 71.1954C76.7113 71.1496 76.6806 71.1091 76.6419 71.0773C76.5886 71.0339 76.5227 71.0087 76.454 71.0056C76.3853 71.0024 76.3174 71.0215 76.2604 71.0599Z" fill="white"/>
</g>
<path d="M82.5696 60.1228H46.2159V50.5482L44.8534 40.9017H38.8301V60.8749L41.6641 69.2352H67.4033C67.4033 69.1567 67.4033 69.0782 67.4033 68.9998C67.3864 68.0035 67.5679 67.0138 67.9374 66.0884C68.307 65.163 68.857 64.3205 69.5556 63.6099C70.2542 62.8993 71.0872 62.335 72.0061 61.9497C72.9251 61.5645 73.9116 61.3661 74.908 61.3661C75.9044 61.3661 76.8909 61.5645 77.8098 61.9497C78.7288 62.335 79.5618 62.8993 80.2604 63.6099C80.9589 64.3205 81.509 65.163 81.8785 66.0884C82.2481 67.0138 82.4296 68.0035 82.4126 68.9998C82.4126 69.0782 82.4126 69.1567 82.4126 69.2352H83.834L99.7 68.5136V66.0241L82.5696 60.1228Z" fill="#6F89F0"/>
<g opacity="0.9">
<path d="M47.1249 61.1387H46.1309V62.1328H47.1249V61.1387Z" fill="white"/>
<path d="M48.1191 62.1022H47.125V63.0963H48.1191V62.1022Z" fill="white"/>
<path d="M49.1132 61.1387H48.1191V62.1328H49.1132V61.1387Z" fill="white"/>
<path d="M50.1074 62.1022H49.1133V63.0963H50.1074V62.1022Z" fill="white"/>
<path d="M51.1015 61.1387H50.1074V62.1328H51.1015V61.1387Z" fill="white"/>
<path d="M52.0956 62.1022H51.1016V63.0963H52.0956V62.1022Z" fill="white"/>
<path d="M53.0898 61.1387H52.0957V62.1328H53.0898V61.1387Z" fill="white"/>
<path d="M54.0839 62.1022H53.0898V63.0963H54.0839V62.1022Z" fill="white"/>
<path d="M55.0781 61.1387H54.084V62.1328H55.0781V61.1387Z" fill="white"/>
<path d="M56.0712 62.1022H55.0771V63.0963H56.0712V62.1022Z" fill="white"/>
<path d="M57.0654 61.1387H56.0713V62.1328H57.0654V61.1387Z" fill="white"/>
<path d="M58.0595 62.1022H57.0654V63.0963H58.0595V62.1022Z" fill="white"/>
<path d="M59.0537 61.1387H58.0596V62.1328H59.0537V61.1387Z" fill="white"/>
<path d="M60.0478 62.1022H59.0537V63.0963H60.0478V62.1022Z" fill="white"/>
<path d="M61.0419 61.1387H60.0479V62.1328H61.0419V61.1387Z" fill="white"/>
<path d="M62.0361 62.1022H61.042V63.0963H62.0361V62.1022Z" fill="white"/>
<path d="M63.0302 61.1387H62.0361V62.1328H63.0302V61.1387Z" fill="white"/>
<path d="M64.0244 62.1022H63.0303V63.0963H64.0244V62.1022Z" fill="white"/>
<path d="M65.0185 61.1387H64.0244V62.1328H65.0185V61.1387Z" fill="white"/>
<path d="M66.0126 62.1022H65.0186V63.0963H66.0126V62.1022Z" fill="white"/>
<path d="M67.0068 61.1387H66.0127V62.1328H67.0068V61.1387Z" fill="white"/>
<path d="M67.998 62.1022H67.0039V63.0963H67.998V62.1022Z" fill="white"/>
<path d="M68.9921 61.1387H67.998V62.1328H68.9921V61.1387Z" fill="white"/>
<path d="M80.4218 61.1387H79.4277V62.1328H80.4218V61.1387Z" fill="white"/>
<path d="M81.416 62.1022H80.4219V63.0963H81.416V62.1022Z" fill="white"/>
<path d="M82.4101 61.1387H81.416V62.1328H82.4101V61.1387Z" fill="white"/>
<path d="M83.4042 62.1022H82.4102V63.0963H83.4042V62.1022Z" fill="white"/>
<path d="M84.3984 61.1387H83.4043V62.1328H84.3984V61.1387Z" fill="white"/>
<path d="M85.3925 62.1022H84.3984V63.0963H85.3925V62.1022Z" fill="white"/>
</g>
<path opacity="0.5" d="M53.4756 64.0425H55.5575C55.7055 64.0425 55.8475 64.1013 55.9521 64.2059C56.0568 64.3106 56.1156 64.4526 56.1156 64.6006V66.5844C56.1156 66.7324 56.0568 66.8743 55.9521 66.979C55.8475 67.0836 55.7055 67.1424 55.5575 67.1424H53.4756C53.4152 67.1424 53.3554 67.1305 53.2996 67.1074C53.2438 67.0843 53.1931 67.0504 53.1503 67.0077C53.1076 66.965 53.0738 66.9143 53.0506 66.8585C53.0275 66.8027 53.0156 66.7429 53.0156 66.6825V64.5025C53.0156 64.4421 53.0275 64.3822 53.0506 64.3264C53.0738 64.2706 53.1076 64.2199 53.1503 64.1772C53.1931 64.1345 53.2438 64.1006 53.2996 64.0775C53.3554 64.0544 53.4152 64.0425 53.4756 64.0425Z" fill="white"/>
<path opacity="0.2" d="M55.5893 65.5924C55.5893 65.5251 55.5694 65.4594 55.532 65.4035C55.4947 65.3475 55.4415 65.3039 55.3794 65.2782C55.3173 65.2525 55.2489 65.2457 55.1829 65.2589C55.1169 65.272 55.0563 65.3044 55.0088 65.3519C54.9612 65.3995 54.9288 65.4601 54.9157 65.5261C54.9026 65.592 54.9093 65.6604 54.9351 65.7225C54.9608 65.7847 55.0044 65.8378 55.0603 65.8752C55.1162 65.9125 55.182 65.9325 55.2493 65.9325C55.3395 65.9325 55.426 65.8967 55.4897 65.8329C55.5535 65.7691 55.5893 65.6826 55.5893 65.5924Z" fill="black"/>
<path d="M32.475 75.5812C36.1098 75.5812 39.0564 72.6346 39.0564 68.9998C39.0564 65.3649 36.1098 62.4183 32.475 62.4183C28.8402 62.4183 25.8936 65.3649 25.8936 68.9998C25.8936 72.6346 28.8402 75.5812 32.475 75.5812Z" fill="#263238"/>
<path opacity="0.5" d="M35.193 71.7184C36.6939 70.2175 36.6939 67.784 35.193 66.2831C33.6921 64.7822 31.2586 64.7822 29.7577 66.2831C28.2568 67.784 28.2568 70.2175 29.7577 71.7184C31.2586 73.2193 33.6921 73.2193 35.193 71.7184Z" fill="white"/>
<g opacity="0.5">
<path d="M30.0595 68.494C30.1202 68.183 30.2409 67.8868 30.4148 67.622C30.4537 67.5647 30.4731 67.4964 30.4699 67.4272C30.4668 67.3581 30.4413 67.2918 30.3974 67.2383C30.3656 67.1996 30.3251 67.1689 30.2793 67.1487C30.2335 67.1284 30.1836 67.1192 30.1335 67.1218C30.0835 67.1243 30.0348 67.1385 29.9912 67.1633C29.9477 67.1881 29.9106 67.2227 29.8829 67.2645C29.6634 67.5954 29.5095 67.9655 29.4294 68.3545C29.4193 68.4036 29.4209 68.4544 29.434 68.5028C29.4471 68.5512 29.4713 68.5959 29.5048 68.6332C29.5384 68.6705 29.5802 68.6995 29.6269 68.7177C29.6736 68.7359 29.724 68.7429 29.7739 68.7381C29.841 68.7324 29.9047 68.7057 29.9559 68.6619C30.0071 68.6181 30.0433 68.5594 30.0595 68.494Z" fill="white"/>
<path d="M31.1188 66.9396C31.3801 66.7659 31.6725 66.6445 31.9799 66.5821C32.0474 66.5685 32.1088 66.5337 32.1551 66.4827C32.2014 66.4317 32.2301 66.3672 32.2372 66.2987C32.2416 66.2487 32.2342 66.1983 32.2157 66.1516C32.1972 66.1049 32.1681 66.0631 32.1306 66.0297C32.0931 65.9962 32.0484 65.972 31.9999 65.9589C31.9514 65.9458 31.9005 65.9442 31.8513 65.9543C31.4623 66.0333 31.0923 66.1865 30.7613 66.4055C30.7196 66.4332 30.6849 66.4703 30.6601 66.5139C30.6354 66.5574 30.6211 66.6061 30.6186 66.6562C30.616 66.7062 30.6253 66.7561 30.6455 66.8019C30.6657 66.8478 30.6964 66.8882 30.7351 66.92C30.7887 66.9636 30.8548 66.9891 30.9238 66.9926C30.9928 66.9961 31.0611 66.9776 31.1188 66.9396Z" fill="white"/>
<path d="M34.5543 67.2579C34.5109 67.3117 34.4859 67.3779 34.4828 67.4469C34.4796 67.5159 34.4986 67.5841 34.5368 67.6416C34.7114 67.9063 34.8328 68.2025 34.8943 68.5136C34.9076 68.5813 34.9424 68.6428 34.9934 68.6892C35.0445 68.7355 35.1091 68.7641 35.1777 68.7708C35.2277 68.7756 35.278 68.7686 35.3247 68.7504C35.3715 68.7322 35.4133 68.7032 35.4468 68.6659C35.4803 68.6286 35.5046 68.5839 35.5177 68.5355C35.5308 68.4871 35.5323 68.4363 35.5222 68.3872C35.4429 67.9983 35.2897 67.6283 35.0709 67.2972C35.0444 67.2542 35.008 67.2181 34.9649 67.1918C34.9217 67.1656 34.8729 67.1499 34.8226 67.1461C34.7722 67.1422 34.7216 67.1504 34.675 67.1698C34.6284 67.1893 34.587 67.2194 34.5543 67.2579Z" fill="white"/>
<path d="M32.9723 66.5821C33.2796 66.6449 33.572 66.7663 33.8334 66.9396C33.8909 66.9779 33.9591 66.9968 34.0281 66.9937C34.0971 66.9905 34.1633 66.9655 34.2171 66.9222C34.2558 66.8904 34.2865 66.8499 34.3068 66.8041C34.327 66.7583 34.3362 66.7084 34.3337 66.6583C34.3311 66.6083 34.3169 66.5596 34.2921 66.516C34.2673 66.4725 34.2327 66.4354 34.191 66.4077C33.8599 66.1889 33.4898 66.0357 33.101 65.9564C33.0518 65.9463 33.001 65.9479 32.9526 65.9609C32.9042 65.974 32.8595 65.9983 32.8222 66.0318C32.7849 66.0653 32.7559 66.1071 32.7377 66.1539C32.7195 66.2006 32.7125 66.2509 32.7173 66.3009C32.7243 66.3688 32.7528 66.4327 32.7987 66.4833C32.8446 66.5339 32.9054 66.5685 32.9723 66.5821Z" fill="white"/>
<path d="M31.9799 71.4152C31.6726 71.3535 31.3802 71.2328 31.1188 71.0599C31.0616 71.0209 30.9932 71.0016 30.9241 71.0047C30.8549 71.0079 30.7886 71.0333 30.7351 71.0773C30.6964 71.1091 30.6657 71.1495 30.6455 71.1954C30.6253 71.2412 30.616 71.2911 30.6186 71.3411C30.6211 71.3912 30.6354 71.4399 30.6601 71.4834C30.6849 71.5269 30.7196 71.5641 30.7613 71.5918C31.0921 71.8115 31.4622 71.9654 31.8513 72.0452C31.9006 72.0548 31.9516 72.0529 32 72.0395C32.0485 72.0261 32.0932 72.0017 32.1306 71.968C32.168 71.9344 32.1971 71.8926 32.2156 71.8459C32.2341 71.7991 32.2415 71.7487 32.2372 71.6986C32.2298 71.6302 32.2009 71.5659 32.1547 71.515C32.1085 71.4641 32.0473 71.4291 31.9799 71.4152Z" fill="white"/>
<path d="M34.8924 69.4945C34.8313 69.8058 34.7098 70.102 34.5349 70.3665C34.4966 70.424 34.4777 70.4922 34.4808 70.5612C34.4839 70.6302 34.509 70.6964 34.5523 70.7502C34.5841 70.7889 34.6246 70.8196 34.6704 70.8398C34.7162 70.8601 34.7661 70.8693 34.8161 70.8668C34.8662 70.8642 34.9149 70.85 34.9584 70.8252C35.002 70.8004 35.0391 70.7658 35.0668 70.7241C35.2858 70.3931 35.439 70.023 35.518 69.6341C35.5281 69.5848 35.5265 69.534 35.5134 69.4855C35.5003 69.437 35.4761 69.3922 35.4426 69.3547C35.4092 69.3173 35.3674 69.2881 35.3207 69.2696C35.274 69.2511 35.2236 69.2438 35.1736 69.2482C35.1069 69.2547 35.0438 69.2819 34.9934 69.3261C34.9429 69.3703 34.9076 69.4292 34.8924 69.4945Z" fill="white"/>
<path d="M30.4153 70.3557C30.241 70.091 30.1203 69.7948 30.0599 69.4837C30.0462 69.4158 30.011 69.3542 29.9596 69.3079C29.9082 69.2616 29.8432 69.233 29.7743 69.2264C29.7245 69.2221 29.6744 69.2294 29.6279 69.2478C29.5814 69.2662 29.5398 69.2951 29.5064 69.3323C29.473 69.3695 29.4487 69.414 29.4354 69.4622C29.4221 69.5104 29.4202 69.561 29.4299 69.6101C29.5095 69.9992 29.6635 70.3693 29.8833 70.7001C29.911 70.7418 29.9482 70.7765 29.9917 70.8013C30.0352 70.826 30.084 70.8403 30.134 70.8428C30.184 70.8454 30.2339 70.8361 30.2797 70.8159C30.3256 70.7957 30.366 70.765 30.3978 70.7263C30.4388 70.6739 30.4625 70.6101 30.4656 70.5437C30.4687 70.4773 30.4511 70.4116 30.4153 70.3557Z" fill="white"/>
<path d="M33.8326 71.0598C33.5711 71.2324 33.2787 71.353 32.9715 71.4151C32.904 71.4287 32.8426 71.4636 32.7964 71.5146C32.7501 71.5655 32.7213 71.63 32.7143 71.6985C32.7096 71.7485 32.7167 71.7989 32.7349 71.8457C32.7531 71.8925 32.782 71.9343 32.8192 71.968C32.8565 72.0017 32.9011 72.0262 32.9495 72.0396C32.9979 72.0529 33.0487 72.0549 33.098 72.0451C33.487 71.9651 33.857 71.8112 34.188 71.5917C34.2297 71.564 34.2643 71.5269 34.2891 71.4833C34.3139 71.4398 34.3281 71.3911 34.3307 71.3411C34.3332 71.291 34.324 71.2411 34.3038 71.1953C34.2835 71.1495 34.2528 71.109 34.2141 71.0772C34.1608 71.0338 34.095 71.0086 34.0263 71.0055C33.9576 71.0023 33.8897 71.0214 33.8326 71.0598Z" fill="white"/>
</g>
<path d="M16.1487 52.5059H15.752V54.6161H16.1487V52.5059Z" fill="#263238"/>
<path opacity="0.6" d="M16.1487 52.5059H15.752V54.6161H16.1487V52.5059Z" fill="black"/>
<path d="M26.2274 63.5629L28.7256 61.6357L31.2021 61.1387H38.1934V42.988C38.1934 42.4357 37.9741 41.9059 37.5837 41.5151C37.1934 41.1243 36.6638 40.9045 36.1115 40.9039H23.8381C23.1025 40.9045 22.3854 41.1336 21.7858 41.5598C21.1863 41.9859 20.7341 42.5878 20.4918 43.2823L17.6818 51.3178C17.2831 52.4608 17.0797 53.6628 17.0801 54.8734V68.3283H22.9465L26.2274 63.5629Z" fill="#6F89F0"/>
<path d="M17.0888 57.1864H17.2218C17.4138 57.1864 17.5979 57.2626 17.7336 57.3984C17.8693 57.5341 17.9456 57.7182 17.9456 57.9101V60.415C17.9456 60.6069 17.8693 60.791 17.7336 60.9267C17.5979 61.0625 17.4138 61.1387 17.2218 61.1387H17.0845C16.9214 61.1387 16.7651 61.074 16.6498 60.9587C16.5345 60.8434 16.4697 60.687 16.4697 60.524V57.799C16.4697 57.6359 16.5345 57.4796 16.6498 57.3643C16.7651 57.249 16.9214 57.1842 17.0845 57.1842L17.0888 57.1864Z" fill="#6F89F0"/>
<path opacity="0.8" d="M17.0888 57.1864H17.2218C17.4138 57.1864 17.5979 57.2626 17.7336 57.3984C17.8693 57.5341 17.9456 57.7182 17.9456 57.9101V60.415C17.9456 60.6069 17.8693 60.791 17.7336 60.9267C17.5979 61.0625 17.4138 61.1387 17.2218 61.1387H17.0845C16.9214 61.1387 16.7651 61.074 16.6498 60.9587C16.5345 60.8434 16.4697 60.687 16.4697 60.524V57.799C16.4697 57.6359 16.5345 57.4796 16.6498 57.3643C16.7651 57.249 16.9214 57.1842 17.0845 57.1842L17.0888 57.1864Z" fill="white"/>
<path d="M33.6697 55.4554H33.6413C33.4355 55.4554 33.2686 55.6223 33.2686 55.8282V57.788C33.2686 57.9939 33.4355 58.1608 33.6413 58.1608H33.6697C33.8756 58.1608 34.0425 57.9939 34.0425 57.788V55.8282C34.0425 55.6223 33.8756 55.4554 33.6697 55.4554Z" fill="#263238"/>
<path d="M17.0518 55.7061L15.8528 55.172C15.7864 55.1397 15.7307 55.089 15.692 55.0261C15.6534 54.9631 15.6336 54.8905 15.6348 54.8167V54.5115C15.6348 54.4085 15.6757 54.3098 15.7485 54.2371C15.8212 54.1643 15.9199 54.1234 16.0229 54.1234H17.2219C17.3375 54.1234 17.4484 54.1693 17.5302 54.2511C17.6119 54.3329 17.6579 54.4438 17.6579 54.5594V55.3224C17.655 55.3929 17.6351 55.4616 17.5998 55.5227C17.5646 55.5838 17.515 55.6354 17.4554 55.6732C17.3958 55.7109 17.328 55.7336 17.2577 55.7393C17.1874 55.7451 17.1167 55.7337 17.0518 55.7061Z" fill="#6F89F0"/>
<path d="M33.0045 50.775H33.4863C33.8332 50.775 34.1659 50.6372 34.4112 50.3919C34.6565 50.1466 34.7943 49.8139 34.7943 49.467V42.988C34.7946 42.9231 34.782 42.8588 34.7574 42.7988C34.7328 42.7388 34.6965 42.6842 34.6507 42.6382C34.605 42.5923 34.5506 42.5558 34.4906 42.5309C34.4307 42.506 34.3665 42.4932 34.3016 42.4932H23.8376C23.4317 42.493 23.0357 42.6186 22.7042 42.8529C22.3727 43.0872 22.1221 43.4185 21.9868 43.8012L19.1833 51.841C19.1411 51.9596 19.1055 52.0804 19.0765 52.2029C19.0036 52.4917 19.0103 52.7949 19.0958 53.0802C19.1814 53.3656 19.3425 53.6224 19.5622 53.8236C19.7819 54.0248 20.052 54.1627 20.3438 54.2228C20.6355 54.2829 20.9381 54.2629 21.2194 54.1649L28.8887 51.4748C30.2113 51.011 31.6029 50.7744 33.0045 50.775Z" fill="#263238"/>
<path opacity="0.5" d="M33.0045 50.775H33.4863C33.8332 50.775 34.1659 50.6372 34.4112 50.3919C34.6565 50.1466 34.7943 49.8139 34.7943 49.467V42.988C34.7946 42.9231 34.782 42.8588 34.7574 42.7988C34.7328 42.7388 34.6965 42.6842 34.6507 42.6382C34.605 42.5923 34.5506 42.5558 34.4906 42.5309C34.4307 42.506 34.3665 42.4932 34.3016 42.4932H23.8376C23.4317 42.493 23.0357 42.6186 22.7042 42.8529C22.3727 43.0872 22.1221 43.4185 21.9868 43.8012L19.1833 51.841C19.1411 51.9596 19.1055 52.0804 19.0765 52.2029C19.0036 52.4917 19.0103 52.7949 19.0958 53.0802C19.1814 53.3656 19.3425 53.6224 19.5622 53.8236C19.7819 54.0248 20.052 54.1627 20.3438 54.2228C20.6355 54.2829 20.9381 54.2629 21.2194 54.1649L28.8887 51.4748C30.2113 51.011 31.6029 50.7744 33.0045 50.775Z" fill="white"/>
<path d="M37.9425 60.2318H31.2826C30.0428 60.2334 28.8253 60.5624 27.7535 61.1856C26.6816 61.8088 25.7934 62.7041 25.1786 63.7808L22.5801 68.3283H24.6707L26.7548 64.6811C27.2122 63.8817 27.8726 63.2172 28.6692 62.7548C29.4658 62.2924 30.3703 62.0485 31.2914 62.0477H37.9513C38.0779 62.0477 38.1993 61.9974 38.2888 61.9079C38.3784 61.8183 38.4287 61.6969 38.4287 61.5703V60.7092C38.4287 60.6458 38.4161 60.5829 38.3915 60.5244C38.367 60.4659 38.331 60.4129 38.2858 60.3685C38.2405 60.324 38.1868 60.2891 38.1279 60.2656C38.069 60.2421 38.006 60.2306 37.9425 60.2318Z" fill="#6F89F0"/>
<path opacity="0.4" d="M37.9425 60.2318H31.2826C30.0428 60.2334 28.8253 60.5624 27.7535 61.1856C26.6816 61.8088 25.7934 62.7041 25.1786 63.7808L22.5801 68.3283H24.6707L26.7548 64.6811C27.2122 63.8817 27.8726 63.2172 28.6692 62.7548C29.4658 62.2924 30.3703 62.0485 31.2914 62.0477H37.9513C38.0779 62.0477 38.1993 61.9974 38.2888 61.9079C38.3784 61.8183 38.4287 61.6969 38.4287 61.5703V60.7092C38.4287 60.6458 38.4161 60.5829 38.3915 60.5244C38.367 60.4659 38.331 60.4129 38.2858 60.3685C38.2405 60.324 38.1868 60.2891 38.1279 60.2656C38.069 60.2421 38.006 60.2306 37.9425 60.2318Z" fill="white"/>
<path d="M18.2898 64.7335H16.5698C16.329 64.7335 16.1338 64.9287 16.1338 65.1695V66.8895C16.1338 67.1303 16.329 67.3255 16.5698 67.3255H18.2898C18.5306 67.3255 18.7258 67.1303 18.7258 66.8895V65.1695C18.7258 64.9287 18.5306 64.7335 18.2898 64.7335Z" fill="#263238"/>
<path opacity="0.7" d="M18.2898 64.7335H16.5698C16.329 64.7335 16.1338 64.9287 16.1338 65.1695V66.8895C16.1338 67.1303 16.329 67.3255 16.5698 67.3255H18.2898C18.5306 67.3255 18.7258 67.1303 18.7258 66.8895V65.1695C18.7258 64.9287 18.5306 64.7335 18.2898 64.7335Z" fill="white"/>
<path d="M23.6787 69.2352H16.2667C16.1395 69.2352 16.0175 69.1847 15.9276 69.0947C15.8376 69.0048 15.7871 68.8828 15.7871 68.7556V67.4737C15.7871 67.3465 15.8376 67.2246 15.9276 67.1346C16.0175 67.0447 16.1395 66.9941 16.2667 66.9941H24.9714C25.0288 66.9939 25.0853 67.009 25.1349 67.0378C25.1845 67.0667 25.2255 67.1082 25.2537 67.1582C25.282 67.2082 25.2963 67.2648 25.2954 67.3222C25.2944 67.3795 25.2782 67.4356 25.2483 67.4846L24.4504 68.7926C24.3702 68.9261 24.2572 69.0368 24.1221 69.1142C23.987 69.1917 23.8344 69.2333 23.6787 69.2352Z" fill="#263238"/>
<path opacity="0.6" d="M23.6787 69.2352H16.2667C16.1395 69.2352 16.0175 69.1847 15.9276 69.0947C15.8376 69.0048 15.7871 68.8828 15.7871 68.7556V67.4737C15.7871 67.3465 15.8376 67.2246 15.9276 67.1346C16.0175 67.0447 16.1395 66.9941 16.2667 66.9941H24.9714C25.0288 66.9939 25.0853 67.009 25.1349 67.0378C25.1845 67.0667 25.2255 67.1082 25.2537 67.1582C25.282 67.2082 25.2963 67.2648 25.2954 67.3222C25.2944 67.3795 25.2782 67.4356 25.2483 67.4846L24.4504 68.7926C24.3702 68.9261 24.2572 69.0368 24.1221 69.1142C23.987 69.1917 23.8344 69.2333 23.6787 69.2352Z" fill="white"/>
<path d="M15.9007 48.5056H15.9508C16.0562 48.5056 16.1574 48.5473 16.2321 48.6217C16.3069 48.696 16.3492 48.7969 16.3497 48.9024V52.6454C16.3497 52.7512 16.3077 52.8527 16.2329 52.9275C16.1581 53.0023 16.0566 53.0444 15.9508 53.0444H15.9007C15.6885 53.0444 15.485 52.9601 15.3349 52.81C15.1849 52.66 15.1006 52.4565 15.1006 52.2443V49.31C15.1 49.2046 15.1203 49.1001 15.1602 49.0025C15.2002 48.905 15.259 48.8162 15.3334 48.7415C15.4077 48.6667 15.4961 48.6074 15.5935 48.5669C15.6908 48.5265 15.7952 48.5056 15.9007 48.5056Z" fill="#263238"/>
<g opacity="0.3">
<path d="M18.8545 54.7076V64.4392C18.8545 64.4843 18.8724 64.5275 18.9043 64.5594C18.9362 64.5913 18.9794 64.6092 19.0245 64.6092C19.0696 64.6092 19.1129 64.5913 19.1448 64.5594C19.1767 64.5275 19.1946 64.4843 19.1946 64.4392V54.7076C19.1946 54.6625 19.1767 54.6193 19.1448 54.5874C19.1129 54.5555 19.0696 54.5376 19.0245 54.5376C18.9794 54.5376 18.9362 54.5555 18.9043 54.5874C18.8724 54.6193 18.8545 54.6625 18.8545 54.7076Z" fill="black"/>
</g>
<g opacity="0.3">
<path d="M34.6182 51.3243V59.3903C34.6229 59.4323 34.643 59.4712 34.6746 59.4994C34.7061 59.5276 34.747 59.5431 34.7893 59.5431C34.8316 59.5431 34.8725 59.5276 34.904 59.4994C34.9356 59.4712 34.9557 59.4323 34.9604 59.3903V51.3243C34.9557 51.2822 34.9356 51.2434 34.904 51.2152C34.8725 51.187 34.8316 51.1714 34.7893 51.1714C34.747 51.1714 34.7061 51.187 34.6746 51.2152C34.643 51.2434 34.6229 51.2822 34.6182 51.3243Z" fill="black"/>
</g>
<g opacity="0.2">
<path d="M26.6127 42.491H25.5271L21.2695 54.1496L22.5121 53.7136L26.6127 42.491Z" fill="white"/>
<path d="M30.7656 42.491H27.4673L23.4932 53.3692L27.2776 52.0415L30.7656 42.491Z" fill="white"/>
</g>
<path d="M47.6982 73.0219L48.2323 74.9534H49.0978L48.7752 72.7821L47.6982 73.0219Z" fill="#FFC3BD"/>
<path d="M49.1189 74.7747L48.1401 74.7943C48.1194 74.7953 48.0997 74.8031 48.0839 74.8165C48.0681 74.8299 48.0572 74.8482 48.0529 74.8684L47.8632 75.7927C47.8555 75.832 47.8635 75.8728 47.8855 75.9062C47.9075 75.9397 47.9418 75.9631 47.981 75.9715H48.0137C48.4213 75.9562 48.7832 75.9279 49.2911 75.9192C49.8906 75.9083 49.7402 75.9824 50.4444 75.9802C50.8695 75.9802 50.9392 75.4941 50.7583 75.4723C50.2305 75.4563 49.7305 75.2322 49.3674 74.8488C49.2969 74.7937 49.2081 74.7672 49.1189 74.7747Z" fill="#263238"/>
<path opacity="0.2" d="M49.0171 74.4084L48.7752 72.7821L47.6982 73.0219L48.0972 74.4694L49.0171 74.4084Z" fill="black"/>
<path d="M46.7585 56.0549L49.0976 73.7631L47.7896 73.8873C47.7896 73.8873 46.2156 68.276 45.9279 66.3598C45.8734 66.0153 45.7731 65.3134 45.7099 64.9711C45.6379 64.5766 45.4526 63.8288 45.3349 63.4451C45.1169 62.7127 44.4847 60.5021 44.4847 60.5021L43.543 56.6806L46.7585 56.0549Z" fill="#263238"/>
<path opacity="0.5" d="M44.1074 57.594L43.9482 58.3287L44.4845 60.5087C44.4845 60.5087 44.7657 61.5049 45.0186 62.3813C45.1342 58.6186 44.5129 57.5962 44.5129 57.5962L44.1074 57.594Z" fill="black"/>
<path d="M47.4971 73.5124L47.6715 74.1751L49.2629 73.9985L49.2236 73.3009L47.4971 73.5124Z" fill="#6F89F0"/>
<path d="M42.6445 72.9304L42.8713 74.9207L43.728 74.9294L43.7454 72.8606L42.6445 72.9304Z" fill="#FFC3BD"/>
<path opacity="0.2" d="M43.7454 72.8606L42.6445 72.9304L42.8211 74.4847L43.7324 74.4782L43.7454 72.8606Z" fill="black"/>
<path d="M44.8766 56.2512L43.8956 73.9877L42.5767 74.0008C42.5767 74.0008 42.0448 68.202 42.0949 66.264C42.0949 65.9152 42.1276 65.2067 42.1276 64.8579C42.1276 64.4567 42.0775 63.6872 42.0295 63.2883C41.938 62.5296 41.6786 60.1294 41.611 59.3643C41.5216 58.3854 41.4736 56.3123 41.4736 56.3123L44.8766 56.2512Z" fill="#263238"/>
<path d="M42.3223 73.4448L42.4356 74.1206L44.0336 74.0967L44.1033 73.399L42.3223 73.4448Z" fill="#6F89F0"/>
<path d="M43.7697 74.7746L42.7887 74.7942C42.7681 74.7956 42.7485 74.8035 42.7328 74.8168C42.7171 74.8302 42.7061 74.8482 42.7015 74.8683L42.514 75.7927C42.5099 75.8121 42.5097 75.8322 42.5134 75.8518C42.517 75.8714 42.5246 75.89 42.5355 75.9066C42.5465 75.9232 42.5606 75.9375 42.5771 75.9487C42.5937 75.9598 42.6122 75.9675 42.6317 75.9714H42.6623C43.0699 75.9561 43.434 75.9278 43.9419 75.9191C44.5414 75.9082 44.391 75.9823 45.0951 75.9801C45.5202 75.9801 45.5878 75.494 45.4091 75.4722C44.8808 75.4556 44.3804 75.2316 44.016 74.8487C43.9464 74.7935 43.8583 74.767 43.7697 74.7746Z" fill="#263238"/>
<path d="M48.8311 48.994L51.362 48.3509L51.8765 47.9607C51.9196 47.9273 51.9724 47.909 52.0269 47.9083H52.4063C52.4321 47.9093 52.458 47.9056 52.4826 47.8974L52.6068 47.856C52.6482 47.8428 52.6923 47.8405 52.7348 47.8495C52.7773 47.8584 52.8168 47.8783 52.8493 47.9071C52.8819 47.9359 52.9063 47.9726 52.9204 48.0138C52.9344 48.0549 52.9376 48.0989 52.9295 48.1416L52.8401 48.6125C52.8301 48.6625 52.8052 48.7082 52.7686 48.7437C52.732 48.7791 52.6854 48.8025 52.6352 48.8109L51.5212 48.994L48.9706 49.9248L48.8311 48.994Z" fill="#FFC3BD"/>
<path d="M45.5159 48.2201L48.5963 48.8261L49.453 48.6997L49.5991 49.8071L48.7009 50.0251L45.7361 50.0448C45.7361 50.0448 45.0058 48.933 45.5159 48.2201Z" fill="#6F89F0"/>
<path opacity="0.5" d="M45.5159 48.2201L48.5963 48.8261L49.453 48.6997L49.5991 49.8071L48.7009 50.0251L45.7361 50.0448C45.7361 50.0448 45.0058 48.933 45.5159 48.2201Z" fill="black"/>
<path d="M49.2432 48.5797L49.5157 50.0185L49.9342 49.8158L49.7031 48.5797H49.2432Z" fill="#6F89F0"/>
<path opacity="0.5" d="M49.2432 48.5797L49.5157 50.0185L49.9342 49.8158L49.7031 48.5797H49.2432Z" fill="white"/>
<path opacity="0.2" d="M45.8537 48.7389L45.6357 48.8719L45.7622 49.3079L45.9497 50.0469H47.4757C46.244 49.9423 45.8537 48.7389 45.8537 48.7389Z" fill="black"/>
<path d="M43.0288 51.4399L45.0475 51.2088L44.8949 48.3225L42.0391 48.7803L43.0288 51.4399Z" fill="#6F89F0"/>
<path opacity="0.4" d="M43.0288 51.4399L45.0475 51.2088L44.8949 48.3225L42.0391 48.7803L43.0288 51.4399Z" fill="black"/>
<path d="M45.5153 48.2201L44.2226 48.4381C44.3249 49.0798 44.2855 49.7361 44.107 50.3609C43.8694 49.624 42.9124 48.9853 42.4633 48.7171L41.0049 48.9504L41.3668 56.8137C41.3711 56.9121 41.4099 57.0058 41.4765 57.0783C41.5431 57.1509 41.6332 57.1977 41.7308 57.2104C42.6028 57.3216 44.9594 57.5047 46.6642 56.5739C46.7337 56.5355 46.791 56.4784 46.8295 56.409C46.8681 56.3396 46.8863 56.2607 46.8822 56.1815C46.8146 54.8669 46.4636 48.9482 45.5153 48.2201Z" fill="#6F89F0"/>
<path opacity="0.5" d="M45.5153 48.2201L44.2226 48.4381C44.3249 49.0798 44.2855 49.7361 44.107 50.3609C43.8694 49.624 42.9124 48.9853 42.4633 48.7171L41.0049 48.9504L41.3668 56.8137C41.3711 56.9121 41.4099 57.0058 41.4765 57.0783C41.5431 57.1509 41.6332 57.1977 41.7308 57.2104C42.6028 57.3216 44.9594 57.5047 46.6642 56.5739C46.7337 56.5355 46.791 56.4784 46.8295 56.409C46.8681 56.3396 46.8863 56.2607 46.8822 56.1815C46.8146 54.8669 46.4636 48.9482 45.5153 48.2201Z" fill="white"/>
<path opacity="0.8" d="M41.1055 51.1151L41.1425 51.9457C42.9348 51.9552 44.7147 51.649 46.4007 51.041C46.3506 50.7161 46.296 50.4022 46.235 50.1101C44.5988 50.7483 42.8616 51.0886 41.1055 51.1151Z" fill="white"/>
<path opacity="0.2" d="M41.1706 52.5364C42.1494 50.9101 41.5586 49.9204 41.5586 49.9204L41.393 49.9814L41.0703 50.3695L41.1706 52.5364Z" fill="black"/>
<path d="M42.7955 48.8501C43.0462 49.0376 43.4365 49.2599 43.8201 49.1836C43.8835 49.1757 43.9445 49.1546 43.9992 49.1219C44.054 49.0891 44.1014 49.0452 44.1383 48.9932C44.1752 48.9411 44.2008 48.8819 44.2136 48.8193C44.2264 48.7568 44.226 48.6923 44.2125 48.6299C43.8637 48.4533 43.7765 48.0609 43.7896 47.6903L42.4424 46.9513C42.6495 47.4462 42.9329 48.3073 42.7955 48.8501Z" fill="#FFC3BD"/>
<path opacity="0.2" d="M42.9909 47.2565L43.7888 47.6925C43.7855 47.8069 43.7921 47.9214 43.8084 48.0347C43.6543 48.0396 43.5014 48.0066 43.363 47.9386C43.2247 47.8705 43.1051 47.7695 43.0149 47.6445C42.9146 47.481 42.9299 47.2892 42.9909 47.2565Z" fill="black"/>
<path d="M43.6514 46.0641C43.041 45.748 42.6726 45.0416 42.7118 44.876C42.7511 44.7103 43.6601 44.3724 43.7909 44.44C44.4449 44.7212 44.1005 45.6193 44.1005 45.6193L44.3381 45.894L43.6514 46.0641Z" fill="#263238"/>
<path d="M42.039 46.1338C42.3115 46.9186 42.4314 47.3916 42.9503 47.6859C43.7285 48.135 44.6114 47.4897 44.5787 46.6417C44.5482 45.8722 44.1057 44.7211 43.2359 44.623C43.044 44.6002 42.8494 44.6269 42.6707 44.7006C42.4921 44.7743 42.3353 44.8925 42.2153 45.044C42.0953 45.1954 42.0161 45.3751 41.9852 45.5659C41.9544 45.7567 41.9729 45.9522 42.039 46.1338Z" fill="#FFC3BD"/>
<path d="M42.0279 46.7071C41.4524 46.3344 40.9815 45.7109 41.0448 45.5561C41.2126 45.1441 41.8753 44.8105 42.3244 44.9958C42.9784 45.264 42.5206 46.3038 42.5206 46.3038L42.7386 46.6047L42.0279 46.7071Z" fill="#263238"/>
<path d="M41.8555 46.9883C41.9321 47.0575 42.0216 47.1108 42.1189 47.1452C42.2162 47.1796 42.3193 47.1944 42.4223 47.1889C42.6992 47.1736 42.7471 46.9055 42.5967 46.6896C42.4463 46.4738 42.1607 46.2754 41.91 46.3953C41.8573 46.4226 41.8122 46.4626 41.7791 46.5118C41.7459 46.561 41.7257 46.6178 41.7202 46.6769C41.7148 46.736 41.7243 46.7955 41.748 46.8499C41.7716 46.9044 41.8086 46.9519 41.8555 46.9883Z" fill="#FFC3BD"/>
<path d="M43.3514 46.0139C43.371 46.0793 43.419 46.1229 43.4626 46.1099C43.5062 46.0968 43.5236 46.0357 43.5062 45.9703C43.4888 45.9049 43.4386 45.8635 43.395 45.8744C43.3514 45.8853 43.334 45.9485 43.3514 46.0139Z" fill="#263238"/>
<path d="M44.0858 45.809C44.1054 45.8722 44.1534 45.9158 44.197 45.9027C44.2406 45.8897 44.258 45.8286 44.2406 45.7654C44.2231 45.7022 44.173 45.6564 44.1294 45.6695C44.0858 45.6826 44.0683 45.7436 44.0858 45.809Z" fill="#263238"/>
<path d="M43.8174 45.9093C43.9517 46.0854 44.1094 46.2424 44.2861 46.3758C44.2503 46.4204 44.2052 46.4568 44.1541 46.4824C44.1029 46.508 44.0468 46.5222 43.9896 46.5241L43.8174 45.9093Z" fill="#ED847E"/>
<path d="M43.0131 45.7806H42.9935C42.9844 45.7763 42.9772 45.7689 42.9732 45.7596C42.9692 45.7504 42.9686 45.74 42.9717 45.7304C42.9936 45.6714 43.0291 45.6183 43.0753 45.5755C43.1215 45.5327 43.1771 45.5014 43.2377 45.4841C43.2481 45.4818 43.259 45.4837 43.268 45.4894C43.277 45.4952 43.2833 45.5042 43.2856 45.5146C43.2879 45.525 43.286 45.5359 43.2803 45.5449C43.2746 45.5539 43.2655 45.5603 43.2551 45.5626C43.2054 45.5747 43.1594 45.599 43.1214 45.6332C43.0834 45.6675 43.0544 45.7106 43.0371 45.7588C43.032 45.7687 43.0235 45.7765 43.0131 45.7806Z" fill="#263238"/>
<path d="M44.2887 45.4318C44.2822 45.4325 44.2757 45.4317 44.2697 45.4294C44.2636 45.4271 44.2582 45.4235 44.2538 45.4187C44.2223 45.3804 44.1822 45.3501 44.1367 45.3304C44.0912 45.3107 44.0417 45.3021 43.9922 45.3054C43.987 45.3063 43.9817 45.3062 43.9766 45.305C43.9715 45.3039 43.9666 45.3017 43.9624 45.2987C43.9581 45.2956 43.9545 45.2918 43.9518 45.2873C43.949 45.2828 43.9472 45.2779 43.9464 45.2727C43.9457 45.2621 43.9488 45.2516 43.9552 45.2432C43.9616 45.2348 43.9709 45.229 43.9813 45.2269C44.044 45.2215 44.1071 45.2314 44.1652 45.2557C44.2233 45.28 44.2746 45.318 44.3148 45.3664C44.3186 45.3699 44.3216 45.3741 44.3236 45.3788C44.3257 45.3835 44.3268 45.3885 44.3268 45.3937C44.3268 45.3988 44.3257 45.4038 44.3236 45.4085C44.3216 45.4132 44.3186 45.4174 44.3148 45.4209C44.3115 45.4245 44.3074 45.4273 44.3029 45.4291C44.2984 45.431 44.2935 45.4319 44.2887 45.4318Z" fill="#263238"/>
<path d="M43.922 46.9121C43.9616 46.9128 44.001 46.9091 44.0398 46.9012C44.0425 46.9013 44.0452 46.9007 44.0476 46.8996C44.0501 46.8985 44.0522 46.8968 44.0539 46.8947C44.0556 46.8925 44.0568 46.8901 44.0574 46.8874C44.0579 46.8848 44.0579 46.882 44.0572 46.8794C44.0567 46.8768 44.0557 46.8743 44.0542 46.8721C44.0527 46.8699 44.0507 46.8681 44.0485 46.8666C44.0462 46.8652 44.0437 46.8642 44.0411 46.8638C44.0385 46.8634 44.0358 46.8635 44.0332 46.8641C43.9474 46.8806 43.859 46.8767 43.775 46.8528C43.6909 46.829 43.6136 46.7858 43.5493 46.7268C43.545 46.7233 43.5396 46.7213 43.534 46.7213C43.5284 46.7213 43.523 46.7233 43.5187 46.7268C43.5168 46.7286 43.5153 46.7308 43.5143 46.7333C43.5132 46.7357 43.5127 46.7383 43.5127 46.741C43.5127 46.7436 43.5132 46.7462 43.5143 46.7487C43.5153 46.7511 43.5168 46.7533 43.5187 46.7551C43.6278 46.8577 43.7724 46.914 43.922 46.9121Z" fill="#263238"/>
<path d="M41.6897 46.476C41.6897 46.476 41.0248 46.04 40.9834 45.604C40.9818 45.3141 41.0468 45.0277 41.1734 44.7669C41.3 44.5061 41.4849 44.2778 41.7137 44.0998C42.2108 43.7641 43.2201 43.4829 44.0986 44.6274L42.6729 45.0634L42.1061 45.6498L41.6897 46.476Z" fill="#6F89F0"/>
<path opacity="0.3" d="M41.6897 46.476C41.6897 46.476 41.0248 46.04 40.9834 45.604C40.9818 45.3141 41.0468 45.0277 41.1734 44.7669C41.3 44.5061 41.4849 44.2778 41.7137 44.0998C42.2108 43.7641 43.2201 43.4829 44.0986 44.6274L42.6729 45.0634L42.1061 45.6498L41.6897 46.476Z" fill="black"/>
<path d="M41.7221 46.5284C41.7221 46.5284 42.3761 44.7364 44.1484 44.7582C44.1484 44.7582 44.6302 43.4393 43.6906 43.5723C42.751 43.7053 42.2017 45.4253 42.2017 45.4253C42.2017 45.4253 41.3471 46.3496 41.7221 46.5284Z" fill="#6F89F0"/>
<path opacity="0.5" d="M41.7221 46.5284C41.7221 46.5284 42.3761 44.7364 44.1484 44.7582C44.1484 44.7582 44.6302 43.4393 43.6906 43.5723C42.751 43.7053 42.2017 45.4253 42.2017 45.4253C42.2017 45.4253 41.3471 46.3496 41.7221 46.5284Z" fill="white"/>
<path opacity="0.8" d="M46.8478 55.5449C46.8304 55.2746 46.8086 54.9541 46.7824 54.601C44.0291 55.3618 41.9864 55.2244 41.291 55.1394L41.3281 55.9809C44.1272 56.2338 46.0936 55.7694 46.8478 55.5449Z" fill="white"/>
<path d="M41.9756 52.4602L44.2144 52.7262C44.2144 52.7262 43.761 54.8604 44.5131 55.7564L42.7364 55.776L41.9756 52.4602Z" fill="#263238"/>
<path opacity="0.7" d="M41.9756 52.4602L44.2144 52.7262C44.2144 52.7262 43.761 54.8604 44.5131 55.7564L42.7364 55.776L41.9756 52.4602Z" fill="white"/>
<path d="M43.9859 52.5184L42.0569 52.2904C41.868 52.2681 41.6967 52.4031 41.6744 52.5921L41.3323 55.4866C41.31 55.6755 41.4451 55.8467 41.634 55.8691L43.5629 56.097C43.7518 56.1194 43.9231 55.9843 43.9454 55.7954L44.2875 52.9009C44.3098 52.712 44.1748 52.5407 43.9859 52.5184Z" fill="#263238"/>
<path opacity="0.5" d="M43.9859 52.5184L42.0569 52.2904C41.868 52.2681 41.6967 52.4031 41.6744 52.5921L41.3323 55.4866C41.31 55.6755 41.4451 55.8467 41.634 55.8691L43.5629 56.097C43.7518 56.1194 43.9231 55.9843 43.9454 55.7954L44.2875 52.9009C44.3098 52.712 44.1748 52.5407 43.9859 52.5184Z" fill="white"/>
<path d="M43.1044 52.2487L43.3028 52.0307C43.3133 52.019 43.3205 52.0047 43.3234 51.9892C43.3263 51.9737 43.3248 51.9578 43.3191 51.9431C43.3135 51.9284 43.3039 51.9156 43.2914 51.906C43.2788 51.8965 43.2639 51.8906 43.2483 51.889L42.9322 51.8519C42.9165 51.8499 42.9005 51.8522 42.8861 51.8587C42.8716 51.8652 42.8593 51.8756 42.8504 51.8888C42.8416 51.9019 42.8366 51.9173 42.836 51.9331C42.8354 51.9489 42.8393 51.9646 42.8472 51.9784L42.9889 52.24L42.4199 52.1724L42.3872 52.4536C42.3804 52.5145 42.3979 52.5757 42.4358 52.6238C42.4737 52.6719 42.5291 52.7032 42.5899 52.7109L43.3813 52.7981C43.4422 52.8048 43.5033 52.7874 43.5514 52.7494C43.5996 52.7115 43.6308 52.6561 43.6385 52.5953L43.6712 52.3141L43.1044 52.2487Z" fill="#263238"/>
<path d="M39.6362 53.1097L41.2842 54.0907L42.3045 53.8248C42.3676 53.8079 42.4346 53.8133 42.4941 53.84C42.5612 53.8714 42.6134 53.9276 42.6399 53.9967C42.6663 54.0659 42.6649 54.1426 42.6358 54.2106L42.4375 54.6641C42.4123 54.7212 42.3689 54.7684 42.3141 54.7984C42.2593 54.8284 42.1962 54.8394 42.1344 54.8298L41.1186 54.6663L39.1348 53.8313L39.6362 53.1097Z" fill="#FFC3BD"/>
<path d="M41.0053 48.9438C41.0053 48.9438 38.2803 52.4209 38.3218 53.0684C38.3632 53.7159 39.5971 54.1126 39.5971 54.1126L40.1399 53.3409L39.6755 52.8809C39.6755 52.8809 40.7655 51.7451 41.1274 51.3549C41.5264 50.9124 42.0605 50.2911 41.0053 48.9438Z" fill="#6F89F0"/>
<path opacity="0.5" d="M41.0053 48.9438C41.0053 48.9438 38.2803 52.4209 38.3218 53.0684C38.3632 53.7159 39.5971 54.1126 39.5971 54.1126L40.1399 53.3409L39.6755 52.8809C39.6755 52.8809 40.7655 51.7451 41.1274 51.3549C41.5264 50.9124 42.0605 50.2911 41.0053 48.9438Z" fill="black"/>
<path d="M40.1094 53.0989L39.377 54.1867L39.7432 54.311L40.3492 53.4237L40.1094 53.0989Z" fill="#6F89F0"/>
<path opacity="0.5" d="M40.1094 53.0989L39.377 54.1867L39.7432 54.311L40.3492 53.4237L40.1094 53.0989Z" fill="white"/>
<path d="M45.0037 57.1362L44.3323 50.557C44.3284 50.5019 44.3037 50.4503 44.2633 50.4126C44.2228 50.375 44.1695 50.3541 44.1143 50.3542L44.8249 57.1711L45.0037 57.1362Z" fill="#6F89F0"/>
</g>
<defs>
<clipPath id="clip0_37_12959">
<rect width="109" height="76" fill="white"/>
</clipPath>
</defs>
</svg>
