<svg width="38" height="33" viewBox="0 0 38 33" fill="none" xmlns="http://www.w3.org/2000/svg">
<path d="M6.78571 32.5714H31.2143C34.96 32.5714 38 29.5314 38 25.7857V6.78571C38 3.03999 34.96 0 31.2143 0H6.78571C3.03999 0 0 3.03999 0 6.78571V25.7857C0 29.5314 3.03999 32.5714 6.78571 32.5714ZM11.4679 11.78C11.4679 10.4635 12.1464 9.2964 13.2864 8.63141C14.4129 7.98001 15.77 7.98001 16.91 8.63141L24.7136 13.1371C25.8536 13.8021 26.5321 14.9692 26.5321 16.2857C26.5321 17.6021 25.8536 18.7692 24.7136 19.4343L16.91 23.94C16.34 24.2657 15.7157 24.4286 15.0914 24.4286C14.4807 24.4286 13.8565 24.2657 13.2864 23.94C12.1464 23.275 11.4679 22.1078 11.4679 20.7914V11.78Z" fill="white"/>
<path d="M14.643 21.5921C14.7788 21.66 15.1452 21.8228 15.5524 21.5921L23.3559 17.0864C23.7767 16.8421 23.8173 16.4486 23.8173 16.2857C23.8173 16.1229 23.7767 15.7293 23.3559 15.485L15.5524 10.9793C15.3895 10.8843 15.2402 10.8572 15.1045 10.8572C14.8873 10.8572 14.7244 10.9386 14.643 10.9793C14.4938 11.0607 14.1816 11.305 14.1816 11.78V20.7915C14.1816 21.2664 14.4938 21.5107 14.643 21.5921Z" fill="white"/>
</svg>
