<svg width="36" height="36" viewBox="0 0 36 36" fill="none" xmlns="http://www.w3.org/2000/svg">
<path d="M22.8004 22.8H2.40039V24H22.8004V22.8Z" fill="white"/>
<path d="M26.3992 22.8H25.1992V24H26.3992V22.8Z" fill="white"/>
<path d="M33.5766 11.76C34.7958 9.7578 36 7.3008 36 5.4C36 3.96783 35.4311 2.59432 34.4184 1.58162C33.4057 0.568927 32.0322 0 30.6 0C29.1678 0 27.7943 0.568927 26.7816 1.58162C25.7689 2.59432 25.2 3.96783 25.2 5.4C25.3071 6.87233 25.7288 8.30456 26.4366 9.6H19.2V1.8C19.2 1.32261 19.0104 0.864773 18.6728 0.527208C18.3352 0.189642 17.8774 0 17.4 0H1.8C1.32261 0 0.864773 0.189642 0.527208 0.527208C0.189642 0.864773 0 1.32261 0 1.8V30.6C0 31.0774 0.189642 31.5352 0.527208 31.8728C0.864773 32.2104 1.32261 32.4 1.8 32.4H6.048C6.19146 33.3989 6.69024 34.3126 7.45287 34.9736C8.21549 35.6345 9.19083 35.9983 10.2 35.9983C11.2092 35.9983 12.1845 35.6345 12.9471 34.9736C13.7098 34.3126 14.2085 33.3989 14.352 32.4H24.048C24.1915 33.3989 24.6902 34.3126 25.4529 34.9736C26.2155 35.6345 27.1908 35.9983 28.2 35.9983C29.2092 35.9983 30.1845 35.6345 30.9471 34.9736C31.7098 34.3126 32.2085 33.3989 32.352 32.4H34.2C34.6774 32.4 35.1352 32.2104 35.4728 31.8728C35.8104 31.5352 36 31.0774 36 30.6V17.4C36 16.3446 35.7851 15.3003 35.3685 14.3307C34.9519 13.3611 34.3422 12.4864 33.5766 11.76ZM30.6 1.2C31.7135 1.20127 32.7811 1.64418 33.5684 2.43155C34.3558 3.21893 34.7987 4.28648 34.8 5.4C34.8 8.1042 31.7838 12.42 30.6 14.0118C29.4156 12.42 26.4 8.1066 26.4 5.4C26.4013 4.28648 26.8442 3.21893 27.6316 2.43155C28.4189 1.64418 29.4865 1.20127 30.6 1.2ZM28.5672 13.2252C29.3886 14.4384 30.0582 15.2838 30.1314 15.375C30.1876 15.4453 30.2589 15.502 30.34 15.541C30.4211 15.58 30.51 15.6003 30.6 15.6003C30.69 15.6003 30.7789 15.58 30.86 15.541C30.9411 15.502 31.0124 15.4453 31.0686 15.375C31.1016 15.3336 31.2648 15.1266 31.5 14.814C32.0805 15.5513 32.3973 16.4617 32.4 17.4V20.4H25.2V13.2H28.2C28.32 13.2 28.4448 13.2156 28.5672 13.2252ZM21.6 10.8V20.4H1.2V19.0896C1.39215 19.1607 1.59514 19.198 1.8 19.2H17.4C17.8774 19.2 18.3352 19.0104 18.6728 18.6728C19.0104 18.3352 19.2 17.8774 19.2 17.4V10.8H21.6ZM7.2 6H1.2V4.8H7.2V6ZM8.4 1.2H10.8V7.8786L9.933 7.3008C9.8344 7.23502 9.71853 7.19991 9.6 7.19991C9.48147 7.19991 9.3656 7.23502 9.267 7.3008L8.4 7.8786V1.2ZM12 4.8H18V6H12V4.8ZM18 1.8V3.6H12V1.2H17.4C17.5591 1.2 17.7117 1.26321 17.8243 1.37574C17.9368 1.48826 18 1.64087 18 1.8ZM1.8 1.2H7.2V3.6H1.2V1.8C1.2 1.64087 1.26321 1.48826 1.37574 1.37574C1.48826 1.26321 1.64087 1.2 1.8 1.2ZM1.2 7.2H7.2V9C7.19998 9.10863 7.22946 9.21522 7.28528 9.30841C7.34109 9.40159 7.42116 9.47788 7.51694 9.52913C7.61272 9.58037 7.72061 9.60465 7.82911 9.59938C7.93761 9.59411 8.04264 9.55949 8.133 9.4992L9.6 8.52L11.067 9.498C11.1573 9.55823 11.2622 9.59285 11.3706 9.59817C11.479 9.60349 11.5868 9.57931 11.6825 9.52821C11.7783 9.47711 11.8584 9.40099 11.9143 9.30798C11.9702 9.21496 11.9998 9.10852 12 9V7.2H18V17.4C18 17.5591 17.9368 17.7117 17.8243 17.8243C17.7117 17.9368 17.5591 18 17.4 18H1.8C1.64087 18 1.48826 17.9368 1.37574 17.8243C1.26321 17.7117 1.2 17.5591 1.2 17.4V7.2ZM10.2 34.8C9.60666 34.8 9.02664 34.6241 8.53329 34.2944C8.03994 33.9648 7.65542 33.4962 7.42836 32.9481C7.2013 32.3999 7.14189 31.7967 7.25764 31.2147C7.3734 30.6328 7.65912 30.0982 8.07868 29.6787C8.49824 29.2591 9.03279 28.9734 9.61473 28.8576C10.1967 28.7419 10.7999 28.8013 11.3481 29.0284C11.8962 29.2554 12.3648 29.6399 12.6944 30.1333C13.0241 30.6266 13.2 31.2067 13.2 31.8C13.199 32.5954 12.8827 33.3579 12.3203 33.9203C11.7579 34.4827 10.9954 34.799 10.2 34.8ZM28.2 34.8C27.6067 34.8 27.0266 34.6241 26.5333 34.2944C26.0399 33.9648 25.6554 33.4962 25.4284 32.9481C25.2013 32.3999 25.1419 31.7967 25.2576 31.2147C25.3734 30.6328 25.6591 30.0982 26.0787 29.6787C26.4982 29.2591 27.0328 28.9734 27.6147 28.8576C28.1967 28.7419 28.7999 28.8013 29.3481 29.0284C29.8962 29.2554 30.3648 29.6399 30.6944 30.1333C31.0241 30.6266 31.2 31.2067 31.2 31.8C31.199 32.5954 30.8827 33.3579 30.3203 33.9203C29.7579 34.4827 28.9954 34.799 28.2 34.8ZM34.8 30.6C34.8 30.7591 34.7368 30.9117 34.6243 31.0243C34.5117 31.1368 34.3591 31.2 34.2 31.2H32.352C32.2085 30.2011 31.7098 29.2874 30.9471 28.6264C30.1845 27.9655 29.2092 27.6017 28.2 27.6017C27.1908 27.6017 26.2155 27.9655 25.4529 28.6264C24.6902 29.2874 24.1915 30.2011 24.048 31.2H14.352C14.2085 30.2011 13.7098 29.2874 12.9471 28.6264C12.1845 27.9655 11.2092 27.6017 10.2 27.6017C9.19083 27.6017 8.21549 27.9655 7.45287 28.6264C6.69024 29.2874 6.19146 30.2011 6.048 31.2H1.8C1.64087 31.2 1.48826 31.1368 1.37574 31.0243C1.26321 30.9117 1.2 30.7591 1.2 30.6V21.6H22.2C22.3591 21.6 22.5117 21.5368 22.6243 21.4243C22.7368 21.3117 22.8 21.1591 22.8 21V10.8H27.0642C27.297 11.2152 27.5352 11.6154 27.774 12H24.6C24.4409 12 24.2883 12.0632 24.1757 12.1757C24.0632 12.2883 24 12.4409 24 12.6V21C24 21.1591 24.0632 21.3117 24.1757 21.4243C24.2883 21.5368 24.4409 21.6 24.6 21.6H33C33.1591 21.6 33.3117 21.5368 33.4243 21.4243C33.5368 21.3117 33.6 21.1591 33.6 21V17.4C33.598 16.0758 33.1104 14.7984 32.2296 13.8096C32.4462 13.5018 32.6796 13.158 32.9232 12.7896C34.1278 14.0218 34.8015 15.6769 34.8 17.4V30.6Z" fill="white"/>
<path d="M16.7996 11.4H15.5996V12.6H16.7996V11.4Z" fill="white"/>
<path d="M16.8008 16.2V13.8H15.6008V15.6H13.8008V16.8H16.2008C16.3599 16.8 16.5125 16.7368 16.625 16.6243C16.7376 16.5118 16.8008 16.3592 16.8008 16.2Z" fill="white"/>
<path d="M10.2004 30C9.84439 30 9.49637 30.1056 9.20037 30.3034C8.90436 30.5011 8.67365 30.7823 8.53741 31.1112C8.40117 31.4401 8.36552 31.802 8.43498 32.1512C8.50443 32.5003 8.67586 32.8211 8.9276 33.0728C9.17933 33.3245 9.50006 33.496 9.84923 33.5654C10.1984 33.6349 10.5603 33.5992 10.8892 33.463C11.2181 33.3267 11.4993 33.096 11.697 32.8C11.8948 32.504 12.0004 32.156 12.0004 31.8C12.0004 31.3226 11.8107 30.8648 11.4732 30.5272C11.1356 30.1896 10.6778 30 10.2004 30ZM10.2004 32.4C10.0817 32.4 9.96572 32.3648 9.86705 32.2989C9.76838 32.233 9.69148 32.1392 9.64606 32.0296C9.60065 31.92 9.58877 31.7993 9.61192 31.6829C9.63507 31.5666 9.69222 31.4596 9.77613 31.3757C9.86004 31.2918 9.96695 31.2347 10.0833 31.2115C10.1997 31.1884 10.3204 31.2003 10.43 31.2457C10.5396 31.2911 10.6333 31.368 10.6993 31.4667C10.7652 31.5653 10.8004 31.6813 10.8004 31.8C10.8004 31.9591 10.7372 32.1117 10.6247 32.2243C10.5121 32.3368 10.3595 32.4 10.2004 32.4Z" fill="white"/>
<path d="M28.2004 30C27.8444 30 27.4964 30.1056 27.2004 30.3034C26.9044 30.5011 26.6736 30.7823 26.5374 31.1112C26.4012 31.4401 26.3655 31.802 26.435 32.1512C26.5044 32.5003 26.6759 32.8211 26.9276 33.0728C27.1793 33.3245 27.5001 33.496 27.8492 33.5654C28.1984 33.6349 28.5603 33.5992 28.8892 33.463C29.2181 33.3267 29.4992 33.096 29.697 32.8C29.8948 32.504 30.0004 32.156 30.0004 31.8C30.0004 31.3226 29.8107 30.8648 29.4732 30.5272C29.1356 30.1896 28.6778 30 28.2004 30ZM28.2004 32.4C28.0817 32.4 27.9657 32.3648 27.8671 32.2989C27.7684 32.233 27.6915 32.1392 27.6461 32.0296C27.6007 31.92 27.5888 31.7993 27.6119 31.6829C27.6351 31.5666 27.6922 31.4596 27.7761 31.3757C27.86 31.2918 27.9669 31.2347 28.0833 31.2115C28.1997 31.1884 28.3204 31.2003 28.43 31.2457C28.5396 31.2911 28.6333 31.368 28.6993 31.4667C28.7652 31.5653 28.8004 31.6813 28.8004 31.8C28.8004 31.9591 28.7372 32.1117 28.6247 32.2243C28.5121 32.3368 28.3595 32.4 28.2004 32.4Z" fill="white"/>
<path d="M33.5996 5.40003C33.5996 4.80668 33.4237 4.22666 33.094 3.73331C32.7644 3.23997 32.2958 2.85545 31.7477 2.62839C31.1995 2.40132 30.5963 2.34191 30.0143 2.45767C29.4324 2.57343 28.8978 2.85915 28.4783 3.27871C28.0587 3.69826 27.773 4.23281 27.6573 4.81475C27.5415 5.3967 27.6009 5.9999 27.828 6.54808C28.055 7.09625 28.4396 7.56479 28.9329 7.89443C29.4262 8.22408 30.0063 8.40003 30.5996 8.40003C31.395 8.39907 32.1575 8.0827 32.7199 7.52029C33.2823 6.95789 33.5987 6.19538 33.5996 5.40003ZM28.7996 5.40003C28.7996 5.04402 28.9052 4.69601 29.103 4.4C29.3008 4.10399 29.5819 3.87328 29.9108 3.73704C30.2397 3.6008 30.6016 3.56516 30.9508 3.63461C31.2999 3.70407 31.6207 3.8755 31.8724 4.12723C32.1241 4.37897 32.2956 4.6997 32.365 5.04886C32.4345 5.39803 32.3988 5.75995 32.2626 6.08886C32.1264 6.41776 31.8956 6.69888 31.5996 6.89667C31.3036 7.09446 30.9556 7.20003 30.5996 7.20003C30.1222 7.20003 29.6644 7.01038 29.3268 6.67282C28.9893 6.33525 28.7996 5.87742 28.7996 5.40003Z" fill="white"/>
</svg>
