<svg width="36" height="24" viewBox="0 0 36 24" fill="none" xmlns="http://www.w3.org/2000/svg">
<path d="M25.0167 10.0833C25.0167 10.5875 25.4194 11 25.9319 11H35.0842C35.5875 11 35.9994 10.5875 35.9994 10.0833V0.916667C35.9994 0.403333 35.5875 0 35.0842 0H25.9319C25.4194 0 25.0167 0.403333 25.0167 0.916667V3.63002L22.5639 5.32583C22.4266 5.41754 22.4266 5.61918 22.5639 5.70169L25.0167 7.31504V10.0833ZM30.5355 9.18502C30.0322 9.18502 29.6203 8.77251 29.6203 8.26835C29.6203 7.76419 30.0322 7.35169 30.5355 7.35169C31.0481 7.35169 31.4508 7.76419 31.4508 8.26835C31.4508 8.77251 31.0481 9.18502 30.5355 9.18502ZM30.5355 1.80587C31.8231 1.80587 32.4045 3.43958 31.3958 4.25335C31.1396 4.45505 30.9931 4.83085 30.9931 5.28002V5.93087C30.9931 6.18751 30.7918 6.3892 30.5355 6.3892C30.2884 6.3892 30.0779 6.18751 30.0779 5.93087V5.28001C30.0779 4.55586 30.3525 3.92336 30.8284 3.53838C31.1581 3.23801 30.9581 2.72254 30.5355 2.72254C30.2884 2.72254 30.0779 2.92418 30.0779 3.18087C30.0779 3.43751 29.8765 3.6392 29.6203 3.6392C29.3732 3.6392 29.1627 3.43751 29.1627 3.18087C29.1627 2.42002 29.785 1.80587 30.5355 1.80587Z" fill="white"/>
<path fill-rule="evenodd" clip-rule="evenodd" d="M20.7367 11.6471C20.8527 11.6475 20.9637 11.6928 21.0454 11.7729C21.1271 11.8531 21.1728 11.9615 21.1723 12.0743V13.209C21.1726 13.2649 21.1615 13.3203 21.1397 13.372C21.1179 13.4237 21.0859 13.4707 21.0454 13.5104C21.005 13.5501 20.9569 13.5816 20.9039 13.6032C20.8509 13.6248 20.7941 13.636 20.7367 13.6362C20.679 13.6365 20.6218 13.6256 20.5684 13.6042C20.515 13.5828 20.4665 13.5513 20.4257 13.5116C20.3849 13.4719 20.3526 13.4247 20.3306 13.3727C20.3086 13.3208 20.2974 13.2651 20.2976 13.209V12.4983H8.3063V21.38H14.6428C14.8408 20.37 15.7419 19.5953 16.8236 19.5953C17.9052 19.5953 18.8035 20.37 19.0009 21.38H20.7367C20.8521 21.3804 20.9626 21.4252 21.0442 21.5046C21.1258 21.5841 21.1719 21.6916 21.1723 21.8039C21.1726 21.8598 21.1615 21.9152 21.1397 21.9669C21.1179 22.0186 21.0859 22.0657 21.0454 22.1053C21.005 22.145 20.9569 22.1766 20.9039 22.1981C20.8509 22.2197 20.7941 22.231 20.7367 22.2312H18.9984C18.7948 23.2335 17.8997 24 16.8236 24C15.7475 24 14.8495 23.2335 14.6454 22.2312H7.86723H6.32966C6.12551 23.2335 5.22754 24 4.15144 24C3.07534 24 2.17823 23.2335 1.97407 22.2312H0.435652C0.319662 22.2307 0.208603 22.1855 0.126905 22.1053C0.045208 22.0252 -0.00043869 21.9168 1.90735e-06 21.8039V17.6286C-0.000185013 17.5501 0.0219917 17.4729 0.0640736 17.4059L2.42766 13.7086C2.46682 13.6472 2.5214 13.5965 2.58626 13.5613C2.65112 13.5261 2.72412 13.5075 2.79838 13.5074H7.43159V12.0743C7.43115 11.9615 7.4768 11.8531 7.55849 11.7729C7.64019 11.6928 7.75124 11.6475 7.86723 11.6471H20.7367ZM7.43159 14.3586H3.04439L0.87471 17.7517V21.38H1.97066C2.16864 20.37 3.06977 19.5953 4.15144 19.5953C5.23308 19.5953 6.13421 20.37 6.33223 21.38H7.43159V14.3586ZM21.9983 14.7451C22.0558 14.7449 22.1127 14.7557 22.1658 14.7769C22.219 14.798 22.2673 14.8292 22.3081 14.8686C22.3489 14.9079 22.3813 14.9547 22.4035 15.0063C22.4257 15.0578 22.4372 15.1131 22.4374 15.169C22.4372 15.2249 22.4257 15.2802 22.4035 15.3318C22.3813 15.3833 22.3489 15.4301 22.3081 15.4695C22.2673 15.5088 22.219 15.54 22.1658 15.5612C22.1127 15.5824 22.0558 15.5932 21.9983 15.593H17.6402C17.5828 15.5932 17.5258 15.5824 17.4727 15.5612C17.4196 15.54 17.3712 15.5088 17.3304 15.4695C17.2897 15.4301 17.2573 15.3833 17.2351 15.3318C17.2129 15.2802 17.2014 15.2249 17.2011 15.169C17.2014 15.1131 17.2129 15.0578 17.2351 15.0063C17.2573 14.9547 17.2897 14.9079 17.3304 14.8686C17.3712 14.8292 17.4195 14.798 17.4727 14.7769C17.5258 14.7557 17.5828 14.7449 17.6402 14.7451H21.9983ZM24.7813 17.1008C24.897 17.101 25.0079 17.1459 25.0898 17.2255C25.1716 17.3051 25.2176 17.413 25.2178 17.5256C25.2181 17.5815 25.207 17.637 25.1851 17.6888C25.1633 17.7405 25.1312 17.7876 25.0907 17.8273C25.0501 17.867 25.0019 17.8985 24.9489 17.92C24.8958 17.9416 24.8389 17.9527 24.7813 17.9528H19.0317C18.974 17.953 18.9168 17.9421 18.8634 17.9207C18.81 17.8994 18.7615 17.8679 18.7207 17.8282C18.6799 17.7885 18.6476 17.7413 18.6256 17.6893C18.6036 17.6374 18.5924 17.5817 18.5926 17.5256C18.5927 17.4696 18.6042 17.4142 18.6263 17.3626C18.6485 17.3109 18.6809 17.264 18.7216 17.2246C18.7624 17.1851 18.8108 17.1539 18.864 17.1326C18.9172 17.1114 18.9742 17.1006 19.0317 17.1008H24.7813ZM27.5643 19.4574C27.6218 19.4576 27.6786 19.4688 27.7316 19.4904C27.7846 19.512 27.8327 19.5435 27.8731 19.5832C27.9136 19.6229 27.9456 19.6699 27.9674 19.7216C27.9891 19.7733 28.0002 19.8287 28 19.8846C27.9995 19.9969 27.9535 20.1045 27.8719 20.1839C27.7903 20.2633 27.6798 20.3081 27.5643 20.3085H20.4232C20.3658 20.3088 20.3088 20.298 20.2557 20.2768C20.2025 20.2556 20.1542 20.2244 20.1134 20.1851C20.0727 20.1457 20.0403 20.0989 20.0181 20.0473C19.9959 19.9958 19.9844 19.9405 19.9841 19.8846C19.9839 19.8284 19.9951 19.7728 20.0171 19.7208C20.0391 19.6689 20.0714 19.6217 20.1122 19.582C20.153 19.5423 20.2015 19.5108 20.2549 19.4894C20.3083 19.468 20.3655 19.4571 20.4232 19.4574H27.5643ZM16.8577 20.444C16.8462 20.4437 16.8352 20.444 16.8236 20.444C16.0811 20.444 15.4774 21.0411 15.4774 21.7981C15.4774 22.5551 16.0811 23.1489 16.8236 23.1489C17.566 23.1489 18.1664 22.5551 18.1664 21.7981C18.1664 21.0529 17.5841 20.4623 16.8577 20.444ZM4.18647 20.444C4.17489 20.4437 4.16303 20.444 4.15144 20.444C3.409 20.444 2.80521 21.0411 2.80521 21.7981C2.80521 22.5551 3.409 23.1489 4.15144 23.1489C4.89388 23.1489 5.49767 22.5551 5.49767 21.7981C5.49767 21.0529 4.91293 20.4623 4.18647 20.444Z" fill="white"/>
</svg>
