<svg width="36" height="39" viewBox="0 0 36 39" fill="none" xmlns="http://www.w3.org/2000/svg">
<path d="M12.7579 20.4962C16.7609 20.4962 20.006 17.2511 20.006 13.2481C20.006 9.24509 16.7609 6 12.7579 6C8.75485 6 5.50977 9.24509 5.50977 13.2481C5.50977 17.2511 8.75485 20.4962 12.7579 20.4962Z" fill="white"/>
<path d="M1.81203 38.6072H23.5563C24.5571 38.6072 25.3684 37.7958 25.3684 36.7951V31.3591C25.3684 27.356 22.1233 24.111 18.1203 24.111H7.24811C3.24514 24.111 0 27.356 0 31.3591V36.7951C0 37.7958 0.811335 38.6072 1.81203 38.6072Z" fill="white"/>
<path d="M23.0205 11.9167C23.0205 12.5126 23.4964 13 24.1021 13H34.9184C35.5133 13 36 12.5126 36 11.9167V1.08333C36 0.476667 35.5133 0 34.9184 0H24.1021C23.4964 0 23.0205 0.476667 23.0205 1.08333V4.29002L20.1217 6.29417C19.9594 6.40254 19.9594 6.64084 20.1217 6.73837L23.0205 8.64504V11.9167ZM29.5427 10.855C28.9478 10.855 28.4611 10.3675 28.4611 9.77169C28.4611 9.17587 28.9478 8.68836 29.5427 8.68836C30.1484 8.68836 30.6243 9.17587 30.6243 9.77169C30.6243 10.3675 30.1484 10.855 29.5427 10.855ZM29.5427 2.13421C31.0644 2.13421 31.7515 4.06496 30.5594 5.02669C30.2566 5.26505 30.0835 5.70919 30.0835 6.24002V7.00921C30.0835 7.31251 29.8455 7.55088 29.5427 7.55088C29.2506 7.55088 29.0019 7.31251 29.0019 7.00921V6.24001C29.0019 5.3842 29.3264 4.6367 29.8888 4.18172C30.2785 3.82675 30.0421 3.21754 29.5427 3.21754C29.2506 3.21754 29.0019 3.45584 29.0019 3.75921C29.0019 4.06251 28.7639 4.30088 28.4611 4.30088C28.169 4.30088 27.9203 4.06251 27.9203 3.75921C27.9203 2.86002 28.6558 2.13421 29.5427 2.13421Z" fill="white"/>
</svg>
