<svg width="320" height="59" viewBox="0 0 320 59" fill="none" xmlns="http://www.w3.org/2000/svg">
<rect x="1" y="1" width="153.85" height="56.6478" rx="10" stroke="white" stroke-width="2"/>
<path d="M54.8825 16.3518C55.6652 16.3518 56.3416 16.4994 56.9115 16.7947C57.4883 17.0831 57.9277 17.4985 58.2298 18.041C58.5388 18.5834 58.6933 19.222 58.6933 19.9567C58.6933 20.6914 58.5388 21.33 58.2298 21.8724C57.9277 22.408 57.4883 22.82 56.9115 23.1084C56.3416 23.3899 55.6652 23.5306 54.8825 23.5306H52.6475V16.3518H54.8825ZM54.8825 22.7582C55.8094 22.7582 56.5167 22.5144 57.0042 22.0269C57.4917 21.5325 57.7355 20.8424 57.7355 19.9567C57.7355 19.064 57.4883 18.3671 56.9939 17.8659C56.5064 17.3646 55.8026 17.114 54.8825 17.114H53.5847V22.7582H54.8825Z" fill="white"/>
<path d="M62.3912 23.6233C61.8625 23.6233 61.3818 23.5032 60.9493 23.2628C60.5235 23.0225 60.1871 22.6826 59.9399 22.2432C59.6996 21.7969 59.5794 21.2819 59.5794 20.6982C59.5794 20.1215 59.703 19.6134 59.9502 19.1739C60.2043 18.7276 60.5476 18.3877 60.9802 18.1542C61.4127 17.9139 61.8968 17.7938 62.4324 17.7938C62.968 17.7938 63.4521 17.9139 63.8846 18.1542C64.3172 18.3877 64.6571 18.7242 64.9043 19.1636C65.1584 19.6031 65.2854 20.1146 65.2854 20.6982C65.2854 21.2819 65.1549 21.7969 64.894 22.2432C64.6399 22.6826 64.2932 23.0225 63.8537 23.2628C63.4143 23.5032 62.9268 23.6233 62.3912 23.6233ZM62.3912 22.7994C62.7277 22.7994 63.0435 22.7204 63.3388 22.5625C63.634 22.4045 63.8709 22.1677 64.0494 21.8518C64.2348 21.5359 64.3275 21.1514 64.3275 20.6982C64.3275 20.2451 64.2383 19.8605 64.0597 19.5447C63.8812 19.2288 63.6478 18.9954 63.3594 18.8443C63.071 18.6864 62.7586 18.6074 62.4221 18.6074C62.0788 18.6074 61.7629 18.6864 61.4745 18.8443C61.193 18.9954 60.9664 19.2288 60.7948 19.5447C60.6231 19.8605 60.5373 20.2451 60.5373 20.6982C60.5373 21.1583 60.6197 21.5462 60.7845 21.8621C60.9561 22.178 61.1827 22.4148 61.4642 22.5728C61.7458 22.7238 62.0547 22.7994 62.3912 22.7994Z" fill="white"/>
<path d="M74.0364 17.8865L72.2752 23.5306H71.307L69.9475 19.0503L68.5879 23.5306H67.6198L65.8482 17.8865H66.8061L68.1039 22.6243L69.5046 17.8865H70.4625L71.8323 22.6346L73.1095 17.8865H74.0364Z" fill="white"/>
<path d="M77.7166 17.7835C78.4032 17.7835 78.9594 17.9929 79.3851 18.4117C79.8108 18.8237 80.0237 19.4211 80.0237 20.2039V23.5306H79.0967V20.3378C79.0967 19.7747 78.956 19.3456 78.6745 19.0503C78.3929 18.7482 78.0084 18.5971 77.5209 18.5971C77.0265 18.5971 76.6317 18.7516 76.3365 19.0606C76.0481 19.3696 75.9039 19.8193 75.9039 20.4099V23.5306H74.9666V17.8865H75.9039V18.6898C76.0893 18.4014 76.3399 18.1783 76.6557 18.0204C76.9785 17.8624 77.3321 17.7835 77.7166 17.7835Z" fill="white"/>
<path d="M82.492 15.9089V23.5306H81.5547V15.9089H82.492Z" fill="white"/>
<path d="M86.551 23.6233C86.0223 23.6233 85.5416 23.5032 85.1091 23.2628C84.6833 23.0225 84.3469 22.6826 84.0997 22.2432C83.8594 21.7969 83.7392 21.2819 83.7392 20.6982C83.7392 20.1215 83.8628 19.6134 84.11 19.1739C84.364 18.7276 84.7074 18.3877 85.1399 18.1542C85.5725 17.9139 86.0566 17.7938 86.5922 17.7938C87.1278 17.7938 87.6119 17.9139 88.0444 18.1542C88.477 18.3877 88.8169 18.7242 89.0641 19.1636C89.3182 19.6031 89.4452 20.1146 89.4452 20.6982C89.4452 21.2819 89.3147 21.7969 89.0538 22.2432C88.7997 22.6826 88.453 23.0225 88.0135 23.2628C87.5741 23.5032 87.0866 23.6233 86.551 23.6233ZM86.551 22.7994C86.8874 22.7994 87.2033 22.7204 87.4986 22.5625C87.7938 22.4045 88.0307 22.1677 88.2092 21.8518C88.3946 21.5359 88.4873 21.1514 88.4873 20.6982C88.4873 20.2451 88.3981 19.8605 88.2195 19.5447C88.041 19.2288 87.8075 18.9954 87.5192 18.8443C87.2308 18.6864 86.9183 18.6074 86.5819 18.6074C86.2386 18.6074 85.9227 18.6864 85.6343 18.8443C85.3528 18.9954 85.1262 19.2288 84.9546 19.5447C84.7829 19.8605 84.6971 20.2451 84.6971 20.6982C84.6971 21.1583 84.7795 21.5462 84.9443 21.8621C85.1159 22.178 85.3425 22.4148 85.624 22.5728C85.9056 22.7238 86.2145 22.7994 86.551 22.7994Z" fill="white"/>
<path d="M90.3273 20.6879C90.3273 20.1112 90.4441 19.6065 90.6775 19.1739C90.911 18.7345 91.2303 18.3946 91.6354 18.1542C92.0474 17.9139 92.504 17.7938 93.0052 17.7938C93.4996 17.7938 93.9287 17.9002 94.2927 18.113C94.6566 18.3259 94.9278 18.5937 95.1063 18.9164V17.8865H96.0539V23.5306H95.1063V22.4801C94.9209 22.8097 94.6429 23.0843 94.2721 23.304C93.9081 23.5169 93.4824 23.6233 92.9949 23.6233C92.4937 23.6233 92.0405 23.4997 91.6354 23.2525C91.2303 23.0054 90.911 22.6586 90.6775 22.2123C90.4441 21.766 90.3273 21.2579 90.3273 20.6879ZM95.1063 20.6982C95.1063 20.2725 95.0205 19.9017 94.8488 19.5859C94.6772 19.27 94.4437 19.0297 94.1485 18.8649C93.8601 18.6933 93.5408 18.6074 93.1906 18.6074C92.8404 18.6074 92.5211 18.6898 92.2327 18.8546C91.9444 19.0194 91.7143 19.2597 91.5427 19.5756C91.371 19.8914 91.2852 20.2622 91.2852 20.6879C91.2852 21.1205 91.371 21.4982 91.5427 21.8209C91.7143 22.1368 91.9444 22.3805 92.2327 22.5522C92.5211 22.717 92.8404 22.7994 93.1906 22.7994C93.5408 22.7994 93.8601 22.717 94.1485 22.5522C94.4437 22.3805 94.6772 22.1368 94.8488 21.8209C95.0205 21.4982 95.1063 21.124 95.1063 20.6982Z" fill="white"/>
<path d="M97.2876 20.6879C97.2876 20.1112 97.4043 19.6065 97.6378 19.1739C97.8712 18.7345 98.1905 18.3946 98.5956 18.1542C99.0076 17.9139 99.4677 17.7938 99.9758 17.7938C100.415 17.7938 100.824 17.8968 101.201 18.1027C101.579 18.3019 101.867 18.5662 102.067 18.8958V15.9089H103.014V23.5306H102.067V22.4698C101.881 22.8062 101.607 23.0843 101.243 23.304C100.879 23.5169 100.453 23.6233 99.9655 23.6233C99.4642 23.6233 99.0076 23.4997 98.5956 23.2525C98.1905 23.0054 97.8712 22.6586 97.6378 22.2123C97.4043 21.766 97.2876 21.2579 97.2876 20.6879ZM102.067 20.6982C102.067 20.2725 101.981 19.9017 101.809 19.5859C101.637 19.27 101.404 19.0297 101.109 18.8649C100.82 18.6933 100.501 18.6074 100.151 18.6074C99.8007 18.6074 99.4814 18.6898 99.193 18.8546C98.9046 19.0194 98.6746 19.2597 98.503 19.5756C98.3313 19.8914 98.2455 20.2622 98.2455 20.6879C98.2455 21.1205 98.3313 21.4982 98.503 21.8209C98.6746 22.1368 98.9046 22.3805 99.193 22.5522C99.4814 22.717 99.8007 22.7994 100.151 22.7994C100.501 22.7994 100.82 22.717 101.109 22.5522C101.404 22.3805 101.637 22.1368 101.809 21.8209C101.981 21.4982 102.067 21.124 102.067 20.6982Z" fill="white"/>
<path d="M109.806 23.6233C109.277 23.6233 108.796 23.5032 108.364 23.2628C107.938 23.0225 107.601 22.6826 107.354 22.2432C107.114 21.7969 106.994 21.2819 106.994 20.6982C106.994 20.1215 107.117 19.6134 107.365 19.1739C107.619 18.7276 107.962 18.3877 108.395 18.1542C108.827 17.9139 109.311 17.7938 109.847 17.7938C110.382 17.7938 110.866 17.9139 111.299 18.1542C111.732 18.3877 112.071 18.7242 112.319 19.1636C112.573 19.6031 112.7 20.1146 112.7 20.6982C112.7 21.2819 112.569 21.7969 112.308 22.2432C112.054 22.6826 111.708 23.0225 111.268 23.2628C110.829 23.5032 110.341 23.6233 109.806 23.6233ZM109.806 22.7994C110.142 22.7994 110.458 22.7204 110.753 22.5625C111.048 22.4045 111.285 22.1677 111.464 21.8518C111.649 21.5359 111.742 21.1514 111.742 20.6982C111.742 20.2451 111.653 19.8605 111.474 19.5447C111.296 19.2288 111.062 18.9954 110.774 18.8443C110.485 18.6864 110.173 18.6074 109.836 18.6074C109.493 18.6074 109.177 18.6864 108.889 18.8443C108.607 18.9954 108.381 19.2288 108.209 19.5447C108.037 19.8605 107.952 20.2451 107.952 20.6982C107.952 21.1583 108.034 21.5462 108.199 21.8621C108.37 22.178 108.597 22.4148 108.879 22.5728C109.16 22.7238 109.469 22.7994 109.806 22.7994Z" fill="white"/>
<path d="M116.682 17.7835C117.369 17.7835 117.925 17.9929 118.351 18.4117C118.776 18.8237 118.989 19.4211 118.989 20.2039V23.5306H118.062V20.3378C118.062 19.7747 117.921 19.3456 117.64 19.0503C117.358 18.7482 116.974 18.5971 116.486 18.5971C115.992 18.5971 115.597 18.7516 115.302 19.0606C115.014 19.3696 114.869 19.8193 114.869 20.4099V23.5306H113.932V17.8865H114.869V18.6898C115.055 18.4014 115.305 18.1783 115.621 18.0204C115.944 17.8624 116.298 17.7835 116.682 17.7835Z" fill="white"/>
<path d="M124.409 18.6589V21.9857C124.409 22.2604 124.468 22.456 124.584 22.5728C124.701 22.6826 124.904 22.7376 125.192 22.7376H125.882V23.5306H125.038C124.516 23.5306 124.124 23.4105 123.863 23.1702C123.603 22.9298 123.472 22.535 123.472 21.9857V18.6589H122.741V17.8865H123.472V16.4651H124.409V17.8865H125.882V18.6589H124.409Z" fill="white"/>
<path d="M129.819 17.7835C130.245 17.7835 130.63 17.8762 130.973 18.0616C131.316 18.2401 131.584 18.5113 131.776 18.8752C131.975 19.2391 132.075 19.682 132.075 20.2039V23.5306H131.148V20.3378C131.148 19.7747 131.007 19.3456 130.726 19.0503C130.444 18.7482 130.06 18.5971 129.572 18.5971C129.078 18.5971 128.683 18.7516 128.388 19.0606C128.099 19.3696 127.955 19.8193 127.955 20.4099V23.5306H127.018V15.9089H127.955V18.6898C128.14 18.4014 128.395 18.1783 128.717 18.0204C129.047 17.8624 129.414 17.7835 129.819 17.7835Z" fill="white"/>
<path d="M138.756 20.4923C138.756 20.6708 138.745 20.8596 138.725 21.0587H134.214C134.248 21.6149 134.437 22.0509 134.78 22.3668C135.13 22.6758 135.553 22.8303 136.047 22.8303C136.452 22.8303 136.788 22.7376 137.056 22.5522C137.331 22.3599 137.523 22.1059 137.633 21.79H138.642C138.491 22.3324 138.189 22.7753 137.736 23.1187C137.283 23.4551 136.72 23.6233 136.047 23.6233C135.511 23.6233 135.031 23.5032 134.605 23.2628C134.186 23.0225 133.857 22.6826 133.616 22.2432C133.376 21.7969 133.256 21.2819 133.256 20.6982C133.256 20.1146 133.372 19.6031 133.606 19.1636C133.839 18.7242 134.166 18.3877 134.584 18.1542C135.01 17.9139 135.498 17.7938 136.047 17.7938C136.582 17.7938 137.056 17.9105 137.468 18.1439C137.88 18.3774 138.196 18.7001 138.416 19.1121C138.642 19.5172 138.756 19.9773 138.756 20.4923ZM137.788 20.2966C137.788 19.9395 137.709 19.634 137.551 19.3799C137.393 19.119 137.176 18.9233 136.902 18.7928C136.634 18.6555 136.335 18.5868 136.006 18.5868C135.532 18.5868 135.127 18.7379 134.79 19.04C134.461 19.3421 134.272 19.761 134.224 20.2966H137.788Z" fill="white"/>
<path d="M58.2529 39.1989H54.6737L54.0815 40.9112H52.189L55.4205 31.9119H57.519L60.7505 40.9112H58.8451L58.2529 39.1989ZM57.7636 37.7569L56.4633 33.9976L55.163 37.7569H57.7636Z" fill="white"/>
<path d="M63.7608 34.8086C63.9926 34.4825 64.3101 34.2121 64.7135 33.9976C65.1255 33.7744 65.5933 33.6628 66.1169 33.6628C66.7262 33.6628 67.2756 33.813 67.7648 34.1134C68.2626 34.4138 68.6531 34.843 68.9364 35.4009C69.2282 35.9502 69.3741 36.5896 69.3741 37.3192C69.3741 38.0487 69.2282 38.6967 68.9364 39.2632C68.6531 39.8211 68.2626 40.2546 67.7648 40.5635C67.2756 40.8725 66.7262 41.027 66.1169 41.027C65.5933 41.027 65.1298 40.9197 64.7264 40.7052C64.3316 40.4906 64.0097 40.2202 63.7608 39.8941V44.31H61.9584V33.7787H63.7608V34.8086ZM67.533 37.3192C67.533 36.89 67.4429 36.521 67.2627 36.212C67.091 35.8944 66.8593 35.6541 66.5675 35.491C66.2842 35.3279 65.9752 35.2464 65.6405 35.2464C65.3143 35.2464 65.0054 35.3322 64.7135 35.5039C64.4303 35.6669 64.1986 35.9073 64.0183 36.2248C63.8467 36.5424 63.7608 36.9158 63.7608 37.3449C63.7608 37.7741 63.8467 38.1474 64.0183 38.465C64.1986 38.7826 64.4303 39.0272 64.7135 39.1989C65.0054 39.3619 65.3143 39.4435 65.6405 39.4435C65.9752 39.4435 66.2842 39.3576 66.5675 39.186C66.8593 39.0143 67.091 38.7697 67.2627 38.4521C67.4429 38.1346 67.533 37.7569 67.533 37.3192Z" fill="white"/>
<path d="M72.4863 34.8086C72.718 34.4825 73.0356 34.2121 73.439 33.9976C73.851 33.7744 74.3188 33.6628 74.8423 33.6628C75.4517 33.6628 76.001 33.813 76.4903 34.1134C76.9881 34.4138 77.3786 34.843 77.6619 35.4009C77.9537 35.9502 78.0996 36.5896 78.0996 37.3192C78.0996 38.0487 77.9537 38.6967 77.6619 39.2632C77.3786 39.8211 76.9881 40.2546 76.4903 40.5635C76.001 40.8725 75.4517 41.027 74.8423 41.027C74.3188 41.027 73.8553 40.9197 73.4519 40.7052C73.0571 40.4906 72.7352 40.2202 72.4863 39.8941V44.31H70.6839V33.7787H72.4863V34.8086ZM76.2585 37.3192C76.2585 36.89 76.1684 36.521 75.9882 36.212C75.8165 35.8944 75.5848 35.6541 75.2929 35.491C75.0097 35.3279 74.7007 35.2464 74.366 35.2464C74.0398 35.2464 73.7308 35.3322 73.439 35.5039C73.1558 35.6669 72.924 35.9073 72.7438 36.2248C72.5721 36.5424 72.4863 36.9158 72.4863 37.3449C72.4863 37.7741 72.5721 38.1474 72.7438 38.465C72.924 38.7826 73.1558 39.0272 73.439 39.1989C73.7308 39.3619 74.0398 39.4435 74.366 39.4435C74.7007 39.4435 75.0097 39.3576 75.2929 39.186C75.5848 39.0143 75.8165 38.7697 75.9882 38.4521C76.1684 38.1346 76.2585 37.7569 76.2585 37.3192Z" fill="white"/>
<path d="M81.2118 31.384V40.9112H79.4094V31.384H81.2118Z" fill="white"/>
<path d="M89.623 37.1904C89.623 37.4479 89.6058 37.6797 89.5715 37.8857H84.3573C84.4002 38.4006 84.5805 38.804 84.898 39.0959C85.2156 39.3877 85.6061 39.5336 86.0696 39.5336C86.7391 39.5336 87.2154 39.2461 87.4987 38.671H89.4427C89.2367 39.3576 88.8419 39.9241 88.2583 40.3704C87.6746 40.8082 86.9579 41.027 86.1082 41.027C85.4216 41.027 84.8036 40.8768 84.2543 40.5764C83.7136 40.2674 83.2887 39.834 82.9797 39.2761C82.6793 38.7182 82.5291 38.0745 82.5291 37.3449C82.5291 36.6068 82.6793 35.9588 82.9797 35.4009C83.2801 34.843 83.7007 34.4138 84.2414 34.1134C84.7822 33.813 85.4044 33.6628 86.1082 33.6628C86.7863 33.6628 87.3914 33.8087 87.9235 34.1006C88.4643 34.3924 88.8805 34.8086 89.1724 35.3494C89.4728 35.8815 89.623 36.4952 89.623 37.1904ZM87.7562 36.6754C87.7476 36.212 87.5802 35.8429 87.2541 35.5682C86.9279 35.285 86.5288 35.1434 86.0567 35.1434C85.6104 35.1434 85.2328 35.2807 84.9238 35.5554C84.6234 35.8214 84.4388 36.1948 84.3702 36.6754H87.7562Z" fill="white"/>
<path d="M97.1091 41.0013C96.4825 41.0013 95.916 40.894 95.4096 40.6794C94.9118 40.4648 94.517 40.1559 94.2252 39.7525C93.9334 39.3491 93.7832 38.8727 93.7746 38.3234H95.7058C95.7315 38.6925 95.8603 38.9843 96.092 39.1989C96.3323 39.4134 96.6585 39.5207 97.0705 39.5207C97.491 39.5207 97.8215 39.422 98.0618 39.2246C98.3021 39.0186 98.4223 38.7525 98.4223 38.4264C98.4223 38.1603 98.3407 37.9414 98.1777 37.7698C98.0146 37.5981 97.8086 37.4651 97.5597 37.3707C97.3194 37.2677 96.9846 37.1561 96.5555 37.0359C95.9718 36.8643 95.4955 36.6969 95.1264 36.5338C94.7659 36.3622 94.4526 36.109 94.1866 35.7742C93.9291 35.4309 93.8003 34.976 93.8003 34.4095C93.8003 33.8774 93.9334 33.4139 94.1994 33.0191C94.4655 32.6243 94.8389 32.3239 95.3195 32.1179C95.8002 31.9033 96.3495 31.796 96.9675 31.796C97.8944 31.796 98.6454 32.0235 99.2205 32.4784C99.8041 32.9247 100.126 33.5512 100.186 34.358H98.2034C98.1862 34.0491 98.0532 33.7959 97.8043 33.5984C97.564 33.3925 97.2421 33.2895 96.8387 33.2895C96.4868 33.2895 96.2036 33.3796 95.989 33.5598C95.783 33.7401 95.68 34.0018 95.68 34.3452C95.68 34.5855 95.7573 34.7872 95.9118 34.9503C96.0748 35.1048 96.2722 35.2335 96.504 35.3365C96.7443 35.4309 97.079 35.5425 97.5082 35.6712C98.0918 35.8429 98.5682 36.0146 98.9373 36.1862C99.3063 36.3579 99.6239 36.6154 99.89 36.9587C100.156 37.302 100.289 37.7526 100.289 38.3105C100.289 38.7912 100.165 39.2375 99.9157 39.6495C99.6668 40.0614 99.302 40.3919 98.8214 40.6408C98.3407 40.8811 97.77 41.0013 97.1091 41.0013Z" fill="white"/>
<path d="M103.95 35.2593V38.7096C103.95 38.9499 104.006 39.1259 104.118 39.2375C104.238 39.3405 104.435 39.392 104.71 39.392H105.547V40.9112H104.414C102.895 40.9112 102.135 40.173 102.135 38.6967V35.2593H101.285V33.7787H102.135V32.0149H103.95V33.7787H105.547V35.2593H103.95Z" fill="white"/>
<path d="M110.01 41.027C109.324 41.027 108.706 40.8768 108.156 40.5764C107.607 40.2674 107.174 39.834 106.856 39.2761C106.547 38.7182 106.392 38.0745 106.392 37.3449C106.392 36.6154 106.551 35.9716 106.869 35.4137C107.195 34.8559 107.637 34.4267 108.195 34.1263C108.753 33.8173 109.375 33.6628 110.062 33.6628C110.748 33.6628 111.371 33.8173 111.929 34.1263C112.486 34.4267 112.924 34.8559 113.242 35.4137C113.568 35.9716 113.731 36.6154 113.731 37.3449C113.731 38.0745 113.564 38.7182 113.229 39.2761C112.903 39.834 112.456 40.2674 111.89 40.5764C111.332 40.8768 110.705 41.027 110.01 41.027ZM110.01 39.4563C110.336 39.4563 110.641 39.3791 110.924 39.2246C111.216 39.0615 111.448 38.8212 111.62 38.5036C111.791 38.1861 111.877 37.7998 111.877 37.3449C111.877 36.6669 111.697 36.1476 111.336 35.7871C110.984 35.418 110.551 35.2335 110.036 35.2335C109.521 35.2335 109.088 35.418 108.736 35.7871C108.392 36.1476 108.221 36.6669 108.221 37.3449C108.221 38.023 108.388 38.5465 108.723 38.9156C109.066 39.2761 109.495 39.4563 110.01 39.4563Z" fill="white"/>
<path d="M116.856 34.8859C117.087 34.5082 117.388 34.2121 117.757 33.9976C118.134 33.783 118.564 33.6757 119.044 33.6757V35.5682H118.568C118.001 35.5682 117.572 35.7013 117.28 35.9674C116.997 36.2334 116.856 36.6969 116.856 37.3578V40.9112H115.053V33.7787H116.856V34.8859Z" fill="white"/>
<path d="M126.889 37.1904C126.889 37.4479 126.871 37.6797 126.837 37.8857H121.623C121.666 38.4006 121.846 38.804 122.164 39.0959C122.481 39.3877 122.872 39.5336 123.335 39.5336C124.005 39.5336 124.481 39.2461 124.764 38.671H126.708C126.502 39.3576 126.108 39.9241 125.524 40.3704C124.94 40.8082 124.224 41.027 123.374 41.027C122.687 41.027 122.069 40.8768 121.52 40.5764C120.979 40.2674 120.554 39.834 120.245 39.2761C119.945 38.7182 119.795 38.0745 119.795 37.3449C119.795 36.6068 119.945 35.9588 120.245 35.4009C120.546 34.843 120.966 34.4138 121.507 34.1134C122.048 33.813 122.67 33.6628 123.374 33.6628C124.052 33.6628 124.657 33.8087 125.189 34.1006C125.73 34.3924 126.146 34.8086 126.438 35.3494C126.738 35.8815 126.889 36.4952 126.889 37.1904ZM125.022 36.6754C125.013 36.212 124.846 35.8429 124.52 35.5682C124.194 35.285 123.794 35.1434 123.322 35.1434C122.876 35.1434 122.498 35.2807 122.189 35.5554C121.889 35.8214 121.704 36.1948 121.636 36.6754H125.022Z" fill="white"/>
<g clip-path="url(#clip0_26_10398)">
<path d="M41.9818 23.7786C41.7892 23.9264 38.3881 25.8207 38.3881 30.0328C38.3881 34.9047 42.7159 36.6283 42.8454 36.671C42.8255 36.776 42.1579 39.0314 40.5636 41.3295C39.142 43.3519 37.6573 45.3709 35.3988 45.3709C33.1402 45.3709 32.559 44.0741 29.9516 44.0741C27.4107 44.0741 26.5073 45.4136 24.4414 45.4136C22.3755 45.4136 20.934 43.5423 19.2766 41.2442C17.3568 38.5456 15.8057 34.3532 15.8057 30.3742C15.8057 23.992 20.004 20.6073 24.1358 20.6073C26.3313 20.6073 28.1614 22.0321 29.5398 22.0321C30.8517 22.0321 32.8977 20.5219 35.3955 20.5219C36.3421 20.5219 39.7432 20.6073 41.9818 23.7786ZM34.2097 17.82C35.2427 16.6086 35.9734 14.9277 35.9734 13.2468C35.9734 13.0137 35.9535 12.7773 35.9103 12.5869C34.2296 12.6493 32.2301 13.6933 31.0245 15.0754C30.0778 16.1391 29.1943 17.82 29.1943 19.5239C29.1943 19.78 29.2375 20.036 29.2575 20.1181C29.3637 20.1378 29.5365 20.1608 29.7092 20.1608C31.2171 20.1608 33.1136 19.1628 34.2097 17.82Z" fill="white"/>
</g>
<rect x="174.162" y="1" width="144.838" height="56.6478" rx="10" stroke="white" stroke-width="2"/>
<path d="M231.891 18.4321C231.692 18.0132 231.403 17.6905 231.026 17.4639C230.648 17.2305 230.209 17.1137 229.707 17.1137C229.206 17.1137 228.753 17.2305 228.348 17.4639C227.95 17.6905 227.634 18.0201 227.4 18.4527C227.174 18.8784 227.06 19.3728 227.06 19.9358C227.06 20.4989 227.174 20.9932 227.4 21.419C227.634 21.8447 227.95 22.1743 228.348 22.4077C228.753 22.6343 229.206 22.7476 229.707 22.7476C230.408 22.7476 230.985 22.5382 231.438 22.1193C231.891 21.7005 232.155 21.134 232.231 20.4199H229.368V19.6577H233.23V20.3787C233.175 20.9692 232.99 21.5117 232.674 22.006C232.358 22.4935 231.942 22.8815 231.427 23.1699C230.912 23.4514 230.339 23.5922 229.707 23.5922C229.041 23.5922 228.434 23.4377 227.884 23.1287C227.335 22.8128 226.899 22.3768 226.576 21.8206C226.26 21.2645 226.103 20.6362 226.103 19.9358C226.103 19.2354 226.26 18.6072 226.576 18.051C226.899 17.4879 227.335 17.0519 227.884 16.7429C228.434 16.4271 229.041 16.2692 229.707 16.2692C230.47 16.2692 231.142 16.458 231.726 16.8356C232.317 17.2133 232.746 17.7454 233.014 18.4321H231.891Z" fill="white"/>
<path d="M239.619 20.492C239.619 20.6705 239.609 20.8593 239.588 21.0585H235.077C235.111 21.6147 235.3 22.0507 235.643 22.3665C235.993 22.6755 236.416 22.83 236.91 22.83C237.315 22.83 237.652 22.7373 237.919 22.5519C238.194 22.3597 238.386 22.1056 238.496 21.7897H239.506C239.355 22.3322 239.052 22.7751 238.599 23.1184C238.146 23.4548 237.583 23.6231 236.91 23.6231C236.375 23.6231 235.894 23.5029 235.468 23.2626C235.049 23.0223 234.72 22.6824 234.479 22.2429C234.239 21.7966 234.119 21.2816 234.119 20.698C234.119 20.1143 234.236 19.6028 234.469 19.1633C234.703 18.7239 235.029 18.3874 235.448 18.154C235.873 17.9137 236.361 17.7935 236.91 17.7935C237.446 17.7935 237.919 17.9102 238.331 18.1437C238.743 18.3771 239.059 18.6999 239.279 19.1118C239.506 19.517 239.619 19.977 239.619 20.492ZM238.651 20.2963C238.651 19.9392 238.572 19.6337 238.414 19.3796C238.256 19.1187 238.04 18.923 237.765 18.7926C237.497 18.6552 237.199 18.5866 236.869 18.5866C236.395 18.5866 235.99 18.7376 235.654 19.0398C235.324 19.3419 235.135 19.7607 235.087 20.2963H238.651Z" fill="white"/>
<path d="M241.999 18.6587V21.9854C241.999 22.2601 242.058 22.4558 242.174 22.5725C242.291 22.6824 242.494 22.7373 242.782 22.7373H243.472V23.5304H242.628C242.106 23.5304 241.714 23.4102 241.453 23.1699C241.193 22.9296 241.062 22.5347 241.062 21.9854V18.6587H240.331V17.8862H241.062V16.4649H241.999V17.8862H243.472V18.6587H241.999Z" fill="white"/>
<path d="M247.838 16.9695C247.659 16.9695 247.508 16.9077 247.385 16.7841C247.261 16.6605 247.199 16.5095 247.199 16.331C247.199 16.1524 247.261 16.0014 247.385 15.8778C247.508 15.7542 247.659 15.6924 247.838 15.6924C248.009 15.6924 248.154 15.7542 248.27 15.8778C248.394 16.0014 248.456 16.1524 248.456 16.331C248.456 16.5095 248.394 16.6605 248.27 16.7841C248.154 16.9077 248.009 16.9695 247.838 16.9695ZM248.291 17.8862V23.5304H247.354V17.8862H248.291Z" fill="white"/>
<path d="M251.032 18.6587V21.9854C251.032 22.2601 251.09 22.4558 251.207 22.5725C251.323 22.6824 251.526 22.7373 251.814 22.7373H252.504V23.5304H251.66C251.138 23.5304 250.747 23.4102 250.486 23.1699C250.225 22.9296 250.094 22.5347 250.094 21.9854V18.6587H249.363V17.8862H250.094V16.4649H251.032V17.8862H252.504V18.6587H251.032Z" fill="white"/>
<path d="M258.848 23.6231C258.319 23.6231 257.838 23.5029 257.406 23.2626C256.98 23.0223 256.643 22.6824 256.396 22.2429C256.156 21.7966 256.036 21.2816 256.036 20.698C256.036 20.1212 256.159 19.6131 256.407 19.1736C256.661 18.7273 257.004 18.3874 257.436 18.154C257.869 17.9137 258.353 17.7935 258.889 17.7935C259.424 17.7935 259.908 17.9137 260.341 18.154C260.774 18.3874 261.113 18.7239 261.361 19.1633C261.615 19.6028 261.742 20.1143 261.742 20.698C261.742 21.2816 261.611 21.7966 261.35 22.2429C261.096 22.6824 260.75 23.0223 260.31 23.2626C259.871 23.5029 259.383 23.6231 258.848 23.6231ZM258.848 22.7991C259.184 22.7991 259.5 22.7201 259.795 22.5622C260.09 22.4043 260.327 22.1674 260.506 21.8515C260.691 21.5357 260.784 21.1512 260.784 20.698C260.784 20.2448 260.695 19.8603 260.516 19.5444C260.338 19.2286 260.104 18.9951 259.816 18.8441C259.527 18.6861 259.215 18.6072 258.878 18.6072C258.535 18.6072 258.219 18.6861 257.931 18.8441C257.649 18.9951 257.423 19.2286 257.251 19.5444C257.079 19.8603 256.994 20.2448 256.994 20.698C256.994 21.158 257.076 21.546 257.241 21.8618C257.412 22.1777 257.639 22.4146 257.921 22.5725C258.202 22.7236 258.511 22.7991 258.848 22.7991Z" fill="white"/>
<path d="M265.724 17.7832C266.411 17.7832 266.967 17.9926 267.393 18.4115C267.818 18.8235 268.031 19.4208 268.031 20.2036V23.5304H267.104V20.3375C267.104 19.7745 266.963 19.3453 266.682 19.0501C266.4 18.7479 266.016 18.5969 265.528 18.5969C265.034 18.5969 264.639 18.7514 264.344 19.0604C264.056 19.3693 263.911 19.8191 263.911 20.4096V23.5304H262.974V17.8862H263.911V18.6896C264.097 18.4012 264.347 18.178 264.663 18.0201C264.986 17.8622 265.34 17.7832 265.724 17.7832Z" fill="white"/>
<path d="M232.805 34.6284C232.599 34.2508 232.316 33.9632 231.955 33.7658C231.595 33.5684 231.174 33.4697 230.694 33.4697C230.162 33.4697 229.689 33.5899 229.277 33.8302C228.865 34.0705 228.544 34.4138 228.312 34.8601C228.08 35.3065 227.964 35.8214 227.964 36.4051C227.964 37.0059 228.08 37.5295 228.312 37.9758C228.552 38.4221 228.883 38.7654 229.303 39.0057C229.724 39.2461 230.213 39.3662 230.771 39.3662C231.458 39.3662 232.02 39.186 232.457 38.8255C232.895 38.4564 233.183 37.9457 233.32 37.2934H230.23V35.9159H235.097V37.4865C234.977 38.1131 234.719 38.6925 234.324 39.2246C233.929 39.7567 233.419 40.1859 232.792 40.512C232.174 40.8296 231.479 40.9884 230.707 40.9884C229.84 40.9884 229.054 40.7953 228.351 40.4091C227.655 40.0142 227.106 39.4692 226.703 38.774C226.308 38.0788 226.11 37.2891 226.11 36.4051C226.11 35.521 226.308 34.7314 226.703 34.0362C227.106 33.3324 227.655 32.7874 228.351 32.4011C229.054 32.0063 229.835 31.8089 230.694 31.8089C231.706 31.8089 232.586 32.0578 233.333 32.5556C234.08 33.0448 234.595 33.7358 234.878 34.6284H232.805Z" fill="white"/>
<path d="M239.597 41.027C238.911 41.027 238.293 40.8768 237.743 40.5764C237.194 40.2674 236.761 39.834 236.443 39.2761C236.134 38.7182 235.98 38.0745 235.98 37.3449C235.98 36.6154 236.138 35.9716 236.456 35.4137C236.782 34.8559 237.224 34.4267 237.782 34.1263C238.34 33.8173 238.962 33.6628 239.649 33.6628C240.336 33.6628 240.958 33.8173 241.516 34.1263C242.074 34.4267 242.511 34.8559 242.829 35.4137C243.155 35.9716 243.318 36.6154 243.318 37.3449C243.318 38.0745 243.151 38.7182 242.816 39.2761C242.49 39.834 242.044 40.2674 241.477 40.5764C240.919 40.8768 240.293 41.027 239.597 41.027ZM239.597 39.4563C239.924 39.4563 240.228 39.3791 240.511 39.2246C240.803 39.0615 241.035 38.8212 241.207 38.5036C241.378 38.1861 241.464 37.7998 241.464 37.3449C241.464 36.6669 241.284 36.1476 240.923 35.7871C240.572 35.418 240.138 35.2335 239.623 35.2335C239.108 35.2335 238.675 35.418 238.323 35.7871C237.979 36.1476 237.808 36.6669 237.808 37.3449C237.808 38.023 237.975 38.5465 238.31 38.9156C238.653 39.2761 239.082 39.4563 239.597 39.4563Z" fill="white"/>
<path d="M247.807 41.027C247.121 41.027 246.503 40.8768 245.953 40.5764C245.404 40.2674 244.971 39.834 244.653 39.2761C244.344 38.7182 244.19 38.0745 244.19 37.3449C244.19 36.6154 244.348 35.9716 244.666 35.4137C244.992 34.8559 245.434 34.4267 245.992 34.1263C246.55 33.8173 247.172 33.6628 247.859 33.6628C248.546 33.6628 249.168 33.8173 249.726 34.1263C250.284 34.4267 250.721 34.8559 251.039 35.4137C251.365 35.9716 251.528 36.6154 251.528 37.3449C251.528 38.0745 251.361 38.7182 251.026 39.2761C250.7 39.834 250.254 40.2674 249.687 40.5764C249.129 40.8768 248.503 41.027 247.807 41.027ZM247.807 39.4563C248.134 39.4563 248.438 39.3791 248.721 39.2246C249.013 39.0615 249.245 38.8212 249.417 38.5036C249.588 38.1861 249.674 37.7998 249.674 37.3449C249.674 36.6669 249.494 36.1476 249.133 35.7871C248.782 35.418 248.348 35.2335 247.833 35.2335C247.318 35.2335 246.885 35.418 246.533 35.7871C246.189 36.1476 246.018 36.6669 246.018 37.3449C246.018 38.023 246.185 38.5465 246.52 38.9156C246.863 39.2761 247.292 39.4563 247.807 39.4563Z" fill="white"/>
<path d="M255.644 33.6628C256.176 33.6628 256.644 33.7701 257.047 33.9847C257.451 34.1907 257.768 34.461 258 34.7958V33.7787H259.815V40.9627C259.815 41.6235 259.682 42.2115 259.416 42.7265C259.15 43.25 258.751 43.662 258.219 43.9624C257.687 44.2714 257.043 44.4259 256.288 44.4259C255.275 44.4259 254.442 44.1899 253.79 43.7178C253.146 43.2457 252.782 42.602 252.696 41.7866H254.485C254.58 42.1128 254.781 42.3703 255.09 42.5591C255.408 42.7565 255.79 42.8552 256.236 42.8552C256.76 42.8552 257.185 42.6964 257.511 42.3789C257.837 42.0699 258 41.5978 258 40.9627V39.8555C257.768 40.1902 257.446 40.4691 257.034 40.6923C256.631 40.9155 256.168 41.027 255.644 41.027C255.043 41.027 254.494 40.8725 253.996 40.5635C253.498 40.2546 253.103 39.8211 252.812 39.2632C252.528 38.6967 252.387 38.0487 252.387 37.3192C252.387 36.5982 252.528 35.9588 252.812 35.4009C253.103 34.843 253.494 34.4138 253.983 34.1134C254.481 33.813 255.035 33.6628 255.644 33.6628ZM258 37.3449C258 36.9072 257.914 36.5338 257.743 36.2248C257.571 35.9073 257.339 35.6669 257.047 35.5039C256.756 35.3322 256.442 35.2464 256.108 35.2464C255.773 35.2464 255.464 35.3279 255.181 35.491C254.897 35.6541 254.666 35.8944 254.485 36.212C254.314 36.521 254.228 36.89 254.228 37.3192C254.228 37.7483 254.314 38.126 254.485 38.4521C254.666 38.7697 254.897 39.0143 255.181 39.186C255.472 39.3576 255.781 39.4435 256.108 39.4435C256.442 39.4435 256.756 39.3619 257.047 39.1989C257.339 39.0272 257.571 38.7869 257.743 38.4779C257.914 38.1603 258 37.7827 258 37.3449Z" fill="white"/>
<path d="M263.378 31.384V40.9112H261.576V31.384H263.378Z" fill="white"/>
<path d="M271.789 37.1904C271.789 37.4479 271.772 37.6797 271.738 37.8857H266.524C266.567 38.4006 266.747 38.804 267.064 39.0959C267.382 39.3877 267.773 39.5336 268.236 39.5336C268.905 39.5336 269.382 39.2461 269.665 38.671H271.609C271.403 39.3576 271.008 39.9241 270.425 40.3704C269.841 40.8082 269.124 41.027 268.275 41.027C267.588 41.027 266.97 40.8768 266.421 40.5764C265.88 40.2674 265.455 39.834 265.146 39.2761C264.846 38.7182 264.696 38.0745 264.696 37.3449C264.696 36.6068 264.846 35.9588 265.146 35.4009C265.447 34.843 265.867 34.4138 266.408 34.1134C266.949 33.813 267.571 33.6628 268.275 33.6628C268.953 33.6628 269.558 33.8087 270.09 34.1006C270.631 34.3924 271.047 34.8086 271.339 35.3494C271.639 35.8815 271.789 36.4952 271.789 37.1904ZM269.923 36.6754C269.914 36.212 269.747 35.8429 269.42 35.5682C269.094 35.285 268.695 35.1434 268.223 35.1434C267.777 35.1434 267.399 35.2807 267.09 35.5554C266.79 35.8214 266.605 36.1948 266.537 36.6754H269.923Z" fill="white"/>
<path d="M282.726 34.7057C282.726 35.1863 282.61 35.6369 282.378 36.0575C282.155 36.478 281.799 36.8171 281.31 37.0746C280.829 37.332 280.22 37.4608 279.481 37.4608H277.975V40.9112H276.173V31.9248H279.481C280.177 31.9248 280.769 32.0449 281.258 32.2852C281.747 32.5256 282.112 32.856 282.352 33.2766C282.601 33.6972 282.726 34.1735 282.726 34.7057ZM279.404 36.006C279.902 36.006 280.271 35.8944 280.511 35.6712C280.752 35.4395 280.872 35.1176 280.872 34.7057C280.872 33.8302 280.383 33.3925 279.404 33.3925H277.975V36.006H279.404Z" fill="white"/>
<path d="M285.808 31.384V40.9112H284.006V31.384H285.808Z" fill="white"/>
<path d="M287.125 37.3192C287.125 36.5982 287.267 35.9588 287.55 35.4009C287.842 34.843 288.233 34.4138 288.722 34.1134C289.22 33.813 289.773 33.6628 290.383 33.6628C290.915 33.6628 291.378 33.7701 291.773 33.9847C292.176 34.1993 292.498 34.4696 292.739 34.7958V33.7787H294.554V40.9112H292.739V39.8683C292.507 40.2031 292.185 40.482 291.773 40.7052C291.37 40.9197 290.902 41.027 290.37 41.027C289.769 41.027 289.22 40.8725 288.722 40.5635C288.233 40.2546 287.842 39.8211 287.55 39.2632C287.267 38.6967 287.125 38.0487 287.125 37.3192ZM292.739 37.3449C292.739 36.9072 292.653 36.5338 292.481 36.2248C292.309 35.9073 292.078 35.6669 291.786 35.5039C291.494 35.3322 291.181 35.2464 290.846 35.2464C290.511 35.2464 290.202 35.3279 289.919 35.491C289.636 35.6541 289.404 35.8944 289.224 36.212C289.052 36.521 288.966 36.89 288.966 37.3192C288.966 37.7483 289.052 38.126 289.224 38.4521C289.404 38.7697 289.636 39.0143 289.919 39.186C290.211 39.3576 290.52 39.4435 290.846 39.4435C291.181 39.4435 291.494 39.3619 291.786 39.1989C292.078 39.0272 292.309 38.7869 292.481 38.4779C292.653 38.1603 292.739 37.7827 292.739 37.3449Z" fill="white"/>
<path d="M303.138 33.7787L298.722 44.2843H296.803L298.348 40.7309L295.49 33.7787H297.512L299.353 38.7611L301.219 33.7787H303.138Z" fill="white"/>
<path d="M189.611 16.296V41.7069C189.611 41.7621 189.628 41.8159 189.659 41.8617C189.689 41.9076 189.733 41.9433 189.784 41.9645C189.835 41.9857 189.891 41.9914 189.945 41.9809C189.999 41.9704 190.049 41.9441 190.088 41.9054L203.319 29.0021L190.088 16.0975C190.049 16.0587 189.999 16.0325 189.945 16.022C189.891 16.0115 189.835 16.0172 189.784 16.0384C189.733 16.0596 189.689 16.0953 189.659 16.1411C189.628 16.187 189.611 16.2408 189.611 16.296Z" fill="white"/>
<path d="M208.867 23.6998L192.276 14.5596L192.266 14.5538C191.98 14.3986 191.709 14.7853 191.943 15.0103L204.948 27.4455L208.867 23.6998Z" fill="white"/>
<path d="M191.944 42.9934C191.709 43.2184 191.981 43.6051 192.268 43.4499L192.278 43.4441L208.867 34.3039L204.948 30.5569L191.944 42.9934Z" fill="white"/>
<path d="M215.564 27.3857L210.931 24.8342L206.575 29.0021L210.931 33.1681L215.564 30.6186C216.824 29.9222 216.824 28.082 215.564 27.3857Z" fill="white"/>
<defs>
<clipPath id="clip0_26_10398">
<rect width="27.0364" height="32.83" fill="white" transform="translate(15.8057 12.5869)"/>
</clipPath>
</defs>
</svg>
