<svg width="1920" height="119" viewBox="0 0 1920 119" fill="none" xmlns="http://www.w3.org/2000/svg">
<path d="M1920 0H0V119H1920V0Z" fill="black"/>
<mask id="mask0_1_2" style="mask-type:luminance" maskUnits="userSpaceOnUse" x="-197" y="59" width="560" height="2">
<path d="M362.998 59H-197V60.499H362.998V59Z" fill="white"/>
</mask>
<g mask="url(#mask0_1_2)">
<path d="M317.998 59H298V60.499H317.998V59ZM272.998 59H253V60.499H272.998V59ZM227.998 59H208V60.499H227.998V59ZM182.998 59H163V60.499H182.998V59ZM137.998 59H118V60.499H137.998V59ZM92.998 59H73V60.499H92.998V59ZM47.998 59H28V60.499H47.998V59ZM2.998 59H-17V60.499H2.998V59ZM-42.002 59H-62V60.499H-42.002V59ZM-87.002 59H-107V60.499H-87.002V59ZM-132.002 59H-152V60.499H-132.002V59ZM-177.002 59H-197V60.499H-177.002V59ZM362.998 59H343V60.499H362.998V59Z" fill="white"/>
</g>
<mask id="mask1_1_2" style="mask-type:luminance" maskUnits="userSpaceOnUse" x="393" y="59" width="560" height="2">
<path d="M952.998 59H393V60.499H952.998V59Z" fill="white"/>
</mask>
<g mask="url(#mask1_1_2)">
<path d="M907.998 59H888V60.499H907.998V59ZM862.998 59H843V60.499H862.998V59ZM817.998 59H798V60.499H817.998V59ZM772.998 59H753V60.499H772.998V59ZM727.998 59H708V60.499H727.998V59ZM682.998 59H663V60.499H682.998V59ZM637.998 59H618V60.499H637.998V59ZM592.998 59H573V60.499H592.998V59ZM547.998 59H528V60.499H547.998V59ZM502.998 59H483V60.499H502.998V59ZM457.998 59H438V60.499H457.998V59ZM412.998 59H393V60.499H412.998V59ZM952.998 59H933V60.499H952.998V59Z" fill="white"/>
</g>
<mask id="mask2_1_2" style="mask-type:luminance" maskUnits="userSpaceOnUse" x="973" y="59" width="560" height="2">
<path d="M1533 59H973V60.499H1533V59Z" fill="white"/>
</mask>
<g mask="url(#mask2_1_2)">
<path d="M1488 59H1468V60.499H1488V59ZM1443 59H1423V60.499H1443V59ZM1398 59H1378V60.499H1398V59ZM1353 59H1333V60.499H1353V59ZM1308 59H1288V60.499H1308V59ZM1263 59H1243V60.499H1263V59ZM1218 59H1198V60.499H1218V59ZM1173 59H1153V60.499H1173V59ZM1128 59H1108V60.499H1128V59ZM1083 59H1063V60.499H1083V59ZM1038 59H1018V60.499H1038V59ZM992.998 59H973V60.499H992.998V59ZM1533 59H1513V60.499H1533V59Z" fill="white"/>
</g>
<mask id="mask3_1_2" style="mask-type:luminance" maskUnits="userSpaceOnUse" x="1558" y="59" width="560" height="2">
<path d="M2118 59H1558V60.499H2118V59Z" fill="white"/>
</mask>
<g mask="url(#mask3_1_2)">
<path d="M2073 59H2053V60.499H2073V59ZM2028 59H2008V60.499H2028V59ZM1983 59H1963V60.499H1983V59ZM1938 59H1918V60.499H1938V59ZM1893 59H1873V60.499H1893V59ZM1848 59H1828V60.499H1848V59ZM1803 59H1783V60.499H1803V59ZM1758 59H1738V60.499H1758V59ZM1713 59H1693V60.499H1713V59ZM1668 59H1648V60.499H1668V59ZM1623 59H1603V60.499H1623V59ZM1578 59H1558V60.499H1578V59ZM2118 59H2098V60.499H2118V59Z" fill="white"/>
</g>
</svg>
