<svg width="386" height="271" viewBox="0 0 386 271" fill="none" xmlns="http://www.w3.org/2000/svg">
<g clip-path="url(#clip0_50_185)">
<path d="M337.584 48.9196C344.899 69.433 344.234 92.7524 339.3 113.612C329.578 154.938 303.393 192.141 267.732 215.208C232.072 238.274 187.428 246.972 145.749 238.9C125.176 234.91 104.909 226.731 89.7746 212.235C67.1001 190.505 57.6646 154.652 66.0429 124.463C70.3411 109.216 78.7596 95.448 90.373 84.6734C103.007 72.9571 120.821 68.2627 135.802 60.1371C157.924 48.1682 175.977 29.6829 197.841 17.2152C219.225 5.0269 244.313 -1.1105 268.763 1.65565C291.152 4.18907 320.15 15.7856 331.839 36.3323C334.115 40.3537 336.038 44.5653 337.584 48.9196Z" fill="#6F89F0"/>
<path opacity="0.7" d="M337.584 48.9196C344.899 69.433 344.234 92.7524 339.3 113.612C329.578 154.938 303.393 192.141 267.732 215.208C232.072 238.274 187.428 246.972 145.749 238.9C125.176 234.91 104.909 226.731 89.7746 212.235C67.1001 190.505 57.6646 154.652 66.0429 124.463C70.3411 109.216 78.7596 95.448 90.373 84.6734C103.007 72.9571 120.821 68.2627 135.802 60.1371C157.924 48.1682 175.977 29.6829 197.841 17.2152C219.225 5.0269 244.313 -1.1105 268.763 1.65565C291.152 4.18907 320.15 15.7856 331.839 36.3323C334.115 40.3537 336.038 44.5653 337.584 48.9196Z" fill="white"/>
<path d="M363 253.023H56V253.177H363V253.023Z" fill="#EBEBEB"/>
<path d="M162.357 256.941H148.125V257.094H162.357V256.941Z" fill="#EBEBEB"/>
<path d="M337.685 260.232H302.889V260.385H337.685V260.232Z" fill="#EBEBEB"/>
<path d="M117.025 260.232H82.2301V260.385H117.025V260.232Z" fill="#EBEBEB"/>
<path d="M201.518 225.639H82.9608C82.032 225.638 81.1418 225.267 80.4856 224.61C79.8295 223.953 79.461 223.062 79.461 222.133V55.4752C79.469 54.5517 79.8411 53.6688 80.4964 53.0181C81.1517 52.3674 82.0373 52.0015 82.9608 51.9999H201.518C202.448 51.9999 203.34 52.3693 203.997 53.0268C204.655 53.6843 205.024 54.576 205.024 55.5059V222.133C205.024 223.063 204.655 223.955 203.997 224.612C203.34 225.27 202.448 225.639 201.518 225.639ZM82.9608 52.1227C82.0727 52.1244 81.2216 52.4783 80.5942 53.1068C79.9668 53.7353 79.6145 54.5871 79.6145 55.4752V222.133C79.6145 223.021 79.9668 223.873 80.5942 224.502C81.2216 225.13 82.0727 225.484 82.9608 225.486H201.518C202.406 225.482 203.257 225.128 203.885 224.5C204.513 223.872 204.867 223.021 204.87 222.133V55.4752C204.867 54.5871 204.513 53.7362 203.885 53.1082C203.257 52.4802 202.406 52.126 201.518 52.1227H82.9608Z" fill="#EBEBEB"/>
<path d="M334.332 225.639H215.769C214.84 225.636 213.95 225.266 213.293 224.609C212.637 223.952 212.266 223.062 212.263 222.133V55.4752C212.273 54.5512 212.646 53.6682 213.302 53.0177C213.959 52.3672 214.845 52.0015 215.769 51.9999H334.332C335.255 52.0031 336.139 52.3697 336.793 53.0202C337.447 53.6708 337.818 54.5528 337.826 55.4752V222.133C337.827 222.593 337.737 223.048 337.562 223.473C337.387 223.898 337.13 224.284 336.805 224.61C336.481 224.935 336.096 225.194 335.671 225.37C335.247 225.547 334.792 225.638 334.332 225.639ZM215.769 52.1227C214.881 52.126 214.03 52.4802 213.402 53.1082C212.774 53.7362 212.42 54.5871 212.417 55.4752V222.133C212.42 223.021 212.774 223.872 213.402 224.5C214.03 225.128 214.881 225.482 215.769 225.486H334.332C335.22 225.482 336.071 225.128 336.699 224.5C337.327 223.872 337.682 223.021 337.685 222.133V55.4752C337.682 54.5871 337.327 53.7362 336.699 53.1082C336.071 52.4802 335.22 52.126 334.332 52.1227H215.769Z" fill="#EBEBEB"/>
<path d="M116.602 98.3016H167.748C168.263 98.3008 168.772 98.4016 169.248 98.5982C169.724 98.7948 170.156 99.0833 170.52 99.4472C170.884 99.8111 171.172 100.243 171.369 100.719C171.565 101.195 171.666 101.704 171.665 102.219V252.882H112.721V102.213C112.723 101.181 113.131 100.192 113.858 99.4598C114.584 98.7275 115.57 98.3113 116.602 98.3016Z" fill="#F5F5F5"/>
<path d="M125.186 107.432H117.584V124.354H125.186V107.432Z" fill="#EBEBEB"/>
<path d="M166.753 107.432H159.152V124.354H166.753V107.432Z" fill="#EBEBEB"/>
<path d="M139.037 107.432H131.436V124.354H139.037V107.432Z" fill="#EBEBEB"/>
<path d="M152.895 107.432H145.294V124.354H152.895V107.432Z" fill="#EBEBEB"/>
<path d="M125.186 134.147H117.584V151.069H125.186V134.147Z" fill="#EBEBEB"/>
<path d="M166.753 134.147H159.152V151.069H166.753V134.147Z" fill="#EBEBEB"/>
<path d="M139.037 134.147H131.436V151.069H139.037V134.147Z" fill="#EBEBEB"/>
<path d="M152.895 134.147H145.294V151.069H152.895V134.147Z" fill="#EBEBEB"/>
<path d="M125.186 160.856H117.584V177.778H125.186V160.856Z" fill="#EBEBEB"/>
<path d="M166.753 160.856H159.152V177.778H166.753V160.856Z" fill="#EBEBEB"/>
<path d="M139.037 160.856H131.436V177.778H139.037V160.856Z" fill="#EBEBEB"/>
<path d="M152.895 160.856H145.294V177.778H152.895V160.856Z" fill="#EBEBEB"/>
<path d="M125.186 187.571H117.584V204.493H125.186V187.571Z" fill="#EBEBEB"/>
<path d="M166.753 187.571H159.152V204.493H166.753V187.571Z" fill="#EBEBEB"/>
<path d="M139.037 187.571H131.436V204.493H139.037V187.571Z" fill="#EBEBEB"/>
<path d="M152.895 187.571H145.294V204.493H152.895V187.571Z" fill="#EBEBEB"/>
<path d="M125.186 214.28H117.584V231.202H125.186V214.28Z" fill="#EBEBEB"/>
<path d="M166.753 214.28H159.152V231.202H166.753V214.28Z" fill="#EBEBEB"/>
<path d="M139.037 214.28H131.436V231.202H139.037V214.28Z" fill="#EBEBEB"/>
<path d="M152.895 214.28H145.294V231.202H152.895V214.28Z" fill="#EBEBEB"/>
<path d="M297.879 112.344H334.498C335.343 112.345 336.152 112.682 336.75 113.279C337.347 113.876 337.683 114.686 337.685 115.531V252.882H294.705V115.537C294.705 114.693 295.039 113.884 295.633 113.286C296.228 112.687 297.036 112.349 297.879 112.344Z" fill="#F5F5F5"/>
<path d="M307.077 120.651H300.169V136.032H307.077V120.651Z" fill="#EBEBEB"/>
<path d="M319.676 120.651H312.769V136.032H319.676V120.651Z" fill="#EBEBEB"/>
<path d="M332.269 120.651H325.362V136.032H332.269V120.651Z" fill="#EBEBEB"/>
<path d="M307.077 144.935H300.169V160.316H307.077V144.935Z" fill="#EBEBEB"/>
<path d="M319.676 144.935H312.769V160.316H319.676V144.935Z" fill="#EBEBEB"/>
<path d="M332.269 144.935H325.362V160.316H332.269V144.935Z" fill="#EBEBEB"/>
<path d="M307.077 169.225H300.169V184.605H307.077V169.225Z" fill="#EBEBEB"/>
<path d="M319.676 169.225H312.769V184.605H319.676V169.225Z" fill="#EBEBEB"/>
<path d="M332.269 169.225H325.362V184.605H332.269V169.225Z" fill="#EBEBEB"/>
<path d="M307.077 193.502H300.169V208.883H307.077V193.502Z" fill="#EBEBEB"/>
<path d="M319.676 193.502H312.769V208.883H319.676V193.502Z" fill="#EBEBEB"/>
<path d="M332.269 193.502H325.362V208.883H332.269V193.502Z" fill="#EBEBEB"/>
<path d="M307.077 217.792H300.169V233.173H307.077V217.792Z" fill="#EBEBEB"/>
<path d="M319.676 217.792H312.769V233.173H319.676V217.792Z" fill="#EBEBEB"/>
<path d="M332.269 217.792H325.362V233.173H332.269V217.792Z" fill="#EBEBEB"/>
<path d="M213.988 73.0356H273.473C274.681 73.0356 275.84 73.5156 276.694 74.37C277.549 75.2244 278.029 76.3832 278.029 77.5915V252.882H209.439V77.5915C209.439 76.3842 209.918 75.2264 210.771 74.3721C211.624 73.5179 212.781 73.0372 213.988 73.0356Z" fill="#F5F5F5"/>
<path d="M223.972 83.6639H215.13V103.349H223.972V83.6639Z" fill="#EBEBEB"/>
<path d="M272.331 83.6639H263.489V103.349H272.331V83.6639Z" fill="#EBEBEB"/>
<path d="M240.089 83.6639H231.248V103.349H240.089V83.6639Z" fill="#EBEBEB"/>
<path d="M256.213 83.6639H247.372V103.349H256.213V83.6639Z" fill="#EBEBEB"/>
<path d="M223.972 114.745H215.13V134.429H223.972V114.745Z" fill="#EBEBEB"/>
<path d="M272.331 114.745H263.489V134.429H272.331V114.745Z" fill="#EBEBEB"/>
<path d="M240.089 114.745H231.248V134.429H240.089V114.745Z" fill="#EBEBEB"/>
<path d="M256.213 114.745H247.372V134.429H256.213V114.745Z" fill="#EBEBEB"/>
<path d="M223.972 145.825H215.13V165.51H223.972V145.825Z" fill="#EBEBEB"/>
<path d="M272.331 145.825H263.489V165.51H272.331V145.825Z" fill="#EBEBEB"/>
<path d="M240.089 145.825H231.248V165.51H240.089V145.825Z" fill="#EBEBEB"/>
<path d="M256.213 145.825H247.372V165.51H256.213V145.825Z" fill="#EBEBEB"/>
<path d="M223.972 176.9H215.13V196.585H223.972V176.9Z" fill="#EBEBEB"/>
<path d="M272.331 176.9H263.489V196.585H272.331V176.9Z" fill="#EBEBEB"/>
<path d="M240.089 176.9H231.248V196.585H240.089V176.9Z" fill="#EBEBEB"/>
<path d="M256.213 176.9H247.372V196.585H256.213V176.9Z" fill="#EBEBEB"/>
<path d="M223.972 207.974H215.13V227.659H223.972V207.974Z" fill="#EBEBEB"/>
<path d="M272.331 207.974H263.489V227.659H272.331V207.974Z" fill="#EBEBEB"/>
<path d="M240.089 207.974H231.248V227.659H240.089V207.974Z" fill="#EBEBEB"/>
<path d="M256.213 207.974H247.372V227.659H256.213V207.974Z" fill="#EBEBEB"/>
<path d="M209.432 137.45H171.647V252.888H209.432V137.45Z" fill="#E6E6E6"/>
<path d="M294.729 149.81H278.035V252.882H294.729V149.81Z" fill="#E6E6E6"/>
<path d="M112.684 252.882H79.6145V204.69L112.684 193.502V252.882Z" fill="#E6E6E6"/>
<path d="M192.5 251.211C298.815 251.211 385 250.406 385 249.413C385 248.42 298.815 247.616 192.5 247.616C86.1852 247.616 0 248.42 0 249.413C0 250.406 86.1852 251.211 192.5 251.211Z" fill="#58595B"/>
<path d="M17.7106 233.62C17.7106 224.9 23.833 217.828 31.3887 217.828H18.3163C10.7606 217.828 4.63821 224.9 4.63821 233.62C4.63821 242.344 10.7606 249.416 18.3163 249.416H31.3887C23.833 249.413 17.7106 242.342 17.7106 233.62Z" fill="#231F20"/>
<path d="M31.0823 217.825C38.8094 217.825 45.0693 224.897 45.0693 233.617C45.0693 242.341 38.8094 249.413 31.0823 249.413C23.3552 249.413 17.0953 242.341 17.0953 233.617C17.0977 224.899 23.3576 217.825 31.0823 217.825Z" fill="#939598"/>
<path d="M31.3887 217.825C38.9445 217.825 45.0669 224.897 45.0669 233.617C45.0669 242.341 38.9445 249.413 31.3887 249.413C23.833 249.413 17.7106 242.341 17.7106 233.617C17.7106 224.899 23.833 217.825 31.3887 217.825Z" fill="black"/>
<path d="M87.4237 224.574H26.9581V237.716H87.4237V224.574Z" fill="black"/>
<path d="M61.2272 235.576C61.7721 231.841 59.1851 228.371 55.4489 227.826C51.7128 227.281 48.2424 229.868 47.6975 233.603C47.1527 237.339 49.7397 240.809 53.4759 241.353C57.212 241.898 60.6824 239.311 61.2272 235.576Z" fill="black"/>
<path d="M373.979 185.967H383.62L370.728 237.984H361.087L357.723 237.151L369.782 188.498C370.243 186.638 372.121 185.507 373.979 185.967Z" fill="#231F20"/>
<path d="M362.601 220.294H373.113L373.643 218.149H363.131L362.601 220.294ZM361.416 225.078H371.928L372.459 222.933H361.949L361.416 225.078ZM360.228 229.863H370.74L371.271 227.718H360.759L360.228 229.863ZM363.788 215.507H374.297L374.828 213.362H364.316L363.788 215.507ZM359.043 234.649H369.555L370.086 232.504H359.574L359.043 234.649ZM364.973 210.722H375.485L376.016 208.577H365.504L364.973 210.722ZM370.248 189.434L369.717 191.579H380.229L380.76 189.434H370.248ZM368.532 196.364H379.044L379.575 194.219H369.063L368.532 196.364ZM367.345 201.151H377.857L378.388 199.006H367.876L367.345 201.151ZM366.16 205.935H376.672L377.203 203.79H366.691L366.16 205.935Z" fill="#58595B"/>
<path d="M383.62 185.967L370.728 237.984L367.364 237.151L379.423 188.498C379.884 186.638 381.762 185.507 383.62 185.967Z" fill="#596FB9"/>
<path d="M370.862 228.621L370.292 230.923L371.226 231.155L371.797 228.853L370.862 228.621Z" fill="#6F89F0"/>
<path d="M371.43 226.313L370.86 228.615L371.794 228.846L372.365 226.544L371.43 226.313Z" fill="white"/>
<path d="M372.001 224.012L371.431 226.314L372.365 226.545L372.936 224.243L372.001 224.012Z" fill="#6F89F0"/>
<path d="M372.573 221.712L372.003 224.014L372.937 224.245L373.508 221.943L372.573 221.712Z" fill="white"/>
<path d="M373.141 219.407L372.571 221.709L373.505 221.94L374.076 219.638L373.141 219.407Z" fill="#6F89F0"/>
<path d="M373.717 217.108L373.146 219.41L374.081 219.642L374.651 217.34L373.717 217.108Z" fill="white"/>
<path d="M374.284 214.802L373.713 217.104L374.648 217.336L375.219 215.034L374.284 214.802Z" fill="#6F89F0"/>
<path d="M374.852 212.497L374.282 214.799L375.216 215.031L375.787 212.729L374.852 212.497Z" fill="white"/>
<path d="M375.428 210.202L374.857 212.504L375.792 212.736L376.363 210.434L375.428 210.202Z" fill="#6F89F0"/>
<path d="M375.995 207.896L375.425 210.198L376.359 210.429L376.93 208.127L375.995 207.896Z" fill="white"/>
<path d="M376.57 205.597L376 207.899L376.935 208.131L377.505 205.829L376.57 205.597Z" fill="#6F89F0"/>
<path d="M377.135 203.291L376.565 205.593L377.499 205.824L378.07 203.522L377.135 203.291Z" fill="white"/>
<path d="M377.706 200.986L377.135 203.288L378.07 203.52L378.641 201.218L377.706 200.986Z" fill="#6F89F0"/>
<path d="M378.282 198.691L377.711 200.993L378.646 201.225L379.216 198.923L378.282 198.691Z" fill="white"/>
<path d="M378.85 196.383L378.279 198.685L379.214 198.916L379.784 196.614L378.85 196.383Z" fill="#6F89F0"/>
<path d="M379.422 194.086L378.852 196.388L379.786 196.62L380.357 194.318L379.422 194.086Z" fill="white"/>
<path d="M379.989 191.777L379.418 194.079L380.353 194.31L380.923 192.008L379.989 191.777Z" fill="#6F89F0"/>
<path d="M381.132 187.167L380.562 189.469L381.496 189.7L382.067 187.398L381.132 187.167Z" fill="#6F89F0"/>
<path d="M380.561 189.477L379.99 191.779L380.925 192.01L381.495 189.708L380.561 189.477Z" fill="white"/>
<path d="M173.636 192.311C173.636 184.981 178.783 179.036 185.135 179.036H178.484C172.132 179.036 166.985 184.981 166.985 192.311C166.985 199.643 172.132 205.588 178.484 205.588H185.135C178.781 205.59 173.636 199.645 173.636 192.311Z" fill="#231F20"/>
<path d="M184.874 179.038C191.368 179.038 196.632 184.983 196.632 192.313C196.632 199.645 191.368 205.59 184.874 205.59C178.38 205.59 173.117 199.645 173.117 192.313C173.12 184.983 178.38 179.038 184.874 179.038Z" fill="#939598"/>
<path d="M185.133 179.038C191.484 179.038 196.631 184.983 196.631 192.313C196.631 199.645 191.484 205.59 185.133 205.59C178.781 205.59 173.634 199.645 173.634 192.313C173.636 184.983 178.781 179.038 185.133 179.038Z" fill="black"/>
<path d="M272.863 210.633C272.863 203.303 278.01 197.358 284.362 197.358H277.711C271.359 197.358 266.212 203.303 266.212 210.633C266.212 217.965 271.359 223.91 277.711 223.91H284.362C278.008 223.91 272.863 217.968 272.863 210.633Z" fill="#231F20"/>
<path d="M284.101 197.358C290.595 197.358 295.858 203.303 295.858 210.633C295.858 217.965 290.595 223.91 284.101 223.91C277.607 223.91 272.344 217.965 272.344 210.633C272.344 203.303 277.607 197.358 284.101 197.358Z" fill="#939598"/>
<path d="M284.359 197.358C290.711 197.358 295.858 203.303 295.858 210.633C295.858 217.965 290.711 223.91 284.359 223.91C278.008 223.91 272.86 217.965 272.86 210.633C272.863 203.303 278.008 197.358 284.359 197.358Z" fill="black"/>
<path d="M315.198 185.106L231.664 169.681L196.631 168.002C190.461 166.863 164.191 178.98 164.191 178.98C164.017 179.926 163.655 195.138 166.985 195.754L187.473 196.516L266.212 210.633L271.205 209.854L287.593 217.466H346.29C347.878 217.76 349.506 217.772 351.099 217.502L357.789 216.124C361.486 215.362 364.355 212.428 365.043 208.705L367.615 194.784L315.198 185.106Z" fill="black"/>
<path d="M283.396 159.113C283.396 159.113 329.588 154.727 320.77 152.324C291.968 144.482 252.391 148.287 251.189 148.357C236.421 149.233 209.204 161.14 209.204 161.14C209.204 161.14 186.88 160.228 173.58 165.524C170.713 168.002 170.24 169.24 166.939 173.081C166.051 174.113 163.85 173.604 163.631 174.569C161.275 184.903 163.809 190.675 164.741 190.848C164.741 190.848 199.778 190.848 210.38 190.848C210.469 190.033 224.54 169.336 283.396 159.113Z" fill="#6F89F0"/>
<path d="M164.741 190.848C164.741 190.848 199.781 190.848 210.38 190.848C210.411 190.568 212.093 187.941 216.673 184.199H162.699C162.945 188.438 164.157 190.74 164.741 190.848Z" fill="#596FB9"/>
<path d="M236.744 205.59H230.093C223.742 205.59 218.594 199.645 218.594 192.313C218.594 184.983 223.742 179.038 230.093 179.038H236.744C230.392 179.038 225.245 184.983 225.245 192.313C225.245 199.645 230.392 205.59 236.744 205.59Z" fill="black"/>
<mask id="mask0_50_185" style="mask-type:luminance" maskUnits="userSpaceOnUse" x="218" y="179" width="19" height="27">
<path d="M236.744 205.59H230.093C223.742 205.59 218.594 199.645 218.594 192.313C218.594 184.983 223.742 179.038 230.093 179.038H236.744C230.392 179.038 225.245 184.983 225.245 192.313C225.245 199.645 230.392 205.59 236.744 205.59Z" fill="white"/>
</mask>
<g mask="url(#mask0_50_185)">
<path d="M225.245 192.31C225.245 191.596 225.296 190.897 225.39 190.214H218.739C218.645 190.897 218.594 191.596 218.594 192.31C218.594 199.643 223.742 205.588 230.093 205.588H236.744C230.392 205.59 225.245 199.645 225.245 192.31Z" fill="black"/>
<path d="M221.34 183.702C220.489 184.855 219.806 186.177 219.333 187.622C219.062 188.45 218.864 189.319 218.741 190.214H225.392C225.515 189.316 225.713 188.45 225.983 187.622C226.456 186.18 227.139 184.855 227.991 183.702H221.34Z" fill="black"/>
<path d="M223.561 181.388C222.735 182.046 221.99 182.826 221.34 183.704H227.991C228.64 182.826 229.389 182.046 230.211 181.388H223.561Z" fill="black"/>
<path d="M236.744 179.038H230.093C227.666 179.038 225.416 179.906 223.561 181.388H230.211C232.067 179.906 234.316 179.038 236.744 179.038Z" fill="black"/>
</g>
<path d="M236.486 179.038C242.98 179.038 248.243 184.983 248.243 192.313C248.243 199.645 242.98 205.59 236.486 205.59C229.992 205.59 224.729 199.645 224.729 192.313C224.729 184.983 229.992 179.038 236.486 179.038Z" fill="#939598"/>
<path d="M236.744 179.038C243.096 179.038 248.243 184.983 248.243 192.313C248.243 199.645 243.096 205.59 236.744 205.59C230.392 205.59 225.245 199.645 225.245 192.313C225.245 184.983 230.392 179.038 236.744 179.038Z" fill="#414042"/>
<path d="M236.744 182.44C241.469 182.44 245.297 186.86 245.297 192.313C245.297 197.766 241.469 202.188 236.744 202.188C232.019 202.188 228.192 197.768 228.192 192.313C228.192 186.86 232.021 182.44 236.744 182.44Z" fill="#231F20"/>
<path d="M236.744 183.878C240.779 183.878 244.049 187.656 244.049 192.313C244.049 196.972 240.779 200.75 236.744 200.75C232.709 200.75 229.439 196.972 229.439 192.313C229.439 187.654 232.709 183.878 236.744 183.878Z" fill="black"/>
<path d="M236.744 182.898C232.236 182.898 228.585 187.118 228.585 192.318C228.585 197.522 232.236 201.74 236.744 201.74C241.252 201.74 244.903 197.522 244.903 192.318C244.903 187.118 241.252 182.898 236.744 182.898ZM237.997 193.264L243.914 195.1C243.569 196.282 243.011 197.348 242.294 198.246L237.997 193.264ZM242.396 186.522C243.098 187.434 243.643 188.51 243.967 189.705L238.076 191.534L242.396 186.522ZM238.392 183.796L236.821 190.59L235.241 183.755C235.726 183.642 236.23 183.581 236.744 183.581C237.311 183.581 237.861 183.658 238.392 183.796ZM231.092 198.116C230.39 197.204 229.847 196.127 229.524 194.936L235.414 193.107L231.092 198.116ZM229.574 189.541C229.919 188.358 230.477 187.292 231.194 186.394L235.492 191.377L229.574 189.541ZM235.096 200.844L236.667 194.05L238.248 200.885C237.762 200.999 237.258 201.059 236.744 201.059C236.177 201.059 235.627 200.982 235.096 200.844Z" fill="#5D73BB"/>
<path d="M236.744 192.016C239.519 192.016 242.092 192.573 244.225 193.524C244.273 193.126 244.307 192.723 244.307 192.31C244.307 187.49 240.921 183.581 236.744 183.581C232.567 183.581 229.181 187.49 229.181 192.31C229.181 192.723 229.215 193.126 229.263 193.524C231.396 192.573 233.969 192.016 236.744 192.016Z" fill="#5B71BA"/>
<path d="M236.751 182.898C232.248 182.898 228.599 187.116 228.599 192.313C228.599 197.515 232.248 201.73 236.751 201.73C241.254 201.73 244.903 197.515 244.903 192.313C244.903 187.116 241.254 182.898 236.751 182.898ZM236.751 201.069C232.564 201.069 229.174 197.148 229.174 192.313C229.174 187.48 232.564 183.559 236.751 183.559C240.938 183.559 244.329 187.48 244.329 192.313C244.331 197.148 240.938 201.069 236.751 201.069Z" fill="white"/>
<path d="M235.68 189.432C237.058 189.432 238.175 190.723 238.175 192.313C238.175 193.903 237.058 197.744 235.68 197.744C234.302 197.744 233.185 193.903 233.185 192.313C233.185 190.723 234.302 189.432 235.68 189.432Z" fill="#939598"/>
<path d="M235.68 189.432C237.058 189.432 238.175 190.723 238.175 192.313C238.175 193.903 237.058 195.194 235.68 195.194C234.302 195.194 233.185 193.903 233.185 192.313C233.185 190.723 234.302 189.432 235.68 189.432Z" fill="black"/>
<path d="M236.744 189.432C238.122 189.432 239.239 190.723 239.239 192.313C239.239 193.903 238.122 195.194 236.744 195.194C235.366 195.194 234.249 193.903 234.249 192.313C234.249 190.723 235.366 189.432 236.744 189.432Z" fill="white"/>
<path d="M335.971 223.91H329.32C322.968 223.91 317.821 217.965 317.821 210.633C317.821 203.303 322.968 197.358 329.32 197.358H335.971C329.619 197.358 324.472 203.303 324.472 210.633C324.472 217.968 329.619 223.91 335.971 223.91Z" fill="black"/>
<mask id="mask1_50_185" style="mask-type:luminance" maskUnits="userSpaceOnUse" x="317" y="197" width="19" height="27">
<path d="M335.971 223.91H329.32C322.968 223.91 317.821 217.965 317.821 210.633C317.821 203.303 322.968 197.358 329.32 197.358H335.971C329.619 197.358 324.472 203.303 324.472 210.633C324.472 217.968 329.619 223.91 335.971 223.91Z" fill="white"/>
</mask>
<g mask="url(#mask1_50_185)">
<path d="M324.472 210.633C324.472 209.919 324.522 209.219 324.617 208.536H317.966C317.872 209.219 317.821 209.919 317.821 210.633C317.821 217.965 322.968 223.91 329.32 223.91H335.971C329.619 223.91 324.472 217.968 324.472 210.633Z" fill="black"/>
<path d="M320.567 202.024C319.715 203.178 319.032 204.5 318.559 205.945C318.289 206.773 318.091 207.641 317.968 208.536H324.619C324.742 207.639 324.94 206.773 325.21 205.945C325.683 204.502 326.366 203.178 327.218 202.024H320.567Z" fill="black"/>
<path d="M322.787 199.708C321.962 200.367 321.216 201.146 320.567 202.024H327.218C327.867 201.146 328.615 200.367 329.438 199.708H322.787Z" fill="black"/>
<path d="M335.971 197.358H329.32C326.892 197.358 324.643 198.226 322.787 199.708H329.438C331.294 198.229 333.543 197.358 335.971 197.358Z" fill="black"/>
</g>
<path d="M335.712 197.358C342.206 197.358 347.47 203.303 347.47 210.633C347.47 217.965 342.206 223.91 335.712 223.91C329.218 223.91 323.955 217.965 323.955 210.633C323.955 203.303 329.218 197.358 335.712 197.358Z" fill="#939598"/>
<path d="M335.971 197.358C342.322 197.358 347.47 203.303 347.47 210.633C347.47 217.965 342.322 223.91 335.971 223.91C329.619 223.91 324.472 217.965 324.472 210.633C324.472 203.303 329.619 197.358 335.971 197.358Z" fill="#414042"/>
<path d="M335.971 200.763C340.696 200.763 344.523 205.183 344.523 210.636C344.523 216.088 340.696 220.511 335.971 220.511C331.246 220.511 327.418 216.091 327.418 210.636C327.418 205.183 331.246 200.763 335.971 200.763Z" fill="#231F20"/>
<path d="M335.971 202.201C340.006 202.201 343.276 205.979 343.276 210.635C343.276 215.294 340.006 219.073 335.971 219.073C331.936 219.073 328.666 215.294 328.666 210.635C328.663 205.976 331.936 202.201 335.971 202.201Z" fill="black"/>
<path d="M335.971 201.221C331.463 201.221 327.812 205.441 327.812 210.64C327.812 215.845 331.463 220.062 335.971 220.062C340.479 220.062 344.13 215.845 344.13 210.64C344.13 205.441 340.479 201.221 335.971 201.221ZM337.223 211.586L343.14 213.422C342.795 214.605 342.238 215.673 341.521 216.569L337.223 211.586ZM341.622 204.845C342.325 205.757 342.87 206.833 343.193 208.027L337.303 209.856L341.622 204.845ZM337.619 202.119L336.048 208.913L334.467 202.078C334.952 201.964 335.457 201.904 335.971 201.904C336.538 201.904 337.088 201.981 337.619 202.119ZM330.319 216.438C329.617 215.526 329.074 214.45 328.75 213.258L334.641 211.429L330.319 216.438ZM328.801 207.863C329.146 206.681 329.704 205.615 330.42 204.717L334.718 209.699L328.801 207.863ZM334.32 219.167L335.891 212.373L337.472 219.208C336.987 219.321 336.482 219.382 335.968 219.382C335.404 219.382 334.853 219.302 334.32 219.167Z" fill="#5D73BB"/>
<path d="M335.971 210.339C338.746 210.339 341.318 210.896 343.452 211.849C343.5 211.451 343.534 211.048 343.534 210.635C343.534 205.815 340.148 201.906 335.971 201.906C331.793 201.906 328.408 205.815 328.408 210.635C328.408 211.048 328.441 211.451 328.49 211.849C330.621 210.896 333.195 210.339 335.971 210.339Z" fill="#5B71BA"/>
<path d="M335.978 201.221C331.475 201.221 327.826 205.438 327.826 210.636C327.826 215.835 331.475 220.053 335.978 220.053C340.481 220.053 344.13 215.835 344.13 210.636C344.13 205.438 340.481 201.221 335.978 201.221ZM335.978 219.391C331.791 219.391 328.4 215.471 328.4 210.636C328.4 205.803 331.791 201.882 335.978 201.882C340.165 201.882 343.555 205.803 343.555 210.636C343.555 215.471 340.165 219.391 335.978 219.391Z" fill="white"/>
<path d="M334.906 207.755C336.284 207.755 337.402 209.045 337.402 210.635C337.402 212.225 336.284 216.066 334.906 216.066C333.529 216.066 332.411 212.225 332.411 210.635C332.411 209.045 333.529 207.755 334.906 207.755Z" fill="#939598"/>
<path d="M334.906 207.755C336.284 207.755 337.402 209.045 337.402 210.635C337.402 212.225 336.284 213.516 334.906 213.516C333.529 213.516 332.411 212.225 332.411 210.635C332.411 209.045 333.529 207.755 334.906 207.755Z" fill="black"/>
<path d="M335.971 207.755C337.349 207.755 338.466 209.045 338.466 210.635C338.466 212.225 337.349 213.516 335.971 213.516C334.593 213.516 333.475 212.225 333.475 210.635C333.475 209.045 334.593 207.755 335.971 207.755Z" fill="white"/>
<path d="M366.527 178.266L358.937 176.864C347.05 167.155 339.617 160.629 330.148 155.13C330.148 155.13 327.442 153.528 318.453 151.87C302.545 148.934 292.4 148.288 291.198 148.357C276.429 149.233 256.458 161.14 256.458 161.14C256.458 161.14 243.964 159.985 226.379 164.335C220.081 165.893 217.238 169.361 213.937 173.199C213.049 174.232 211.062 173.595 210.884 174.567C209.718 180.179 209.446 190.672 210.377 190.846C210.377 190.846 214.914 191.681 222.344 193.046C222.436 192.231 222.554 191.411 222.704 190.59C224.897 178.717 232.231 173.846 239.905 175.265C247.582 176.681 252.69 183.849 250.497 195.722C250.347 196.535 250.166 197.334 249.961 198.123C272.829 202.328 301.037 207.513 321.576 211.292C321.665 210.5 321.781 209.707 321.928 208.91C324.122 197.037 331.456 192.166 339.13 193.585C346.806 195.001 351.915 202.169 349.721 214.042C349.576 214.826 349.405 215.598 349.21 216.361L364.398 215.806C367.174 215.782 369.751 214.288 371.071 211.847C372.449 209.296 373.332 206.104 373.974 202.9C374.319 201.185 373.96 199.793 373.462 198.784C372.676 197.187 372.212 195.324 372.555 193.466C374.145 184.891 375.803 179.979 366.527 178.266Z" fill="#596FB9"/>
<path d="M371.303 205.443L355.918 202.603C353.459 202.15 351.285 200.634 349.818 198.347C347.424 194.612 343.835 191.944 339.504 191.145C335.172 190.346 330.867 191.555 327.298 194.19C325.111 195.804 322.539 196.441 320.077 195.987L256.602 184.266C254.143 183.813 251.969 182.297 250.502 180.01C248.108 176.275 244.519 173.607 240.188 172.808C235.856 172.01 231.551 173.218 227.982 175.853C225.795 177.467 223.223 178.104 220.761 177.651L210.674 175.687L166.983 176.333C163.177 175.631 161.724 186.599 166.599 187.092C170.619 187.497 208.324 186.751 209.829 187.026C213.268 187.654 218.724 188.65 218.724 188.65C219.54 188.8 219.726 189.372 219.678 189.635C219.499 190.597 219.395 191.553 219.337 192.501C220.279 192.675 221.278 192.858 222.344 193.054C222.436 192.238 222.554 191.418 222.704 190.597C224.898 178.724 232.231 173.853 239.905 175.272C247.582 176.688 252.691 183.856 250.497 195.729C250.347 196.542 250.166 197.341 249.961 198.13C250.837 198.292 251.723 198.453 252.613 198.617C253.004 196.844 253.755 191.34 253.755 191.34C254.032 189.83 278.046 192.986 279.32 193.22L294.878 196.094C296.153 196.33 320.5 202.104 320.22 203.614C320.22 203.614 318.984 207.581 318.658 210.763C319.643 210.944 320.62 211.123 321.573 211.299C321.663 210.507 321.779 209.714 321.926 208.917C324.119 197.044 331.453 192.173 339.127 193.592C346.804 195.008 351.912 202.176 349.719 214.049C349.574 214.833 349.403 215.606 349.207 216.368L352.284 216.255C352.764 215.07 353.686 213.567 355.426 213.888C355.426 213.888 361.643 214.674 366.829 213.145C369.416 212.382 370.675 210.121 371.988 207.359C372.379 206.543 372.06 205.583 371.303 205.443Z" fill="#6F89F0"/>
<path d="M373.672 187.815C374.507 182.708 375.827 179.984 366.527 178.268L361.852 177.404C359.994 177.062 358.286 176.172 356.927 174.859C349.079 167.278 338.852 160.187 330.148 155.132C330.148 155.132 327.442 153.53 318.453 151.873C302.545 148.936 292.4 148.29 291.198 148.36C276.429 149.236 256.458 161.143 256.458 161.143C256.458 161.143 243.964 159.987 226.379 164.337C220.843 165.707 217.976 168.552 215.119 171.829C237.772 167.763 292.885 173.25 373.672 187.815Z" fill="#5B71BA"/>
<path d="M373.467 198.753C372.681 197.155 372.217 195.293 372.56 193.435C372.929 191.437 373.349 189.652 373.624 188.052L364.319 186.334C363.802 189.135 367.688 197.872 374.044 200.606C373.94 199.894 373.723 199.271 373.467 198.753Z" fill="#5D73BB"/>
<path d="M330.148 155.132C330.148 155.132 327.442 153.53 318.453 151.873C302.545 148.936 292.4 148.29 291.198 148.36C276.429 149.236 256.458 161.143 256.458 161.143C256.458 161.143 243.964 159.987 226.379 164.337C224.345 164.841 222.673 165.546 221.227 166.395C250.753 159.292 315.147 166.47 353.954 172.108C346.606 165.577 337.79 159.567 330.148 155.132Z" fill="#5D73BB"/>
<path d="M364.401 183.663C363.942 183.579 363.556 184.124 363.725 184.619L364.857 187.927C365.786 190.636 367.859 192.547 370.374 193.01L372.596 193.42C373.356 192.347 373.658 190.998 373.928 189.545C374.196 188.093 374.396 186.725 374.071 185.451L364.401 183.663Z" fill="#BE1E2D"/>
<path d="M367.038 186.31C366.732 186.254 366.476 186.616 366.59 186.947L367.345 189.152C367.963 190.957 369.346 192.231 371.023 192.54C372.031 192.725 373.035 191.951 373.284 190.781C373.323 190.6 373.356 190.416 373.392 190.231C373.395 190.221 373.395 190.211 373.397 190.202C373.665 188.747 372.859 187.386 371.612 187.154L367.038 186.31Z" fill="#6F89F0"/>
<path opacity="0.5" d="M367.251 184.563C367.029 184.522 366.843 184.785 366.925 185.024L367.47 186.616C367.917 187.922 368.916 188.841 370.127 189.065C370.856 189.2 371.583 188.638 371.761 187.794C371.788 187.663 371.814 187.531 371.838 187.396C371.841 187.388 371.841 187.381 371.843 187.374C372.036 186.322 371.455 185.338 370.552 185.171L367.251 184.563Z" fill="white"/>
<path d="M372.567 193.596L370.345 193.186C367.77 192.711 365.665 190.771 364.715 187.999L363.583 184.691C363.481 184.397 363.53 184.071 363.711 183.815C363.892 183.559 364.162 183.436 364.435 183.487L374.104 185.272C374.189 185.287 374.242 185.379 374.223 185.478C374.206 185.576 374.121 185.642 374.039 185.627L364.369 183.842C364.21 183.813 364.053 183.885 363.947 184.032C363.841 184.182 363.814 184.372 363.872 184.544L365.004 187.852C365.916 190.513 367.936 192.376 370.41 192.832L372.632 193.242C372.717 193.256 372.77 193.348 372.751 193.447C372.734 193.546 372.652 193.613 372.567 193.596Z" fill="black"/>
<path d="M327.177 156.886C327.001 156.824 321.793 154.821 313.709 153.328C295.583 149.981 289.152 150.495 289.089 150.5C279.258 151.426 267.957 158.368 261.204 162.515C260.29 163.077 259.45 163.594 258.697 164.045C258.54 164.139 258.477 164.337 258.531 164.576C258.576 164.791 258.726 165.027 258.96 165.07L345.069 175.286C343.775 171.751 334.489 162.173 327.177 156.886Z" fill="#414042"/>
<path d="M282.405 152.558C282.322 152.517 282.057 152.396 281.492 152.201C274.767 154.442 268.07 158.332 263.113 161.35L283.244 164.055C284.359 161.304 285.609 158.563 287.031 155.921C285.563 154.717 284.007 153.569 282.405 152.558ZM294.417 163.222C292.728 161.174 290.358 158.723 287.636 156.423C286.295 158.942 285.1 161.546 284.036 164.161L292.752 165.331C294.292 165.539 295.286 164.279 294.417 163.222Z" fill="#709AA3"/>
<path d="M303.366 153.936C302.241 153.728 301.348 154.869 301.821 155.912L303.202 158.947C304.555 161.924 307.28 164.055 310.497 164.648L341.731 170.415C338.664 166.798 334.028 162.284 329.67 158.792L303.366 153.936Z" fill="#709AA3"/>
<path d="M308.168 168.065L307.608 167.961L308.04 166.513C309.305 166.747 310.516 166.101 310.598 165.153L310.798 162.819C310.934 161.225 309.469 159.758 307.345 159.364L303.759 158.701C301.635 158.31 299.49 159.109 298.708 160.585L297.564 162.742C297.099 163.62 297.818 164.624 299.082 164.856L299.751 164.979L299.319 166.427L298.088 166.2C295.484 165.72 292.89 166.813 292.18 168.69L292.067 168.991L312.08 171.365C311.853 169.821 310.321 168.463 308.168 168.065ZM327.512 171.638C325.715 171.305 323.919 171.727 322.749 172.637L340.261 174.714C339.581 174.135 338.666 173.699 337.597 173.501L337.037 173.397L337.469 171.949C338.734 172.183 339.945 171.537 340.027 170.589L340.191 168.666C339.033 167.394 337.735 166.057 336.362 164.726L333.186 164.139C331.062 163.746 328.917 164.547 328.135 166.024L326.991 168.181C326.525 169.059 327.245 170.063 328.509 170.294L329.177 170.417L328.746 171.865L327.512 171.638Z" fill="#58595B"/>
<path d="M295.342 164.914L294.782 164.81L295.238 163.237C296.503 163.471 297.728 162.752 297.823 161.722L298.059 159.193C298.221 157.463 297.026 156.151 294.905 155.76L291.063 155.726C288.939 155.333 286.777 156.233 285.969 157.844L284.786 160.199C284.306 161.157 285.011 162.233 286.275 162.465L286.946 162.588L286.299 163.852L285.069 163.625C281.944 163.408 279.762 164.552 279.024 166.595L278.729 167.411L299.092 169.826L299.162 169.505C299.623 167.413 297.946 165.396 295.342 164.914ZM266.149 159.533C264.334 160.597 262.66 161.623 261.207 162.515C260.292 163.078 259.452 163.594 258.699 164.045C258.543 164.139 258.48 164.337 258.533 164.576C258.579 164.791 258.728 165.027 258.962 165.071L269.25 166.291L269.738 164.077C270.182 162.045 268.615 160.091 266.149 159.533Z" fill="#6D6E71"/>
<path opacity="0.5" d="M291.695 159.022C291.756 159.014 297.885 158.447 315.125 161.63C322.814 163.049 327.759 165.003 327.925 165.063C331.272 167.584 335.049 171.107 338.196 174.468L345.069 175.284C343.775 171.751 334.489 162.173 327.177 156.886C327.001 156.824 321.793 154.821 313.709 153.328C295.583 149.981 289.152 150.495 289.089 150.5C279.258 151.426 267.957 158.368 261.204 162.515C260.29 163.077 259.45 163.594 258.697 164.045C258.54 164.139 258.477 164.337 258.531 164.576C258.576 164.791 258.726 165.027 258.96 165.07L272.368 166.66C278.263 163.186 285.315 159.709 291.695 159.022Z" fill="white"/>
<path d="M345.5 175.448C344.583 172.094 334.935 162.05 327.389 156.595C327.377 156.585 327.363 156.578 327.351 156.573C327.298 156.554 321.996 154.493 313.776 152.975C295.482 149.598 289.123 150.138 289.06 150.143C279.147 151.077 267.8 158.047 261.021 162.209C260.109 162.771 259.269 163.285 258.516 163.736C258.226 163.91 258.099 164.26 258.181 164.651C258.253 164.989 258.502 165.35 258.897 165.423C258.914 165.425 258.931 165.428 258.948 165.43L345.307 175.675C345.368 175.682 345.426 175.658 345.464 175.614C345.503 175.571 345.515 175.506 345.5 175.448ZM272.136 157.441C277.566 154.619 283.64 152.1 289.181 151.576C289.229 151.571 293.109 151.284 303.197 152.698C302.767 157.873 301.932 163.452 300.902 168.958L266.636 164.894C267.23 161.698 269.252 158.942 272.136 157.441ZM305.933 169.554C306.932 164.142 307.751 158.641 308.195 153.46C309.843 153.731 311.609 154.037 313.511 154.389C320.905 155.755 325.84 157.543 326.673 157.854C327.985 158.809 329.346 159.893 330.7 161.044C330.563 164.74 330.203 168.562 329.696 172.372L305.933 169.554ZM340.814 173.691L330.415 172.458C330.896 168.825 331.243 165.182 331.398 161.644C335.408 165.124 339.296 169.114 341.704 172.094C342.26 172.782 341.692 173.795 340.814 173.691Z" fill="black"/>
<path d="M274.262 171.831C274.409 171.033 273.946 169.698 273.227 168.851L271.456 166.767C270.435 165.565 269.424 164.723 268.495 164.243C266.873 163.406 265.505 163.676 264.776 165.061L263.227 163.237C263.087 163.073 262.951 163.066 262.923 163.22L262.717 164.33C262.688 164.484 262.778 164.743 262.918 164.907L269.518 172.681C269.622 172.801 269.723 172.837 269.778 172.784L270.534 173.672C272.071 175.482 273.572 175.564 273.888 173.858L274.183 172.268L274.262 171.831Z" fill="#939598"/>
<path d="M272.334 166.205L264.264 164.714L264.351 164.238C264.971 160.877 268.203 158.655 271.564 159.275L275.068 159.922C275.809 160.059 276.299 160.771 276.164 161.512L275.729 163.864C275.44 165.45 273.92 166.497 272.334 166.205Z" fill="#5B71BA"/>
<path d="M272.204 161.341L276.067 162.055L276.147 161.621C276.294 160.822 275.857 160.072 275.17 159.944L271.127 159.198C268.007 158.621 264.938 161.092 264.267 164.716L264.892 164.832C266.571 162.277 269.368 160.817 272.204 161.341Z" fill="#F1F2F2"/>
<path d="M269.202 165.8L262.927 164.641C262.785 164.615 262.688 164.477 262.715 164.335L262.927 163.187C262.954 163.044 263.091 162.948 263.234 162.974L268.48 163.942C269.192 164.072 269.663 164.757 269.53 165.469L269.508 165.59C269.484 165.732 269.344 165.826 269.202 165.8Z" fill="black"/>
<path d="M299.606 176.027C299.418 177.048 298.081 177.658 296.621 177.388C295.161 177.118 294.13 176.073 294.319 175.052C294.507 174.032 295.844 173.421 297.304 173.691C298.764 173.962 299.794 175.006 299.606 176.027Z" fill="#939598"/>
<path d="M298.72 176.944L294.157 176.102C293.58 175.996 293.201 175.443 293.307 174.867C293.414 174.29 293.966 173.911 294.543 174.017L299.106 174.859C299.683 174.966 300.062 175.518 299.956 176.095C299.85 176.669 299.297 177.05 298.72 176.944Z" fill="#939598"/>
<path d="M299.374 177.065L294.811 176.222C294.234 176.116 293.855 175.564 293.961 174.987C294.068 174.41 294.62 174.032 295.197 174.138L299.76 174.98C300.337 175.086 300.716 175.639 300.61 176.215C300.501 176.789 299.949 177.171 299.374 177.065Z" fill="white"/>
<path d="M339.663 181.999C339.851 180.978 338.821 179.932 337.361 179.662C335.9 179.393 334.564 180.002 334.375 181.023C334.187 182.043 335.218 183.09 336.678 183.359C338.138 183.629 339.474 183.02 339.663 181.999Z" fill="#939598"/>
<path d="M338.772 182.93L334.209 182.088C333.632 181.982 333.253 181.429 333.36 180.852C333.466 180.276 334.018 179.897 334.595 180.003L339.159 180.845C339.735 180.951 340.114 181.504 340.008 182.081C339.899 182.655 339.347 183.036 338.772 182.93Z" fill="#939598"/>
<path d="M339.424 183.051L334.861 182.209C334.284 182.102 333.905 181.55 334.011 180.973C334.117 180.397 334.67 180.018 335.247 180.124L339.81 180.966C340.387 181.072 340.766 181.625 340.66 182.201C340.553 182.776 340.001 183.157 339.424 183.051Z" fill="white"/>
<path d="M294.676 204.493C294.669 204.49 294.661 204.49 294.654 204.488C294.56 204.459 294.507 204.357 294.536 204.263C294.63 203.962 304.02 173.892 305.622 151.793C305.629 151.694 305.716 151.62 305.815 151.627C305.919 151.636 305.989 151.721 305.982 151.82C304.374 173.959 294.975 204.07 294.878 204.372C294.852 204.456 294.765 204.509 294.676 204.493Z" fill="black"/>
<path d="M313.318 207.998L257.447 197.681C256.598 197.524 255.977 196.733 256.004 195.838C256.713 172.326 263.311 160.901 263.379 160.79C263.393 160.764 263.415 160.744 263.441 160.728C270.872 156.223 280.498 150.949 289.058 150.143C289.12 150.138 295.479 149.598 313.774 152.975C321.993 154.493 327.295 156.554 327.348 156.573C327.363 156.578 327.375 156.585 327.387 156.595C334.933 162.05 344.581 172.094 345.498 175.448C345.508 175.484 345.505 175.523 345.493 175.559L343.128 181.924C342.074 184.761 338.756 186.551 337.378 187.191C325.208 192.73 322.396 198.012 320.138 202.253C319.377 203.682 318.661 205.028 317.671 206.242C316.537 207.636 314.911 208.293 313.318 207.998ZM263.668 161.01C263.248 161.753 257.051 173.119 256.366 195.848C256.344 196.567 256.839 197.201 257.515 197.327L313.385 207.644C314.845 207.914 316.344 207.303 317.396 206.015C318.361 204.828 319.073 203.496 319.824 202.085C322.109 197.795 324.952 192.455 337.233 186.863C338.57 186.245 341.789 184.51 342.798 181.798L345.141 175.486C344.238 172.473 335.109 162.619 327.201 156.899C326.829 156.756 321.636 154.79 313.714 153.328C295.467 149.959 289.157 150.493 289.096 150.5C280.619 151.299 271.06 156.532 263.668 161.01Z" fill="black"/>
<path d="M206.815 174.174C224.313 174.174 225.679 172.181 228.192 169.39H169.944C169.179 170.357 168.298 171.496 166.937 173.081C166.21 173.928 164.603 173.74 163.925 174.174H206.815Z" fill="#5D73BB"/>
<path d="M230.595 165.512H216.536C208.772 165.512 203.639 166.866 200.314 168.398C199.515 168.764 198.685 168.979 197.889 168.979H175.344C175.081 168.412 174.915 167.765 174.91 167.018C174.905 166.2 174.386 165.596 173.578 165.529C170.991 167.58 168.8 169.925 167.313 172.598C167.292 172.637 167.267 172.668 167.243 172.702H215.713C218.334 172.702 226.814 170.924 230.677 168.236C231.908 167.377 231.852 165.512 230.595 165.512Z" fill="black"/>
<path d="M203.808 172.268C206.673 172.268 212.165 172.268 214.46 172.268C220.684 172.268 227.861 170.009 230.501 168.103C231.548 167.348 231.481 165.688 230.419 165.688H218.553C207.003 165.688 197.973 172.268 203.808 172.268Z" fill="#5D73BB"/>
<path d="M212.778 171.764C221.287 171.983 223.973 170.258 227.489 168.482C228.669 167.886 228.418 166.581 227.144 166.581H224.492C217.267 166.581 213.674 169.416 212.281 170.914C211.902 171.322 212.202 171.749 212.778 171.764Z" fill="#5B71BA"/>
<path d="M207.754 170.497C211.253 170.268 218.435 169.177 221.763 167.623C222.88 167.102 222.615 165.956 221.393 165.956H218.857C211.943 165.956 208.565 168.441 207.262 169.751C206.907 170.111 207.189 170.535 207.754 170.497Z" fill="white"/>
<path d="M167.511 172.265C167.789 172.268 168.141 172.268 168.607 172.268C172.318 172.268 174.765 170.946 174.775 166.962C174.777 166.212 174.126 165.763 173.366 165.703C170.981 167.623 168.949 169.804 167.511 172.265Z" fill="#5D73BB"/>
<path d="M169.466 171.848C169.63 171.848 169.835 171.85 170.11 171.85C172.294 171.85 173.723 171.122 173.694 168.924C173.689 168.509 173.3 168.263 172.852 168.229C171.466 169.29 170.289 170.492 169.466 171.848Z" fill="#5B71BA"/>
<path d="M170.262 169.112C170.414 169.112 170.61 169.114 170.868 169.114C172.914 169.114 174.237 168.497 174.16 166.634C174.145 166.282 173.776 166.074 173.356 166.045C172.079 166.943 171.003 167.961 170.262 169.112Z" fill="white"/>
<path d="M209.892 188.105H164.374C163.959 188.105 163.638 187.864 163.561 187.487C163.551 187.444 163.544 187.401 163.534 187.357C162.943 184.387 165.988 181.041 169.241 181.041H204.257C207.863 181.041 210.65 183.082 211.456 186.308C211.661 187.133 210.816 188.105 209.892 188.105Z" fill="black"/>
<path d="M227.67 155.557C227.67 155.094 227.506 154.638 227.19 154.194C217.375 157.569 209.204 161.143 209.204 161.143C209.204 161.143 188.95 160.32 175.533 164.82C213.495 164.583 227.67 160.298 227.67 155.557Z" fill="#5D73BB"/>
<path d="M242.659 149.679C229.389 152.642 213.039 159.499 209.791 160.889H250.847C252.394 160.889 253.885 160.532 255.082 159.876C258.81 157.832 267.795 153.163 277.038 150.266C277.486 150.126 278.669 149.677 278.174 149.677H242.659V149.679Z" fill="black"/>
<path d="M239.399 150.469C228.641 153.248 216.787 157.97 211.729 160.074H250.3C251.62 160.074 252.894 159.768 253.912 159.208C257.095 157.456 264.762 153.456 272.651 150.975C273.035 150.855 274.043 150.471 273.619 150.471H239.399V150.469Z" fill="#414042"/>
<path d="M246.1 151.395C240.388 151.919 234.123 154.435 228.527 157.261C227.154 157.953 225.979 158.925 225.042 160.074H250.299C251.619 160.074 252.893 159.768 253.912 159.208C255.285 158.453 257.493 157.278 260.191 155.989C260.193 155.977 260.193 155.965 260.196 155.953C260.418 154.035 259.023 152.307 257.107 152.083C249.254 151.168 246.146 151.393 246.1 151.395Z" fill="#709AA3"/>
<path d="M255.973 154.343C253.813 154.343 251.848 155.622 251.349 157.352L250.615 159.883C250.598 159.943 250.598 159.999 250.589 160.059C251.803 160.018 252.971 159.729 253.914 159.21C255.608 158.279 258.579 156.708 262.17 155.07C261.48 154.619 260.601 154.346 259.621 154.346H255.973V154.343Z" fill="#6D6E71"/>
<path opacity="0.5" d="M224.96 159.063C235.19 155.268 246.018 153.325 256.931 153.325H266.193C268.268 152.479 270.447 151.665 272.65 150.973C273.034 150.852 274.043 150.469 273.618 150.469H239.396C228.638 153.248 216.784 157.97 211.726 160.074H222.282C223.143 159.746 224.034 159.408 224.96 159.063Z" fill="white"/>
<path d="M216.999 233.62C216.999 224.9 223.121 217.828 230.677 217.828H217.605C210.049 217.828 203.927 224.9 203.927 233.62C203.927 242.344 210.049 249.416 217.605 249.416H230.677C223.121 249.413 216.999 242.342 216.999 233.62Z" fill="#231F20"/>
<path d="M230.371 217.825C238.098 217.825 244.358 224.897 244.358 233.617C244.358 242.341 238.098 249.413 230.371 249.413C222.644 249.413 216.384 242.341 216.384 233.617C216.386 224.899 222.646 217.825 230.371 217.825Z" fill="#939598"/>
<path d="M230.677 217.825C238.233 217.825 244.355 224.897 244.355 233.617C244.355 242.341 238.233 249.413 230.677 249.413C223.121 249.413 216.999 242.341 216.999 233.617C216.999 224.899 223.121 217.825 230.677 217.825Z" fill="black"/>
<path d="M286.715 224.574H226.249V237.716H286.715V224.574Z" fill="black"/>
<path d="M258.589 239.398C261.259 236.728 261.259 232.401 258.589 229.731C255.919 227.062 251.59 227.062 248.92 229.731C246.25 232.401 246.25 236.728 248.92 239.398C251.59 242.067 255.919 242.067 258.589 239.398Z" fill="black"/>
<path d="M368.619 239.832H285.58L277.351 229.949H7.18177C5.18363 229.949 3.56436 228.067 3.56436 225.746V218.375C3.56436 205.472 12.5681 195.013 23.6737 195.013H183.337V201.337H188.921L306.274 216.17L368.619 239.832Z" fill="black"/>
<path d="M269.137 217.526H73.707V237.067H269.137V217.526Z" fill="black"/>
<path d="M123.793 208.227V167.447C123.793 163.049 127.372 159.47 131.771 159.47H152.75V157.456H131.771C126.262 157.456 118.617 161.939 118.617 167.447V210.244H152.752V208.23H123.793V208.227Z" fill="black"/>
<path d="M185.159 167.447C185.159 161.939 180.675 157.456 175.166 157.456H152.752V159.47H175.166C179.565 159.47 179.49 163.049 179.49 167.447V208.227H152.752V210.242H185.159V167.447Z" fill="#6F89F0"/>
<path d="M181.271 210.242H117.89V167.447C117.89 161.939 122.374 157.456 127.884 157.456H171.276C176.785 157.456 181.269 161.939 181.269 167.447V210.242H181.271ZM119.906 208.227H179.254V167.447C179.254 163.049 175.675 159.471 171.276 159.471H127.884C123.484 159.471 119.906 163.049 119.906 167.447V208.227Z" fill="black"/>
<path d="M137.083 154.92H128.847V150.116C128.847 147.844 130.69 146 132.964 146C135.237 146 137.081 147.844 137.081 150.116V154.92H137.083Z" fill="#F7941D"/>
<path d="M136.14 151.581C136.554 149.826 135.467 148.068 133.712 147.654C131.957 147.239 130.199 148.326 129.784 150.08C129.37 151.835 130.457 153.593 132.212 154.008C133.967 154.422 135.725 153.335 136.14 151.581Z" fill="#5B71BA"/>
<path d="M135.26 152.841C136.025 152.076 136.025 150.836 135.26 150.07C134.494 149.305 133.254 149.305 132.489 150.07C131.723 150.836 131.723 152.076 132.489 152.841C133.254 153.606 134.494 153.606 135.26 152.841Z" fill="#5B71BA"/>
<path d="M131.66 150.804C132.381 150.804 132.966 150.22 132.966 149.499C132.966 148.778 132.381 148.193 131.66 148.193C130.939 148.193 130.355 148.778 130.355 149.499C130.355 150.22 130.939 150.804 131.66 150.804Z" fill="white"/>
<path d="M137.679 154.92H128.253V157.391H137.679V154.92Z" fill="#414042"/>
<path d="M137.676 154.92H130.352V157.391H137.676V154.92Z" fill="#231F20"/>
<path d="M137.677 154.92H133.878V157.391H137.677V154.92Z" fill="black"/>
<path d="M149.197 154.92H140.961V150.116C140.961 147.844 142.805 146 145.078 146C147.351 146 149.195 147.844 149.195 150.116V154.92H149.197Z" fill="#6F89F0"/>
<path d="M147.386 153.112C148.661 151.837 148.661 149.77 147.386 148.495C146.11 147.22 144.043 147.22 142.768 148.495C141.493 149.77 141.493 151.837 142.768 153.112C144.043 154.387 146.11 154.387 147.386 153.112Z" fill="#5B71BA"/>
<path d="M147.376 152.84C148.141 152.075 148.141 150.834 147.376 150.069C146.611 149.304 145.37 149.304 144.605 150.069C143.839 150.834 143.839 152.075 144.605 152.84C145.37 153.605 146.611 153.605 147.376 152.84Z" fill="#5B71BA"/>
<path d="M145.08 149.499C145.08 150.22 144.496 150.804 143.775 150.804C143.053 150.804 142.469 150.22 142.469 149.499C142.469 148.777 143.053 148.194 143.775 148.194C144.496 148.194 145.08 148.777 145.08 149.499Z" fill="white"/>
<path d="M149.793 154.92H140.367V157.391H149.793V154.92Z" fill="#414042"/>
<path d="M149.793 154.92H142.469V157.391H149.793V154.92Z" fill="#231F20"/>
<path d="M149.793 154.92H145.995V157.391H149.793V154.92Z" fill="black"/>
<path d="M161.314 154.92H153.078V150.116C153.078 147.844 154.921 146 157.195 146C159.468 146 161.312 147.844 161.312 150.116V154.92H161.314Z" fill="#2B3990"/>
<path d="M158.455 153.822C160.121 153.132 160.913 151.223 160.223 149.557C159.532 147.891 157.622 147.1 155.956 147.79C154.29 148.48 153.499 150.39 154.189 152.055C154.879 153.721 156.789 154.512 158.455 153.822Z" fill="#5B71BA"/>
<path d="M160.049 151.772C160.223 150.704 159.498 149.698 158.432 149.524C157.365 149.351 156.359 150.077 156.186 151.145C156.012 152.213 156.737 153.219 157.804 153.392C158.871 153.565 159.876 152.84 160.049 151.772Z" fill="#5B71BA"/>
<path d="M157.195 149.499C157.195 150.22 156.611 150.804 155.889 150.804C155.168 150.804 154.584 150.22 154.584 149.499C154.584 148.777 155.168 148.193 155.889 148.193C156.611 148.193 157.195 148.777 157.195 149.499Z" fill="white"/>
<path d="M161.908 154.92H152.482V157.391H161.908V154.92Z" fill="#414042"/>
<path d="M161.908 154.92H154.584V157.391H161.908V154.92Z" fill="#231F20"/>
<path d="M161.908 154.92H158.109V157.391H161.908V154.92Z" fill="black"/>
<path d="M173.428 154.92H165.192V150.116C165.192 147.844 167.036 146 169.309 146C171.582 146 173.426 147.844 173.426 150.116V154.92H173.428Z" fill="#F7941D"/>
<path d="M170.572 153.821C172.238 153.131 173.03 151.222 172.339 149.556C171.649 147.89 169.739 147.099 168.073 147.789C166.407 148.479 165.616 150.389 166.306 152.055C166.996 153.72 168.906 154.511 170.572 153.821Z" fill="#5B71BA"/>
<path d="M172.128 151.936C172.377 150.883 171.725 149.828 170.672 149.58C169.618 149.331 168.563 149.983 168.314 151.036C168.066 152.089 168.718 153.144 169.771 153.393C170.824 153.641 171.88 152.989 172.128 151.936Z" fill="#5B71BA"/>
<path d="M168.003 150.804C168.724 150.804 169.309 150.22 169.309 149.499C169.309 148.778 168.724 148.193 168.003 148.193C167.282 148.193 166.698 148.778 166.698 149.499C166.698 150.22 167.282 150.804 168.003 150.804Z" fill="white"/>
<path d="M174.024 154.92H164.598V157.391H174.024V154.92Z" fill="#414042"/>
<path d="M174.022 154.92H166.698V157.391H174.022V154.92Z" fill="#231F20"/>
<path d="M174.022 154.92H170.224V157.391H174.022V154.92Z" fill="black"/>
<path d="M167.61 228.982H163.339V239.492H167.61V228.982Z" fill="black"/>
<path d="M116.484 228.982H112.212V239.492H116.484V228.982Z" fill="black"/>
<path d="M176.061 239.492H110.965C108.735 239.492 106.927 237.685 106.927 235.455V234.64H176.061V239.492Z" fill="#231F20"/>
<path d="M168.944 237.067H119.679C118.344 237.067 117.263 235.986 117.263 234.652V234.64H171.358V234.652C171.36 235.986 170.279 237.067 168.944 237.067Z" fill="white"/>
<path d="M112.212 239.492H110.837C108.677 239.492 106.927 237.743 106.927 235.583V234.64H112.212V239.492Z" fill="#414042"/>
<path d="M165.194 237.067H119.679C118.344 237.067 117.263 235.986 117.263 234.652V234.64H167.61V234.652C167.61 235.986 166.529 237.067 165.194 237.067Z" fill="#5B71BA"/>
<path d="M76.9455 233.62C76.9455 224.9 83.0678 217.828 90.6236 217.828H77.5512C69.9954 217.828 63.8731 224.9 63.8731 233.62C63.8731 242.344 69.9954 249.416 77.5512 249.416H90.6236C83.0678 249.413 76.9455 242.342 76.9455 233.62Z" fill="black"/>
<path d="M90.3147 217.825C98.0418 217.825 104.302 224.897 104.302 233.617C104.302 242.341 98.0418 249.413 90.3147 249.413C82.5875 249.413 76.3277 242.341 76.3277 233.617C76.3301 224.899 82.59 217.825 90.3147 217.825Z" fill="#939598"/>
<path d="M90.6236 217.825C98.1793 217.825 104.302 224.897 104.302 233.617C104.302 242.341 98.1793 249.413 90.6236 249.413C83.0678 249.413 76.9454 242.341 76.9454 233.617C76.9454 224.899 83.0678 217.825 90.6236 217.825Z" fill="#414042"/>
<path d="M90.6235 221.874C96.2439 221.874 100.798 227.134 100.798 233.619C100.798 240.107 96.2439 245.367 90.6235 245.367C85.0032 245.367 80.4494 240.107 80.4494 233.619C80.4494 227.134 85.0032 221.874 90.6235 221.874Z" fill="#231F20"/>
<path d="M90.6236 222.786C95.8072 222.786 100.006 227.638 100.006 233.617C100.006 239.6 95.8072 244.452 90.6236 244.452C85.44 244.452 81.241 239.6 81.241 233.617C81.241 227.638 85.44 222.786 90.6236 222.786Z" fill="#596FB9"/>
<path d="M86.9628 223.642C83.6012 225.29 81.241 229.136 81.241 233.617C81.241 238.1 83.5987 241.948 86.9628 243.596C91.3283 243.063 94.7285 238.799 94.7285 233.617C94.7285 228.439 91.3283 224.178 86.9628 223.642Z" fill="black"/>
<path d="M89.0044 222.96C88.5 223.061 88.0125 223.208 87.5395 223.399C87.694 223.43 87.8484 223.449 88.0005 223.488L86.1302 231.571L84.6678 225.252C83.4829 226.379 82.5442 227.833 81.9481 229.498L84.5447 232.509L81.4172 231.539C81.3038 232.215 81.241 232.91 81.241 233.622C81.241 234.268 81.299 234.9 81.3931 235.518L84.453 234.57L81.8854 237.547C82.4501 239.222 83.3598 240.693 84.5206 241.844L85.9444 235.692L87.8243 243.823C87.7447 243.842 87.6626 243.849 87.5806 243.866C88.0487 244.052 88.5338 244.194 89.0309 244.293C92.9258 242.834 95.7421 238.616 95.7421 233.634C95.7421 228.635 92.9138 224.407 89.0044 222.96ZM92.6411 240.679L87.5275 234.751L94.5668 236.934C94.1566 238.343 93.493 239.613 92.6411 240.679ZM94.6296 230.516L87.6216 232.693L92.7617 226.733C93.5967 227.817 94.2435 229.098 94.6296 230.516Z" fill="#5D73BB"/>
<path d="M90.6236 231.962C94.1518 231.962 97.3903 232.816 99.9797 234.237C99.9893 234.032 100.006 233.827 100.006 233.619C100.006 227.638 95.8072 222.788 90.6236 222.788C85.44 222.788 81.241 227.64 81.241 233.619C81.241 233.827 81.2579 234.032 81.2676 234.237C83.8546 232.816 87.0955 231.962 90.6236 231.962Z" fill="#939598"/>
<path d="M90.6332 222.422C85.2758 222.422 80.9369 227.438 80.9369 233.622C80.9369 239.808 85.2758 244.824 90.6332 244.824C95.9905 244.824 100.329 239.808 100.329 233.622C100.329 227.438 95.9881 222.422 90.6332 222.422ZM90.6332 244.035C85.6547 244.035 81.6198 239.371 81.6198 233.619C81.6198 227.87 85.6547 223.206 90.6332 223.206C95.6117 223.206 99.6465 227.87 99.6465 233.619C99.6465 239.374 95.6117 244.035 90.6332 244.035Z" fill="white"/>
<path d="M84.7691 230.193C86.4077 230.193 87.7374 231.728 87.7374 233.619C87.7374 235.511 86.4101 240.081 84.7691 240.081C83.1305 240.081 81.8008 235.511 81.8008 233.619C81.8033 231.728 83.1305 230.193 84.7691 230.193Z" fill="#939598"/>
<path d="M84.7691 230.193C86.4077 230.193 87.7374 231.728 87.7374 233.619C87.7374 235.511 86.4101 237.045 84.7691 237.045C83.1305 237.045 81.8008 235.511 81.8008 233.619C81.8033 231.728 83.1305 230.193 84.7691 230.193Z" fill="black"/>
<path d="M86.036 230.193C87.6745 230.193 89.0042 231.728 89.0042 233.619C89.0042 235.511 87.6769 237.045 86.036 237.045C84.3974 237.045 83.0677 235.511 83.0677 233.619C83.0677 231.728 84.3974 230.193 86.036 230.193Z" fill="white"/>
<path d="M276.234 233.62C276.234 224.9 282.356 217.828 289.912 217.828H276.84C269.284 217.828 263.162 224.9 263.162 233.62C263.162 242.344 269.284 249.416 276.84 249.416H289.912C282.356 249.413 276.234 242.342 276.234 233.62Z" fill="black"/>
<path d="M289.605 217.825C297.333 217.825 303.592 224.897 303.592 233.617C303.592 242.341 297.333 249.413 289.605 249.413C281.878 249.413 275.618 242.341 275.618 233.617C275.618 224.899 281.878 217.825 289.605 217.825Z" fill="#939598"/>
<path d="M289.912 217.825C297.468 217.825 303.59 224.897 303.59 233.617C303.59 242.341 297.468 249.413 289.912 249.413C282.356 249.413 276.234 242.341 276.234 233.617C276.234 224.899 282.356 217.825 289.912 217.825Z" fill="#414042"/>
<path d="M289.912 221.874C295.532 221.874 300.086 227.134 300.086 233.619C300.086 240.107 295.532 245.367 289.912 245.367C284.292 245.367 279.738 240.107 279.738 233.619C279.738 227.134 284.292 221.874 289.912 221.874Z" fill="#231F20"/>
<path d="M289.912 222.786C295.096 222.786 299.295 227.638 299.295 233.617C299.295 239.6 295.096 244.452 289.912 244.452C284.728 244.452 280.529 239.6 280.529 233.617C280.529 227.638 284.728 222.786 289.912 222.786Z" fill="#596FB9"/>
<path d="M286.251 223.642C282.889 225.29 280.529 229.136 280.529 233.617C280.529 238.1 282.887 241.948 286.251 243.596C290.617 243.063 294.017 238.799 294.017 233.617C294.017 228.439 290.617 224.178 286.251 223.642Z" fill="black"/>
<path d="M288.293 222.96C287.788 223.061 287.301 223.208 286.828 223.399C286.982 223.43 287.137 223.449 287.289 223.488L285.419 231.571L283.956 225.252C282.771 226.379 281.832 227.833 281.236 229.498L283.833 232.509L280.706 231.539C280.592 232.215 280.529 232.91 280.529 233.622C280.529 234.268 280.587 234.9 280.681 235.518L283.741 234.57L281.174 237.547C281.738 239.222 282.648 240.693 283.809 241.844L285.233 235.692L287.113 243.823C287.033 243.842 286.951 243.849 286.869 243.866C287.337 244.052 287.822 244.194 288.319 244.293C292.214 242.834 295.03 238.616 295.03 233.634C295.03 228.635 292.202 224.407 288.293 222.96ZM291.929 240.679L286.816 234.751L293.855 236.934C293.445 238.343 292.784 239.613 291.929 240.679ZM293.918 230.516L286.91 232.693L292.05 226.733C292.885 227.817 293.532 229.098 293.918 230.516Z" fill="#5D73BB"/>
<path d="M289.912 231.962C293.44 231.962 296.679 232.816 299.268 234.237C299.278 234.032 299.295 233.827 299.295 233.619C299.295 227.638 295.096 222.788 289.912 222.788C284.728 222.788 280.529 227.64 280.529 233.619C280.529 233.827 280.546 234.032 280.556 234.237C283.143 232.816 286.384 231.962 289.912 231.962Z" fill="#939598"/>
<path d="M289.922 222.422C284.564 222.422 280.225 227.438 280.225 233.622C280.225 239.808 284.564 244.824 289.922 244.824C295.279 244.824 299.618 239.808 299.618 233.622C299.618 227.438 295.279 222.422 289.922 222.422ZM289.922 244.035C284.943 244.035 280.908 239.371 280.908 233.619C280.908 227.87 284.943 223.206 289.922 223.206C294.9 223.206 298.935 227.87 298.935 233.619C298.937 239.374 294.9 244.035 289.922 244.035Z" fill="white"/>
<path d="M284.06 230.193C285.699 230.193 287.028 231.728 287.028 233.619C287.028 235.511 285.701 240.081 284.06 240.081C282.421 240.081 281.092 235.511 281.092 233.619C281.092 231.728 282.419 230.193 284.06 230.193Z" fill="#939598"/>
<path d="M284.06 230.193C285.699 230.193 287.028 231.728 287.028 233.619C287.028 235.511 285.701 237.045 284.06 237.045C282.421 237.045 281.092 235.511 281.092 233.619C281.092 231.728 282.419 230.193 284.06 230.193Z" fill="black"/>
<path d="M285.325 230.193C286.963 230.193 288.293 231.728 288.293 233.619C288.293 235.511 286.966 237.045 285.325 237.045C283.686 237.045 282.356 235.511 282.356 233.619C282.356 231.728 283.686 230.193 285.325 230.193Z" fill="white"/>
<path d="M176.778 189.944C176.778 186.542 173.322 169.085 173.315 169.078C169.594 165.712 120.446 164.984 79.3973 169.201C75.3431 169.618 65.1955 175.047 47.5477 190.349C38.8987 191.343 13.3813 194.48 9.525 197.271C4.87231 200.639 -1.01594 212.766 2.40359 228.089H69.0712C69.0712 216.322 77.1385 206.785 87.0907 206.785C97.0428 206.785 105.11 216.322 105.11 228.089H171.874C171.872 216.322 176.778 189.944 176.778 189.944Z" fill="#5B71BA"/>
<path d="M178.834 189.944C178.834 186.542 176.575 171.414 173.508 169.201C169.616 166.395 150.674 167.158 139.94 169.201C135.937 169.964 125.738 175.047 108.09 190.349C99.4415 191.343 73.9242 194.48 70.0678 197.271C67.6739 199.004 64.9566 203.052 63.3446 208.662C61.3875 215.475 55.1445 220.163 48.0544 220.163H1.4021C1.47691 222.682 1.7858 225.334 2.40118 228.089H69.0688C69.0688 216.322 77.1361 206.785 87.0882 206.785C97.0404 206.785 105.108 216.322 105.108 228.089H178.395L179.143 223.027V195.01L178.834 189.944Z" fill="#6F89F0"/>
<path d="M41.2467 222.202H19.0258C12.638 222.202 12.3074 225.445 11.2408 229.706H53.9958C52.9291 225.445 47.6345 222.202 41.2467 222.202Z" fill="black"/>
<path d="M178.834 189.944C178.834 186.542 176.575 171.414 173.508 169.201C169.615 166.395 150.674 167.158 139.94 169.201C135.937 169.964 125.738 175.047 108.09 190.349C99.4415 191.343 73.9241 194.48 70.0678 197.271C69.006 198.041 67.879 199.269 66.8148 200.885C82.2208 195.481 113.704 195.013 168.279 195.013H179.148L179.005 192.67L178.834 189.944Z" fill="#5D73BB"/>
<path d="M114.162 211.009C109.442 211.009 104.948 209.067 101.652 205.692C97.6991 201.641 92.6241 199.204 87.0833 199.204C74.2812 199.204 63.9454 212.204 64.2543 228.082C64.2567 228.084 64.2591 228.087 64.2616 228.089H69.0687C69.0687 216.322 77.1361 206.785 87.0882 206.785C97.0403 206.785 105.108 216.322 105.108 228.089H109.905C109.908 228.087 109.91 228.084 109.912 228.082C109.978 224.803 109.582 221.652 108.81 218.708H178.059L179.951 213.646L179.14 211.009H114.162Z" fill="#6F89F0"/>
<path d="M110.755 213.646C108.544 213.646 106.539 212.445 105.395 210.553C101.232 203.667 94.5836 199.204 87.0833 199.204C74.2812 199.204 63.9454 212.204 64.2543 228.082C64.2567 228.084 64.2591 228.087 64.2616 228.089H69.0687C69.0687 216.322 77.1361 206.785 87.0882 206.785C97.0403 206.785 105.108 216.322 105.108 228.089H109.905C109.908 228.087 109.91 228.084 109.912 228.082C109.978 224.803 109.582 221.652 108.81 218.708H179.143L179.954 217.96V213.646H110.755Z" fill="#8CA1F3"/>
<path d="M53.723 185.14C51.7756 186.732 49.7171 188.465 47.5452 190.349C40.2404 191.189 20.9057 193.558 12.7466 195.954C31.5721 195.517 71.9573 194.091 80.2274 189.794C85.6354 186.986 70.4008 185.712 53.723 185.14Z" fill="#5D73BB"/>
<path d="M140.814 172.762C137.691 173.448 130.253 177.595 117.729 189.422C117.169 189.951 116.853 190.696 116.853 191.473C116.853 192.335 117.558 193.027 118.419 193.003C123.622 192.868 140.874 192.397 156.468 191.739C156.497 181.419 156.258 174.138 156.14 171.136C150.035 171.43 144.257 172.01 140.814 172.762Z" fill="#231F20"/>
<path d="M104.874 190.349C118.195 178.799 127.268 173.074 132.64 170.63H74.9738C69.5586 173.11 60.6104 179.023 47.5452 190.349H47.5428H104.874Z" fill="black"/>
<path d="M41.2467 218.708H19.0258C12.638 218.708 12.3074 215.381 11.2408 211.009H53.9958C52.9291 215.381 47.6345 218.708 41.2467 218.708Z" fill="black"/>
<path d="M71.5809 172.384C66.4528 175.289 59.2228 180.392 49.6375 188.552H100.708C103.356 188.552 105.921 187.625 107.963 185.946C115.313 179.902 121.141 175.856 125.569 173.245C125.977 173.004 125.808 172.384 125.333 172.384H71.5809Z" fill="#709AA3"/>
<path d="M67.0971 200.572H56.5417C53.9257 201.643 49.8498 202.336 45.2526 202.336H20.6861C16.0889 202.336 14.3345 201.643 13.3402 200.572H6.48185C4.48853 203.477 2.68103 207.745 1.85812 212.952H63.0043C66.8968 212.952 70.0509 209.798 70.0509 205.906V203.523C70.0484 201.894 68.726 200.572 67.0971 200.572Z" fill="black"/>
<path d="M55.13 205.011L54.1454 207.045C53.699 207.964 54.3698 209.036 55.3931 209.036H67.9683C68.4389 209.036 68.8636 208.744 69.0229 208.302C69.2932 207.559 69.4428 206.758 69.4428 205.921V203.537C69.4428 203.252 69.4018 202.98 69.3246 202.719C69.1605 202.164 68.6537 201.783 68.0769 201.783H60.275C58.0838 201.785 56.0856 203.038 55.13 205.011Z" fill="#5D73BB"/>
<path d="M57.9414 205.967L57.314 207.265C57.0292 207.851 57.4564 208.534 58.1103 208.534H66.5976C66.8945 207.936 67.0634 207.262 67.0634 206.548V205.028C67.0634 204.608 66.921 204.225 66.6869 203.911H61.2186C59.8237 203.911 58.5496 204.71 57.9414 205.967Z" fill="#5B71BA"/>
<path d="M56.4958 204.176L56.0687 205.057C55.8757 205.455 56.1652 205.918 56.6093 205.918H62.3793C62.5796 205.511 62.6978 205.055 62.6978 204.57V203.537C62.6978 203.252 62.6013 202.989 62.442 202.777H58.7257C57.7773 202.777 56.9109 203.32 56.4958 204.176Z" fill="white"/>
<path d="M63.4605 205.327L62.7944 206.705C62.4928 207.328 62.9465 208.051 63.6391 208.051H69.0978C69.315 207.378 69.4429 206.667 69.4429 205.921V203.537C69.4429 203.402 69.4284 203.272 69.4091 203.141H66.9428C65.4586 203.144 64.1072 203.993 63.4605 205.327Z" fill="#F7941D"/>
<path d="M8.59585 201.786H5.72654C4.55613 203.755 3.49672 206.203 2.71725 209.036H11.0573C12.0805 209.036 13.1086 207.967 12.9686 207.045L12.6645 205.012C12.3677 203.038 10.7871 201.786 8.59585 201.786Z" fill="#5D73BB"/>
<path d="M10.541 206.604L10.6737 207.484C10.734 207.882 10.2876 208.346 9.84594 208.346H4.07595C4.01079 207.938 4.04698 207.482 4.20867 206.997L4.55376 205.964C4.65029 205.68 4.83369 205.417 5.06295 205.204H8.77931C9.7277 205.207 10.4131 205.75 10.541 206.604Z" fill="#5B71BA"/>
<path d="M4.71788 208.054C5.41047 208.054 6.10548 207.33 6.01377 206.707L5.80623 205.33C5.69523 204.589 5.30912 204.005 4.7396 203.626C4.09285 204.951 3.50161 206.432 3.00208 208.056H4.71788V208.054Z" fill="#F7941D"/>
<path d="M11.4798 204.541L11.6125 205.421C11.6728 205.82 11.2264 206.283 10.7848 206.283H5.01476C4.9496 205.875 4.9858 205.419 5.14749 204.934L5.49258 203.901C5.5891 203.617 5.77251 203.354 6.00177 203.141H9.71812C10.6665 203.144 11.3519 203.687 11.4798 204.541Z" fill="white"/>
<path d="M167.808 200.227H164.058C162.699 200.227 161.582 199.151 161.536 197.79L160.578 169.807C160.578 168.559 169.787 169.553 169.787 169.553C173.424 170.543 174.951 182.667 175.798 191.442C176.254 196.152 172.543 200.227 167.808 200.227Z" fill="black"/>
<path d="M167.781 195.01H164.866C163.809 195.01 162.943 194.173 162.904 193.116L162.161 171.358C162.161 170.388 169.321 171.16 169.321 171.16C172.149 171.93 173.337 181.357 173.995 188.18C174.348 191.842 171.462 195.01 167.781 195.01Z" fill="#58595B"/>
<path opacity="0.5" d="M164.873 179.89C164.873 178.961 172.292 179.629 172.919 179.687C172.164 175.327 171.049 171.628 169.323 171.16C169.323 171.16 162.163 170.388 162.163 171.358L162.907 193.116C162.943 194.173 163.812 195.01 164.869 195.01H165.46L164.873 179.89Z" fill="white"/>
<path d="M125.335 172.384H71.5809C66.4528 175.289 59.2228 180.392 49.6375 188.552H57.1426C71.8101 178.707 79.892 175.204 83.0895 174.611C86.7262 173.935 92.6531 173.416 98.8333 173.153C98.2542 175.535 96.8955 180.927 94.7188 188.552H100.243L103.288 173.638C103.52 172.668 110.496 173.44 110.496 173.44C112.2 173.935 112.364 178.027 112.007 182.698C117.488 178.411 121.986 175.356 125.567 173.245C125.98 173.006 125.808 172.384 125.335 172.384Z" fill="#231F20"/>
<path d="M118.588 175.899H108.764C107.183 175.899 105.735 176.999 105.53 178.353L104.874 182.669C104.76 183.412 103.966 184.013 103.102 184.013C101.833 184.013 100.672 184.896 100.506 185.984L100.115 188.549H100.711C103.358 188.549 105.923 187.625 107.965 185.943C112.746 182.013 116.877 178.932 120.403 176.536C119.954 176.145 119.326 175.899 118.588 175.899ZM117.729 189.422C117.169 189.951 116.853 190.696 116.853 191.473C116.853 192.335 117.558 193.027 118.419 193.003C119.43 192.976 120.905 192.938 122.727 192.887L123.776 185.987C123.868 185.376 123.622 184.838 123.171 184.479C121.477 185.953 119.664 187.596 117.729 189.422ZM151.299 184.015C150.433 184.015 149.825 183.412 149.936 182.672L150.592 178.355C150.797 176.999 149.685 175.901 148.104 175.901H138.28C136.699 175.901 135.251 177.002 135.046 178.355L134.39 182.672C134.276 183.415 133.482 184.015 132.618 184.015C131.349 184.015 130.188 184.899 130.022 185.987L128.999 192.706C135.579 192.511 144.05 192.236 152.392 191.905L153.292 185.987C153.461 184.899 152.566 184.015 151.299 184.015Z" fill="#726658"/>
<path d="M61.0304 184.703C57.8932 184.703 54.8959 186.008 52.7602 188.308L52.531 188.554H100.708C103.356 188.554 105.921 187.627 107.963 185.948C108.479 185.523 108.988 185.111 109.49 184.703H61.0304Z" fill="#C49A6C"/>
<path opacity="0.5" d="M140.814 172.762C137.691 173.447 130.253 177.595 117.729 189.422C117.155 189.965 116.834 190.74 116.853 191.541C116.872 192.373 117.582 193.027 118.414 193.005C120.205 192.959 123.431 192.873 127.527 192.752C136.728 184.756 142.411 181.726 145.042 181.149C147.72 180.563 151.818 180.083 156.379 179.759C156.307 175.732 156.205 172.786 156.138 171.138C150.035 171.43 144.257 172.009 140.814 172.762Z" fill="white"/>
<path opacity="0.5" d="M97.0693 178.543H117.538C120.603 176.34 123.277 174.599 125.572 173.247C125.98 173.006 125.811 172.384 125.338 172.384H71.5809C66.4528 175.289 59.2228 180.392 49.6375 188.551H65.4972C74.706 182.047 85.7368 178.543 97.0693 178.543Z" fill="white"/>
<path d="M152.988 199.069C154.473 199.069 155.677 198.227 155.677 197.189C155.677 196.151 154.473 195.31 152.988 195.31C151.504 195.31 150.3 196.151 150.3 197.189C150.3 198.227 151.504 199.069 152.988 199.069Z" fill="#939598"/>
<path d="M154.972 198.251H150.332C149.745 198.251 149.272 197.775 149.272 197.191C149.272 196.605 149.748 196.132 150.332 196.132H154.972C155.559 196.132 156.032 196.607 156.032 197.191C156.032 197.775 155.556 198.251 154.972 198.251Z" fill="#939598"/>
<path d="M155.636 198.251H150.995C150.409 198.251 149.936 197.775 149.936 197.191C149.936 196.605 150.411 196.132 150.995 196.132H155.636C156.222 196.132 156.695 196.607 156.695 197.191C156.695 197.775 156.222 198.251 155.636 198.251Z" fill="white"/>
<path d="M158.597 169.633V169.276C151.227 169.544 144.137 170.214 139.928 171.117C138.125 171.505 130.999 173.925 114.963 188.785C114.326 189.376 113.962 190.214 113.962 191.087V226.692H157.972V226.369C159.731 194.803 158.696 171.72 158.597 169.633ZM114.321 191.089C114.321 190.317 114.645 189.574 115.209 189.053C131.178 174.253 138.224 171.855 140.005 171.471C144.04 170.603 150.978 169.954 158.24 169.679C158.346 171.901 159.367 194.906 157.615 226.335H114.321V191.089Z" fill="black"/>
<path d="M156.381 170.871C156.311 170.806 156.217 170.777 156.121 170.777C149.673 171.088 144.064 171.684 140.737 172.413C139.052 172.782 132.396 175.081 117.48 189.162C116.85 189.755 116.491 190.597 116.491 191.473C116.491 191.99 116.694 192.472 117.063 192.829C117.418 193.174 117.883 193.362 118.376 193.362C118.393 193.362 118.409 193.362 118.426 193.362C123.393 193.232 140.816 192.759 156.483 192.098C156.676 192.091 156.825 191.927 156.825 191.736C156.852 181.636 156.63 174.485 156.495 171.122C156.495 171.025 156.451 170.936 156.381 170.871ZM156.109 191.394C144.706 191.874 132.435 192.253 124.747 192.47V188.303C124.747 185.241 126.161 182.351 128.571 180.461C136.031 174.615 139.716 173.373 140.893 173.115C144.122 172.408 149.538 171.826 155.795 171.513C155.928 174.965 156.13 181.834 156.109 191.394Z" fill="black"/>
<path d="M133.994 203.735L124.874 196.277C124.269 195.782 123.916 195.042 123.916 194.258V189.386C123.916 187.943 125.087 187.731 126.53 188.911L133.994 195.013C134.706 195.597 135.285 196.646 135.285 197.358V203.498C135.285 204.213 134.706 204.316 133.994 203.735Z" fill="#939598"/>
<path d="M133.994 192.508H123.916V186.402C123.916 184.959 125.087 183.789 126.53 183.789H133.994C134.706 183.789 135.285 184.365 135.285 185.079V191.22C135.285 191.932 134.706 192.508 133.994 192.508Z" fill="#414042"/>
<path d="M132.459 192.508H123.916V186.402C123.916 184.959 125.087 183.789 126.53 183.789H132.459C133.171 183.789 133.75 184.365 133.75 185.079V191.22C133.748 191.932 133.171 192.508 132.459 192.508Z" fill="#808285"/>
<path d="M133.748 188.149H124.153V187.335C124.153 186.168 125.101 185.219 126.269 185.219H132.703C133.28 185.219 133.748 185.687 133.748 186.264V188.149Z" fill="#6F89F0"/>
<path d="M131.004 186.655H126.66C125.944 186.655 125.362 186.073 125.362 185.357C125.362 184.64 125.944 184.059 126.66 184.059H131.004C131.721 184.059 132.302 184.64 132.302 185.357C132.305 186.073 131.721 186.655 131.004 186.655Z" fill="white"/>
<path d="M127.623 192.508H123.098C122.526 192.508 122.061 192.045 122.061 191.471C122.061 190.899 122.524 190.433 123.098 190.433H127.623C128.195 190.433 128.661 190.897 128.661 191.471C128.661 192.045 128.197 192.508 127.623 192.508Z" fill="#414042"/>
<path d="M127.152 192.508H122.628C122.056 192.508 121.59 192.045 121.59 191.471C121.59 190.899 122.053 190.433 122.628 190.433H127.152C127.724 190.433 128.19 190.897 128.19 191.471C128.19 192.045 127.724 192.508 127.152 192.508Z" fill="#808285"/>
<path d="M126.885 190.436H122.628C122.056 190.436 121.59 190.899 121.59 191.473H125.847C126.419 191.473 126.885 191.007 126.885 190.436Z" fill="#5D73BB"/>
<path d="M40.2573 216.655H19.8825C17.8096 216.655 16.0793 215.232 15.8959 213.376L15.1719 206.02C15.044 204.731 16.1758 203.624 17.6141 203.624H49.8113C51.6839 203.624 52.8664 205.436 51.9494 206.903L48.6095 212.257C46.9178 214.973 43.7227 216.655 40.2573 216.655Z" fill="#5D73BB"/>
<path d="M38.9155 215.847H21.6803C19.9259 215.847 18.4635 214.657 18.309 213.106L17.6961 206.953C17.5899 205.877 18.5455 204.948 19.7618 204.948H46.9998C48.5853 204.948 49.5843 206.464 48.8097 207.692L45.9838 212.17C44.5479 214.44 41.8451 215.847 38.9155 215.847Z" fill="black"/>
<path d="M119.075 214.812H115.762V217.526H119.075V214.812Z" fill="black"/>
<path d="M122.391 214.812H119.078V217.526H122.391V214.812Z" fill="#596FB9"/>
<path d="M125.705 214.812H122.391V217.526H125.705V214.812Z" fill="black"/>
<path d="M129.02 214.812H125.707V217.526H129.02V214.812Z" fill="#596FB9"/>
<path d="M132.334 214.812H129.02V217.526H132.334V214.812Z" fill="black"/>
<path d="M135.647 214.812H132.334V217.526H135.647V214.812Z" fill="#596FB9"/>
<path d="M138.963 214.812H135.649V217.526H138.963V214.812Z" fill="black"/>
<path d="M142.276 214.812H138.963V217.526H142.276V214.812Z" fill="#596FB9"/>
<path d="M145.592 214.812H142.279V217.526H145.592V214.812Z" fill="black"/>
<path d="M148.905 214.812H145.592V217.526H148.905V214.812Z" fill="#596FB9"/>
<path d="M152.221 214.812H148.908V217.526H152.221V214.812Z" fill="black"/>
<path d="M155.534 214.812H152.221V217.526H155.534V214.812Z" fill="#596FB9"/>
<path d="M158.85 214.812H155.537V217.526H158.85V214.812Z" fill="black"/>
<path d="M162.163 214.812H158.85V217.526H162.163V214.812Z" fill="#596FB9"/>
<path d="M165.479 214.812H162.166V217.526H165.479V214.812Z" fill="black"/>
<path d="M168.793 214.812H165.479V217.526H168.793V214.812Z" fill="#596FB9"/>
<path d="M172.108 214.812H168.795V217.526H172.108V214.812Z" fill="black"/>
<path d="M178.747 214.812H175.434V217.526H178.747V214.812Z" fill="black"/>
<path d="M175.422 214.812H172.108V217.526H175.422V214.812Z" fill="#596FB9"/>
<path d="M296.939 216.218L188.921 206.635V201.334L297.405 210.959C298.769 211.079 299.811 212.221 299.811 213.589C299.811 215.138 298.484 216.356 296.939 216.218Z" fill="#596FB9"/>
<path d="M269.139 217.526H188.921V237.067H269.139V217.526Z" fill="#6F89F0"/>
<path d="M212.655 230.642V232.96H206.318V230.642H205.413V233.966H213.56V230.642H212.655Z" fill="#939598"/>
<path d="M205.415 230.875H217.1V228.173H205.415V230.875Z" fill="black"/>
<path d="M209.029 230.875H217.099V228.173H209.029V230.875Z" fill="#231F20"/>
<path d="M209.487 230.386H211.224C211.395 230.386 211.535 230.246 211.535 230.075V228.967C211.535 228.796 211.395 228.656 211.224 228.656H209.487V230.386Z" fill="#FBB040"/>
<path d="M209.487 230.386H209.619C209.791 230.386 209.931 230.246 209.931 230.075V228.967C209.931 228.796 209.791 228.656 209.619 228.656H209.487V230.386Z" fill="#F7941D"/>
<path d="M215.175 230.386H216.912C217.083 230.386 217.223 230.246 217.223 230.075V228.967C217.223 228.796 217.083 228.656 216.912 228.656H215.175V230.386Z" fill="#FBB040"/>
<path d="M215.175 230.386H215.307C215.479 230.386 215.619 230.246 215.619 230.075V228.967C215.619 228.796 215.479 228.656 215.307 228.656H215.175V230.386Z" fill="#F7941D"/>
<path d="M229.195 235.523H190.367V219.932H229.195V235.523ZM190.705 235.187H228.86V220.269H190.705V235.187Z" fill="black"/>
<path d="M251.148 230.642V232.96H244.809V230.642H243.906V233.966H252.053V230.642H251.148Z" fill="#939598"/>
<path d="M243.906 230.875H255.591V228.173H243.906V230.875Z" fill="black"/>
<path d="M247.522 230.875H255.592V228.173H247.522V230.875Z" fill="#231F20"/>
<path d="M247.98 230.386H249.717C249.889 230.386 250.029 230.246 250.029 230.075V228.967C250.029 228.796 249.889 228.656 249.717 228.656H247.98V230.386Z" fill="#FBB040"/>
<path d="M247.98 230.386H248.113C248.284 230.386 248.424 230.246 248.424 230.075V228.967C248.424 228.796 248.284 228.656 248.113 228.656H247.98V230.386Z" fill="#F7941D"/>
<path d="M253.668 230.386H255.405C255.577 230.386 255.717 230.246 255.717 230.075V228.967C255.717 228.796 255.577 228.656 255.405 228.656H253.668V230.386Z" fill="#FBB040"/>
<path d="M253.668 230.386H253.801C253.972 230.386 254.112 230.246 254.112 230.075V228.967C254.112 228.796 253.972 228.656 253.801 228.656H253.668V230.386Z" fill="#F7941D"/>
<path d="M267.689 235.523H228.86V219.932H267.689V235.523ZM229.195 235.187H267.351V220.269H229.195V235.187Z" fill="black"/>
<path d="M368.805 239.859L297.082 216.117C295.713 215.664 294.97 214.187 295.424 212.819C295.877 211.451 297.354 210.708 298.723 211.161L370.446 234.903C371.814 235.356 372.558 236.833 372.104 238.201C371.65 239.569 370.173 240.312 368.805 239.859Z" fill="#D4DCFB"/>
<path d="M309.068 215.432L305.675 214.309L304.543 217.728L307.935 218.851L309.068 215.432Z" fill="#6F89F0"/>
<path d="M312.465 216.553L309.072 215.43L307.94 218.85L311.332 219.973L312.465 216.553Z" fill="white"/>
<path d="M315.853 217.68L312.46 216.557L311.328 219.976L314.721 221.099L315.853 217.68Z" fill="#6F89F0"/>
<path d="M319.253 218.8L315.86 217.676L314.728 221.096L318.121 222.219L319.253 218.8Z" fill="white"/>
<path d="M322.642 219.926L319.249 218.803L318.116 222.223L321.509 223.346L322.642 219.926Z" fill="#6F89F0"/>
<path d="M326.041 221.048L322.648 219.925L321.516 223.345L324.908 224.468L326.041 221.048Z" fill="white"/>
<path d="M329.43 222.173L326.037 221.049L324.905 224.469L328.297 225.592L329.43 222.173Z" fill="#6F89F0"/>
<path d="M332.827 223.294L329.434 222.171L328.302 225.59L331.695 226.713L332.827 223.294Z" fill="white"/>
<path d="M336.218 224.419L332.826 223.296L331.693 226.715L335.086 227.838L336.218 224.419Z" fill="#6F89F0"/>
<path d="M339.612 225.542L336.219 224.419L335.087 227.839L338.48 228.962L339.612 225.542Z" fill="white"/>
<path d="M343.009 226.666L339.616 225.543L338.484 228.962L341.877 230.085L343.009 226.666Z" fill="#6F89F0"/>
<path d="M346.401 227.789L343.008 226.666L341.875 230.085L345.268 231.208L346.401 227.789Z" fill="white"/>
<path d="M349.795 228.911L346.403 227.788L345.27 231.208L348.663 232.331L349.795 228.911Z" fill="#6F89F0"/>
<path d="M353.188 230.037L349.795 228.914L348.663 232.334L352.056 233.457L353.188 230.037Z" fill="white"/>
<path d="M356.585 231.157L353.192 230.034L352.06 233.453L355.453 234.577L356.585 231.157Z" fill="#6F89F0"/>
<path d="M359.975 232.284L356.583 231.161L355.45 234.581L358.843 235.704L359.975 232.284Z" fill="white"/>
<path d="M363.373 233.405L359.98 232.282L358.847 235.702L362.24 236.825L363.373 233.405Z" fill="#6F89F0"/>
<path d="M370.168 235.656L366.775 234.533L365.642 237.953L369.035 239.076L370.168 235.656Z" fill="#6F89F0"/>
<path d="M366.762 234.53L363.369 233.407L362.236 236.826L365.629 237.95L366.762 234.53Z" fill="white"/>
<path d="M297.924 212.148C298.645 212.148 299.232 212.824 299.232 213.656C299.232 214.488 298.648 216.228 297.924 216.228C297.202 216.228 296.616 214.491 296.616 213.656C296.616 212.824 297.2 212.148 297.924 212.148Z" fill="#939598"/>
<mask id="mask2_50_185" style="mask-type:luminance" maskUnits="userSpaceOnUse" x="296" y="212" width="3" height="4">
<path d="M298.312 215.167H297.924C297.202 215.167 296.616 214.491 296.616 213.659C296.616 212.826 297.2 212.151 297.924 212.151H298.312C297.591 212.151 297.004 212.826 297.004 213.659C297.004 214.491 297.588 215.167 298.312 215.167Z" fill="white"/>
</mask>
<g mask="url(#mask2_50_185)">
<path d="M298.312 215.166H297.924C297.202 215.166 296.616 214.491 296.616 213.658C296.616 213.47 296.645 213.292 296.7 213.125H297.089C297.036 213.292 297.004 213.47 297.004 213.658C297.004 214.491 297.588 215.166 298.312 215.166Z" fill="black"/>
<path d="M297.089 213.125H296.7C296.753 212.961 296.831 212.812 296.93 212.679H297.318C297.219 212.809 297.142 212.961 297.089 213.125Z" fill="#6D6E71"/>
<path d="M297.316 212.679H296.927C297.166 212.356 297.523 212.148 297.921 212.148H298.31C297.912 212.148 297.557 212.353 297.316 212.679Z" fill="#5B71BA"/>
</g>
<path d="M298.312 212.148C299.034 212.148 299.62 212.824 299.62 213.656C299.62 214.488 299.036 215.164 298.312 215.164C297.588 215.164 297.004 214.488 297.004 213.656C297.004 212.824 297.588 212.148 298.312 212.148Z" fill="#939598"/>
<path d="M298.312 212.52C298.858 212.52 299.297 213.029 299.297 213.656C299.297 214.283 298.855 214.795 298.312 214.795C297.769 214.795 297.328 214.286 297.328 213.656C297.325 213.029 297.767 212.52 298.312 212.52Z" fill="black"/>
<path d="M247.937 147.231C247.804 149.791 247.571 152.265 247.192 154.785C246.865 157.388 246.295 159.954 245.49 162.451C245.236 163.179 244.918 163.882 244.539 164.553C244.276 165.005 243.954 165.421 243.582 165.789L243.396 165.962L243.289 166.042L243.236 166.089L243.01 166.242L242.564 166.554C241.435 167.279 240.247 167.908 239.014 168.436C236.672 169.465 234.239 170.271 231.746 170.843L230.881 168.476C232.996 167.305 235.164 166.109 237.139 164.865C238.104 164.273 239.032 163.622 239.918 162.917L240.211 162.671L240.357 162.544C240.357 162.544 240.417 162.445 240.49 162.285C240.684 161.855 240.844 161.41 240.969 160.955C241.269 159.862 241.507 158.752 241.68 157.631C241.886 156.474 242.052 155.297 242.192 154.1C242.465 151.726 242.697 149.292 242.857 146.925L247.937 147.231Z" fill="#CE7A63"/>
<path d="M232.457 168.509L228.375 167.246L229.139 172.186C229.139 172.186 231.799 171.854 233.129 170.364L232.457 168.509Z" fill="#CE7A63"/>
<path d="M223.427 170.424L223.654 171.089C223.781 171.456 224.025 171.772 224.347 171.989C224.67 172.206 225.054 172.313 225.442 172.292L227.524 172.199L226.752 167.246L224.465 168.143C224.031 168.316 223.681 168.65 223.487 169.075C223.294 169.5 223.272 169.983 223.427 170.424Z" fill="#CE7A63"/>
<path d="M252.765 142.437C252.765 143.979 252.02 147.025 251.382 149.312C250.909 150.955 250.517 152.205 250.517 152.205L249.58 151.972L241.853 150.017C241.733 146.027 241.886 141.685 245.843 139.079C248.316 137.443 252.745 139.69 252.765 142.437Z" fill="#263238"/>
<path opacity="0.3" d="M252.758 142.703C252.253 142.171 251.109 142.078 248.615 142.869C245.045 143.999 244.047 147.909 244.001 150.562L249.58 151.972L250.058 152.098L250.517 152.205C250.517 152.205 250.71 151.58 250.989 150.629C251.102 150.243 251.242 149.791 251.375 149.299C252.04 147.148 252.503 144.94 252.758 142.703Z" fill="black"/>
<path d="M236.906 266.568L232.191 264.919L235.157 254.705L239.865 256.361L236.906 266.568Z" fill="#CE7A63"/>
<path d="M299.896 254.466L296.059 257.325L288.206 249.366L292.043 246.506L299.896 254.466Z" fill="#CE7A63"/>
<path d="M294.49 256.161L298.632 252.737C298.702 252.676 298.792 252.643 298.885 252.643C298.978 252.643 299.067 252.676 299.137 252.737L302.316 255.623C302.387 255.694 302.444 255.778 302.483 255.871C302.521 255.964 302.541 256.064 302.541 256.165C302.541 256.265 302.521 256.365 302.483 256.458C302.444 256.551 302.387 256.636 302.316 256.707L302.249 256.766C300.787 257.937 300.015 258.429 298.193 259.932C297.076 260.856 294.729 263.07 293.18 264.347C291.63 265.623 290.287 264.167 290.819 263.496C293.193 260.49 293.745 258.509 294.024 256.886C294.091 256.598 294.256 256.342 294.49 256.161Z" fill="#263238"/>
<path d="M231.872 263.442L237.112 265.63C237.205 265.671 237.283 265.741 237.333 265.83C237.384 265.918 237.404 266.021 237.391 266.122L236.799 270.743C236.776 270.928 236.681 271.097 236.533 271.211C236.386 271.326 236.2 271.378 236.015 271.355C235.946 271.348 235.879 271.33 235.815 271.302C233.96 270.551 233.089 270.178 230.788 269.214L223.727 266.255C221.812 265.451 222.224 263.349 223.062 263.502C226.938 264.207 229.439 263.974 230.968 263.396C231.114 263.344 231.269 263.321 231.425 263.329C231.58 263.337 231.732 263.375 231.872 263.442Z" fill="#263238"/>
<path opacity="0.2" d="M235.157 254.712L233.634 259.971L238.222 262.046L239.871 256.361L235.157 254.712Z" fill="black"/>
<path opacity="0.2" d="M292.049 246.506L288.206 249.366L292.255 253.468L296.092 250.609L292.049 246.506Z" fill="black"/>
<path d="M267.26 167.399L247.844 167.678C245.184 152.644 244.519 145.469 244.519 142.018C244.516 141.157 244.813 140.322 245.359 139.657C245.905 138.992 246.667 138.538 247.512 138.374C248.695 138.141 250.171 137.875 251.654 137.669C252.16 137.603 252.672 137.536 253.177 137.483C256.109 137.231 259.056 137.189 261.994 137.357C262.433 137.357 262.865 137.396 263.324 137.423C265.319 137.549 267.141 137.802 268.437 138.002C268.904 138.077 269.321 138.334 269.598 138.717C269.875 139.099 269.988 139.576 269.913 140.043C269.917 140.076 269.917 140.109 269.913 140.143C269.342 142.802 268.876 145.163 268.504 147.264C267.912 150.589 267.54 153.302 267.32 155.669C266.988 159.571 266.968 163.493 267.26 167.399Z" fill="#263238"/>
<path opacity="0.1" d="M267.313 155.689C266.336 152.757 266.389 146.672 267.44 144.704L268.51 147.277C267.905 150.622 267.533 153.322 267.313 155.689Z" fill="black"/>
<path d="M247.844 167.678C247.844 167.678 244.519 195.944 241.52 213.559C239.147 227.349 233.149 256.055 233.149 256.055L240.935 258.814C240.935 258.814 249.852 228.892 251.415 216.112C257.698 197.687 262.22 167.538 262.22 167.538L247.844 167.678Z" fill="#6F89F0"/>
<path d="M231.886 257.983L240.895 261.155L242.099 258.262L232.324 254.526L231.886 257.983Z" fill="#263238"/>
<path opacity="0.1" d="M257.685 176.076L254.773 181.655C253.709 185.857 253.962 196.084 255.311 202.547C257.732 192.806 259.667 182.552 260.87 175.67L257.685 176.076Z" fill="black"/>
<path d="M252.06 167.678C252.06 167.678 255.537 199.316 262.034 216.883C265.292 225.694 289.463 251.813 289.463 251.813L294.915 247.451C294.915 247.451 279.588 221.099 272.886 214.204C270.153 198.91 273.591 175.983 267.24 167.405L252.06 167.678Z" fill="#6F89F0"/>
<path d="M289.921 253.681L296.318 248.441L294.589 245.602L287.588 251.7L289.921 253.681Z" fill="#263238"/>
<path d="M267.566 166.261L268.464 167.984C268.53 168.117 268.377 168.263 268.151 168.263L247.778 168.555C247.598 168.555 247.458 168.469 247.438 168.363L247.246 166.627C247.246 166.507 247.385 166.401 247.571 166.401L267.24 166.115C267.302 166.111 267.364 166.123 267.421 166.148C267.478 166.174 267.528 166.213 267.566 166.261Z" fill="#263238"/>
<path d="M264.926 168.509H265.465C265.565 168.509 265.645 168.449 265.638 168.389L265.352 166.128C265.352 166.062 265.259 166.015 265.152 166.015H264.654C264.547 166.015 264.468 166.075 264.481 166.135L264.76 168.389C264.727 168.442 264.827 168.509 264.926 168.509Z" fill="#6F89F0"/>
<path d="M249.24 168.722H249.772C249.879 168.722 249.952 168.662 249.945 168.595L249.673 166.341C249.673 166.275 249.566 166.222 249.46 166.222H248.928C248.822 166.222 248.742 166.281 248.748 166.348L249.028 168.602C249.041 168.669 249.134 168.722 249.24 168.722Z" fill="#6F89F0"/>
<path d="M257.087 168.595H257.619C257.725 168.595 257.805 168.535 257.798 168.469L257.519 166.215C257.519 166.142 257.419 166.089 257.313 166.095H256.781C256.674 166.095 256.601 166.155 256.601 166.222L256.881 168.476C256.874 168.555 256.98 168.595 257.087 168.595Z" fill="#6F89F0"/>
<path d="M221.858 147.776L250.677 143.82L254.666 172.113L226.367 175.996L221.858 147.776Z" fill="#6F89F0"/>
<path opacity="0.8" d="M221.858 147.776L250.677 143.82L254.666 172.113L226.367 175.996L221.858 147.776Z" fill="white"/>
<path opacity="0.2" d="M251.072 142.454L243.377 143.542L247.505 172.73L255.2 171.642L251.072 142.454Z" fill="#6F89F0"/>
<path d="M258.849 168.549L254.859 166.986L255.251 171.973C255.251 171.973 257.911 171.84 259.341 170.451L258.849 168.549Z" fill="#CE7A63"/>
<path d="M271.396 143.72C272.467 146.712 273.391 149.704 274.176 152.763C274.575 154.299 274.947 155.842 275.246 157.418C275.393 158.216 275.519 159.027 275.612 159.871C275.719 160.754 275.757 161.643 275.725 162.531C275.706 163.11 275.617 163.683 275.459 164.24C275.241 164.925 274.875 165.553 274.388 166.082C273.677 166.844 272.832 167.468 271.895 167.924C270.36 168.668 268.745 169.233 267.081 169.606C263.969 170.328 260.797 170.753 257.605 170.876L257.293 168.369C258.749 168.024 260.239 167.638 261.688 167.232C263.138 166.827 264.581 166.375 265.964 165.869C267.285 165.415 268.558 164.834 269.767 164.134C270.206 163.877 270.598 163.546 270.924 163.156C271.011 163.023 271.011 162.99 270.997 162.99C271.011 162.793 271.011 162.595 270.997 162.398C270.972 161.754 270.903 161.112 270.791 160.477C270.685 159.812 270.538 159.067 270.379 158.335C270.046 156.912 269.674 155.456 269.255 154C268.424 151.114 267.486 148.182 266.549 145.356L271.396 143.72Z" fill="#CE7A63"/>
<path d="M251.182 169.447L251.495 170.604C251.588 170.975 251.801 171.306 252.1 171.546C252.398 171.786 252.767 171.922 253.15 171.933L255.291 171.993L254.899 167.013L252.718 167.259C252.487 167.282 252.262 167.351 252.057 167.461C251.852 167.571 251.671 167.721 251.524 167.901C251.377 168.082 251.267 168.289 251.2 168.512C251.134 168.735 251.112 168.969 251.136 169.201C251.145 169.284 251.161 169.366 251.182 169.447Z" fill="#CE7A63"/>
<path d="M269.129 138.148C271.363 139.059 273.192 146.4 273.192 146.4L267.021 151.22C267.021 151.22 262.646 144.372 263.537 141.399C264.295 138.886 266.283 136.997 269.129 138.148Z" fill="#263238"/>
<path d="M292.98 258.236H292.9C292.789 258.228 292.681 258.193 292.587 258.132C292.493 258.072 292.415 257.988 292.362 257.89C292.322 257.834 292.298 257.767 292.292 257.698C292.287 257.63 292.299 257.56 292.329 257.498C292.601 256.966 294.323 256.753 294.51 256.733C294.532 256.729 294.554 256.732 294.575 256.741C294.595 256.751 294.612 256.767 294.623 256.786C294.635 256.805 294.642 256.827 294.642 256.85C294.642 256.872 294.635 256.894 294.623 256.913C294.264 257.398 293.565 258.196 292.98 258.236ZM294.277 256.993C293.612 257.092 292.674 257.312 292.541 257.604C292.525 257.629 292.517 257.658 292.517 257.687C292.517 257.717 292.525 257.746 292.541 257.77C292.573 257.839 292.622 257.897 292.684 257.939C292.746 257.981 292.819 258.006 292.894 258.01C293.226 258.01 293.758 257.651 294.29 256.993H294.277Z" fill="#263238"/>
<path d="M294.43 256.946C293.851 256.946 292.694 256.74 292.435 256.281C292.394 256.201 292.38 256.11 292.397 256.022C292.414 255.934 292.46 255.854 292.528 255.796C292.587 255.731 292.659 255.68 292.739 255.647C292.82 255.614 292.906 255.599 292.993 255.603C293.692 255.603 294.576 256.673 294.603 256.733C294.613 256.749 294.618 256.767 294.618 256.786C294.618 256.805 294.613 256.824 294.603 256.839C294.597 256.859 294.586 256.876 294.571 256.89C294.555 256.903 294.536 256.911 294.516 256.913L294.43 256.946ZM292.954 255.842C292.86 255.851 292.773 255.894 292.708 255.962C292.608 256.068 292.628 256.135 292.654 256.188C292.807 256.48 293.718 256.72 294.303 256.72C293.97 256.301 293.518 255.993 293.007 255.835L292.954 255.842Z" fill="#263238"/>
<path d="M229.192 263.336C228.823 263.216 228.5 262.983 228.268 262.671C228.216 262.579 228.184 262.477 228.174 262.371C228.165 262.266 228.179 262.159 228.215 262.059C228.233 262.002 228.266 261.95 228.31 261.909C228.355 261.869 228.409 261.84 228.468 261.827C229.079 261.714 230.522 263.263 230.802 263.575C230.815 263.595 230.822 263.618 230.822 263.642C230.822 263.666 230.815 263.689 230.802 263.708C230.79 263.729 230.773 263.746 230.751 263.756C230.729 263.765 230.705 263.767 230.682 263.762C230.172 263.671 229.673 263.528 229.192 263.336ZM228.734 262.086C228.665 262.053 228.59 262.039 228.514 262.046C228.514 262.046 228.454 262.046 228.428 262.126C228.401 262.195 228.391 262.27 228.398 262.343C228.405 262.417 228.429 262.488 228.468 262.551C228.674 262.911 229.385 263.25 230.396 263.469C229.922 262.925 229.365 262.458 228.747 262.086H228.734Z" fill="#263238"/>
<path d="M230.675 263.748H230.635C230.15 263.263 229.359 261.807 229.631 261.341C229.691 261.241 229.818 261.135 230.103 261.215C231.174 261.527 230.848 263.602 230.828 263.688C230.828 263.71 230.82 263.731 230.805 263.747C230.791 263.763 230.77 263.773 230.748 263.775C230.735 263.778 230.721 263.777 230.708 263.772C230.695 263.767 230.684 263.759 230.675 263.748ZM230.143 261.428H230.077C229.97 261.394 229.891 261.428 229.864 261.428C229.705 261.7 230.217 262.797 230.682 263.383C230.675 262.871 230.742 261.694 230.143 261.428Z" fill="#263238"/>
<path d="M250.743 117.462C250.743 117.462 248.083 121.91 250.078 123.858C252.073 125.807 252.658 118.898 252.658 118.898L250.743 117.462Z" fill="#263238"/>
<path d="M263.098 127.901C263.098 127.901 266.422 122.701 265.039 117.535C263.656 112.368 257.193 115.706 254.467 114.29C253.468 113.683 252.404 113.19 251.295 112.82C251.117 112.767 250.929 112.756 250.746 112.787C250.562 112.818 250.389 112.891 250.238 113C249.573 113.585 250.73 114.682 251.089 115.094C250.868 114.839 250.613 114.615 250.331 114.429C249.979 114.197 249.506 114.177 249.666 114.769C249.939 115.404 250.43 115.923 251.049 116.231C250.79 116.085 249.254 115.307 249.147 115.793C249.134 115.91 249.165 116.029 249.234 116.125C250.231 117.987 252.239 120.327 254.553 120.374C257.339 120.414 259.999 128.254 263.098 127.901Z" fill="#263238"/>
<path d="M264.275 128.134C264.102 129.889 261.495 129.909 261.495 129.909C261.069 130.914 260.359 131.773 259.454 132.383C259.374 133.443 259.409 134.509 259.56 135.561C259.999 137.217 260.558 137.789 261.256 138.161L260.697 138.713C259.628 139.33 258.42 139.666 257.186 139.69L256.455 139.265L255.498 139.418C252.838 138.547 253.503 136.758 253.503 136.758C253.988 135.543 254.014 134.194 253.576 132.961C251.022 132.163 249.979 129.942 249.619 126.206C249.26 122.469 251.362 118.891 251.362 118.891C254.247 121.677 259.966 119.889 259.966 119.889C259.72 125.128 262.167 127.063 262.167 127.063C262.971 126.345 264.441 126.385 264.275 128.134Z" fill="#CE7A63"/>
<path d="M254.992 128.613C255.678 128.421 256.272 127.986 256.661 127.389C256.693 127.342 256.705 127.285 256.695 127.229C256.685 127.173 256.654 127.123 256.608 127.09C256.585 127.073 256.56 127.061 256.532 127.054C256.505 127.048 256.476 127.046 256.449 127.051C256.421 127.055 256.394 127.065 256.37 127.08C256.346 127.094 256.325 127.114 256.309 127.136C256.084 127.54 255.737 127.861 255.317 128.052C254.897 128.244 254.426 128.296 253.975 128.2C253.921 128.184 253.863 128.189 253.813 128.215C253.763 128.241 253.726 128.286 253.709 128.34C253.692 128.395 253.697 128.454 253.723 128.505C253.749 128.556 253.794 128.594 253.848 128.613C254.223 128.711 254.617 128.711 254.992 128.613Z" fill="#263238"/>
<path d="M255.75 124.038C255.75 124.377 255.617 124.669 255.391 124.703C255.165 124.736 254.959 124.457 254.932 124.118C254.906 123.778 255.072 123.453 255.298 123.453C255.524 123.453 255.724 123.692 255.75 124.038Z" fill="#263238"/>
<path d="M251.681 123.865C251.681 124.204 251.548 124.497 251.322 124.53C251.096 124.563 250.896 124.284 250.87 123.945C250.843 123.606 251.003 123.313 251.229 123.28C251.455 123.246 251.661 123.519 251.681 123.865Z" fill="#263238"/>
<path d="M252.758 127.156L252.711 124.696L251.488 126.771C251.657 126.926 251.859 127.042 252.079 127.109C252.299 127.175 252.531 127.192 252.758 127.156Z" fill="#BA4D3C"/>
<path d="M257.605 121.963C257.634 121.955 257.661 121.942 257.685 121.923C257.718 121.904 257.746 121.879 257.768 121.848C257.791 121.818 257.807 121.784 257.815 121.747C257.824 121.71 257.825 121.672 257.819 121.635C257.813 121.598 257.799 121.563 257.778 121.531C257.557 121.16 257.236 120.858 256.851 120.661C256.467 120.463 256.035 120.378 255.604 120.414C255.566 120.418 255.53 120.429 255.497 120.448C255.465 120.466 255.436 120.491 255.413 120.521C255.39 120.551 255.373 120.585 255.364 120.621C255.354 120.658 255.352 120.696 255.358 120.733C255.368 120.808 255.407 120.876 255.467 120.922C255.527 120.968 255.602 120.988 255.677 120.979C255.999 120.959 256.319 121.028 256.604 121.178C256.889 121.328 257.128 121.554 257.293 121.83C257.324 121.883 257.371 121.924 257.427 121.948C257.483 121.972 257.546 121.977 257.605 121.963Z" fill="#263238"/>
<path d="M250.391 121.691C250.466 121.671 250.53 121.623 250.57 121.558C250.69 121.377 250.859 121.235 251.057 121.149C251.255 121.063 251.474 121.036 251.687 121.072C251.724 121.08 251.762 121.08 251.799 121.073C251.836 121.066 251.871 121.051 251.902 121.03C251.933 121.009 251.959 120.982 251.979 120.95C252 120.918 252.014 120.883 252.02 120.846C252.034 120.772 252.017 120.696 251.975 120.633C251.933 120.571 251.868 120.528 251.794 120.514C251.465 120.453 251.125 120.492 250.819 120.628C250.513 120.763 250.255 120.987 250.078 121.272C250.041 121.337 250.031 121.415 250.049 121.488C250.068 121.561 250.114 121.624 250.178 121.664C250.243 121.699 250.319 121.708 250.391 121.691Z" fill="#263238"/>
<path d="M262.34 138.394L260.91 139.79L258.363 142.29L257.406 140.768L256.455 139.265L259.78 135.302L262.2 138.228L262.34 138.394Z" fill="white"/>
<path d="M256.455 139.265L255.717 140.495L254.633 142.29L252.146 137.802L253.735 135.934L256.455 139.265Z" fill="white"/>
</g>
<defs>
<clipPath id="clip0_50_185">
<rect width="386" height="271" fill="white"/>
</clipPath>
</defs>
</svg>
