<svg width="115" height="78" viewBox="0 0 115 78" fill="none" xmlns="http://www.w3.org/2000/svg">
<path d="M4.32526 61.5281L8.4505 73.1789L12.5551 61.5281H16.9035V77.5907H13.5822V73.2L13.9125 65.6209L9.5774 77.5907H7.30443L2.97918 65.6307L3.30943 73.2V77.5907H0V61.5281H4.32526Z" fill="#211D1D"/>
<path d="M25.7844 76.3773C24.9971 77.3331 23.9085 77.8113 22.5187 77.8113C21.2385 77.8113 20.2629 77.4447 19.5892 76.7075C18.9174 75.9723 18.5719 74.8955 18.5586 73.4767V65.6538H21.7471V73.375C21.7471 74.6189 22.3133 75.241 23.4461 75.241C24.5268 75.241 25.2698 74.8665 25.6748 74.1141V65.6538H28.8732V77.5907H25.8729L25.7844 76.3773Z" fill="#211D1D"/>
<path d="M37.4983 74.2925C37.4983 73.9028 37.3041 73.5956 36.9183 73.371C36.5326 73.1464 35.9123 72.9469 35.0602 72.77C32.2206 72.1748 30.8003 70.9673 30.8003 69.1514C30.8003 68.0919 31.2396 67.2068 32.1188 66.4986C32.9985 65.7884 34.148 65.4331 35.5669 65.4331C37.0815 65.4331 38.2949 65.7904 39.2031 66.5045C40.1108 67.2171 40.5639 68.1439 40.5639 69.2846H37.3774C37.3774 68.8271 37.2294 68.4511 36.9355 68.1533C36.6402 67.856 36.1812 67.7061 35.5555 67.7061C35.0199 67.7061 34.6031 67.827 34.3092 68.0707C34.0158 68.3125 33.8679 68.6216 33.8679 68.9986C33.8679 69.3495 34.035 69.6355 34.3692 69.8522C34.7048 70.069 35.2695 70.2552 36.0642 70.4149C36.8569 70.5722 37.5268 70.7511 38.0723 70.9487C39.756 71.5669 40.5983 72.6383 40.5983 74.1603C40.5983 75.2489 40.13 76.13 39.1972 76.8038C38.262 77.4761 37.0564 77.8118 35.5786 77.8118C34.578 77.8118 33.6895 77.6334 32.914 77.2761C32.1385 76.9208 31.5296 76.4318 31.0883 75.8096C30.6464 75.1874 30.4258 74.5176 30.4258 73.7956H33.4492C33.4782 74.3637 33.6875 74.7977 34.0773 75.099C34.467 75.4002 34.9889 75.5506 35.6435 75.5506C36.2544 75.5506 36.7168 75.4351 37.0279 75.2031C37.3405 74.9722 37.4983 74.6689 37.4983 74.2925Z" fill="#211D1D"/>
<path d="M45.7667 62.7183V65.6537H47.8091V67.9945H45.7667V73.9509C45.7667 74.3922 45.8512 74.7092 46.0222 74.8994C46.1908 75.0915 46.5137 75.1874 46.9914 75.1874C47.3447 75.1874 47.6578 75.1603 47.93 75.1087V77.5257C47.3044 77.7178 46.6611 77.8117 45.9991 77.8117C43.7625 77.8117 42.6224 76.6828 42.5781 74.4256V67.9945H40.835V65.6537H42.5781V62.7183H45.7667Z" fill="#211D1D"/>
<path d="M49.6924 77.5907V61.5281H54.6359C56.0488 61.5281 57.3099 61.8451 58.4255 62.482C59.5391 63.1174 60.4104 64.0237 61.0346 65.1948C61.6602 66.3679 61.9732 67.7022 61.9732 69.1957V69.9348C61.9732 71.4284 61.6661 72.7548 61.0518 73.918C60.4375 75.0798 59.5715 75.9802 58.453 76.621C57.3354 77.2604 56.0744 77.5828 54.6683 77.5907H49.6924ZM53.0023 64.208V74.9314H54.603C55.897 74.9314 56.8857 74.5093 57.5713 73.6625C58.2549 72.8177 58.6044 71.6063 58.6196 70.0321V69.1834C58.6196 67.5498 58.28 66.3133 57.6043 65.4705C56.9265 64.6296 55.9377 64.2075 54.6364 64.2075L53.0023 64.208Z" fill="#211D1D"/>
<path d="M69.3576 77.8113C67.6065 77.8113 66.1803 77.2756 65.0824 76.2008C63.9826 75.1275 63.4316 73.6973 63.4316 71.9104V71.6013C63.4316 70.4017 63.6641 69.3303 64.1266 68.3857C64.591 67.4392 65.2476 66.7119 66.0963 66.1993C66.9465 65.6887 67.9161 65.4331 69.0047 65.4331C70.6363 65.4331 71.9229 65.9481 72.8616 66.9767C73.7983 68.0078 74.2667 69.4689 74.2667 71.3575V72.6609H66.6644C66.7681 73.4403 67.0792 74.064 67.5972 74.5348C68.1157 75.0071 68.7727 75.2415 69.5669 75.2415C70.7955 75.2415 71.7553 74.7982 72.4463 73.9072L74.0131 75.6617C73.5349 76.3374 72.8876 76.8652 72.0704 77.2437C71.2541 77.6231 70.3498 77.8113 69.3576 77.8113ZM68.9929 68.0034C68.3594 68.0034 67.8468 68.2186 67.4532 68.6467C67.0595 69.0747 66.8079 69.6891 66.6988 70.4857H71.1332V70.2302C71.1179 69.522 70.9277 68.9725 70.5592 68.5848C70.1906 68.197 69.6686 68.0034 68.9929 68.0034Z" fill="#211D1D"/>
<path d="M79.2736 60.645H76.0752V77.5898H79.2736V60.645Z" fill="#211D1D"/>
<path d="M80.7705 62.5651C80.7705 62.0869 80.9297 61.6937 81.2507 61.3846C81.5716 61.0755 82.007 60.9202 82.5579 60.9202C83.101 60.9202 83.5349 61.0755 83.8593 61.3846C84.1836 61.6937 84.3448 62.0874 84.3448 62.5651C84.3448 63.0506 84.1817 63.4487 83.8534 63.7573C83.5271 64.0664 83.0951 64.2198 82.5574 64.2198C82.0198 64.2198 81.5878 64.0659 81.2615 63.7573C80.9337 63.4487 80.7705 63.0506 80.7705 62.5651ZM84.1566 77.5907H80.9582V65.6538H84.1566V77.5907Z" fill="#211D1D"/>
<path d="M90.6193 73.6974L92.8362 65.6538H96.1692L92.1413 77.5907H89.0968L85.0693 65.6538H88.4019L90.6193 73.6974Z" fill="#211D1D"/>
<path d="M102.16 77.8113C100.409 77.8113 98.985 77.2756 97.8851 76.2008C96.7858 75.1275 96.2363 73.6973 96.2363 71.9104V71.6013C96.2363 70.4017 96.4688 69.3303 96.9312 68.3857C97.3937 67.4392 98.0503 66.7119 98.901 66.1993C99.7497 65.6887 100.719 65.4331 101.807 65.4331C103.441 65.4331 104.726 65.9481 105.664 66.9767C106.601 68.0078 107.071 69.4689 107.071 71.3575V72.6609H99.4691C99.5728 73.4403 99.8819 74.064 100.402 74.5348C100.92 75.0071 101.577 75.2415 102.37 75.2415C103.598 75.2415 104.56 74.7982 105.249 73.9072L106.817 75.6617C106.339 76.3374 105.69 76.8652 104.875 77.2437C104.059 77.6231 103.154 77.8113 102.16 77.8113ZM101.798 68.0034C101.164 68.0034 100.652 68.2186 100.258 68.6467C99.8642 69.0747 99.6126 69.6891 99.5015 70.4857H103.938V70.2302C103.923 69.522 103.73 68.9725 103.364 68.5848C102.995 68.1975 102.473 68.0034 101.798 68.0034Z" fill="#211D1D"/>
<path d="M114.955 68.6447C114.521 68.5853 114.14 68.5543 113.807 68.5543C112.602 68.5543 111.811 68.9632 111.437 69.781V77.5906H108.248V65.6538H111.26L111.349 67.078C111.988 65.9821 112.875 65.4326 114.007 65.4326C114.361 65.4326 114.691 65.4808 115 65.5766L114.955 68.6447Z" fill="#211D1D"/>
<path fill-rule="evenodd" clip-rule="evenodd" d="M45.9107 13.7464C45.659 13.6904 45.6055 13.827 45.6055 14.0727V17.937C45.6055 18.2137 45.6841 18.2731 45.8876 18.3115C46.1716 18.3115 75.9968 20.0949 75.9968 20.0949C75.9968 20.0949 46.1623 13.8019 45.9107 13.7464Z" fill="#211D1D"/>
<path fill-rule="evenodd" clip-rule="evenodd" d="M43.1012 46.5256L24.9982 36.9555V16.4261L43.086 6.00002L69.0847 13.5349C69.0847 13.5349 45.7811 1.03931 44.5432 0.426966C43.3067 -0.183416 42.8865 -0.129848 41.79 0.52673C40.4484 1.4079 25.7815 11.0487 22.3089 13.3295C21.8401 13.6386 21.5752 14.395 21.5752 14.9189V38.6584C21.5752 39.4054 21.675 39.8983 22.2396 40.2596C22.7252 40.5706 37.7626 50.1844 41.9896 52.8874C42.683 53.3307 43.4025 53.4481 44.1033 53.139C44.8021 52.8299 93.4229 31.4036 93.4229 31.4036L43.1012 46.5256Z" fill="#211D1D"/>
<path fill-rule="evenodd" clip-rule="evenodd" d="M45.9048 23.3698C46.1544 23.3792 80.2356 22.9207 80.2356 22.9207C80.2356 22.9207 46.1603 27.8676 45.8817 27.8676C45.6821 27.8312 45.6055 27.7718 45.6055 27.501V23.7537C45.6055 23.5119 45.661 23.36 45.9048 23.3698Z" fill="#211D1D"/>
<path fill-rule="evenodd" clip-rule="evenodd" d="M45.9028 33.2833C46.1834 33.2543 86.5974 26.4546 86.5974 26.4546C86.5974 26.4546 46.1584 37.7639 45.8817 37.7639C45.6821 37.7255 45.6055 37.6661 45.6055 37.3972V33.648C45.6055 33.4386 45.6762 33.3236 45.9028 33.2833Z" fill="#211D1D"/>
</svg>
