<svg width="117" height="64" viewBox="0 0 117 64" fill="none" xmlns="http://www.w3.org/2000/svg">
<g clip-path="url(#clip0_37_13586)">
<g opacity="0.3">
<path d="M95.1909 18.2467C94.5058 17.8744 94.1938 18.1857 93.9445 17.8744C93.6952 17.563 94.6296 16.751 92.7591 15.9485C92.7591 15.9485 92.6353 14.2057 90.0781 14.1431C87.5208 14.0805 88.2076 15.886 87.5208 16.3209C86.8341 16.7558 86.6491 16.0721 85.9624 16.5086C85.2756 16.9452 85.5876 17.815 85.0263 17.9386C84.465 18.0622 83.7172 17.3801 83.032 17.815C82.3469 18.2499 82.3453 18.6174 82.0333 18.6174C81.7212 18.6174 81.0988 18.3687 80.7241 18.6174C80.3493 18.8662 79.9199 19.1775 79.9199 19.1775H95.6975C95.6975 19.1775 95.8777 18.6206 95.1909 18.2467Z" stroke="black" stroke-miterlimit="10"/>
</g>
<g opacity="0.3">
<path d="M56.4429 8.91919C56.1309 8.74907 55.9893 8.8903 55.8768 8.74907C55.7642 8.60784 56.1888 8.24033 55.3396 7.87282C55.3396 7.87282 55.2817 7.08322 54.1221 7.05433C52.9625 7.02545 53.2729 7.84553 52.9609 8.04293C52.6489 8.24033 52.5652 7.93059 52.2532 8.12799C51.9412 8.32539 52.0843 8.72019 51.8286 8.76994C51.5729 8.81969 51.2351 8.51476 50.9231 8.71216C50.6111 8.90956 50.6111 9.07968 50.4696 9.07968C50.3281 9.07968 50.045 8.96734 49.8761 9.07968C49.7072 9.19202 49.5078 9.33485 49.5078 9.33485H56.6697C56.6873 9.24999 56.6742 9.16163 56.6327 9.08551C56.5912 9.00939 56.5239 8.95045 56.4429 8.91919Z" stroke="black" stroke-miterlimit="10"/>
</g>
<g opacity="0.3">
<path d="M20.0052 11.5158C19.3619 11.1692 19.0772 11.4581 18.8456 11.1692C18.614 10.8803 19.489 10.1276 17.7455 9.37654C17.7455 9.37654 17.6297 7.75723 15.2542 7.69946C12.8788 7.64168 13.5157 9.31877 12.8772 9.72319C12.2387 10.1276 12.073 9.49209 11.4297 9.89652C10.7863 10.3009 11.0823 11.1114 10.5596 11.227C10.0369 11.3425 9.34368 10.707 8.70678 11.1114C8.06989 11.5158 8.06828 11.8625 7.77878 11.8625C7.48929 11.8625 6.91029 11.6314 6.56289 11.8625C6.2155 12.0936 5.80859 12.3825 5.80859 12.3825H20.4684C20.4684 12.3825 20.6421 11.8625 20.0052 11.5158Z" stroke="black" stroke-miterlimit="10"/>
</g>
<g opacity="0.3">
<path d="M55.3265 5.60355C54.8987 5.37084 54.7041 5.56503 54.5481 5.37084C54.3921 5.17665 54.9759 4.67112 53.8083 4.16719C53.8083 4.16719 53.7311 3.07909 52.1356 3.04378C50.5402 3.00848 50.968 4.13188 50.5385 4.40311C50.1091 4.67433 49.9949 4.24262 49.5736 4.52026C49.1522 4.7979 49.3404 5.33553 48.9897 5.41257C48.6391 5.4896 48.1727 5.06271 47.7449 5.33553C47.3171 5.60836 47.3171 5.83946 47.1225 5.83946C46.9279 5.83946 46.5387 5.67898 46.3038 5.83946C46.069 5.99995 45.7988 6.18932 45.7988 6.18932H55.6466C55.6466 6.18932 55.7543 5.84267 55.3265 5.60355Z" stroke="black" stroke-miterlimit="10"/>
</g>
<g opacity="0.3">
<path d="M20.8918 35.545H18.6562V37.5142H20.8918V35.545Z" stroke="black" stroke-miterlimit="10"/>
<path d="M17.1463 36.7358H16.2393V37.5126H17.1463V36.7358Z" stroke="black" stroke-miterlimit="10"/>
<path d="M108.098 47.9779H99.6221V32.3529H100.188V30.7352H80.332V32.3529H81.0203V55.5914H75.811V5.73621H57.9522V43.4378H51.4224V39.2651H53.1321V37.4997H38.8534V12.207H39.7766V10.883H22.4438V12.207H23.687V37.5431H9.98893V55.6636H2.79492" stroke="black" stroke-miterlimit="10"/>
<path d="M76.521 5.19055H57.1553V5.73139H76.521V5.19055Z" stroke="black" stroke-miterlimit="10"/>
<path d="M27.4182 13.6771H25.2373V15.7185H27.4182V13.6771Z" stroke="black" stroke-miterlimit="10"/>
<path d="M30.6184 13.6771H28.4375V15.7185H30.6184V13.6771Z" stroke="black" stroke-miterlimit="10"/>
<path d="M33.8176 13.6771H31.6367V15.7185H33.8176V13.6771Z" stroke="black" stroke-miterlimit="10"/>
<path d="M37.0168 13.6771H34.8359V15.7185H37.0168V13.6771Z" stroke="black" stroke-miterlimit="10"/>
<path d="M27.4182 16.9125H25.2373V18.9539H27.4182V16.9125Z" stroke="black" stroke-miterlimit="10"/>
<path d="M30.6184 16.9125H28.4375V18.9539H30.6184V16.9125Z" stroke="black" stroke-miterlimit="10"/>
<path d="M33.8176 16.9125H31.6367V18.9539H33.8176V16.9125Z" stroke="black" stroke-miterlimit="10"/>
<path d="M37.0168 16.9125H34.8359V18.9539H37.0168V16.9125Z" stroke="black" stroke-miterlimit="10"/>
<path d="M27.4182 20.1479H25.2373V22.1893H27.4182V20.1479Z" stroke="black" stroke-miterlimit="10"/>
<path d="M30.6184 20.1478H28.4375V22.1892H30.6184V20.1478Z" stroke="black" stroke-miterlimit="10"/>
<path d="M33.8176 20.1479H31.6367V22.1893H33.8176V20.1479Z" stroke="black" stroke-miterlimit="10"/>
<path d="M37.0168 20.1479H34.8359V22.1893H37.0168V20.1479Z" stroke="black" stroke-miterlimit="10"/>
<path d="M27.4182 23.3817H25.2373V25.4231H27.4182V23.3817Z" stroke="black" stroke-miterlimit="10"/>
<path d="M30.6184 23.3817H28.4375V25.4231H30.6184V23.3817Z" stroke="black" stroke-miterlimit="10"/>
<path d="M33.8176 23.3817H31.6367V25.4231H33.8176V23.3817Z" stroke="black" stroke-miterlimit="10"/>
<path d="M37.0168 23.3817H34.8359V25.4231H37.0168V23.3817Z" stroke="black" stroke-miterlimit="10"/>
<path d="M27.4182 26.6171H25.2373V28.6585H27.4182V26.6171Z" stroke="black" stroke-miterlimit="10"/>
<path d="M30.6184 26.6171H28.4375V28.6585H30.6184V26.6171Z" stroke="black" stroke-miterlimit="10"/>
<path d="M33.8176 26.6172H31.6367V28.6586H33.8176V26.6172Z" stroke="black" stroke-miterlimit="10"/>
<path d="M37.0168 26.6171H34.8359V28.6585H37.0168V26.6171Z" stroke="black" stroke-miterlimit="10"/>
<path d="M27.4182 29.8525H25.2373V31.8939H27.4182V29.8525Z" stroke="black" stroke-miterlimit="10"/>
<path d="M30.6184 29.8525H28.4375V31.8939H30.6184V29.8525Z" stroke="black" stroke-miterlimit="10"/>
<path d="M33.8176 29.8525H31.6367V31.8939H33.8176V29.8525Z" stroke="black" stroke-miterlimit="10"/>
<path d="M37.0168 29.8525H34.8359V31.8939H37.0168V29.8525Z" stroke="black" stroke-miterlimit="10"/>
<path d="M27.4182 33.088H25.2373V35.1294H27.4182V33.088Z" stroke="black" stroke-miterlimit="10"/>
<path d="M30.6184 33.088H28.4375V35.1294H30.6184V33.088Z" stroke="black" stroke-miterlimit="10"/>
<path d="M33.8176 33.088H31.6367V35.1294H33.8176V33.088Z" stroke="black" stroke-miterlimit="10"/>
<path d="M37.0168 33.088H34.8359V35.1294H37.0168V33.088Z" stroke="black" stroke-miterlimit="10"/>
<path d="M27.4182 36.3234H25.2373V38.3648H27.4182V36.3234Z" stroke="black" stroke-miterlimit="10"/>
<path d="M30.6184 36.3234H28.4375V38.3648H30.6184V36.3234Z" stroke="black" stroke-miterlimit="10"/>
<path d="M33.8176 36.3234H31.6367V38.3648H33.8176V36.3234Z" stroke="black" stroke-miterlimit="10"/>
<path d="M37.0168 36.3234H34.8359V38.3648H37.0168V36.3234Z" stroke="black" stroke-miterlimit="10"/>
<path d="M27.4182 39.2827H25.2373V41.3241H27.4182V39.2827Z" stroke="black" stroke-miterlimit="10"/>
<path d="M30.6184 39.2827H28.4375V41.3241H30.6184V39.2827Z" stroke="black" stroke-miterlimit="10"/>
<path d="M33.8176 39.2827H31.6367V41.3241H33.8176V39.2827Z" stroke="black" stroke-miterlimit="10"/>
<path d="M37.0168 39.2827H34.8359V41.3241H37.0168V39.2827Z" stroke="black" stroke-miterlimit="10"/>
<path d="M27.4182 42.5182H25.2373V44.5596H27.4182V42.5182Z" stroke="black" stroke-miterlimit="10"/>
<path d="M30.6184 42.5182H28.4375V44.5596H30.6184V42.5182Z" stroke="black" stroke-miterlimit="10"/>
<path d="M33.8176 42.5182H31.6367V44.5596H33.8176V42.5182Z" stroke="black" stroke-miterlimit="10"/>
<path d="M37.0168 42.5182H34.8359V44.5596H37.0168V42.5182Z" stroke="black" stroke-miterlimit="10"/>
<path d="M27.4182 45.7535H25.2373V47.7949H27.4182V45.7535Z" stroke="black" stroke-miterlimit="10"/>
<path d="M30.6184 45.7535H28.4375V47.7949H30.6184V45.7535Z" stroke="black" stroke-miterlimit="10"/>
<path d="M33.8176 45.7535H31.6367V47.7949H33.8176V45.7535Z" stroke="black" stroke-miterlimit="10"/>
<path d="M37.0168 45.7535H34.8359V47.7949H37.0168V45.7535Z" stroke="black" stroke-miterlimit="10"/>
<path d="M27.4182 48.989H25.2373V51.0304H27.4182V48.989Z" stroke="black" stroke-miterlimit="10"/>
<path d="M30.6184 48.9889H28.4375V51.0303H30.6184V48.9889Z" stroke="black" stroke-miterlimit="10"/>
<path d="M33.8176 48.989H31.6367V51.0304H33.8176V48.989Z" stroke="black" stroke-miterlimit="10"/>
<path d="M37.0168 48.989H34.8359V51.0304H37.0168V48.989Z" stroke="black" stroke-miterlimit="10"/>
<path d="M27.4182 52.2228H25.2373V54.2642H27.4182V52.2228Z" stroke="black" stroke-miterlimit="10"/>
<path d="M30.6184 52.2228H28.4375V54.2642H30.6184V52.2228Z" stroke="black" stroke-miterlimit="10"/>
<path d="M33.8176 52.2228H31.6367V54.2642H33.8176V52.2228Z" stroke="black" stroke-miterlimit="10"/>
<path d="M37.0168 52.2228H34.8359V54.2642H37.0168V52.2228Z" stroke="black" stroke-miterlimit="10"/>
<path d="M27.4182 55.4581H25.2373V57.4995H27.4182V55.4581Z" stroke="black" stroke-miterlimit="10"/>
<path d="M30.6184 55.4581H28.4375V57.4995H30.6184V55.4581Z" stroke="black" stroke-miterlimit="10"/>
<path d="M33.8176 55.4583H31.6367V57.4996H33.8176V55.4583Z" stroke="black" stroke-miterlimit="10"/>
<path d="M37.0168 55.4581H34.8359V57.4995H37.0168V55.4581Z" stroke="black" stroke-miterlimit="10"/>
<path d="M27.4182 58.6936H25.2373V60.735H27.4182V58.6936Z" stroke="black" stroke-miterlimit="10"/>
<path d="M30.6184 58.6936H28.4375V60.735H30.6184V58.6936Z" stroke="black" stroke-miterlimit="10"/>
<path d="M33.8176 58.6936H31.6367V60.735H33.8176V58.6936Z" stroke="black" stroke-miterlimit="10"/>
<path d="M37.0168 58.6936H34.8359V60.735H37.0168V58.6936Z" stroke="black" stroke-miterlimit="10"/>
<path d="M27.4182 61.9291H25.2373V63.9705H27.4182V61.9291Z" stroke="black" stroke-miterlimit="10"/>
<path d="M30.6184 61.9291H28.4375V63.9705H30.6184V61.9291Z" stroke="black" stroke-miterlimit="10"/>
<path d="M33.8176 61.9291H31.6367V63.9705H33.8176V61.9291Z" stroke="black" stroke-miterlimit="10"/>
<path d="M37.0168 61.9291H34.8359V63.9705H37.0168V61.9291Z" stroke="black" stroke-miterlimit="10"/>
<path d="M39.9153 39.2827H37.7344V41.3241H39.9153V39.2827Z" stroke="black" stroke-miterlimit="10"/>
<path d="M43.1135 39.2827H40.9326V41.3241H43.1135V39.2827Z" stroke="black" stroke-miterlimit="10"/>
<path d="M46.3127 39.2827H44.1318V41.3241H46.3127V39.2827Z" stroke="black" stroke-miterlimit="10"/>
<path d="M49.5139 39.2827H47.333V41.3241H49.5139V39.2827Z" stroke="black" stroke-miterlimit="10"/>
<path d="M39.9153 42.5182H37.7344V44.5596H39.9153V42.5182Z" stroke="black" stroke-miterlimit="10"/>
<path d="M43.1135 42.5182H40.9326V44.5596H43.1135V42.5182Z" stroke="black" stroke-miterlimit="10"/>
<path d="M46.3127 42.5182H44.1318V44.5596H46.3127V42.5182Z" stroke="black" stroke-miterlimit="10"/>
<path d="M49.5139 42.5182H47.333V44.5596H49.5139V42.5182Z" stroke="black" stroke-miterlimit="10"/>
<path d="M39.9153 45.7535H37.7344V47.7949H39.9153V45.7535Z" stroke="black" stroke-miterlimit="10"/>
<path d="M43.1135 45.7535H40.9326V47.7949H43.1135V45.7535Z" stroke="black" stroke-miterlimit="10"/>
<path d="M46.3127 45.7535H44.1318V47.7949H46.3127V45.7535Z" stroke="black" stroke-miterlimit="10"/>
<path d="M49.5139 45.7535H47.333V47.7949H49.5139V45.7535Z" stroke="black" stroke-miterlimit="10"/>
<path d="M39.9153 48.989H37.7344V51.0304H39.9153V48.989Z" stroke="black" stroke-miterlimit="10"/>
<path d="M43.1135 48.9889H40.9326V51.0303H43.1135V48.9889Z" stroke="black" stroke-miterlimit="10"/>
<path d="M46.3127 48.989H44.1318V51.0304H46.3127V48.989Z" stroke="black" stroke-miterlimit="10"/>
<path d="M49.5139 48.989H47.333V51.0304H49.5139V48.989Z" stroke="black" stroke-miterlimit="10"/>
<path d="M39.9153 52.2228H37.7344V54.2642H39.9153V52.2228Z" stroke="black" stroke-miterlimit="10"/>
<path d="M43.1135 52.2228H40.9326V54.2642H43.1135V52.2228Z" stroke="black" stroke-miterlimit="10"/>
<path d="M46.3127 52.2228H44.1318V54.2642H46.3127V52.2228Z" stroke="black" stroke-miterlimit="10"/>
<path d="M49.5139 52.2228H47.333V54.2642H49.5139V52.2228Z" stroke="black" stroke-miterlimit="10"/>
<path d="M39.9153 55.4581H37.7344V57.4995H39.9153V55.4581Z" stroke="black" stroke-miterlimit="10"/>
<path d="M43.1135 55.4581H40.9326V57.4995H43.1135V55.4581Z" stroke="black" stroke-miterlimit="10"/>
<path d="M46.3127 55.4583H44.1318V57.4996H46.3127V55.4583Z" stroke="black" stroke-miterlimit="10"/>
<path d="M49.5139 55.4581H47.333V57.4995H49.5139V55.4581Z" stroke="black" stroke-miterlimit="10"/>
<path d="M39.9153 58.6936H37.7344V60.735H39.9153V58.6936Z" stroke="black" stroke-miterlimit="10"/>
<path d="M43.1135 58.6936H40.9326V60.735H43.1135V58.6936Z" stroke="black" stroke-miterlimit="10"/>
<path d="M46.3127 58.6936H44.1318V60.735H46.3127V58.6936Z" stroke="black" stroke-miterlimit="10"/>
<path d="M49.5139 58.6936H47.333V60.735H49.5139V58.6936Z" stroke="black" stroke-miterlimit="10"/>
<path d="M39.9153 61.9291H37.7344V63.9705H39.9153V61.9291Z" stroke="black" stroke-miterlimit="10"/>
<path d="M43.1135 61.9291H40.9326V63.9705H43.1135V61.9291Z" stroke="black" stroke-miterlimit="10"/>
<path d="M46.3127 61.9291H44.1318V63.9705H46.3127V61.9291Z" stroke="black" stroke-miterlimit="10"/>
<path d="M49.5139 61.9291H47.333V63.9705H49.5139V61.9291Z" stroke="black" stroke-miterlimit="10"/>
<path d="M14.7463 39.2827H12.5654V41.3241H14.7463V39.2827Z" stroke="black" stroke-miterlimit="10"/>
<path d="M17.9475 39.2827H15.7666V41.3241H17.9475V39.2827Z" stroke="black" stroke-miterlimit="10"/>
<path d="M21.1457 39.2827H18.9648V41.3241H21.1457V39.2827Z" stroke="black" stroke-miterlimit="10"/>
<path d="M24.3449 39.2827H22.1641V41.3241H24.3449V39.2827Z" stroke="black" stroke-miterlimit="10"/>
<path d="M14.7463 42.5182H12.5654V44.5596H14.7463V42.5182Z" stroke="black" stroke-miterlimit="10"/>
<path d="M17.9475 42.5182H15.7666V44.5596H17.9475V42.5182Z" stroke="black" stroke-miterlimit="10"/>
<path d="M21.1457 42.5182H18.9648V44.5596H21.1457V42.5182Z" stroke="black" stroke-miterlimit="10"/>
<path d="M24.3449 42.5182H22.1641V44.5596H24.3449V42.5182Z" stroke="black" stroke-miterlimit="10"/>
<path d="M14.7463 45.7535H12.5654V47.7949H14.7463V45.7535Z" stroke="black" stroke-miterlimit="10"/>
<path d="M17.9475 45.7535H15.7666V47.7949H17.9475V45.7535Z" stroke="black" stroke-miterlimit="10"/>
<path d="M21.1457 45.7535H18.9648V47.7949H21.1457V45.7535Z" stroke="black" stroke-miterlimit="10"/>
<path d="M24.3449 45.7535H22.1641V47.7949H24.3449V45.7535Z" stroke="black" stroke-miterlimit="10"/>
<path d="M14.7463 48.989H12.5654V51.0304H14.7463V48.989Z" stroke="black" stroke-miterlimit="10"/>
<path d="M17.9475 48.989H15.7666V51.0304H17.9475V48.989Z" stroke="black" stroke-miterlimit="10"/>
<path d="M21.1457 48.989H18.9648V51.0304H21.1457V48.989Z" stroke="black" stroke-miterlimit="10"/>
<path d="M24.3449 48.9889H22.1641V51.0303H24.3449V48.9889Z" stroke="black" stroke-miterlimit="10"/>
<path d="M14.7463 52.2228H12.5654V54.2642H14.7463V52.2228Z" stroke="black" stroke-miterlimit="10"/>
<path d="M17.9475 52.2228H15.7666V54.2642H17.9475V52.2228Z" stroke="black" stroke-miterlimit="10"/>
<path d="M21.1457 52.2228H18.9648V54.2642H21.1457V52.2228Z" stroke="black" stroke-miterlimit="10"/>
<path d="M24.3449 52.2228H22.1641V54.2642H24.3449V52.2228Z" stroke="black" stroke-miterlimit="10"/>
<path d="M14.7463 55.4583H12.5654V57.4996H14.7463V55.4583Z" stroke="black" stroke-miterlimit="10"/>
<path d="M17.9475 55.4581H15.7666V57.4995H17.9475V55.4581Z" stroke="black" stroke-miterlimit="10"/>
<path d="M21.1457 55.4581H18.9648V57.4995H21.1457V55.4581Z" stroke="black" stroke-miterlimit="10"/>
<path d="M24.3449 55.4581H22.1641V57.4995H24.3449V55.4581Z" stroke="black" stroke-miterlimit="10"/>
<path d="M14.7463 58.6936H12.5654V60.735H14.7463V58.6936Z" stroke="black" stroke-miterlimit="10"/>
<path d="M17.9475 58.6936H15.7666V60.735H17.9475V58.6936Z" stroke="black" stroke-miterlimit="10"/>
<path d="M21.1457 58.6936H18.9648V60.735H21.1457V58.6936Z" stroke="black" stroke-miterlimit="10"/>
<path d="M24.3449 58.6936H22.1641V60.735H24.3449V58.6936Z" stroke="black" stroke-miterlimit="10"/>
<path d="M14.7463 61.9291H12.5654V63.9705H14.7463V61.9291Z" stroke="black" stroke-miterlimit="10"/>
<path d="M17.9475 61.9291H15.7666V63.9705H17.9475V61.9291Z" stroke="black" stroke-miterlimit="10"/>
<path d="M21.1457 61.9291H18.9648V63.9705H21.1457V61.9291Z" stroke="black" stroke-miterlimit="10"/>
<path d="M24.3449 61.9291H22.1641V63.9705H24.3449V61.9291Z" stroke="black" stroke-miterlimit="10"/>
<path d="M86.2151 32.9403H84.0342V34.9817H86.2151V32.9403Z" stroke="black" stroke-miterlimit="10"/>
<path d="M89.4143 32.9403H87.2334V34.9817H89.4143V32.9403Z" stroke="black" stroke-miterlimit="10"/>
<path d="M92.6135 32.9403H90.4326V34.9817H92.6135V32.9403Z" stroke="black" stroke-miterlimit="10"/>
<path d="M95.8127 32.9403H93.6318V34.9817H95.8127V32.9403Z" stroke="black" stroke-miterlimit="10"/>
<path d="M86.2151 36.1758H84.0342V38.2172H86.2151V36.1758Z" stroke="black" stroke-miterlimit="10"/>
<path d="M89.4143 36.1757H87.2334V38.217H89.4143V36.1757Z" stroke="black" stroke-miterlimit="10"/>
<path d="M92.6135 36.1758H90.4326V38.2172H92.6135V36.1758Z" stroke="black" stroke-miterlimit="10"/>
<path d="M95.8127 36.1757H93.6318V38.217H95.8127V36.1757Z" stroke="black" stroke-miterlimit="10"/>
<path d="M86.2151 39.4111H84.0342V41.4525H86.2151V39.4111Z" stroke="black" stroke-miterlimit="10"/>
<path d="M89.4143 39.4111H87.2334V41.4525H89.4143V39.4111Z" stroke="black" stroke-miterlimit="10"/>
<path d="M92.6135 39.4111H90.4326V41.4525H92.6135V39.4111Z" stroke="black" stroke-miterlimit="10"/>
<path d="M95.8127 39.4111H93.6318V41.4525H95.8127V39.4111Z" stroke="black" stroke-miterlimit="10"/>
<path d="M86.2151 42.6466H84.0342V44.688H86.2151V42.6466Z" stroke="black" stroke-miterlimit="10"/>
<path d="M89.4143 42.6466H87.2334V44.688H89.4143V42.6466Z" stroke="black" stroke-miterlimit="10"/>
<path d="M92.6135 42.6466H90.4326V44.688H92.6135V42.6466Z" stroke="black" stroke-miterlimit="10"/>
<path d="M95.8127 42.6466H93.6318V44.688H95.8127V42.6466Z" stroke="black" stroke-miterlimit="10"/>
<path d="M86.2151 45.882H84.0342V47.9233H86.2151V45.882Z" stroke="black" stroke-miterlimit="10"/>
<path d="M89.4143 45.882H87.2334V47.9233H89.4143V45.882Z" stroke="black" stroke-miterlimit="10"/>
<path d="M92.6135 45.882H90.4326V47.9233H92.6135V45.882Z" stroke="black" stroke-miterlimit="10"/>
<path d="M95.8127 45.882H93.6318V47.9233H95.8127V45.882Z" stroke="black" stroke-miterlimit="10"/>
<path d="M86.2151 49.1173H84.0342V51.1587H86.2151V49.1173Z" stroke="black" stroke-miterlimit="10"/>
<path d="M89.4143 49.1174H87.2334V51.1588H89.4143V49.1174Z" stroke="black" stroke-miterlimit="10"/>
<path d="M92.6135 49.1174H90.4326V51.1588H92.6135V49.1174Z" stroke="black" stroke-miterlimit="10"/>
<path d="M95.8127 49.1173H93.6318V51.1587H95.8127V49.1173Z" stroke="black" stroke-miterlimit="10"/>
<path d="M86.2151 52.3528H84.0342V54.3942H86.2151V52.3528Z" stroke="black" stroke-miterlimit="10"/>
<path d="M89.4143 52.3528H87.2334V54.3942H89.4143V52.3528Z" stroke="black" stroke-miterlimit="10"/>
<path d="M92.6135 52.3528H90.4326V54.3942H92.6135V52.3528Z" stroke="black" stroke-miterlimit="10"/>
<path d="M95.8127 52.3528H93.6318V54.3942H95.8127V52.3528Z" stroke="black" stroke-miterlimit="10"/>
<path d="M86.2151 55.5881H84.0342V57.6295H86.2151V55.5881Z" stroke="black" stroke-miterlimit="10"/>
<path d="M89.4143 55.5881H87.2334V57.6295H89.4143V55.5881Z" stroke="black" stroke-miterlimit="10"/>
<path d="M92.6135 55.5881H90.4326V57.6295H92.6135V55.5881Z" stroke="black" stroke-miterlimit="10"/>
<path d="M95.8127 55.5881H93.6318V57.6295H95.8127V55.5881Z" stroke="black" stroke-miterlimit="10"/>
<path d="M59.6328 6.9126V66.0279" stroke="black" stroke-miterlimit="10"/>
<path d="M61.7969 6.9126V66.0279" stroke="black" stroke-miterlimit="10"/>
<path d="M63.9609 6.9126V66.0279" stroke="black" stroke-miterlimit="10"/>
<path d="M66.124 6.9126V66.0279" stroke="black" stroke-miterlimit="10"/>
<path d="M68.2881 6.9126V66.0279" stroke="black" stroke-miterlimit="10"/>
<path d="M70.4521 6.9126V66.0279" stroke="black" stroke-miterlimit="10"/>
<path d="M72.6152 6.9126V66.0279" stroke="black" stroke-miterlimit="10"/>
<path d="M74.7783 6.9126V66.0279" stroke="black" stroke-miterlimit="10"/>
</g>
<path d="M21.6521 10.5229L21.3643 63.5413H22.8021L21.6521 10.5229Z" fill="#A3A3A3"/>
<path d="M22.0832 40.8196C22.0832 40.8196 24.9605 35.6504 30.1409 34.0712C30.1409 34.0712 24.6726 35.3631 21.9385 39.815L22.0832 40.8196Z" fill="#A3A3A3"/>
<path d="M22.0832 26.1735C22.0832 26.1735 24.9605 21.0043 30.1409 19.4331C30.1409 19.4331 24.6726 20.7266 21.9385 25.1769L22.0832 26.1735Z" fill="#A3A3A3"/>
<path d="M22.0832 33.4966C22.0832 33.4966 24.9605 28.3274 30.1409 26.7482C30.1409 26.7482 24.6726 28.0321 21.9385 32.492L22.0832 33.4966Z" fill="#A3A3A3"/>
<path d="M21.6571 29.9081C21.6571 29.9081 18.8795 24.7389 13.8809 23.1597C13.8809 23.1597 19.1578 24.4516 21.7954 28.9019L21.6571 29.9081Z" fill="#A3A3A3"/>
<path d="M21.6571 37.0867C21.6571 37.0867 18.8795 31.9174 13.8809 30.3383C13.8809 30.3383 19.1578 31.6302 21.7954 36.0821L21.6571 37.0867Z" fill="#A3A3A3"/>
<path d="M100.737 17.1927L100.494 63.5413H101.707L100.737 17.1927Z" fill="#A3A3A3"/>
<path d="M101.1 42.7519C101.1 42.7519 103.528 38.3899 107.898 37.0579C107.898 37.0579 103.286 38.1476 100.982 41.903L101.1 42.7519Z" fill="#A3A3A3"/>
<path d="M101.1 30.3961C101.1 30.3961 103.528 26.0357 107.898 24.7036C107.898 24.7036 103.286 25.7933 100.982 29.5487L101.1 30.3961Z" fill="#A3A3A3"/>
<path d="M101.1 36.5732C101.1 36.5732 103.528 32.2128 107.898 30.8807C107.898 30.8807 103.286 31.9704 100.982 35.7258L101.1 36.5732Z" fill="#A3A3A3"/>
<path d="M100.739 33.5448C100.739 33.5448 98.3977 29.1843 94.1807 27.8523C94.1807 27.8523 98.6309 28.942 100.857 32.6974L100.739 33.5448Z" fill="#A3A3A3"/>
<path d="M100.739 39.6015C100.739 39.6015 98.3977 35.2411 94.1807 33.9091C94.1807 33.9091 98.6309 34.9988 100.857 38.7542L100.739 39.6015Z" fill="#A3A3A3"/>
<path d="M23.3596 35.5685C23.3596 35.5685 13.4588 35.928 12.9522 36.578C12.4456 37.2279 12.0853 39.3977 12.2992 39.8952C12.5131 40.3927 15.0446 43.2109 15.0446 43.2109H19.7457L20.9841 41.1631C21.3547 40.554 21.8763 40.0505 22.4985 39.7011C23.1208 39.3517 23.8228 39.1682 24.5369 39.1682C25.2949 39.1671 26.0387 39.3726 26.6881 39.7627C27.3375 40.1527 27.8678 40.7124 28.2216 41.3813L29.7253 44.2204H53.7102L55.1898 41.2401C55.6435 40.498 56.3264 39.9229 57.1359 39.6015L57.4736 39.4715C58.4869 39.08 59.9054 39.1618 60.8962 39.608C61.763 39.9963 62.4659 40.8662 62.8824 41.7184L63.6866 43.3553H66.0701L67.3712 38.8842C67.3712 38.8842 67.3712 37.8747 67.0817 37.2986C66.7922 36.7224 63.8297 36.578 63.8297 36.578L59.5661 36.2169L48.3657 36.0002L44.0233 32.1068C44.0233 32.1068 44.6023 31.6735 44.3852 31.0251C44.168 30.3768 41.6381 30.5918 41.6381 30.5918C41.6381 30.5918 30.0759 30.7363 29.2814 30.8807C28.4869 31.0251 24.2265 34.5591 23.3596 35.5685Z" fill="#6F89F0" stroke="#263238" stroke-opacity="0.91" stroke-miterlimit="10"/>
<path d="M49.0845 41.6157H31.6375C31.5186 41.6155 31.4025 41.5799 31.304 41.5136C31.2055 41.4473 31.129 41.3532 31.0842 41.2433L30.2254 39.1249C30.2011 39.0657 30.1918 39.0014 30.1983 38.9377C30.2048 38.874 30.2269 38.813 30.2627 38.7598C30.2984 38.7067 30.3467 38.6632 30.4034 38.6331C30.46 38.603 30.5231 38.5873 30.5873 38.5873H66.2919" stroke="#263238" stroke-opacity="0.91" stroke-miterlimit="10"/>
<path d="M47.2057 36.3614L43.3506 33.1276L44.5536 36.3614H47.2057Z" fill="#263238" fill-opacity="0.91" stroke="#263238" stroke-opacity="0.91" stroke-miterlimit="10"/>
<path d="M33.3376 36.3613H44.049L42.616 32.5096L42.3394 32.2769C42.042 32.028 41.6676 31.8891 41.2795 31.8837L34.5455 31.7922C34.5455 31.7922 33.4357 31.8051 32.7168 31.8725L33.3376 36.3613Z" fill="#263238" fill-opacity="0.91" stroke="#263238" stroke-opacity="0.91" stroke-miterlimit="10"/>
<path d="M32.2424 31.9399C32.2173 31.9461 32.1926 31.9536 32.1684 31.9624L29.2734 35.928H31.152L31.8757 36.3613H32.8487L32.2424 31.9399Z" fill="#263238" fill-opacity="0.91" stroke="#263238" stroke-opacity="0.91" stroke-miterlimit="10"/>
<path d="M44.026 32.1068L43.5049 32.5225L47.6865 36.1318L48.362 36.0002L44.026 32.1068Z" fill="#263238" fill-opacity="0.91" stroke="#263238" stroke-opacity="0.91" stroke-miterlimit="10"/>
<path d="M24.5543 47.0465C26.6132 47.0465 28.2823 45.381 28.2823 43.3264C28.2823 41.2719 26.6132 39.6063 24.5543 39.6063C22.4953 39.6063 20.8262 41.2719 20.8262 43.3264C20.8262 45.381 22.4953 47.0465 24.5543 47.0465Z" fill="#263238" fill-opacity="0.91" stroke="#263238" stroke-opacity="0.91" stroke-miterlimit="10"/>
<path d="M25.1923 46.0298C26.6879 45.6775 27.6142 44.1822 27.2612 42.6898C26.9082 41.1974 25.4096 40.2732 23.914 40.6254C22.4185 40.9776 21.4922 42.473 21.8452 43.9654C22.1982 45.4577 23.6967 46.382 25.1923 46.0298Z" fill="white" stroke="#263238" stroke-opacity="0.91" stroke-miterlimit="10"/>
<path d="M24.5547 44.6264C25.2742 44.6264 25.8574 44.0444 25.8574 43.3264C25.8574 42.6085 25.2742 42.0265 24.5547 42.0265C23.8352 42.0265 23.252 42.6085 23.252 43.3264C23.252 44.0444 23.8352 44.6264 24.5547 44.6264Z" fill="white" stroke="#263238" stroke-opacity="0.91" stroke-miterlimit="10"/>
<path d="M58.8843 47.0465C60.9433 47.0465 62.6124 45.381 62.6124 43.3264C62.6124 41.2719 60.9433 39.6063 58.8843 39.6063C56.8254 39.6063 55.1562 41.2719 55.1562 43.3264C55.1562 45.381 56.8254 47.0465 58.8843 47.0465Z" fill="#263238" fill-opacity="0.91" stroke="#263238" stroke-opacity="0.91" stroke-miterlimit="10"/>
<path d="M59.517 46.0344C61.0132 45.6848 61.9421 44.191 61.5917 42.698C61.2413 41.2051 59.7444 40.2782 58.2482 40.6278C56.752 40.9774 55.8231 42.4712 56.1735 43.9642C56.5239 45.4571 58.0208 46.384 59.517 46.0344Z" fill="white" stroke="#263238" stroke-opacity="0.91" stroke-miterlimit="10"/>
<path d="M58.8838 44.6264C59.6033 44.6264 60.1865 44.0444 60.1865 43.3264C60.1865 42.6085 59.6033 42.0265 58.8838 42.0265C58.1643 42.0265 57.5811 42.6085 57.5811 43.3264C57.5811 44.0444 58.1643 44.6264 58.8838 44.6264Z" fill="white" stroke="#263238" stroke-opacity="0.91" stroke-miterlimit="10"/>
<path d="M67.4641 40.7876H64.4485C64.4485 40.7876 63.9741 40.847 64.27 41.0829C64.5659 41.3188 65.9282 43.3297 66.401 43.3859C66.8739 43.442 68.413 41.6205 68.413 41.2594C68.413 40.8983 67.4641 40.7876 67.4641 40.7876Z" fill="white" stroke="#263238" stroke-opacity="0.91" stroke-miterlimit="10"/>
<path d="M12.8361 39.0768H11.8293C11.7972 39.4714 11.8172 39.8685 11.8888 40.258C12.0063 40.8486 12.5981 41.3204 12.8361 41.261C13.0742 41.2016 12.8361 39.0768 12.8361 39.0768Z" fill="white" stroke="#263238" stroke-opacity="0.91" stroke-miterlimit="10"/>
<path d="M29.7187 44.2219H53.71L54.1652 43.4998H29.3359L29.7187 44.2219Z" fill="white" stroke="#263238" stroke-opacity="0.91" stroke-miterlimit="10"/>
<path d="M48.5967 37.4655V42.8257" stroke="#263238" stroke-opacity="0.91" stroke-miterlimit="10"/>
<path d="M33.2988 37.1412L34.4375 42.3378" stroke="#263238" stroke-opacity="0.91" stroke-miterlimit="10"/>
<path d="M71.471 39.584L65.3369 47.7447" stroke="#263238" stroke-opacity="0.91" stroke-width="3" stroke-miterlimit="10" stroke-linecap="round"/>
<path d="M73.5629 25.9907H70.0664V28.5328H73.5629V25.9907Z" fill="white" stroke="#263238" stroke-opacity="0.91" stroke-miterlimit="10"/>
<path d="M72.6212 28.6597H70.7041V47.4045H72.6212V28.6597Z" fill="#263238" fill-opacity="0.91" stroke="#263238" stroke-opacity="0.91" stroke-miterlimit="10"/>
<path d="M26.4908 47.9148L26.3686 48.7654H23.0828V52.6748L14.5635 50.8052V48.5953H9.96375L9.79327 49.1056V51.3155H7.91797V53.6955H12.3489V52.8449L26.4908 55.7353V51.4856H29.2169V54.2059H41.3147V56.756H44.7227L45.744 54.5461H52.2191H75.3918V47.9148H26.4908Z" fill="#263238" fill-opacity="0.91" stroke="#263238" stroke-opacity="0.91" stroke-miterlimit="10"/>
<path d="M90.3084 30.0622L95.7526 41.0283H92.3011L87.957 29.6803L90.1299 29.5519L90.3084 30.0622Z" fill="#263238" fill-opacity="0.91" stroke="#263238" stroke-opacity="0.91" stroke-miterlimit="10"/>
<path d="M105.35 43.8914L93.5803 40.0173L89.2378 30.0671H90.3025C90.3861 30.0671 90.4681 30.0449 90.54 30.0026C90.612 29.9603 90.6714 29.8996 90.7119 29.8267C90.7524 29.7539 90.7727 29.6715 90.7706 29.5882C90.7684 29.5049 90.744 29.4236 90.6998 29.3529L89.9294 28.1204C89.8878 28.0526 89.8294 27.9966 89.7598 27.9578C89.6902 27.919 89.6118 27.8988 89.5322 27.8989H74.541V59.1377H89.8763L90.3508 55.0051C90.4801 53.8828 90.8835 52.8093 91.5257 51.8789C92.1679 50.9485 93.0291 50.1896 94.0338 49.6689C95.0689 49.1322 96.2232 48.8655 97.3894 48.8936C98.5555 48.9216 99.6956 49.2436 100.704 49.8294L101.421 50.2467C102.795 51.0459 103.851 52.2926 104.412 53.7774L105.081 55.5572H107.254V46.5106C107.256 45.778 106.967 45.0745 106.45 44.5542C106.141 44.25 105.764 44.0229 105.35 43.8914Z" fill="white" stroke="#263238" stroke-opacity="0.91" stroke-miterlimit="10"/>
<path d="M83.0294 49.1843C86.0254 49.1843 88.4542 47.5604 88.4542 45.5573C88.4542 43.5542 86.0254 41.9303 83.0294 41.9303C80.0333 41.9303 77.6045 43.5542 77.6045 45.5573C77.6045 47.5604 80.0333 49.1843 83.0294 49.1843Z" fill="#6F89F0"/>
<path d="M84.7098 30.0623H76.7631C76.4522 30.0623 76.2002 30.3137 76.2002 30.624V39.5005C76.2002 39.8107 76.4522 40.0622 76.7631 40.0622H84.7098C85.0207 40.0622 85.2727 39.8107 85.2727 39.5005V30.624C85.2727 30.3137 85.0207 30.0623 84.7098 30.0623Z" fill="#263238" fill-opacity="0.91" stroke="#263238" stroke-opacity="0.91" stroke-miterlimit="10"/>
<path d="M86.4229 30.1731V40.7299C86.4286 40.8085 86.4497 40.8851 86.4852 40.9555C86.5206 41.0258 86.5696 41.0885 86.6294 41.14C86.6891 41.1914 86.7585 41.2306 86.8334 41.2552C86.9084 41.2799 86.9875 41.2895 87.0662 41.2836H90.9261C91.3572 41.2836 91.6644 40.9193 91.5325 40.5614L87.7047 30.1731H86.4229Z" fill="#263238" fill-opacity="0.91" stroke="#263238" stroke-opacity="0.91" stroke-miterlimit="10"/>
<path d="M107.253 52.6332H103.931L105.208 56.3308H107.636L107.253 52.6332Z" fill="white" stroke="#263238" stroke-opacity="0.91" stroke-miterlimit="10"/>
<path d="M98.8771 63.4081C102.457 62.5486 104.66 58.9562 103.799 55.3842C102.938 51.8123 99.3374 49.6135 95.7578 50.473C92.1782 51.3325 89.9746 54.9249 90.836 58.4969C91.6974 62.0688 95.2975 64.2676 98.8771 63.4081Z" fill="#263238" fill-opacity="0.91" stroke="#263238" stroke-opacity="0.91" stroke-miterlimit="10"/>
<path d="M98.0641 60.089C99.8034 59.6755 100.878 57.9333 100.463 56.1976C100.049 54.462 98.3028 53.3902 96.5635 53.8037C94.8241 54.2172 93.75 55.9594 94.1644 57.695C94.5787 59.4307 96.3247 60.5025 98.0641 60.089Z" fill="white" stroke="#263238" stroke-opacity="0.91" stroke-miterlimit="10"/>
<path d="M37.4056 63.4041C40.9798 62.5221 43.1607 58.916 42.2768 55.3495C41.393 51.7831 37.7791 49.6068 34.2049 50.4888C30.6308 51.3707 28.4499 54.9769 29.3337 58.5433C30.2176 62.1098 33.8315 64.286 37.4056 63.4041Z" fill="#263238" fill-opacity="0.91" stroke="#263238" stroke-opacity="0.91" stroke-miterlimit="10"/>
<path d="M36.5543 60.0893C38.2937 59.6759 39.3678 57.9337 38.9534 56.198C38.539 54.4624 36.7931 53.3906 35.0537 53.8041C33.3143 54.2175 32.2402 55.9597 32.6546 57.6954C33.069 59.431 34.8149 60.5028 36.5543 60.0893Z" fill="white" stroke="#263238" stroke-opacity="0.91" stroke-miterlimit="10"/>
<path d="M87.7018 51.9944H75.0508V57.987H87.7018V51.9944Z" fill="#263238" fill-opacity="0.91" stroke="#263238" stroke-opacity="0.91" stroke-miterlimit="10"/>
<path d="M78.7832 52.2784V57.4445" stroke="#787878" stroke-miterlimit="10"/>
<path d="M83.8271 52.2784V57.4445" stroke="#787878" stroke-miterlimit="10"/>
<path d="M89.4242 33.6332H87.2562C87.0786 33.6332 86.9346 33.7769 86.9346 33.9542V41.8549C86.9346 42.0322 87.0786 42.1759 87.2562 42.1759H89.4242C89.6019 42.1759 89.7459 42.0322 89.7459 41.8549V33.9542C89.7459 33.7769 89.6019 33.6332 89.4242 33.6332Z" fill="white" stroke="#263238" stroke-opacity="0.91" stroke-miterlimit="10"/>
<path d="M6.0439 49.1057H74.7094V46.8942H3.48828L6.0439 49.1057Z" fill="white" stroke="#263238" stroke-opacity="0.91" stroke-miterlimit="10"/>
<path d="M92.639 47.5826C92.2471 47.8774 91.8763 48.1992 91.5293 48.5456" stroke="#263238" stroke-opacity="0.91" stroke-miterlimit="10"/>
<path d="M107.175 49.7942C105.687 47.7429 103.494 46.3107 101.014 45.7713C98.5348 45.2318 95.943 45.6231 93.7344 46.8701" stroke="#263238" stroke-opacity="0.91" stroke-miterlimit="10"/>
<path d="M72.1106 50.9753H60.8652V56.8411H72.1106V50.9753Z" fill="white" stroke="#263238" stroke-opacity="0.91" stroke-miterlimit="10"/>
<path d="M74.2824 26.1095C74.23 25.9931 74.1477 25.8926 74.0437 25.8183C73.9397 25.7439 73.8179 25.6984 73.6906 25.6863C73.5633 25.6743 73.435 25.6961 73.3189 25.7496C73.2028 25.803 73.1029 25.8862 73.0295 25.9907L72.9652 26.0806C72.9125 26.1559 72.8845 26.2456 72.8848 26.3374V46.0885H74.321V26.2925C74.3211 26.2294 74.3079 26.1671 74.2824 26.1095Z" fill="white" stroke="#263238" stroke-opacity="0.91" stroke-miterlimit="10"/>
<path d="M74.6242 29.722H72.5801V52.1645H74.6242V29.722Z" fill="white" stroke="#263238" stroke-opacity="0.91" stroke-miterlimit="10"/>
<path d="M74.0962 26.9248C74.0962 27.4415 73.8566 27.8604 73.5623 27.8604C73.268 27.8604 73.0283 27.4415 73.0283 26.9248C73.0283 26.408 73.2664 25.9907 73.5623 25.9907C73.8582 25.9907 74.0962 26.4096 74.0962 26.9248Z" fill="#263238" fill-opacity="0.91" stroke="#263238" stroke-opacity="0.91" stroke-miterlimit="10"/>
<path d="M93.4512 41.1134V46.3838" stroke="#263238" stroke-opacity="0.91" stroke-miterlimit="10"/>
<path d="M77.7073 44.6842H76.8243C76.4095 44.6842 76.0732 45.0198 76.0732 45.4337V48.6948C76.0732 49.1087 76.4095 49.4442 76.8243 49.4442H77.7073C78.1221 49.4442 78.4584 49.1087 78.4584 48.6948V45.4337C78.4584 45.0198 78.1221 44.6842 77.7073 44.6842Z" fill="#263238" fill-opacity="0.91" stroke="#263238" stroke-opacity="0.91" stroke-miterlimit="10"/>
<path d="M88.6064 63.5574H111.692" stroke="#263238" stroke-opacity="0.91" stroke-miterlimit="10"/>
<path d="M2.00488 63.5574H87.1332" stroke="#263238" stroke-opacity="0.91" stroke-miterlimit="10"/>
<path d="M10.4814 41.4743C10.4814 41.4743 11.1875 41.9205 11.3596 42.2206C11.5316 42.5207 13.1834 46.3756 13.2477 46.7399C13.3121 47.1042 12.7974 47.7895 12.2602 47.7895C11.723 47.7895 11.1231 46.9758 11.1231 46.9758L10.0713 41.5353C10.0713 41.5353 10.1179 41.3909 10.4814 41.4743Z" fill="white" stroke="#263238" stroke-opacity="0.91" stroke-miterlimit="10"/>
<path d="M12.3877 45.8829C12.6443 46.0669 12.8692 46.2913 13.0535 46.5473L12.3877 45.8829Z" fill="white"/>
<path d="M12.3877 45.8829C12.6443 46.0669 12.8692 46.2913 13.0535 46.5473" stroke="#263238" stroke-opacity="0.91" stroke-miterlimit="10"/>
<path d="M12.9415 46.1622C12.9415 46.1622 12.6408 45.9472 12.4912 45.9905L12.9415 46.1622Z" fill="white"/>
<path d="M12.9415 46.1622C12.9415 46.1622 12.6408 45.9472 12.4912 45.9905" stroke="#263238" stroke-opacity="0.91" stroke-miterlimit="10"/>
<path d="M9.88535 62.6875C9.88535 62.6875 10.2424 63.0711 10.4901 63.3455C10.7378 63.6199 11.3151 63.8944 11.5355 64.0051C11.584 64.0249 11.6273 64.0557 11.6618 64.095C11.6963 64.1344 11.7212 64.1812 11.7345 64.2318C11.7477 64.2824 11.749 64.3354 11.7382 64.3866C11.7274 64.4378 11.7048 64.4857 11.6722 64.5267C11.5355 64.6872 9.55404 64.6631 9.27902 64.6085C9.004 64.554 7.87656 64.5267 7.73986 64.4705C7.60315 64.4143 7.51952 64.0597 7.57903 63.8671C7.63853 63.6745 7.93607 62.6875 7.93607 62.6875H9.88535Z" fill="white" stroke="#263238" stroke-opacity="0.91" stroke-miterlimit="10"/>
<path d="M9.27638 64.6085C9.00135 64.5539 7.87392 64.5266 7.73721 64.4705C7.60051 64.4143 7.54743 64.1768 7.55547 63.989C8.07175 64.1158 9.32462 64.395 10.0741 64.395C10.6949 64.395 11.3608 64.3469 11.7435 64.3148C11.7468 64.3942 11.7204 64.472 11.6696 64.5331C11.5328 64.6903 9.5514 64.6631 9.27638 64.6085Z" fill="white" stroke="#263238" stroke-opacity="0.91" stroke-miterlimit="10"/>
<path d="M10.7355 51.4904C10.7355 51.4904 10.9269 55.5523 10.6792 57.2262C10.4315 58.9 10.0198 61.7198 10.0198 61.7198C10.0771 61.972 10.1046 62.23 10.1018 62.4885C10.0744 62.7629 9.96508 62.7902 9.96508 62.7902C9.96508 62.7902 9.02904 62.9828 8.47899 63.1192C7.92895 63.2556 7.73756 63.1192 7.73756 62.9282C7.73756 62.7373 8.03992 61.0618 7.98524 60.8146C7.93056 60.5675 7.73756 56.2584 7.73756 55.9021C7.73756 55.5459 7.35156 51.8129 7.35156 51.8129L10.7355 51.4904Z" fill="#263238" fill-opacity="0.91" stroke="#263238" stroke-opacity="0.91" stroke-miterlimit="10"/>
<path d="M10.7604 56.3836C10.7411 56.6933 10.7154 56.9742 10.6816 57.2101C10.4816 57.2581 10.2784 57.2925 10.0737 57.3128C9.30305 57.3729 8.52779 57.3034 7.78021 57.1074C7.76735 56.7864 7.75609 56.5136 7.74805 56.3049C9.25826 56.7045 10.2168 56.5697 10.7604 56.3836Z" fill="#6F89F0" stroke="#263238" stroke-opacity="0.91" stroke-miterlimit="10"/>
<path d="M7.67969 55.1447C9.20759 55.578 10.253 55.3517 10.803 55.1318C10.803 55.4127 10.7918 55.6887 10.7821 55.9519C10.4807 56.0434 10.1709 56.1047 9.85735 56.1349C9.14584 56.1961 8.42908 56.1364 7.73759 55.9583V55.9086C7.73759 55.8219 7.71346 55.5314 7.67969 55.1447Z" fill="#6F89F0" stroke="#263238" stroke-opacity="0.91" stroke-miterlimit="10"/>
<path d="M6.93921 62.9073C6.93921 62.9073 7.634 63.5926 7.8463 63.7916C8.0586 63.9906 8.69871 64.2859 8.58934 64.6149C8.47998 64.9439 8.20334 64.9166 8.03929 64.9439C7.87525 64.9712 6.91347 65.0258 6.6095 64.9439C6.30553 64.8621 5.61878 64.8348 5.42578 64.7834C5.23278 64.7321 5.01405 64.509 5.04139 64.3453C5.06873 64.1816 5.26173 63.0823 5.26173 63.0823L6.93921 62.9073Z" fill="white" stroke="#263238" stroke-opacity="0.91" stroke-miterlimit="10"/>
<path d="M8.59962 64.5266C8.59984 64.5543 8.59605 64.5819 8.58836 64.6085C8.47739 64.9375 8.20237 64.9102 8.03832 64.9375C7.87427 64.9647 6.9125 65.0193 6.60852 64.9375C6.30455 64.8556 5.6178 64.8283 5.4248 64.777C5.2318 64.7256 5.01307 64.5025 5.04041 64.3388C5.04041 64.3164 5.05167 64.2746 5.05971 64.2217C5.63481 64.4514 6.23871 64.6015 6.8546 64.6678C7.43964 64.6823 8.02457 64.635 8.59962 64.5266Z" fill="white" stroke="#263238" stroke-opacity="0.91" stroke-miterlimit="10"/>
<path d="M8.8642 52.9989L8.25947 53.851C8.25947 53.851 7.90082 59.2289 7.76411 60.1903C7.6274 61.1516 7.35077 62.6329 7.35077 62.6329C7.35077 62.6329 7.40546 62.9619 7.40546 63.071C7.40424 63.1451 7.39507 63.2188 7.37812 63.2909C7.37812 63.2909 6.389 63.3454 5.94832 63.4C5.66639 63.4282 5.38314 63.3609 5.14416 63.209C5.14416 63.209 5.1715 62.275 5.1715 62.1931C5.1715 62.1113 5.08948 57.5005 5.08948 56.6772C5.08948 55.8539 5.14416 53.851 5.08948 53.575C5.0348 53.299 4.8418 51.7374 4.8418 51.7374L8.86259 51.8979" fill="#263238" fill-opacity="0.91"/>
<path d="M8.8642 52.9989L8.25947 53.851C8.25947 53.851 7.90082 59.2289 7.76411 60.1903C7.6274 61.1516 7.35077 62.6329 7.35077 62.6329C7.35077 62.6329 7.40546 62.9619 7.40546 63.071C7.40424 63.1451 7.39507 63.2188 7.37812 63.2909C7.37812 63.2909 6.389 63.3454 5.94832 63.4C5.66639 63.4282 5.38314 63.3609 5.14416 63.209C5.14416 63.209 5.1715 62.275 5.1715 62.1931C5.1715 62.1113 5.08948 57.5005 5.08948 56.6772C5.08948 55.8539 5.14416 53.851 5.08948 53.575C5.0348 53.299 4.8418 51.7374 4.8418 51.7374L8.86259 51.8979" stroke="#263238" stroke-opacity="0.91" stroke-miterlimit="10"/>
<path d="M6.71909 40.8693L9.85371 41.4727C9.85371 41.4727 10.4874 45.7272 10.7624 47.2919C11.0374 48.8567 11.0374 51.7101 11.0374 51.7101C11.0374 51.7101 10.7624 52.0937 9.30366 52.3136C8.07317 52.4889 6.82461 52.4981 5.59166 52.3408C5.27753 52.2939 4.97195 52.2014 4.68457 52.0664C4.68457 52.0664 4.73925 45.8363 4.73925 45.3147C4.73925 44.7932 5.12364 41.9124 5.42601 41.6653C5.80666 41.3967 6.20183 41.1491 6.60973 40.9238L6.71909 40.8693Z" fill="white" stroke="#263238" stroke-opacity="0.91" stroke-miterlimit="10"/>
<path d="M8.52832 40.972C8.52832 40.972 9.24241 44.2122 9.50457 46.8153C9.76673 49.4184 9.82623 51.4694 9.82623 51.4694C9.82623 51.4694 10.6963 51.4229 11.1402 51.187C11.3966 51.0349 11.6407 50.8632 11.8704 50.6734C11.8704 50.6734 10.862 42.8818 10.7446 42.4693C10.6272 42.0569 10.4792 41.4663 10.4792 41.4663C9.90139 41.0912 9.21546 40.9174 8.52832 40.972Z" fill="#6F89F0" stroke="#263238" stroke-opacity="0.91" stroke-miterlimit="10"/>
<path d="M11.0393 44.4032C11.0795 44.7017 11.1246 45.0211 11.1696 45.3517C10.6871 45.4849 10.0872 45.6325 9.37792 45.7609C9.3361 45.4399 9.28946 45.1286 9.24121 44.8173C9.96817 44.6937 10.5761 44.5332 11.0393 44.4032Z" fill="white" stroke="#263238" stroke-opacity="0.91" stroke-miterlimit="10"/>
<path d="M9.76326 50.0572C9.74718 49.7715 9.72627 49.4505 9.70215 49.1023C10.3515 49.0015 10.9878 48.8304 11.6 48.5919C11.6466 48.9466 11.69 49.2756 11.727 49.5548C11.0908 49.787 10.433 49.9553 9.76326 50.0572Z" fill="white" stroke="#263238" stroke-opacity="0.91" stroke-miterlimit="10"/>
<path d="M10.1849 39.6142C10.1849 39.6142 9.56405 41.2672 9.35657 41.4743C9.1491 41.6813 8.46878 41.4438 8.46878 41.4438C8.46878 41.4438 8.35138 43.2444 8.0844 42.9796C7.81741 42.7148 6.87172 41.0024 6.87172 41.0024L6.84277 40.59L7.0792 39.9705C7.0792 39.9705 6.87172 38.9964 6.96179 38.7893C7.06402 38.628 7.20643 38.4958 7.37513 38.4058C7.37513 38.4058 9.17966 38.6722 9.593 38.6417C9.77156 38.6345 9.94942 38.6152 10.1254 38.5839L10.1849 39.6142Z" fill="white" stroke="#263238" stroke-opacity="0.91" stroke-miterlimit="10"/>
<path d="M7.0168 40.1326L7.07952 39.9721C7.07952 39.9721 6.87205 38.998 6.96211 38.791C7.01554 38.6891 7.0921 38.6012 7.18567 38.5342C7.40949 38.5747 7.63075 38.6283 7.8483 38.6947L7.93676 39.1665C7.93676 39.1665 7.78879 39.6977 7.70033 39.4875C7.61188 39.2772 7.75984 39.0734 7.58293 38.9258C7.40601 38.7781 7.07952 38.7492 7.02001 39.1328C6.96051 39.5164 7.37545 39.9593 7.37545 39.9593C7.2713 40.0445 7.14839 40.1039 7.0168 40.1326Z" fill="#263238" fill-opacity="0.91" stroke="#263238" stroke-opacity="0.91" stroke-miterlimit="10"/>
<path d="M10.3036 38.9948L11.0723 39.6447C10.525 39.7383 9.97104 39.7877 9.41577 39.7924C8.55854 39.7924 7.93612 39.2612 7.73025 39.083C7.52439 38.9049 9.74065 39.29 10.3036 38.9948Z" fill="white" stroke="#263238" stroke-opacity="0.91" stroke-miterlimit="10"/>
<path d="M10.304 38.9948C10.304 38.9948 10.4809 38.0207 10.4809 37.8442C10.4809 37.6676 9.97751 36.87 8.73589 36.87C7.49427 36.87 7.10988 37.52 7.10988 37.52L6.96191 38.7878C6.96191 38.7878 7.49427 39.0767 7.73069 39.0767C7.96711 39.0767 9.59312 39.2019 10.304 38.9948Z" fill="white" stroke="#263238" stroke-opacity="0.91" stroke-miterlimit="10"/>
<path d="M9.53298 39.8807L9.38502 40.7361L8.97168 40.765" fill="white"/>
<path d="M9.53298 39.8807L9.38502 40.7361L8.97168 40.765" stroke="#263238" stroke-opacity="0.91" stroke-miterlimit="10"/>
<path d="M6.84294 40.5885C6.84294 40.5885 7.70017 42.5368 7.75968 44.4546C7.81918 46.3724 8.26308 51.8033 8.26308 51.8033C7.49685 52.0178 6.69728 52.088 5.90529 52.0103C4.69422 51.8627 4.0332 51.2817 4.0332 51.2817C4.0332 51.2817 4.24068 49.3479 4.38864 47.5825C4.53661 45.8172 4.09593 42.4774 4.18117 42.2415C4.26641 42.0056 6.07416 40.7361 6.84294 40.5885Z" fill="#6F89F0" stroke="#263238" stroke-opacity="0.91" stroke-miterlimit="10"/>
<path d="M8.06372 49.2595C8.08945 49.595 8.11358 49.9143 8.13609 50.208C7.95435 50.208 7.76779 50.2176 7.57479 50.2176C6.43459 50.2117 5.29704 50.1075 4.1748 49.9063C4.20215 49.6174 4.23431 49.298 4.26487 48.9642C5.51747 49.1938 6.7906 49.2928 8.06372 49.2595Z" fill="white" stroke="#263238" stroke-opacity="0.91" stroke-miterlimit="10"/>
<path d="M7.78349 45.0276C7.79635 45.3116 7.81565 45.6342 7.83656 45.9793C7.1131 46.0544 6.38626 46.0924 5.6589 46.0932C5.2536 46.0932 4.83597 46.0798 4.40602 46.0531C4.39637 45.7321 4.37867 45.4208 4.35938 45.1046C5.50086 45.1765 6.64641 45.1507 7.78349 45.0276Z" fill="white" stroke="#263238" stroke-opacity="0.91" stroke-miterlimit="10"/>
<path d="M11.4437 45.1752C11.4437 45.1752 11.9375 45.1527 11.9809 45.2811C12.0357 45.3864 12.1173 45.4755 12.2173 45.5395C12.2173 45.5395 12.4103 45.7963 12.3878 45.8814C12.3653 45.9664 11.8941 46.4174 11.7445 46.4382C11.5949 46.4591 10.7361 46.1173 10.7136 45.9889C10.691 45.8605 10.9066 45.4111 10.9709 45.3469C11.121 45.2709 11.2798 45.2133 11.4437 45.1752Z" fill="white" stroke="#263238" stroke-opacity="0.91" stroke-miterlimit="10"/>
<path d="M11.5181 44.7547C11.5307 44.7565 11.5426 44.7614 11.5528 44.7689C11.563 44.7765 11.5711 44.7865 11.5764 44.798C11.5816 44.8095 11.5839 44.8222 11.583 44.8348C11.5821 44.8474 11.5781 44.8596 11.5712 44.8703L11.1868 45.4544H11.1016L11.4409 44.7948C11.4479 44.7809 11.4591 44.7695 11.473 44.7623C11.4868 44.755 11.5027 44.7524 11.5181 44.7547Z" fill="white" stroke="#263238" stroke-opacity="0.91" stroke-miterlimit="10"/>
<path d="M8.84296 46.9181L9.68411 45.4545L12.6032 45.5187L10.6282 47.8971L8.28809 47.8746L8.84296 46.9181Z" fill="#263238" fill-opacity="0.91" stroke="#263238" stroke-opacity="0.91" stroke-miterlimit="10"/>
<path d="M7.50178 47.5665C7.68395 47.3936 7.85479 47.2092 8.01322 47.0144C8.15154 46.8218 8.75948 46.5731 8.78843 46.5329C8.89404 46.4861 9.00548 46.4538 9.11975 46.4366L8.84311 46.9181C8.84311 46.9181 9.13422 47.0561 9.27254 47.1107C9.41085 47.1653 9.9625 47.2214 10.1008 47.2712C10.1272 47.2809 10.1512 47.296 10.1713 47.3156C10.1914 47.3351 10.2072 47.3586 10.2177 47.3846C10.2281 47.4106 10.233 47.4385 10.232 47.4665C10.231 47.4945 10.2241 47.522 10.2118 47.5472C10.17 47.6162 9.86601 47.6018 9.79685 47.6291C9.72769 47.6563 9.52022 47.8634 9.35456 47.95C9.1889 48.0367 8.93961 48.2389 8.69032 48.2261C8.40379 48.2285 8.11761 48.2467 7.83309 48.2806L7.45996 48.3368L7.50178 47.5665Z" fill="white" stroke="#263238" stroke-opacity="0.91" stroke-miterlimit="10"/>
<path d="M7.00488 47.4701L7.51633 47.4283C7.61926 47.6029 7.65794 47.8078 7.62569 48.0077C7.59893 48.1473 7.55236 48.2824 7.48738 48.4089L7.00488 48.449V47.4701Z" fill="white" stroke="#263238" stroke-opacity="0.91" stroke-miterlimit="10"/>
<path d="M4.47683 42.1532C4.47683 42.1532 5.6895 42.5368 5.89698 43.3328C6.10445 44.1288 5.95488 45.517 5.77796 45.8412C5.60105 46.1654 5.48203 46.4318 5.48203 46.4318L5.36462 47.0513C5.36462 47.0513 7.05014 47.2278 7.10965 47.3465C7.16916 47.4653 7.40397 48.3496 6.99063 48.5566C6.5773 48.7636 4.03294 48.6449 3.53114 48.5277C3.02934 48.4106 3.08724 48.2324 3.14675 47.8184C3.20626 47.4043 3.70805 43.068 3.95091 42.6539C4.06067 42.4297 4.24722 42.2521 4.47683 42.1532Z" fill="white" stroke="#263238" stroke-opacity="0.91" stroke-miterlimit="10"/>
<path d="M5.48242 46.4318L5.71884 44.3358" stroke="#263238" stroke-opacity="0.91" stroke-miterlimit="10"/>
<path d="M5.36445 47.0513L4.24023 46.963" stroke="#263238" stroke-opacity="0.91" stroke-miterlimit="10"/>
<path d="M5.09668 56.6227C6.7243 57.1459 7.66999 56.9035 8.0592 56.7286C8.03829 57.0078 8.01739 57.2903 7.99648 57.5679C7.64059 57.6674 7.27238 57.716 6.90282 57.7124C6.29265 57.7039 5.68674 57.6094 5.10311 57.4315C5.10311 57.0913 5.10311 56.8233 5.10311 56.6773L5.09668 56.6227Z" fill="#6F89F0" stroke="#263238" stroke-opacity="0.91" stroke-miterlimit="10"/>
<path d="M8.14605 55.5074C8.12675 55.7706 8.10745 56.053 8.08654 56.3435C7.66816 56.4625 7.23492 56.5214 6.79989 56.5184C6.22277 56.5145 5.64919 56.4281 5.09668 56.2617C5.09668 56.0193 5.09668 55.7417 5.10794 55.4592C6.70017 55.9792 7.74397 55.6775 8.14605 55.5074Z" fill="#6F89F0" stroke="#263238" stroke-opacity="0.91" stroke-miterlimit="10"/>
</g>
<defs>
<clipPath id="clip0_37_13586">
<rect width="117" height="63.8383" fill="white"/>
</clipPath>
</defs>
</svg>
