<svg width="25" height="37" viewBox="0 0 25 37" fill="none" xmlns="http://www.w3.org/2000/svg">
<path d="M16.8146 0H7.9082V2.84508H16.8146V0Z" fill="white"/>
<path d="M18.2545 3.32513C18.2545 3.58995 18.0387 3.80532 17.7753 3.80532H6.94864C6.68382 3.80532 6.46845 3.58995 6.46845 3.32513V1.90259H0V36.973H24.723L24.7235 1.90259H18.2545V3.32513Z" fill="white"/>
<path d="M10.0009 7.60001H13.6331L13.6321 6.46216C13.6321 6.20751 13.4251 6 13.1704 6H10.4612C10.207 6 10 6.20751 10 6.46216H10.0009V7.60001Z" fill="#6F89F0"/>
<path d="M13.6312 9.11446C13.6312 9.10014 13.6335 9.07056 13.6358 9.05669L13.6321 8.56079H10V25.2773H13.6321L13.6312 9.11446Z" fill="#6F89F0"/>
<path d="M11.2257 29.5755C11.2031 29.5565 11.0511 29.4918 10.6785 29.4918C10.5334 29.4918 10.3749 29.502 10.209 29.5209L11.8155 34.6352L13.2449 30.0866C12.9949 30.1361 12.7615 30.1615 12.5498 30.1615C11.7956 30.1624 11.4134 29.8431 11.2257 29.5755Z" fill="#6F89F0"/>
<path d="M12.0118 29.0251C12.18 29.2645 12.8474 29.2544 13.6636 28.9794C13.6432 28.9267 13.6326 28.8685 13.6326 28.8084L13.6321 26.2383H10L10.0009 28.5801C10.2029 28.5533 10.4377 28.5315 10.6752 28.5315C11.3324 28.5315 11.7826 28.6975 12.0118 29.0251Z" fill="#6F89F0"/>
</svg>
